# Blender 3.6.15
# www.blender.org
o low_taper_fade
v 2.055922 0.659163 0.422994
v 1.912221 1.051166 0.481869
v 2.157386 0.497125 -0.003563
v 1.996403 1.073444 -0.049768
v 2.061777 0.505127 -0.716136
v 1.913473 1.076088 -0.703947
v 1.771361 0.641860 -1.411609
v 1.606678 1.148869 -1.306442
v 1.337195 0.677844 -1.887693
v 1.169100 1.156814 -1.751287
v 0.861372 0.684167 -2.175715
v 0.614471 1.115897 -2.050879
v 0.000000 0.660379 -2.350279
v 0.000000 1.107001 -2.153387
v 2.122906 -0.739141 -0.527761
v 1.877721 -1.063495 -0.575206
v 1.665915 -1.257153 -0.670482
v 1.592661 -1.085654 -1.160035
v 1.485957 -1.520274 -0.754020
v 1.303954 -1.153208 -1.593827
v 1.116152 -1.582980 -1.368540
v 0.686308 -1.212814 -2.027974
v 0.598010 -1.640412 -1.729522
v -0.000000 -1.199952 -2.161436
v 0.000000 -1.623634 -1.862521
v 2.102412 0.006169 -0.387026
v 1.955000 -0.274374 -0.846107
v 1.712592 0.209274 -1.609253
v 1.617969 -0.293920 -1.699952
v 1.502345 -0.799813 -1.604418
v 0.969151 0.346745 -2.219953
v 0.962591 -0.243168 -2.241811
v 0.852186 -0.811759 -2.162492
v 0.000000 0.311449 -2.437682
v 0.000000 -0.259573 -2.451345
v -0.000000 -0.805820 -2.336323
v 0.436145 1.811500 1.149749
v -0.000000 1.831503 1.192523
v 0.432674 2.145410 0.442457
v 0.000000 2.166433 0.496627
v 0.445515 2.222230 -0.360450
v 0.000000 2.251645 -0.357057
v 0.439825 2.083230 -0.960844
v -0.000000 2.119761 -0.958379
v 0.000000 1.802911 -1.533862
v 0.000000 1.471438 -1.891191
v 0.549003 1.777202 -1.466929
v 0.599505 1.461192 -1.797703
v 1.659873 1.408952 0.565846
v 1.713252 1.511565 -0.012670
v 1.636868 1.522913 -0.633760
v 1.377162 1.464514 -1.235285
v 1.327706 1.650963 0.732109
v 1.183789 1.869098 0.221390
v 1.139051 1.911379 -0.413285
v 1.005883 1.818502 -1.016196
v 1.150022 -1.803424 -0.958432
v 0.872443 -1.893377 -1.161480
v 0.468943 -1.926436 -1.416083
v -0.000000 -1.925106 -1.519156
v 0.533078 1.483438 1.480193
v -0.000000 1.505333 1.538171
v 1.632958 1.079452 0.969111
v 1.156266 1.367844 1.202911
v 1.900571 0.666788 0.853358
v 2.020945 0.128057 0.723551
v 2.153160 0.208066 0.254978
v 2.199764 0.024600 -0.243284
v 2.194744 -0.659301 -0.375989
v 1.889479 -1.248294 -0.425761
v 1.615567 -1.466452 -0.497134
v 1.434833 -1.701968 -0.562196
v 1.024568 -2.003446 -0.789569
v 0.722191 -2.087350 -0.993398
v 0.402760 -2.107999 -1.185474
v -0.000000 -2.105709 -1.235272
v 1.984103 -0.252820 0.746757
v 2.083606 -0.296031 0.485691
v -2.055922 0.659163 0.422994
v -1.912221 1.051166 0.481869
v -2.157386 0.497125 -0.003563
v -1.996403 1.073444 -0.049768
v -2.061777 0.505127 -0.716136
v -1.913473 1.076088 -0.703947
v -1.771361 0.641860 -1.411609
v -1.606678 1.148869 -1.306442
v -1.337195 0.677844 -1.887693
v -1.169100 1.156814 -1.751287
v -0.861372 0.684167 -2.175715
v -0.614471 1.115897 -2.050879
v -2.122906 -0.739141 -0.527761
v -1.877721 -1.063495 -0.575206
v -1.665915 -1.257153 -0.670482
v -1.592661 -1.085654 -1.160035
v -1.485957 -1.520274 -0.754020
v -1.303953 -1.153208 -1.593827
v -1.116152 -1.582980 -1.368540
v -0.686308 -1.212814 -2.027974
v -0.598010 -1.640412 -1.729522
v -2.102412 0.006169 -0.387026
v -1.955000 -0.274374 -0.846107
v -1.712592 0.209274 -1.609253
v -1.617969 -0.293920 -1.699952
v -1.502345 -0.799813 -1.604418
v -0.969151 0.346745 -2.219953
v -0.962591 -0.243168 -2.241811
v -0.852186 -0.811759 -2.162492
v -0.436145 1.811500 1.149749
v -0.432673 2.145410 0.442457
v -0.445515 2.222230 -0.360450
v -0.439825 2.083230 -0.960844
v -0.549003 1.777202 -1.466929
v -0.599505 1.461192 -1.797703
v -1.659873 1.408952 0.565846
v -1.713252 1.511565 -0.012670
v -1.636868 1.522913 -0.633760
v -1.377162 1.464514 -1.235285
v -1.327706 1.650963 0.732109
v -1.183789 1.869098 0.221390
v -1.139051 1.911379 -0.413285
v -1.005883 1.818502 -1.016196
v -1.150022 -1.803424 -0.958432
v -0.872443 -1.893377 -1.161480
v -0.468943 -1.926436 -1.416083
v -0.533078 1.483438 1.480193
v -1.632958 1.079452 0.969111
v -1.156266 1.367844 1.202911
v -1.900571 0.666788 0.853358
v -2.020945 0.128057 0.723551
v -2.153160 0.208066 0.254978
v -2.199764 0.024600 -0.243284
v -2.194744 -0.659301 -0.375989
v -1.889479 -1.248294 -0.425761
v -1.615567 -1.466452 -0.497134
v -1.434833 -1.701968 -0.562196
v -1.024568 -2.003446 -0.789569
v -0.722191 -2.087350 -0.993398
v -0.402760 -2.107999 -1.185474
v -1.984103 -0.252820 0.746756
v -2.083606 -0.296031 0.485691
v 0.462100 1.254615 1.301016
v 0.000000 1.274788 1.348700
v 1.423890 0.908769 0.846969
v 1.011137 1.155306 1.052827
v 1.652282 0.552242 0.753455
v 1.755773 0.080078 0.642083
v 1.874470 0.149415 0.225383
v 1.921272 -0.024847 -0.184082
v 1.926374 -0.631763 -0.281690
v 1.663488 -1.125838 -0.326580
v 1.403607 -1.326209 -0.405009
v 1.239007 -1.535195 -0.473215
v 0.877479 -1.800210 -0.674975
v 0.615645 -1.871259 -0.853355
v 0.343931 -1.885052 -1.023223
v 0.000000 -1.880429 -1.066799
v 1.721883 -0.261325 0.662644
v 1.813747 -0.301218 0.421620
v -0.462100 1.254615 1.301016
v -1.423890 0.908769 0.846969
v -1.011137 1.155306 1.052827
v -1.652282 0.552242 0.753455
v -1.755773 0.080078 0.642083
v -1.874470 0.149415 0.225383
v -1.921272 -0.024847 -0.184082
v -1.926374 -0.631763 -0.281690
v -1.663488 -1.125838 -0.326580
v -1.403607 -1.326209 -0.405009
v -1.239007 -1.535195 -0.473215
v -0.877479 -1.800210 -0.674975
v -0.615645 -1.871259 -0.853355
v -0.343931 -1.885052 -1.023223
v -1.721883 -0.261325 0.662644
v -1.813747 -0.301218 0.421620
v 0.000000 0.855892 -1.271459
vn 0.8749 0.3983 0.2757
vn 0.9475 0.2091 0.2418
vn 0.9850 0.1722 -0.0104
vn 0.9119 0.4101 0.0137
vn 0.9570 0.1119 -0.2677
vn 0.8795 0.4119 -0.2385
vn 0.8312 0.2368 -0.5030
vn 0.7188 0.4940 -0.4892
vn 0.6283 0.2696 -0.7297
vn 0.4984 0.5550 -0.6660
vn 0.3603 0.2976 -0.8841
vn 0.2736 0.5148 -0.8125
vn -0.0000 0.2983 -0.9545
vn -0.0000 0.4844 -0.8749
vn 0.8028 -0.4076 -0.4351
vn 0.7441 -0.5363 -0.3983
vn 0.7538 -0.5618 -0.3408
vn 0.7863 -0.4742 -0.3960
vn 0.6002 -0.6218 -0.5031
vn 0.6593 -0.4864 -0.5734
vn 0.3173 -0.6658 -0.6753
vn 0.3463 -0.4945 -0.7972
vn -0.0000 -0.6671 -0.7450
vn -0.0000 -0.4863 -0.8738
vn 0.8479 -0.1994 -0.4911
vn 0.9094 -0.1239 -0.3971
vn 0.9421 0.0216 -0.3346
vn 0.8259 0.0268 -0.5632
vn 0.4394 0.0999 -0.8927
vn -0.0000 0.1209 -0.9927
vn 0.7888 -0.1402 -0.5985
vn 0.4407 -0.0973 -0.8924
vn -0.0000 -0.0816 -0.9967
vn 0.7627 -0.3232 -0.5603
vn 0.4129 -0.3158 -0.8543
vn -0.0000 -0.2907 -0.9568
vn -0.0000 0.8214 0.5703
vn 0.2319 0.8132 0.5338
vn 0.2258 0.9431 0.2440
vn -0.0000 0.9602 0.2792
vn 0.2310 0.9707 -0.0658
vn -0.0000 0.9982 -0.0608
vn 0.2320 0.9058 -0.3545
vn -0.0000 0.9341 -0.3571
vn -0.0000 0.6600 -0.7513
vn 0.2846 0.6807 -0.6750
vn 0.2584 0.7941 -0.5501
vn -0.0000 0.8039 -0.5947
vn 0.7318 0.6799 0.0456
vn 0.7256 0.6072 0.3237
vn 0.4847 0.8612 0.1528
vn 0.5312 0.7429 0.4074
vn 0.6973 0.6893 -0.1967
vn 0.4838 0.8693 -0.1015
vn 0.5484 0.6911 -0.4709
vn 0.4599 0.7997 -0.3859
vn 0.6405 -0.6636 -0.3866
vn 0.4918 -0.7282 -0.4774
vn 0.2583 -0.7761 -0.5753
vn -0.0000 -0.7883 -0.6153
vn 0.2733 0.0795 0.9586
vn 0.4335 0.0896 0.8967
vn 0.4881 0.0672 0.8702
vn -0.0000 0.0783 0.9969
vn 0.5111 -0.0072 0.8595
vn 0.5583 -0.0252 0.8293
vn 0.9594 -0.2809 0.0257
vn 0.9539 -0.2204 0.2039
vn 0.9382 -0.1961 0.2852
vn 0.6966 -0.6451 0.3141
vn 0.6284 -0.6735 0.3892
vn 0.5330 -0.7393 0.4115
vn 0.2728 -0.9191 0.2842
vn 0.0732 -0.9868 0.1443
vn 0.0288 -0.9981 0.0542
vn -0.0000 -0.9943 0.1068
vn 0.3432 -0.5077 0.7902
vn 0.6768 -0.7059 -0.2088
vn -0.8749 0.3983 0.2757
vn -0.9119 0.4101 0.0137
vn -0.9850 0.1722 -0.0104
vn -0.9475 0.2091 0.2418
vn -0.8795 0.4119 -0.2385
vn -0.9570 0.1119 -0.2677
vn -0.7188 0.4940 -0.4892
vn -0.8312 0.2368 -0.5030
vn -0.4984 0.5550 -0.6660
vn -0.6283 0.2696 -0.7297
vn -0.2736 0.5148 -0.8125
vn -0.3603 0.2976 -0.8841
vn -0.8028 -0.4076 -0.4351
vn -0.7863 -0.4742 -0.3960
vn -0.7538 -0.5618 -0.3408
vn -0.7441 -0.5363 -0.3983
vn -0.6593 -0.4864 -0.5734
vn -0.6002 -0.6218 -0.5031
vn -0.3463 -0.4945 -0.7972
vn -0.3173 -0.6658 -0.6753
vn -0.8479 -0.1994 -0.4911
vn -0.9421 0.0216 -0.3346
vn -0.9094 -0.1239 -0.3971
vn -0.8259 0.0268 -0.5632
vn -0.4394 0.0999 -0.8927
vn -0.7888 -0.1402 -0.5985
vn -0.4407 -0.0973 -0.8924
vn -0.7627 -0.3232 -0.5603
vn -0.4129 -0.3158 -0.8543
vn -0.2258 0.9431 0.2440
vn -0.2319 0.8132 0.5338
vn -0.2310 0.9707 -0.0658
vn -0.2320 0.9058 -0.3545
vn -0.2846 0.6807 -0.6750
vn -0.2584 0.7941 -0.5501
vn -0.7256 0.6072 0.3237
vn -0.7318 0.6799 0.0456
vn -0.5312 0.7429 0.4074
vn -0.4847 0.8612 0.1528
vn -0.6973 0.6893 -0.1967
vn -0.4838 0.8693 -0.1015
vn -0.5484 0.6911 -0.4709
vn -0.4599 0.7997 -0.3859
vn -0.6405 -0.6636 -0.3866
vn -0.4918 -0.7282 -0.4774
vn -0.2583 -0.7761 -0.5753
vn -0.4335 0.0896 0.8967
vn -0.2733 0.0795 0.9586
vn -0.4881 0.0672 0.8702
vn -0.5111 -0.0072 0.8595
vn -0.5583 -0.0252 0.8293
vn -0.9594 -0.2809 0.0257
vn -0.9539 -0.2204 0.2039
vn -0.9382 -0.1961 0.2852
vn -0.6966 -0.6451 0.3141
vn -0.6284 -0.6735 0.3892
vn -0.5330 -0.7393 0.4115
vn -0.2728 -0.9191 0.2842
vn -0.0732 -0.9868 0.1443
vn -0.0288 -0.9981 0.0542
vn -0.6768 -0.7059 -0.2088
vn -0.3432 -0.5077 0.7902
vn -0.0000 -0.8535 0.5211
vn 0.0489 -0.8510 0.5229
vn -0.0525 -0.8332 0.5504
vn -0.3316 -0.6468 0.6868
vn -0.4821 -0.3887 0.7852
vn -0.5273 -0.0746 0.8464
vn 0.2110 -0.8562 -0.4716
vn -0.1946 -0.6243 0.7566
vn -0.0297 -0.1160 0.9928
vn -0.0596 -0.1579 0.9857
vn -0.1792 -0.1531 0.9718
vn -0.2222 -0.2407 0.9448
vn -0.3704 -0.3310 0.8679
vn -0.4698 -0.3453 0.8125
vn -0.3166 -0.3268 0.8905
vn -0.0000 -0.2873 0.9578
vn -0.5034 -0.5961 0.6254
vn -0.0398 -0.9106 -0.4115
vn -0.0489 -0.8510 0.5229
vn 0.3316 -0.6468 0.6868
vn 0.0525 -0.8332 0.5504
vn 0.4821 -0.3887 0.7852
vn 0.5273 -0.0746 0.8464
vn 0.1946 -0.6243 0.7566
vn -0.2110 -0.8562 -0.4716
vn 0.0297 -0.1160 0.9928
vn 0.0596 -0.1579 0.9857
vn 0.1792 -0.1531 0.9718
vn 0.2222 -0.2407 0.9448
vn 0.3704 -0.3310 0.8679
vn 0.4698 -0.3453 0.8125
vn 0.3166 -0.3268 0.8905
vn 0.0398 -0.9106 -0.4115
vn 0.5034 -0.5961 0.6254
vn -0.0000 -0.5874 0.8093
vt 0.379451 0.830444
vt 0.391679 0.814301
vt 0.406199 0.821020
vt 0.395124 0.839726
vt 0.427869 0.833988
vt 0.415538 0.854079
vt 0.452156 0.856672
vt 0.435915 0.875728
vt 0.475876 0.878135
vt 0.457946 0.898654
vt 0.499539 0.901572
vt 0.481535 0.933181
vt 0.549516 0.953266
vt 0.507474 0.977661
vt 0.454335 0.773532
vt 0.449122 0.751197
vt 0.480331 0.749861
vt 0.482686 0.776908
vt 0.516107 0.746988
vt 0.513137 0.780503
vt 0.561597 0.746099
vt 0.562489 0.786043
vt 0.614184 0.741681
vt 0.619411 0.791040
vt 0.428668 0.773792
vt 0.448419 0.806739
vt 0.425542 0.809011
vt 0.471398 0.845229
vt 0.510967 0.880929
vt 0.574594 0.930423
vt 0.489513 0.826064
vt 0.531833 0.849350
vt 0.603435 0.882341
vt 0.500741 0.799891
vt 0.549605 0.815199
vt 0.617410 0.830827
vt 0.310498 0.844202
vt 0.324433 0.844125
vt 0.328844 0.872853
vt 0.310498 0.872952
vt 0.342726 0.914580
vt 0.310498 0.933318
vt 0.375449 0.942188
vt 0.354780 0.975727
vt 0.467163 0.991370
vt 0.453699 0.941587
vt 0.420620 0.945380
vt 0.419011 0.995434
vt 0.383310 0.853934
vt 0.368884 0.839910
vt 0.367836 0.862015
vt 0.355699 0.844760
vt 0.401743 0.870546
vt 0.385397 0.881898
vt 0.424245 0.890762
vt 0.407408 0.902808
vt 0.487264 0.717550
vt 0.518867 0.714275
vt 0.556909 0.710009
vt 0.599379 0.699062
s 1
f 2/1/1 1/2/2 3/3/3 4/4/4
f 4/4/4 3/3/3 5/5/5 6/6/6
f 6/6/6 5/5/5 7/7/7 8/8/8
f 8/8/8 7/7/7 9/9/9 10/10/10
f 10/10/10 9/9/9 11/11/11 12/12/12
f 12/12/12 11/11/11 13/13/13 14/14/14
f 16/15/15 17/16/16 19/17/17 18/18/18
f 18/18/18 19/17/17 21/19/19 20/20/20
f 20/20/20 21/19/19 23/21/21 22/22/22
f 22/22/22 23/21/21 25/23/23 24/24/24
f 15/25/25 16/15/15 27/26/26 26/27/27
f 26/27/27 27/26/26 5/5/5 3/3/3
f 5/5/5 28/28/28 9/9/9 7/7/7
f 28/28/28 31/29/29 11/11/11 9/9/9
f 31/29/29 34/30/30 13/13/13 11/11/11
f 27/26/26 29/31/31 28/28/28 5/5/5
f 29/31/31 32/32/32 31/29/29 28/28/28
f 32/32/32 35/33/33 34/30/30 31/29/29
f 16/15/15 30/34/34 29/31/31 27/26/26
f 30/34/34 33/35/35 32/32/32 29/31/31
f 33/35/35 36/36/36 35/33/33 32/32/32
f 18/18/18 20/20/20 30/34/34 16/15/15
f 20/20/20 22/22/22 33/35/35 30/34/34
f 22/22/22 24/24/24 36/36/36 33/35/35
f 38/37/37 37/38/38 39/39/39 40/40/40
f 40/40/40 39/39/39 41/41/41 42/42/42
f 42/42/42 41/41/41 43/43/43 44/44/44
f 46/45/45 48/46/46 12/12/12 14/14/14
f 44/44/44 43/43/43 47/47/47 45/48/48
f 45/48/48 47/47/47 48/46/46 46/45/45
f 4/4/4 50/49/49 49/50/50 2/1/1
f 50/49/49 54/51/51 53/52/52 49/50/50
f 54/51/51 39/39/39 37/38/38 53/52/52
f 6/6/6 51/53/53 50/49/49 4/4/4
f 51/53/53 55/54/54 54/51/51 50/49/49
f 55/54/54 41/41/41 39/39/39 54/51/51
f 8/8/8 52/55/55 51/53/53 6/6/6
f 52/55/55 56/56/56 55/54/54 51/53/53
f 56/56/56 43/43/43 41/41/41 55/54/54
f 10/10/10 12/12/12 52/55/55 8/8/8
f 12/12/12 48/46/46 56/56/56 52/55/55
f 48/46/46 47/47/47 43/43/43 56/56/56
f 57/57/57 58/58/58 21/19/19 19/17/17
f 58/58/58 59/59/59 23/21/21 21/19/19
f 59/59/59 60/60/60 25/23/23 23/21/21
f 53/52/52 37/38/38 61/38/61 64/52/62
f 49/50/50 53/52/52 64/52/62 63/50/63
f 37/38/38 38/37/37 62/37/64 61/38/61
f 63/50/63 65/50/65 2/1/1 49/50/50
f 65/50/65 66/50/66 1/2/2 2/1/1
f 66/50/66 67/50/67 3/3/3 1/2/2
f 67/50/67 68/50/68 26/27/27 3/3/3
f 68/50/68 69/50/69 15/25/25 26/27/27
f 69/50/69 70/50/70 16/15/15 15/25/25
f 70/50/70 71/50/71 17/16/16 16/15/15
f 71/50/71 72/50/72 19/17/17 17/16/16
f 72/50/72 73/50/73 57/57/57 19/17/17
f 73/50/73 74/50/74 58/58/58 57/57/57
f 74/50/74 75/50/75 59/59/59 58/58/58
f 75/50/75 76/50/76 60/60/60 59/59/59
f 67/50/67 66/50/66 77/50/77 78/50/78
f 80/1/79 82/4/80 81/3/81 79/2/82
f 82/4/80 84/6/83 83/5/84 81/3/81
f 84/6/83 86/8/85 85/7/86 83/5/84
f 86/8/85 88/10/87 87/9/88 85/7/86
f 88/10/87 90/12/89 89/11/90 87/9/88
f 90/12/89 14/14/14 13/13/13 89/11/90
f 92/15/91 94/18/92 95/17/93 93/16/94
f 94/18/92 96/20/95 97/19/96 95/17/93
f 96/20/95 98/22/97 99/21/98 97/19/96
f 98/22/97 24/24/24 25/23/23 99/21/98
f 91/25/99 100/27/100 101/26/101 92/15/91
f 100/27/100 81/3/81 83/5/84 101/26/101
f 83/5/84 85/7/86 87/9/88 102/28/102
f 102/28/102 87/9/88 89/11/90 105/29/103
f 105/29/103 89/11/90 13/13/13 34/30/30
f 101/26/101 83/5/84 102/28/102 103/31/104
f 103/31/104 102/28/102 105/29/103 106/32/105
f 106/32/105 105/29/103 34/30/30 35/33/33
f 92/15/91 101/26/101 103/31/104 104/34/106
f 104/34/106 103/31/104 106/32/105 107/35/107
f 107/35/107 106/32/105 35/33/33 36/36/36
f 94/18/92 92/15/91 104/34/106 96/20/95
f 96/20/95 104/34/106 107/35/107 98/22/97
f 98/22/97 107/35/107 36/36/36 24/24/24
f 38/37/37 40/40/40 109/39/108 108/38/109
f 40/40/40 42/42/42 110/41/110 109/39/108
f 42/42/42 44/44/44 111/43/111 110/41/110
f 46/45/45 14/14/14 90/12/89 113/46/112
f 44/44/44 45/48/48 112/47/113 111/43/111
f 45/48/48 46/45/45 113/46/112 112/47/113
f 82/4/80 80/1/79 114/50/114 115/49/115
f 115/49/115 114/50/114 118/52/116 119/51/117
f 119/51/117 118/52/116 108/38/109 109/39/108
f 84/6/83 82/4/80 115/49/115 116/53/118
f 116/53/118 115/49/115 119/51/117 120/54/119
f 120/54/119 119/51/117 109/39/108 110/41/110
f 86/8/85 84/6/83 116/53/118 117/55/120
f 117/55/120 116/53/118 120/54/119 121/56/121
f 121/56/121 120/54/119 110/41/110 111/43/111
f 88/10/87 86/8/85 117/55/120 90/12/89
f 90/12/89 117/55/120 121/56/121 113/46/112
f 113/46/112 121/56/121 111/43/111 112/47/113
f 122/57/122 95/17/93 97/19/96 123/58/123
f 123/58/123 97/19/96 99/21/98 124/59/124
f 124/59/124 99/21/98 25/23/23 60/60/60
f 118/52/116 127/52/125 125/38/126 108/38/109
f 114/50/114 126/50/127 127/52/125 118/52/116
f 108/38/109 125/38/126 62/37/64 38/37/37
f 126/50/127 114/50/114 80/1/79 128/50/128
f 128/50/128 80/1/79 79/2/82 129/50/129
f 129/50/129 79/2/82 81/3/81 130/50/130
f 130/50/130 81/3/81 100/27/100 131/50/131
f 131/50/131 100/27/100 91/25/99 132/50/132
f 132/50/132 91/25/99 92/15/91 133/50/133
f 133/50/133 92/15/91 93/16/94 134/50/134
f 134/50/134 93/16/94 95/17/93 135/50/135
f 135/50/135 95/17/93 122/57/122 136/50/136
f 136/50/136 122/57/122 123/58/123 137/50/137
f 137/50/137 123/58/123 124/59/124 138/50/138
f 138/50/138 124/59/124 60/60/60 76/50/76
f 130/50/130 140/50/139 139/50/140 129/50/129
f 61/38/61 62/37/64 142/37/141 141/38/142
f 63/50/63 64/52/62 144/52/143 143/50/144
f 64/52/62 61/38/61 141/38/142 144/52/143
f 65/50/65 63/50/63 143/50/144 145/50/145
f 66/50/66 65/50/65 145/50/145 146/50/146
f 68/50/68 67/50/67 147/50/147 148/50/148
f 69/50/69 68/50/68 148/50/148 149/50/149
f 70/50/70 69/50/69 149/50/149 150/50/150
f 71/50/71 70/50/70 150/50/150 151/50/151
f 72/50/72 71/50/71 151/50/151 152/50/152
f 73/50/73 72/50/72 152/50/152 153/50/153
f 74/50/74 73/50/73 153/50/153 154/50/154
f 75/50/75 74/50/74 154/50/154 155/50/155
f 76/50/76 75/50/75 155/50/155 156/50/156
f 78/50/78 77/50/77 157/50/157 158/50/158
f 77/50/77 66/50/66 146/50/146 157/50/157
f 67/50/67 78/50/78 158/50/158 147/50/147
f 62/37/64 125/38/126 159/38/159 142/37/141
f 127/52/125 126/50/127 160/50/160 161/52/161
f 125/38/126 127/52/125 161/52/161 159/38/159
f 126/50/127 128/50/128 162/50/162 160/50/160
f 128/50/128 129/50/129 163/50/163 162/50/162
f 130/50/130 131/50/131 165/50/164 164/50/165
f 131/50/131 132/50/132 166/50/166 165/50/164
f 132/50/132 133/50/133 167/50/167 166/50/166
f 133/50/133 134/50/134 168/50/168 167/50/167
f 134/50/134 135/50/135 169/50/169 168/50/168
f 135/50/135 136/50/136 170/50/170 169/50/169
f 136/50/136 137/50/137 171/50/171 170/50/170
f 137/50/137 138/50/138 172/50/172 171/50/171
f 138/50/138 76/50/76 156/50/156 172/50/172
f 139/50/140 140/50/139 174/50/173 173/50/174
f 129/50/129 139/50/140 173/50/174 163/50/163
f 140/50/139 130/50/130 164/50/165 174/50/173
f 159/38/159 161/52/161 175/38/175
f 149/50/149 148/50/148 175/50/175
f 174/50/173 164/50/165 175/50/175
f 160/50/160 162/50/162 175/50/175
f 150/50/150 149/50/149 175/50/175
f 162/50/162 163/50/163 175/50/175
f 151/50/151 150/50/150 175/50/175
f 164/50/165 165/50/164 175/50/175
f 152/50/152 151/50/151 175/50/175
f 165/50/164 166/50/166 175/50/175
f 153/50/153 152/50/152 175/50/175
f 166/50/166 167/50/167 175/50/175
f 154/50/154 153/50/153 175/50/175
f 167/50/167 168/50/168 175/50/175
f 155/50/155 154/50/154 175/50/175
f 168/50/168 169/50/169 175/50/175
f 156/50/156 155/50/155 175/50/175
f 141/38/142 142/37/141 175/38/175
f 169/50/169 170/50/170 175/50/175
f 158/50/158 157/50/157 175/50/175
f 143/50/144 144/52/143 175/50/175
f 170/50/170 171/50/171 175/50/175
f 157/50/157 146/50/146 175/50/175
f 144/52/143 141/38/142 175/52/175
f 171/50/171 172/50/172 175/50/175
f 147/50/147 158/50/158 175/50/175
f 145/50/145 143/50/144 175/50/175
f 172/50/172 156/50/156 175/50/175
f 142/37/141 159/38/159 175/37/175
f 146/50/146 145/50/145 175/50/175
f 173/50/174 174/50/173 175/50/175
f 161/52/161 160/50/160 175/52/175
f 148/50/148 147/50/147 175/50/175
f 163/50/163 173/50/174 175/50/175
