# Blender 3.6.15
# www.blender.org
o Cylinder
v 1.286421 0.174395 -2.494463
v 1.243940 -0.167749 -1.719431
v 1.235445 -0.274970 -1.321759
v 1.208495 0.441307 -1.185595
v 1.286420 0.866458 -0.551568
v 1.286420 0.921393 0.410118
v 1.286420 0.841481 0.946623
v 0.970073 0.750568 1.352169
v 1.385432 1.688743 1.878001
v 1.286421 2.398861 1.628057
v 1.286421 2.933436 0.667693
v 1.286421 2.950131 -0.477979
v 1.286421 2.788241 -1.448213
v 1.286421 2.232497 -1.995120
v 1.286421 1.679482 -2.433305
v 1.286421 0.856253 -2.446916
v 0.000000 0.019027 -2.648085
v 0.000000 -0.487984 -1.747502
v 0.000000 0.065086 -1.506089
v 0.000000 0.914823 -1.319021
v 0.000000 1.279493 -0.551568
v 0.000000 1.334427 0.410118
v 0.000000 1.054806 1.192418
v 0.000000 0.833406 1.783649
v 0.000000 1.733406 2.233686
v 0.000000 2.811896 1.628057
v 0.000000 3.346470 0.667693
v 0.000000 3.363165 -0.477979
v 0.000000 3.201275 -1.448213
v 0.000000 2.630169 -2.133380
v 0.000000 2.061792 -2.694463
v 0.000000 1.084940 -2.861696
v 1.347042 0.383963 -2.196560
v 1.511485 0.783408 -1.481374
v 1.476257 1.245328 -0.415562
v 1.382131 1.412803 0.867558
v 1.385553 1.294344 -2.018655
v 1.509654 1.837328 -1.270125
v 1.685730 2.025391 -0.166306
v 1.555616 2.064202 1.071100
v -1.286421 0.174395 -2.494463
v -1.243940 -0.167749 -1.719431
v -1.235445 -0.274970 -1.321759
v -1.208495 0.441307 -1.185595
v -1.286420 0.866458 -0.551568
v -1.286420 0.921393 0.410118
v -1.286420 0.841481 0.946623
v -0.970073 0.750568 1.352169
v -1.385432 1.688743 1.878001
v -1.286421 2.398861 1.628057
v -1.286421 2.933436 0.667693
v -1.286421 2.950131 -0.477979
v -1.286421 2.788241 -1.448213
v -1.286421 2.232497 -1.995120
v -1.286421 1.679482 -2.433305
v -1.286421 0.856253 -2.446916
v -1.347042 0.383963 -2.196560
v -1.511485 0.783408 -1.481374
v -1.476257 1.245328 -0.415562
v -1.382131 1.412803 0.867558
v -1.385553 1.294344 -2.018655
v -1.509654 1.837328 -1.270125
v -1.685730 2.025391 -0.166306
v -1.555616 2.064202 1.071100
vn -0.0000 -0.5733 -0.8193
vn 0.6341 -0.4354 -0.6390
vn 0.6837 -0.7297 -0.0020
vn -0.0000 -0.9988 0.0485
vn 0.3757 -0.5767 0.7255
vn -0.0000 -0.5112 0.8595
vn 0.4869 -0.5821 0.6513
vn -0.0000 -0.6279 0.7783
vn 0.4113 -0.8611 0.2988
vn -0.0000 -0.9608 0.2772
vn 0.4902 -0.8711 0.0308
vn -0.0000 -0.9949 -0.1011
vn 0.5529 -0.8332 0.0052
vn -0.0000 -0.9479 -0.3186
vn 0.3472 -0.9189 0.1871
vn -0.0000 -0.8797 0.4755
vn 0.7071 -0.0906 0.7013
vn -0.0000 -0.0298 0.9996
vn 0.5827 0.5540 0.5946
vn -0.0000 0.7173 0.6968
vn 0.6470 0.7340 0.2064
vn -0.0000 0.9690 0.2471
vn 0.6874 0.7228 -0.0717
vn -0.0000 0.9973 -0.0740
vn 0.6650 0.6536 -0.3613
vn -0.0000 0.9087 -0.4174
vn 0.7139 0.4671 -0.5217
vn -0.0000 0.7056 -0.7086
vn 0.6965 0.2578 -0.6696
vn -0.0000 0.4319 -0.9019
vn 0.7234 0.0077 -0.6904
vn -0.0000 0.0128 -0.9999
vn 0.9897 -0.1032 -0.0987
vn 0.9783 0.0538 -0.2001
vn 0.9830 -0.1836 0.0091
vn 0.9862 0.0909 -0.1384
vn 0.9574 -0.2806 0.0682
vn 0.9977 0.0671 0.0131
vn 0.9438 -0.2976 0.1438
vn 0.9864 0.0460 0.1581
vn -0.6837 -0.7297 -0.0020
vn -0.6341 -0.4354 -0.6390
vn -0.3757 -0.5767 0.7255
vn -0.4869 -0.5821 0.6513
vn -0.4113 -0.8611 0.2988
vn -0.4902 -0.8711 0.0308
vn -0.5529 -0.8332 0.0052
vn -0.3472 -0.9189 0.1871
vn -0.7071 -0.0906 0.7013
vn -0.5827 0.5540 0.5946
vn -0.6470 0.7340 0.2064
vn -0.6874 0.7228 -0.0717
vn -0.6650 0.6536 -0.3613
vn -0.7139 0.4671 -0.5217
vn -0.6965 0.2578 -0.6696
vn -0.7234 0.0077 -0.6904
vn -0.9897 -0.1032 -0.0987
vn -0.9783 0.0538 -0.2001
vn -0.9830 -0.1836 0.0091
vn -0.9862 0.0909 -0.1384
vn -0.9574 -0.2806 0.0682
vn -0.9977 0.0671 0.0131
vn -0.9438 -0.2976 0.1438
vn -0.9864 0.0460 0.1581
vt 1.000000 0.750000
vt 1.000000 1.000000
vt 0.937500 1.000000
vt 0.937500 0.750000
vt 0.875000 1.000000
vt 0.875000 0.750000
vt 0.812500 1.000000
vt 0.812500 0.750000
vt 0.750000 1.000000
vt 0.750000 0.750000
vt 0.687500 1.000000
vt 0.687500 0.750000
vt 0.625000 1.000000
vt 0.625000 0.750000
vt 0.562500 1.000000
vt 0.562500 0.750000
vt 0.500000 1.000000
vt 0.500000 0.750000
vt 0.437500 1.000000
vt 0.437500 0.750000
vt 0.375000 1.000000
vt 0.375000 0.750000
vt 0.312500 1.000000
vt 0.312500 0.750000
vt 0.250000 1.000000
vt 0.250000 0.750000
vt 0.187500 1.000000
vt 0.187500 0.750000
vt 0.125000 1.000000
vt 0.125000 0.750000
vt 0.062500 1.000000
vt 0.062500 0.750000
vt 0.000000 1.000000
vt 0.000000 0.750000
vt 0.800872 1.000000
vt 0.261628 1.000000
vt 0.335756 1.000000
vt 0.721154 1.000000
vt 0.341346 1.000000
vt 0.432692 1.000000
vt 0.668269 1.000000
vt 0.394231 1.000000
vt 0.475962 1.000000
vt 0.622093 1.000000
vt 0.440407 1.000000
vt 0.505814 1.000000
s 1
f 17/1/1 1/2/2 2/3/3 18/4/4
f 18/4/4 2/3/3 3/5/5 19/6/6
f 19/6/6 3/5/5 4/7/7 20/8/8
f 20/8/8 4/7/7 5/9/9 21/10/10
f 21/10/10 5/9/9 6/11/11 22/12/12
f 22/12/12 6/11/11 7/13/13 23/14/14
f 23/14/14 7/13/13 8/15/15 24/16/16
f 24/16/16 8/15/15 9/17/17 25/18/18
f 25/18/18 9/17/17 10/19/19 26/20/20
f 26/20/20 10/19/19 11/21/21 27/22/22
f 27/22/22 11/21/21 12/23/23 28/24/24
f 28/24/24 12/23/23 13/25/25 29/26/26
f 29/26/26 13/25/25 14/27/27 30/28/28
f 30/28/28 14/27/27 15/29/29 31/30/30
f 31/30/30 15/29/29 16/31/31 32/32/32
f 32/32/32 16/31/31 1/33/2 17/34/1
f 2/3/3 1/2/2 33/35/33 3/5/5
f 1/33/2 16/31/31 37/36/34 33/37/33
f 16/31/31 15/29/29 14/27/27 37/36/34
f 3/5/5 33/35/33 34/38/35 4/7/7
f 33/37/33 37/36/34 38/39/36 34/40/35
f 37/36/34 14/27/27 13/25/25 38/39/36
f 4/7/7 34/38/35 35/41/37 5/9/9
f 34/40/35 38/39/36 39/42/38 35/43/37
f 38/39/36 13/25/25 12/23/23 39/42/38
f 5/9/9 35/41/37 36/44/39 6/11/11
f 35/43/37 39/42/38 40/45/40 36/46/39
f 39/42/38 12/23/23 11/21/21 40/45/40
f 6/11/11 36/44/39 8/15/15 7/13/13
f 36/46/39 40/45/40 9/17/17 8/15/15
f 40/45/40 11/21/21 10/19/19 9/17/17
f 17/1/1 18/4/4 42/3/41 41/2/42
f 18/4/4 19/6/6 43/5/43 42/3/41
f 19/6/6 20/8/8 44/7/44 43/5/43
f 20/8/8 21/10/10 45/9/45 44/7/44
f 21/10/10 22/12/12 46/11/46 45/9/45
f 22/12/12 23/14/14 47/13/47 46/11/46
f 23/14/14 24/16/16 48/15/48 47/13/47
f 24/16/16 25/18/18 49/17/49 48/15/48
f 25/18/18 26/20/20 50/19/50 49/17/49
f 26/20/20 27/22/22 51/21/51 50/19/50
f 27/22/22 28/24/24 52/23/52 51/21/51
f 28/24/24 29/26/26 53/25/53 52/23/52
f 29/26/26 30/28/28 54/27/54 53/25/53
f 30/28/28 31/30/30 55/29/55 54/27/54
f 31/30/30 32/32/32 56/31/56 55/29/55
f 32/32/32 17/34/1 41/33/42 56/31/56
f 42/3/41 43/5/43 57/35/57 41/2/42
f 41/33/42 57/37/57 61/36/58 56/31/56
f 56/31/56 61/36/58 54/27/54 55/29/55
f 43/5/43 44/7/44 58/38/59 57/35/57
f 57/37/57 58/40/59 62/39/60 61/36/58
f 61/36/58 62/39/60 53/25/53 54/27/54
f 44/7/44 45/9/45 59/41/61 58/38/59
f 58/40/59 59/43/61 63/42/62 62/39/60
f 62/39/60 63/42/62 52/23/52 53/25/53
f 45/9/45 46/11/46 60/44/63 59/41/61
f 59/43/61 60/46/63 64/45/64 63/42/62
f 63/42/62 64/45/64 51/21/51 52/23/52
f 46/11/46 47/13/47 48/15/48 60/44/63
f 60/46/63 48/15/48 49/17/49 64/45/64
f 64/45/64 49/17/49 50/19/50 51/21/51
