# Blender 3.6.15
# www.blender.org
o space_buns
v 2.094033 0.652878 0.444706
v 1.947670 1.052148 0.504671
v 2.197379 0.487837 0.010242
v 2.099997 0.495986 -0.715541
v 0.877340 0.678346 -2.202177
v 0.625861 1.118079 -2.075028
v 0.000000 0.729148 -2.273101
v 0.000000 1.241277 -2.015497
v 2.162260 -0.771347 -0.523674
v 1.912529 -1.101714 -0.571999
v 1.696797 -1.298961 -0.669041
v 1.622185 -1.124284 -1.167670
v 1.513504 -1.566960 -0.754128
v 1.328126 -1.193090 -1.609503
v 1.136842 -1.630829 -1.380040
v 0.699031 -1.253801 -2.051698
v 0.609096 -1.689325 -1.747713
v 0.000000 -1.184142 -2.105434
v 0.000000 -1.591018 -1.798954
v 2.141385 -0.012221 -0.380330
v 1.991241 -0.297965 -0.847922
v 1.744339 0.194650 -1.625214
v 1.647962 -0.317873 -1.717595
v 1.530195 -0.833144 -1.620290
v 0.987117 0.334669 -2.247235
v 0.980435 -0.266180 -2.269499
v 0.867984 -0.845312 -2.188709
v 0.000000 0.320553 -2.366400
v 0.000000 -0.282883 -2.357850
v 0.000000 -0.846756 -2.241175
v 0.444230 1.826576 1.184933
v 0.000000 1.722659 1.228500
v 0.440694 2.166676 0.464530
v 0.000000 2.063799 0.519703
v 0.453773 2.244921 -0.353261
v 0.000000 2.150590 -0.349806
v 0.447978 2.103344 -0.964785
v 0.000000 2.162386 -0.718462
v 0.000000 1.839662 -1.304614
v 0.000000 1.591983 -1.684382
v 0.559180 1.791643 -1.480252
v 0.610618 1.469775 -1.817158
v 1.690644 1.416567 0.590206
v 1.352318 1.663064 0.759551
v 1.171340 -1.855360 -0.962329
v 0.888616 -1.946980 -1.169141
v 0.477636 -1.980652 -1.428464
v 0.000000 -1.896863 -1.490414
v 0.542960 1.492433 1.521503
v 0.000000 1.390443 1.580555
v 1.663230 1.080958 1.000946
v 1.177700 1.374697 1.239080
v 1.935803 0.660644 0.883047
v 2.058409 0.111927 0.750834
v 2.193074 0.193418 0.273575
v 2.240543 0.006552 -0.233924
v 2.235429 -0.690027 -0.369089
v 1.924505 -1.289939 -0.419783
v 1.645516 -1.512141 -0.492479
v 1.461431 -1.752023 -0.558748
v 1.043561 -2.059089 -0.790335
v 0.735579 -2.144549 -0.997943
v 0.410226 -2.165581 -1.193580
v 0.000000 -2.121394 -1.200829
v 2.020883 -0.276011 0.774470
v 2.122231 -0.320023 0.508565
v 0.470666 1.259368 1.339004
v 0.000000 1.279916 1.387572
v 1.450286 0.907112 0.876540
v 1.029881 1.158219 1.086214
v 1.682912 0.543975 0.781293
v 1.788321 0.063058 0.667855
v 1.909218 0.133680 0.243431
v 1.956888 -0.043812 -0.173625
v 1.962084 -0.661978 -0.273041
v 1.694325 -1.165212 -0.318764
v 1.429626 -1.369298 -0.398647
v 1.261976 -1.582158 -0.468117
v 0.893745 -1.852086 -0.673617
v 0.627057 -1.924452 -0.855304
v 0.350307 -1.938500 -1.028321
v 0.000000 -1.933792 -1.072704
v 1.753803 -0.284673 0.688798
v 1.847370 -0.325306 0.443307
v 0.000000 0.853254 -1.281158
v 0.712175 2.027180 -0.789575
v 0.841173 1.769140 -1.228768
v 0.703278 2.132063 -0.362292
v 1.116713 1.455020 -1.417681
v 1.299096 1.211749 -1.607009
v 1.532074 0.962381 -1.545897
v 1.820411 0.705325 -1.324367
v 2.019702 0.663957 -0.812415
v 2.054559 0.832062 -0.375411
v 2.030947 1.062274 -0.082659
v 1.837080 1.355667 0.059751
v 0.846235 2.049771 -0.196270
v 1.225680 1.871833 0.039134
v 1.536380 1.649470 0.152531
v 0.693622 2.400786 -0.829692
v 0.789442 2.056567 -1.491331
v 0.831926 2.448445 -0.350615
v 1.188585 1.686034 -1.893705
v 1.634234 1.208794 -1.988260
v 1.921223 0.893347 -1.820306
v 2.285692 0.716437 -1.432112
v 2.410343 0.693749 -0.950596
v 2.456400 0.854260 -0.523527
v 2.394039 1.219357 -0.161063
v 2.229925 1.537300 0.007442
v 1.079464 2.314006 -0.011053
v 1.446298 2.121551 0.148951
v 1.866605 1.854991 0.148484
v 2.723978 2.654896 -0.861849
v 2.514710 2.661722 -1.010537
v 2.799109 2.493015 -1.099068
v 2.570448 2.586580 -1.155209
v 2.347205 2.724386 -1.175717
v 2.399562 2.646363 -1.319391
v 2.528072 2.837490 -0.801498
v 2.290227 2.916244 -1.019432
v 2.701570 2.493607 -1.395465
v 2.480365 2.579015 -1.591068
v 2.155311 2.897446 -1.322103
v 2.243411 2.801566 -1.522801
v 2.790257 2.448715 -1.280905
v 2.632870 2.757961 -0.755425
v 2.167978 2.948143 -1.151127
v 2.340194 2.691158 -1.631812
v 2.802728 2.520034 -0.524618
v 2.955805 2.261064 -0.841924
v 2.393375 2.875553 -0.571598
v 2.199535 3.017044 -0.804545
v 2.755106 2.181855 -1.622113
v 2.515662 2.335853 -1.795346
v 1.934869 2.944824 -1.351299
v 1.993896 2.781596 -1.722726
v 2.955834 2.128823 -1.253005
v 2.626685 2.698205 -0.509270
v 1.929062 3.021833 -1.123644
v 2.266214 2.490214 -1.938719
v 2.478046 1.815527 -0.068212
v 2.752676 2.164728 -0.207796
v 1.394779 2.024356 -2.078427
v 1.683116 2.407008 -2.064303
v 1.151770 2.738714 -0.309153
v 2.651185 1.026498 -1.281749
v 2.789401 1.158072 -0.798752
v 2.763542 1.443946 -0.326956
v 2.316506 1.069265 -1.885426
v 1.854315 1.465361 -2.194864
v 2.079234 2.112620 0.092092
v 1.629710 2.471688 0.090646
v 0.938513 2.710820 -0.946358
v 1.001674 2.404215 -1.635247
v 3.040994 1.863522 -0.515038
v 3.051828 1.669348 -0.923951
v 2.865037 1.651256 -1.482805
v 2.553587 1.753516 -1.870370
v 2.108926 2.070551 -2.216935
v 2.442877 2.438843 -0.103581
v 2.059712 2.765496 -0.068645
v 1.665405 3.056664 -0.501285
v 1.376240 2.971788 -1.101599
v 1.440576 2.732165 -1.638079
v -2.094033 0.652878 0.444706
v -1.947670 1.052148 0.504671
v -2.197379 0.487837 0.010242
v -2.099997 0.495986 -0.715541
v -0.877340 0.678346 -2.202177
v -0.625861 1.118079 -2.075028
v -2.162260 -0.771347 -0.523674
v -1.912529 -1.101714 -0.571999
v -1.696797 -1.298961 -0.669041
v -1.622185 -1.124284 -1.167670
v -1.513504 -1.566960 -0.754128
v -1.328126 -1.193090 -1.609503
v -1.136842 -1.630829 -1.380040
v -0.699031 -1.253801 -2.051698
v -0.609096 -1.689325 -1.747713
v -2.141385 -0.012221 -0.380330
v -1.991241 -0.297965 -0.847922
v -1.744339 0.194650 -1.625214
v -1.647962 -0.317873 -1.717595
v -1.530195 -0.833144 -1.620290
v -0.987117 0.334669 -2.247235
v -0.980435 -0.266180 -2.269499
v -0.867984 -0.845312 -2.188709
v -0.444230 1.826576 1.184933
v -0.440694 2.166676 0.464530
v -0.453773 2.244921 -0.353261
v -0.447978 2.103344 -0.964785
v -0.559180 1.791643 -1.480252
v -0.610618 1.469775 -1.817158
v -1.690644 1.416567 0.590206
v -1.352318 1.663064 0.759551
v -1.171340 -1.855360 -0.962329
v -0.888616 -1.946980 -1.169141
v -0.477636 -1.980652 -1.428464
v -0.542960 1.492433 1.521503
v -1.663230 1.080958 1.000946
v -1.177700 1.374697 1.239080
v -1.935803 0.660644 0.883047
v -2.058409 0.111927 0.750834
v -2.193074 0.193418 0.273575
v -2.240543 0.006552 -0.233924
v -2.235429 -0.690027 -0.369089
v -1.924505 -1.289939 -0.419783
v -1.645516 -1.512141 -0.492479
v -1.461431 -1.752023 -0.558748
v -1.043561 -2.059089 -0.790335
v -0.735579 -2.144549 -0.997943
v -0.410226 -2.165581 -1.193580
v -2.020883 -0.276011 0.774470
v -2.122231 -0.320023 0.508565
v -0.470666 1.259368 1.339004
v -1.450286 0.907112 0.876540
v -1.029881 1.158219 1.086214
v -1.682912 0.543975 0.781293
v -1.788321 0.063058 0.667855
v -1.909218 0.133680 0.243431
v -1.956888 -0.043812 -0.173625
v -1.962084 -0.661978 -0.273041
v -1.694325 -1.165212 -0.318764
v -1.429626 -1.369298 -0.398647
v -1.261976 -1.582158 -0.468117
v -0.893745 -1.852086 -0.673617
v -0.627057 -1.924452 -0.855304
v -0.350307 -1.938500 -1.028321
v -1.753803 -0.284673 0.688798
v -1.847370 -0.325306 0.443307
v -0.712175 2.027180 -0.789575
v -0.841173 1.769140 -1.228768
v -0.703278 2.132063 -0.362292
v -1.116713 1.455020 -1.417681
v -1.299096 1.211749 -1.607009
v -1.532074 0.962381 -1.545897
v -1.820411 0.705325 -1.324367
v -2.019702 0.663957 -0.812415
v -2.054559 0.832062 -0.375411
v -2.030947 1.062274 -0.082659
v -1.837080 1.355667 0.059751
v -0.846235 2.049771 -0.196270
v -1.225680 1.871833 0.039134
v -1.536380 1.649470 0.152531
v -0.693622 2.400786 -0.829692
v -0.789442 2.056567 -1.491331
v -0.831926 2.448445 -0.350615
v -1.188585 1.686034 -1.893705
v -1.634234 1.208794 -1.988260
v -1.921223 0.893347 -1.820306
v -2.285692 0.716437 -1.432112
v -2.410343 0.693749 -0.950596
v -2.456400 0.854260 -0.523527
v -2.394039 1.219357 -0.161063
v -2.229925 1.537300 0.007442
v -1.079464 2.314006 -0.011053
v -1.446298 2.121551 0.148951
v -1.866605 1.854991 0.148484
v -2.723978 2.654896 -0.861849
v -2.514710 2.661722 -1.010537
v -2.799109 2.493015 -1.099068
v -2.570448 2.586580 -1.155209
v -2.347205 2.724386 -1.175717
v -2.399562 2.646363 -1.319391
v -2.528072 2.837490 -0.801498
v -2.290227 2.916244 -1.019432
v -2.701570 2.493607 -1.395465
v -2.480365 2.579015 -1.591068
v -2.155311 2.897446 -1.322103
v -2.243411 2.801566 -1.522801
v -2.790257 2.448715 -1.280905
v -2.632870 2.757961 -0.755425
v -2.167978 2.948143 -1.151127
v -2.340194 2.691158 -1.631812
v -2.802728 2.520034 -0.524618
v -2.955805 2.261064 -0.841924
v -2.393375 2.875553 -0.571598
v -2.199535 3.017044 -0.804545
v -2.755106 2.181855 -1.622113
v -2.515662 2.335853 -1.795346
v -1.934869 2.944824 -1.351299
v -1.993896 2.781596 -1.722726
v -2.955834 2.128823 -1.253005
v -2.626685 2.698205 -0.509270
v -1.929062 3.021833 -1.123644
v -2.266214 2.490214 -1.938719
v -2.478046 1.815527 -0.068212
v -2.752676 2.164728 -0.207796
v -1.394779 2.024356 -2.078427
v -1.683116 2.407008 -2.064303
v -1.151770 2.738714 -0.309153
v -2.651185 1.026498 -1.281749
v -2.789401 1.158072 -0.798752
v -2.763542 1.443946 -0.326956
v -2.316506 1.069265 -1.885426
v -1.854315 1.465361 -2.194864
v -2.079234 2.112620 0.092092
v -1.629710 2.471688 0.090646
v -0.938513 2.710820 -0.946358
v -1.001674 2.404215 -1.635247
v -3.040994 1.863522 -0.515038
v -3.051828 1.669348 -0.923951
v -2.865037 1.651256 -1.482805
v -2.553587 1.753516 -1.870370
v -2.108926 2.070551 -2.216935
v -2.442877 2.438843 -0.103581
v -2.059712 2.765496 -0.068645
v -1.665405 3.056664 -0.501285
v -1.376240 2.971788 -1.101599
v -1.440576 2.732165 -1.638079
vn 0.2268 0.5154 -0.8264
vn 0.3601 0.3210 -0.8760
vn -0.0000 0.2943 -0.9557
vn -0.0000 0.5378 -0.8431
vn 0.8028 -0.4076 -0.4351
vn 0.7441 -0.5363 -0.3983
vn 0.7538 -0.5618 -0.3408
vn 0.7863 -0.4742 -0.3960
vn 0.6002 -0.6218 -0.5031
vn 0.6593 -0.4864 -0.5734
vn 0.2376 -0.6724 -0.7011
vn 0.2724 -0.4961 -0.8244
vn -0.0000 -0.6479 -0.7618
vn -0.0000 -0.4645 -0.8855
vn 0.8479 -0.1994 -0.4911
vn 0.9094 -0.1239 -0.3971
vn 0.9421 0.0216 -0.3346
vn 0.9648 0.0923 -0.2462
vn 0.9845 0.1739 -0.0220
vn 0.4138 0.1459 -0.8986
vn -0.0000 0.1020 -0.9948
vn 0.7888 -0.1402 -0.5985
vn 0.8072 0.0719 -0.5859
vn 0.3882 -0.1010 -0.9160
vn -0.0000 -0.0843 -0.9964
vn 0.7627 -0.3232 -0.5603
vn 0.3565 -0.3092 -0.8817
vn -0.0000 -0.2656 -0.9641
vn -0.0000 0.8060 0.5919
vn 0.1111 0.8264 0.5520
vn 0.1001 0.9635 0.2482
vn -0.0000 0.9581 0.2866
vn 0.1378 0.9898 -0.0371
vn -0.0000 0.9999 -0.0173
vn 0.1458 0.9179 -0.3691
vn -0.0000 0.9644 -0.2645
vn -0.0000 0.7279 -0.6857
vn 0.2278 0.6973 -0.6797
vn 0.2058 0.8074 -0.5530
vn -0.0000 0.8307 -0.5567
vn 0.6405 -0.6636 -0.3866
vn 0.4918 -0.7282 -0.4774
vn 0.1732 -0.7719 -0.6117
vn -0.0000 -0.7484 -0.6632
vn 0.5264 0.7595 0.3820
vn 0.1665 0.7336 0.6589
vn 0.4883 0.6617 0.5689
vn 0.7182 0.6212 0.3134
vn 0.7255 0.4905 0.4828
vn -0.0000 0.7132 0.7010
vn 0.8869 0.2783 0.3688
vn 0.8639 0.4260 0.2686
vn 0.9540 0.0601 0.2938
vn 0.9486 0.2266 0.2208
vn 0.9821 0.0977 0.1608
vn 0.9531 0.1394 -0.2687
vn 0.8659 -0.0556 -0.4972
vn 0.6989 -0.5032 -0.5083
vn 0.7629 -0.5113 -0.3957
vn 0.7410 -0.5873 -0.3256
vn 0.5920 -0.7015 -0.3967
vn 0.4416 -0.7563 -0.4827
vn 0.1627 -0.7957 -0.5834
vn -0.0000 -0.7842 -0.6205
vn 0.9531 -0.0281 0.3013
vn 0.1721 -0.6952 0.6979
vn -0.0000 -0.7501 0.6613
vn -0.0000 -0.8962 0.4436
vn 0.0697 -0.8734 0.4820
vn -0.0828 -0.4985 0.8629
vn 0.1234 -0.6273 0.7689
vn -0.0525 -0.8332 0.5504
vn -0.3316 -0.6468 0.6868
vn -0.2213 -0.3308 0.9174
vn -0.4821 -0.3887 0.7852
vn -0.2758 -0.1129 0.9546
vn -0.5273 -0.0746 0.8464
vn 0.1957 -0.9053 0.3769
vn -0.1178 -0.9250 0.3612
vn -0.1745 -0.9187 0.3543
vn 0.2818 -0.1996 0.9385
vn 0.2726 -0.1690 0.9472
vn 0.2829 -0.2033 0.9374
vn 0.2116 -0.3396 0.9165
vn 0.1970 -0.3577 0.9128
vn 0.1185 -0.4187 0.9004
vn -0.1792 -0.1531 0.9718
vn 0.0236 -0.4595 0.8879
vn -0.2222 -0.2407 0.9448
vn -0.2024 -0.5871 0.7838
vn -0.3704 -0.3310 0.8679
vn -0.3505 -0.6211 0.7010
vn -0.4698 -0.3453 0.8125
vn -0.2482 -0.6091 0.7532
vn -0.3128 -0.3222 0.8935
vn -0.0000 -0.5864 0.8100
vn -0.0000 -0.2772 0.9608
vn -0.0182 -0.9875 0.1565
vn -0.2417 -0.9680 0.0681
vn -0.2819 -0.9581 0.0511
vn -0.3069 0.0875 0.9477
vn -0.5011 0.1015 0.8594
vn 0.2001 -0.4226 -0.8839
vn 0.3105 -0.4198 -0.8528
vn 0.3453 -0.4177 -0.8404
vn -0.4440 0.0211 0.8958
vn -0.5351 -0.1385 0.8333
vn -0.0000 0.0286 0.9996
vn -0.3764 0.1219 0.9184
vn -0.0000 -0.8782 0.4782
vn -0.5040 -0.8623 -0.0494
vn 0.4727 -0.4046 -0.7829
vn -0.5268 -0.8021 0.2812
vn 0.4168 0.8648 -0.2801
vn 0.4615 0.7602 -0.4573
vn 0.4109 0.9109 -0.0367
vn 0.4543 0.6588 -0.5997
vn 0.4809 0.5155 -0.7092
vn 0.6075 0.3179 -0.7279
vn 0.8169 0.1864 -0.5458
vn 0.9387 0.1816 -0.2931
vn 0.9570 0.2789 -0.0803
vn 0.9360 0.3439 0.0753
vn 0.8339 0.5337 0.1407
vn 0.6558 0.7388 0.1554
vn 0.4681 0.8710 0.1492
vn 0.4143 0.9026 0.1171
vn -0.9100 -0.3328 -0.2475
vn -0.9995 -0.0241 -0.0197
vn -0.9385 0.3436 -0.0334
vn -0.9054 -0.0182 -0.4242
vn -0.8993 0.2020 0.3879
vn -0.6542 0.1275 0.7455
vn -0.5003 0.2787 0.8198
vn -0.7943 0.4541 0.4037
vn 0.2873 -0.7950 0.5343
vn 0.1112 -0.9830 0.1459
vn 0.4482 -0.8930 0.0409
vn 0.5223 -0.7507 0.4045
vn -0.4245 -0.7750 -0.4682
vn -0.6783 -0.5457 -0.4921
vn -0.4090 -0.5296 -0.7432
vn -0.0712 -0.7756 -0.6272
vn -0.3635 -0.0485 0.9303
vn -0.2039 0.1390 0.9691
vn 0.3269 -0.4835 0.8120
vn 0.4849 -0.4407 0.7554
vn -0.0302 -0.0904 0.9954
vn 0.1310 -0.0379 0.9907
vn 0.2221 -0.2295 0.9476
vn 0.3423 -0.1855 0.9211
vn -0.1307 -0.9554 -0.2648
vn 0.2968 -0.8923 -0.3401
vn -0.7791 -0.4733 -0.4111
vn -0.6984 -0.2648 -0.6649
vn 0.5317 0.7374 -0.4166
vn 0.6884 0.6980 -0.1972
vn 0.7186 0.6716 -0.1804
vn 0.4513 0.8601 -0.2378
vn 0.5862 0.8032 -0.1061
vn 0.6601 0.6962 -0.2821
vn 0.5560 0.7794 -0.2888
vn 0.5720 0.8010 -0.1766
vn 0.6379 0.7028 -0.3149
vn 0.6452 0.6809 -0.3466
vn 0.4927 0.8248 -0.2774
vn 0.4608 0.8416 -0.2816
vn 0.7393 0.6245 -0.2518
vn 0.6370 0.7678 -0.0685
vn 0.4649 0.8331 -0.2996
vn 0.5678 0.7343 -0.3720
vn 0.6859 0.3426 -0.6420
vn 0.4240 0.5257 -0.7375
vn 0.0817 0.8015 -0.5924
vn 0.0413 0.9166 -0.3977
vn 0.7980 0.5051 0.3288
vn 0.9355 0.3513 0.0385
vn 0.0640 0.9707 -0.2315
vn 0.2829 0.9583 0.0398
vn 0.7982 0.2318 -0.5559
vn 0.9354 0.2223 -0.2749
vn 0.4506 0.8378 0.3082
vn 0.6281 0.6690 0.3973
vn -0.4799 0.7310 0.4851
vn 0.7723 -0.5634 -0.2935
vn 0.8386 -0.5299 0.1263
vn 0.7199 -0.3456 0.6019
vn 0.4719 -0.0722 0.8787
vn -0.4643 0.1215 -0.8773
vn -0.0126 -0.2505 -0.9680
vn 0.4903 -0.5003 -0.7136
vn -0.6843 0.7218 -0.1037
vn -0.6829 0.4516 -0.5743
vn 0.2618 0.1006 0.9599
vn -0.0714 0.4364 0.8969
vn 0.6769 0.1914 0.7108
vn 0.9253 -0.0286 0.3781
vn 0.9785 -0.1970 -0.0612
vn 0.8652 -0.1947 -0.4620
vn 0.6713 -0.0970 -0.7348
vn 0.2583 0.1666 -0.9516
vn -0.2008 0.4996 -0.8426
vn 0.4635 0.3761 0.8023
vn 0.2012 0.6483 0.7344
vn -0.1335 0.9421 0.3075
vn -0.3542 0.9149 -0.1937
vn -0.3598 0.7550 -0.5481
vn -0.2268 0.5154 -0.8264
vn -0.3601 0.3210 -0.8760
vn -0.8028 -0.4076 -0.4351
vn -0.7863 -0.4742 -0.3960
vn -0.7538 -0.5618 -0.3408
vn -0.7441 -0.5363 -0.3983
vn -0.6593 -0.4864 -0.5734
vn -0.6002 -0.6218 -0.5031
vn -0.2724 -0.4961 -0.8244
vn -0.2376 -0.6724 -0.7011
vn -0.8479 -0.1994 -0.4911
vn -0.9421 0.0216 -0.3346
vn -0.9094 -0.1239 -0.3971
vn -0.9845 0.1739 -0.0220
vn -0.9648 0.0923 -0.2462
vn -0.4138 0.1459 -0.8986
vn -0.8072 0.0719 -0.5859
vn -0.7888 -0.1402 -0.5985
vn -0.3882 -0.1010 -0.9160
vn -0.7627 -0.3232 -0.5603
vn -0.3565 -0.3092 -0.8817
vn -0.1001 0.9635 0.2482
vn -0.1111 0.8264 0.5520
vn -0.1378 0.9898 -0.0371
vn -0.1458 0.9179 -0.3691
vn -0.2278 0.6973 -0.6797
vn -0.2058 0.8074 -0.5530
vn -0.6405 -0.6636 -0.3866
vn -0.4918 -0.7282 -0.4774
vn -0.1732 -0.7719 -0.6117
vn -0.5264 0.7595 0.3820
vn -0.4883 0.6617 0.5689
vn -0.1665 0.7336 0.6589
vn -0.7182 0.6212 0.3134
vn -0.7255 0.4905 0.4828
vn -0.8639 0.4260 0.2686
vn -0.8869 0.2783 0.3688
vn -0.9486 0.2266 0.2208
vn -0.9540 0.0601 0.2938
vn -0.9821 0.0977 0.1608
vn -0.9531 0.1394 -0.2687
vn -0.8659 -0.0556 -0.4972
vn -0.6989 -0.5032 -0.5083
vn -0.7629 -0.5113 -0.3957
vn -0.7410 -0.5873 -0.3256
vn -0.5920 -0.7015 -0.3967
vn -0.4416 -0.7563 -0.4827
vn -0.1627 -0.7957 -0.5834
vn -0.9531 -0.0281 0.3013
vn -0.1721 -0.6952 0.6979
vn -0.0697 -0.8734 0.4820
vn 0.0828 -0.4985 0.8629
vn 0.3316 -0.6468 0.6868
vn 0.0525 -0.8332 0.5504
vn -0.1234 -0.6273 0.7689
vn 0.2213 -0.3308 0.9174
vn 0.4821 -0.3887 0.7852
vn 0.2758 -0.1129 0.9546
vn 0.5273 -0.0746 0.8464
vn -0.1957 -0.9053 0.3769
vn 0.1745 -0.9187 0.3543
vn 0.1178 -0.9250 0.3612
vn -0.2818 -0.1996 0.9385
vn -0.2829 -0.2033 0.9374
vn -0.2726 -0.1690 0.9472
vn -0.2116 -0.3396 0.9165
vn -0.1970 -0.3577 0.9128
vn -0.1185 -0.4187 0.9004
vn 0.1792 -0.1531 0.9718
vn -0.0236 -0.4595 0.8879
vn 0.2222 -0.2407 0.9448
vn 0.2024 -0.5871 0.7838
vn 0.3704 -0.3310 0.8679
vn 0.3505 -0.6211 0.7010
vn 0.4698 -0.3453 0.8125
vn 0.2482 -0.6091 0.7532
vn 0.3128 -0.3222 0.8935
vn 0.0182 -0.9875 0.1565
vn 0.2819 -0.9581 0.0511
vn 0.2417 -0.9680 0.0681
vn 0.3069 0.0875 0.9477
vn 0.5011 0.1015 0.8594
vn -0.2001 -0.4226 -0.8839
vn -0.3453 -0.4177 -0.8404
vn -0.3105 -0.4198 -0.8528
vn 0.4440 0.0211 0.8958
vn 0.5351 -0.1385 0.8333
vn 0.3764 0.1219 0.9184
vn 0.5040 -0.8623 -0.0494
vn -0.4727 -0.4046 -0.7829
vn 0.5268 -0.8021 0.2812
vn -0.4615 0.7602 -0.4573
vn -0.4168 0.8648 -0.2801
vn -0.4109 0.9109 -0.0367
vn -0.4543 0.6588 -0.5997
vn -0.4809 0.5155 -0.7092
vn -0.6075 0.3179 -0.7279
vn -0.8169 0.1864 -0.5458
vn -0.9387 0.1816 -0.2931
vn -0.9570 0.2789 -0.0803
vn -0.9360 0.3439 0.0753
vn -0.8339 0.5337 0.1407
vn -0.6558 0.7388 0.1554
vn -0.4681 0.8710 0.1492
vn -0.4143 0.9026 0.1171
vn 0.9100 -0.3328 -0.2475
vn 0.9054 -0.0182 -0.4242
vn 0.9385 0.3436 -0.0334
vn 0.9995 -0.0241 -0.0197
vn 0.8993 0.2020 0.3879
vn 0.7943 0.4541 0.4037
vn 0.5003 0.2787 0.8198
vn 0.6542 0.1275 0.7455
vn -0.2873 -0.7950 0.5343
vn -0.5223 -0.7507 0.4045
vn -0.4482 -0.8930 0.0409
vn -0.1112 -0.9830 0.1459
vn 0.4245 -0.7750 -0.4682
vn 0.0712 -0.7756 -0.6272
vn 0.4090 -0.5296 -0.7432
vn 0.6783 -0.5457 -0.4921
vn 0.2039 0.1390 0.9691
vn 0.3635 -0.0485 0.9303
vn -0.3269 -0.4835 0.8120
vn -0.4849 -0.4407 0.7554
vn -0.1310 -0.0379 0.9907
vn 0.0302 -0.0904 0.9954
vn -0.2221 -0.2295 0.9476
vn -0.3423 -0.1855 0.9211
vn 0.1307 -0.9554 -0.2648
vn -0.2968 -0.8923 -0.3401
vn 0.7791 -0.4733 -0.4111
vn 0.6984 -0.2648 -0.6649
vn -0.5317 0.7374 -0.4166
vn -0.4513 0.8601 -0.2378
vn -0.7186 0.6716 -0.1804
vn -0.6884 0.6980 -0.1972
vn -0.6601 0.6962 -0.2821
vn -0.5862 0.8032 -0.1061
vn -0.5720 0.8010 -0.1766
vn -0.5560 0.7794 -0.2888
vn -0.6452 0.6809 -0.3466
vn -0.6379 0.7028 -0.3149
vn -0.4608 0.8416 -0.2816
vn -0.4927 0.8248 -0.2774
vn -0.7393 0.6245 -0.2518
vn -0.6370 0.7678 -0.0685
vn -0.4649 0.8331 -0.2996
vn -0.5678 0.7343 -0.3720
vn -0.4240 0.5257 -0.7375
vn -0.6859 0.3426 -0.6420
vn -0.0413 0.9166 -0.3977
vn -0.0817 0.8015 -0.5924
vn -0.9355 0.3513 0.0385
vn -0.7980 0.5051 0.3288
vn -0.2829 0.9583 0.0398
vn -0.0640 0.9707 -0.2315
vn -0.7982 0.2318 -0.5559
vn -0.9354 0.2223 -0.2749
vn -0.4506 0.8378 0.3082
vn -0.6281 0.6690 0.3973
vn 0.4799 0.7310 0.4851
vn -0.7723 -0.5634 -0.2935
vn -0.8386 -0.5299 0.1263
vn -0.7199 -0.3456 0.6019
vn -0.4719 -0.0722 0.8787
vn 0.4643 0.1215 -0.8773
vn 0.0126 -0.2505 -0.9680
vn -0.4903 -0.5003 -0.7136
vn 0.6843 0.7218 -0.1037
vn 0.6829 0.4516 -0.5743
vn -0.2618 0.1006 0.9599
vn 0.0714 0.4364 0.8969
vn -0.6769 0.1914 0.7108
vn -0.9253 -0.0286 0.3781
vn -0.9785 -0.1970 -0.0612
vn -0.8652 -0.1947 -0.4620
vn -0.6713 -0.0970 -0.7348
vn -0.2583 0.1666 -0.9516
vn 0.2008 0.4996 -0.8426
vn -0.4635 0.3761 0.8023
vn -0.2012 0.6483 0.7344
vn 0.1335 0.9421 0.3075
vn 0.3542 0.9149 -0.1937
vn 0.3598 0.7550 -0.5481
vt 0.418998 0.867345
vt 0.382787 0.817242
vt 0.328327 0.919700
vt 0.409159 0.954276
vt 0.372894 0.512826
vt 0.338093 0.510897
vt 0.299439 0.505135
vt 0.325281 0.570397
vt 0.243438 0.566912
vt 0.281908 0.611301
vt 0.180512 0.609213
vt 0.212365 0.664417
vt 0.107619 0.648098
vt 0.137339 0.715216
vt 0.417825 0.523406
vt 0.433973 0.588895
vt 0.504428 0.563216
vt 0.518842 0.641838
vt 0.595738 0.584531
vt 0.356228 0.784418
vt 0.276368 0.886539
vt 0.365703 0.669201
vt 0.415790 0.694826
vt 0.304711 0.740850
vt 0.212017 0.826224
vt 0.322774 0.630469
vt 0.253777 0.697847
vt 0.162206 0.759957
vt 0.902779 0.825792
vt 0.852582 0.788145
vt 0.771169 0.845795
vt 0.811409 0.892404
vt 0.678388 0.886932
vt 0.700369 0.946120
vt 0.602638 0.906696
vt 0.648003 0.961574
vt 0.480740 0.969975
vt 0.470402 0.883410
vt 0.526966 0.896660
vt 0.549320 0.974249
vt 0.244320 0.513283
vt 0.205935 0.530221
vt 0.153691 0.560021
vt 0.090562 0.586235
vt 0.752604 0.716766
vt 0.887718 0.740135
vt 0.817496 0.684944
vt 0.714609 0.679453
vt 0.758642 0.629158
vt 0.952419 0.774652
vt 0.719607 0.574141
vt 0.685686 0.633506
vt 0.684225 0.507454
vt 0.659476 0.585301
vt 0.613062 0.526983
vt 0.523768 0.545281
vt 0.436221 0.511432
vt 0.366734 0.487359
vt 0.324893 0.478083
vt 0.287320 0.476789
vt 0.225507 0.485860
vt 0.184275 0.500675
vt 0.140713 0.521889
vt 0.082204 0.531665
vt 0.674087 0.471530
vt 0.654124 0.473494
vt 0.967808 0.746896
vt 0.912684 0.707789
vt 0.844138 0.653623
vt 0.789411 0.600768
vt 0.751449 0.549311
vt 0.716694 0.484490
vt 0.592789 0.483706
vt 0.527356 0.501734
vt 0.444981 0.475329
vt 0.370867 0.453612
vt 0.325029 0.441630
vt 0.286986 0.442699
vt 0.219582 0.450183
vt 0.172592 0.463310
vt 0.126468 0.482401
vt 0.074416 0.497652
vt 0.686717 0.445628
vt 0.648949 0.441630
vt 0.141981 0.830187
vt 0.154305 0.845910
vt 0.115466 0.899101
vt 0.125490 0.821812
vt 0.114322 0.821797
vt 0.105399 0.820017
vt 0.089185 0.822063
vt 0.079685 0.827211
vt 0.071492 0.834009
vt 0.063103 0.841849
vt 0.175840 0.942590
vt 0.165892 0.954233
vt 0.181964 0.859366
vt 0.188203 0.865368
vt 0.186521 0.907059
vt 0.182567 0.923725
vt 0.188711 0.876744
vt 0.167332 0.852368
vt 0.189238 0.893088
vt 0.613693 0.867454
vt 0.551577 0.857464
vt 0.665405 0.856012
vt 0.513365 0.819511
vt 0.480257 0.796058
vt 0.471930 0.759216
vt 0.477568 0.711660
vt 0.521715 0.666776
vt 0.576257 0.652542
vt 0.619783 0.658145
vt 0.651486 0.688338
vt 0.680078 0.728377
vt 0.685221 0.774110
vt 0.677170 0.829967
vt 0.900272 0.265207
vt 0.860498 0.192947
vt 0.808628 0.210826
vt 0.853626 0.293764
vt 0.817587 0.131023
vt 0.794688 0.095735
vt 0.736260 0.117503
vt 0.773330 0.159289
vt 0.437411 0.015621
vt 0.355258 0.059834
vt 0.396073 0.116821
vt 0.442674 0.085313
vt 0.245553 0.214017
vt 0.220910 0.273644
vt 0.302758 0.274805
vt 0.320301 0.219343
vt 0.721845 0.046936
vt 0.686468 0.089747
vt 0.507015 0.009406
vt 0.506462 0.072973
vt 0.653720 0.021862
vt 0.622517 0.075296
vt 0.576234 0.009148
vt 0.556700 0.074267
vt 0.288867 0.140520
vt 0.359099 0.164224
vt 0.951002 0.318442
vt 0.891919 0.385937
vt 0.173188 0.320459
vt 0.258335 0.372256
vt 0.577736 0.254880
vt 0.569374 0.230708
vt 0.544124 0.243140
vt 0.560984 0.265278
vt 0.570699 0.301439
vt 0.590563 0.281794
vt 0.614722 0.261757
vt 0.595315 0.233881
vt 0.528500 0.272812
vt 0.524477 0.311196
vt 0.609273 0.337177
vt 0.626215 0.303034
vt 0.530379 0.256295
vt 0.584726 0.226556
vt 0.627455 0.279095
vt 0.531300 0.337733
vt 0.557753 0.353061
vt 0.483597 0.305251
vt 0.478483 0.345920
vt 0.656736 0.368461
vt 0.657866 0.305488
vt 0.569525 0.198937
vt 0.534956 0.208987
vt 0.656966 0.275162
vt 0.630069 0.240396
vt 0.486326 0.268254
vt 0.504694 0.231820
vt 0.611879 0.215896
vt 0.588867 0.204851
vt 0.524655 0.400344
vt 0.726730 0.176855
vt 0.414464 0.171903
vt 0.457615 0.143318
vt 0.507985 0.125604
vt 0.560643 0.118286
vt 0.330440 0.409046
vt 0.347477 0.298487
vt 0.370284 0.226322
vt 0.766307 0.236173
vt 0.803206 0.316697
vt 0.826669 0.414525
vt 0.614757 0.114592
vt 0.671933 0.134811
vt 0.562562 0.161808
vt 0.523210 0.168801
vt 0.490378 0.184325
vt 0.456527 0.223380
vt 0.431523 0.266513
vt 0.414616 0.335356
vt 0.419061 0.419840
vt 0.598338 0.163078
vt 0.638753 0.172489
vt 0.677614 0.211922
vt 0.716389 0.263721
vt 0.734746 0.331381
vt 0.747172 0.419840
vt 0.418998 0.867345
vt 0.409159 0.954276
vt 0.328327 0.919700
vt 0.382787 0.817242
vt 0.372894 0.512827
vt 0.325281 0.570398
vt 0.299439 0.505135
vt 0.338093 0.510897
vt 0.281908 0.611301
vt 0.243438 0.566912
vt 0.212365 0.664417
vt 0.180512 0.609213
vt 0.137339 0.715216
vt 0.107619 0.648098
vt 0.417825 0.523406
vt 0.433973 0.588895
vt 0.595738 0.584531
vt 0.356228 0.784419
vt 0.276368 0.886539
vt 0.365702 0.669201
vt 0.304711 0.740850
vt 0.212017 0.826224
vt 0.322774 0.630469
vt 0.253777 0.697848
vt 0.162206 0.759957
vt 0.902779 0.825792
vt 0.771169 0.845795
vt 0.852582 0.788145
vt 0.700369 0.946119
vt 0.678388 0.886932
vt 0.648003 0.961573
vt 0.480740 0.969975
vt 0.470402 0.883410
vt 0.549320 0.974249
vt 0.244319 0.513283
vt 0.205935 0.530221
vt 0.153691 0.560021
vt 0.090562 0.586235
vt 0.752604 0.716765
vt 0.887718 0.740134
vt 0.758642 0.629158
vt 0.952419 0.774651
vt 0.684225 0.507455
vt 0.613062 0.526983
vt 0.523768 0.545281
vt 0.436221 0.511432
vt 0.366734 0.487359
vt 0.324893 0.478083
vt 0.287320 0.476789
vt 0.225507 0.485860
vt 0.184275 0.500675
vt 0.140713 0.521889
vt 0.082204 0.531665
vt 0.654124 0.473494
vt 0.674087 0.471530
vt 0.912684 0.707789
vt 0.967808 0.746896
vt 0.844138 0.653623
vt 0.751449 0.549311
vt 0.716694 0.484490
vt 0.527356 0.501734
vt 0.592789 0.483706
vt 0.444981 0.475329
vt 0.370867 0.453613
vt 0.325029 0.441630
vt 0.286986 0.442699
vt 0.219582 0.450183
vt 0.172591 0.463310
vt 0.126468 0.482402
vt 0.074416 0.497652
vt 0.648949 0.441630
vt 0.686717 0.445628
vt 0.044466 0.919377
vt 0.059030 0.933051
vt 0.037592 0.902206
vt 0.038571 0.891081
vt 0.037592 0.882035
vt 0.041073 0.866068
vt 0.047046 0.857064
vt 0.054546 0.849508
vt 0.153410 0.963105
vt 0.069970 0.961798
vt 0.075393 0.968547
vt 0.117069 0.970582
vt 0.134020 0.968127
vt 0.086679 0.970065
vt 0.064303 0.946601
vt 0.102911 0.972044
vt 0.551577 0.857464
vt 0.665405 0.856011
vt 0.513365 0.819511
vt 0.477568 0.711660
vt 0.685221 0.774110
vt 0.736260 0.117503
vt 0.442674 0.085313
vt 0.245553 0.214017
vt 0.320301 0.219343
vt 0.302758 0.274805
vt 0.220910 0.273644
vt 0.721845 0.046936
vt 0.507015 0.009406
vt 0.506462 0.072972
vt 0.622517 0.075296
vt 0.556700 0.074267
vt 0.359099 0.164224
vt 0.258335 0.372256
vt 0.544124 0.243140
vt 0.590563 0.281794
vt 0.570699 0.301439
vt 0.530379 0.256295
vt 0.483597 0.305251
vt 0.657866 0.305488
vt 0.656736 0.368461
vt 0.534956 0.208987
vt 0.630069 0.240396
vt 0.486326 0.268254
vt 0.611879 0.215896
vt 0.524655 0.400344
vt 0.726730 0.176855
vt 0.507985 0.125603
vt 0.330440 0.409046
vt 0.370284 0.226322
vt 0.766307 0.236173
vt 0.826669 0.414525
vt 0.490378 0.184325
vt 0.456527 0.223380
vt 0.414616 0.335356
vt 0.419061 0.419840
vt 0.638753 0.172489
vt 0.677614 0.211922
s 1
f 6/1/1 5/2/2 7/3/3 8/4/4
f 10/5/5 11/6/6 13/7/7 12/8/8
f 12/8/8 13/7/7 15/9/9 14/10/10
f 14/10/10 15/9/9 17/11/11 16/12/12
f 16/12/12 17/11/11 19/13/13 18/14/14
f 9/15/15 10/5/5 21/16/16 20/17/17
f 20/17/17 21/16/16 4/18/18 3/19/19
f 25/20/20 28/21/21 7/3/3 5/2/2
f 21/16/16 23/22/22 22/23/23 4/18/18
f 23/22/22 26/24/24 25/20/20 22/23/23
f 26/24/24 29/25/25 28/21/21 25/20/20
f 10/5/5 24/26/26 23/22/22 21/16/16
f 24/26/26 27/27/27 26/24/24 23/22/22
f 27/27/27 30/28/28 29/25/25 26/24/24
f 12/8/8 14/10/10 24/26/26 10/5/5
f 14/10/10 16/12/12 27/27/27 24/26/26
f 16/12/12 18/14/14 30/28/28 27/27/27
f 32/29/29 31/30/30 33/31/31 34/32/32
f 34/32/32 33/31/31 35/33/33 36/34/34
f 36/34/34 35/33/33 37/35/35 38/36/36
f 40/37/37 42/38/38 6/1/1 8/4/4
f 38/36/36 37/35/35 41/39/39 39/40/40
f 39/40/40 41/39/39 42/38/38 40/37/37
f 45/41/41 46/42/42 15/9/9 13/7/7
f 46/42/42 47/43/43 17/11/11 15/9/9
f 47/43/43 48/44/44 19/13/13 17/11/11
f 44/45/45 31/30/30 49/46/46 52/47/47
f 43/48/48 44/45/45 52/47/47 51/49/49
f 31/30/30 32/29/29 50/50/50 49/46/46
f 51/49/49 53/51/51 2/52/52 43/48/48
f 53/51/51 54/53/53 1/54/54 2/52/52
f 54/53/53 55/55/55 3/19/19 1/54/54
f 55/55/55 56/56/56 20/17/17 3/19/19
f 56/56/56 57/57/57 9/15/15 20/17/17
f 57/57/57 58/58/58 10/5/5 9/15/15
f 58/58/58 59/59/59 11/6/6 10/5/5
f 59/59/59 60/60/60 13/7/7 11/6/6
f 60/60/60 61/61/61 45/41/41 13/7/7
f 61/61/61 62/62/62 46/42/42 45/41/41
f 62/62/62 63/63/63 47/43/43 46/42/42
f 63/63/63 64/64/64 48/44/44 47/43/43
f 55/55/55 54/53/53 65/65/65 66/66/65
f 49/46/66 50/50/67 68/67/68 67/68/69
f 51/49/70 52/47/71 70/69/72 69/70/73
f 52/47/71 49/46/66 67/68/69 70/69/72
f 53/51/74 51/49/70 69/70/73 71/71/75
f 54/53/76 53/51/74 71/71/75 72/72/77
f 56/56/78 55/55/78 73/73/79 74/74/80
f 57/57/81 56/56/82 74/74/82 75/75/83
f 58/58/84 57/57/81 75/75/83 76/76/85
f 59/59/86 58/58/84 76/76/85 77/77/87
f 60/60/88 59/59/86 77/77/87 78/78/89
f 61/61/90 60/60/88 78/78/89 79/79/91
f 62/62/92 61/61/90 79/79/91 80/80/93
f 63/63/94 62/62/92 80/80/93 81/81/95
f 64/64/96 63/63/94 81/81/95 82/82/97
f 66/66/98 65/65/98 83/83/99 84/84/100
f 65/65/101 54/53/76 72/72/77 83/83/102
f 55/55/103 66/66/103 84/84/104 73/73/105
f 75/85/106 74/86/107 85/87/108
f 76/88/109 75/85/106 85/87/108
f 77/89/87 76/88/109 85/87/108
f 78/90/89 77/89/87 85/87/108
f 79/91/91 78/90/89 85/87/108
f 80/92/93 79/91/91 85/87/108
f 81/93/95 80/92/93 85/87/108
f 82/94/97 81/93/95 85/87/108
f 67/95/69 68/96/68 85/87/110
f 84/97/100 83/98/99 85/87/111
f 69/99/73 70/100/72 85/87/110
f 83/98/102 72/101/77 85/87/110
f 70/100/72 67/95/69 85/87/110
f 73/102/105 84/97/104 85/87/112
f 71/103/75 69/99/73 85/87/110
f 72/101/77 71/103/75 85/87/110
f 74/86/80 73/102/79 85/87/113
f 41/39/39 37/35/35 86/104/114 87/105/115
f 88/106/116 86/104/114 37/35/35 35/33/33
f 87/105/115 89/107/117 42/38/38 41/39/39
f 89/107/117 90/108/118 6/1/1 42/38/38
f 90/108/118 91/109/119 5/2/2 6/1/1
f 25/20/20 5/2/2 22/23/23
f 91/109/119 92/110/120 22/23/23 5/2/2
f 92/110/120 93/111/121 4/18/18 22/23/23
f 93/111/121 94/112/122 3/19/19 4/18/18
f 94/112/122 95/113/123 1/54/54 3/19/19
f 95/113/123 96/114/124 2/52/52 1/54/54
f 31/30/30 44/45/45 33/31/31
f 96/114/124 99/115/125 43/48/48 2/52/52
f 99/115/125 98/116/126 44/45/45 43/48/48
f 98/116/126 97/117/127 33/31/31 44/45/45
f 97/117/127 88/106/116 35/33/33 33/31/31
f 87/118/128 86/119/129 100/120/130 101/121/131
f 88/122/132 97/123/133 111/124/134 102/125/135
f 94/126/136 93/127/137 107/128/138 108/129/139
f 91/130/140 90/131/141 104/132/142 105/133/143
f 97/123/133 98/134/144 112/135/145 111/124/134
f 95/136/146 94/126/136 108/129/139 109/137/147
f 98/134/144 99/138/148 113/139/149 112/135/145
f 86/119/129 88/122/132 102/125/135 100/120/130
f 96/140/150 95/136/146 109/137/147 110/141/151
f 99/138/148 96/140/150 110/141/151 113/139/149
f 92/142/152 91/130/140 105/133/143 106/143/153
f 89/144/154 87/118/128 101/121/131 103/145/155
f 93/127/137 92/142/152 106/143/153 107/128/138
f 90/131/141 89/146/154 103/147/155 104/132/142
f 115/148/156 114/149/157 116/150/158 117/151/159
f 115/148/156 117/151/159 119/152/160 118/153/161
f 115/148/156 118/153/161 121/154/162 120/155/163
f 119/152/160 117/151/159 122/156/164 123/157/165
f 118/153/161 119/152/160 125/158/166 124/159/167
f 116/150/158 126/160/168 122/156/164 117/151/159
f 127/161/169 114/149/157 115/148/156 120/155/163
f 121/154/162 118/153/161 124/159/167 128/162/170
f 129/163/171 125/164/166 119/152/160 123/157/165
f 129/163/171 123/157/165 135/165/172 141/166/173
f 124/159/167 125/158/166 137/167/174 136/168/175
f 116/150/158 114/149/157 130/169/176 131/170/177
f 121/154/162 128/162/170 140/171/178 133/172/179
f 123/157/165 122/156/164 134/173/180 135/165/172
f 122/156/164 126/160/168 138/174/181 134/173/180
f 120/155/163 121/154/162 133/172/179 132/175/182
f 128/162/170 124/159/167 136/168/175 140/171/178
f 114/149/157 127/161/169 139/176/183 130/169/176
f 125/164/166 129/163/171 141/166/173 137/177/174
f 127/161/169 120/155/163 132/175/182 139/176/183
f 126/160/168 116/150/158 131/170/177 138/174/181
f 102/125/135 111/124/134 146/178/184
f 107/128/138 106/143/153 147/179/185
f 147/179/185 148/180/186 108/129/139 107/128/138
f 148/180/186 149/181/187 109/137/147 108/129/139
f 149/181/187 142/182/188 110/141/151 109/137/147
f 144/183/189 151/184/190 104/132/142 103/147/155
f 151/184/190 150/185/191 105/133/143 104/132/142
f 150/185/191 147/179/185 106/143/153 105/133/143
f 146/178/184 154/186/192 100/120/130 102/125/135
f 154/186/192 155/187/193 101/121/131 100/120/130
f 155/187/193 144/188/189 103/145/155 101/121/131
f 142/182/188 152/189/194 113/139/149 110/141/151
f 152/189/194 153/190/195 112/135/145 113/139/149
f 153/190/195 146/178/184 111/124/134 112/135/145
f 143/191/196 156/192/197 131/170/177 130/169/176
f 156/192/197 157/193/198 138/174/181 131/170/177
f 157/193/198 158/194/199 134/173/180 138/174/181
f 158/194/199 159/195/200 135/165/172 134/173/180
f 159/195/200 160/196/201 141/166/173 135/165/172
f 160/196/201 145/197/202 137/177/174 141/166/173
f 145/197/202 160/196/201 151/184/190 144/183/189
f 160/196/201 159/195/200 150/185/191 151/184/190
f 159/195/200 158/194/199 147/179/185 150/185/191
f 158/194/199 157/193/198 148/180/186 147/179/185
f 157/193/198 156/192/197 149/181/187 148/180/186
f 156/192/197 143/191/196 142/182/188 149/181/187
f 130/169/176 139/176/183 161/198/203 143/191/196
f 139/176/183 132/175/182 162/199/204 161/198/203
f 132/175/182 133/172/179 163/200/205 162/199/204
f 133/172/179 140/171/178 164/201/206 163/200/205
f 140/171/178 136/168/175 165/202/207 164/201/206
f 136/168/175 137/167/174 145/203/202 165/202/207
f 143/191/196 161/198/203 152/189/194 142/182/188
f 161/198/203 162/199/204 153/190/195 152/189/194
f 162/199/204 163/200/205 146/178/184 153/190/195
f 163/200/205 164/201/206 154/186/192 146/178/184
f 164/201/206 165/202/207 155/187/193 154/186/192
f 165/202/207 145/203/202 144/188/189 155/187/193
f 171/204/208 8/205/4 7/206/3 170/207/209
f 173/208/210 175/209/211 176/210/212 174/211/213
f 175/209/211 177/212/214 178/213/215 176/210/212
f 177/212/214 179/214/216 180/215/217 178/213/215
f 179/214/216 18/216/14 19/217/13 180/215/217
f 172/218/218 181/17/219 182/219/220 173/208/210
f 181/17/219 168/220/221 169/18/222 182/219/220
f 186/221/223 170/207/209 7/206/3 28/222/21
f 182/219/220 169/18/222 183/23/224 184/223/225
f 184/223/225 183/23/224 186/221/223 187/224/226
f 187/224/226 186/221/223 28/222/21 29/225/25
f 173/208/210 182/219/220 184/223/225 185/226/227
f 185/226/227 184/223/225 187/224/226 188/227/228
f 188/227/228 187/224/226 29/225/25 30/228/28
f 175/209/211 173/208/210 185/226/227 177/212/214
f 177/212/214 185/226/227 188/227/228 179/214/216
f 179/214/216 188/227/228 30/228/28 18/216/14
f 32/229/29 34/32/32 190/230/229 189/231/230
f 34/32/32 36/232/34 191/233/231 190/230/229
f 36/232/34 38/234/36 192/35/232 191/233/231
f 40/235/37 8/205/4 171/204/208 194/236/233
f 38/234/36 39/237/40 193/39/234 192/35/232
f 39/237/40 40/235/37 194/236/233 193/39/234
f 197/238/235 176/210/212 178/213/215 198/239/236
f 198/239/236 178/213/215 180/215/217 199/240/237
f 199/240/237 180/215/217 19/217/13 48/241/44
f 196/242/238 202/47/239 200/243/240 189/231/230
f 195/48/241 201/244/242 202/47/239 196/242/238
f 189/231/230 200/243/240 50/245/50 32/229/29
f 201/244/242 195/48/241 167/52/243 203/51/244
f 203/51/244 167/52/243 166/54/245 204/246/246
f 204/246/246 166/54/245 168/220/221 205/247/247
f 205/247/247 168/220/221 181/17/219 206/248/248
f 206/248/248 181/17/219 172/218/218 207/249/249
f 207/249/249 172/218/218 173/208/210 208/250/250
f 208/250/250 173/208/210 174/211/213 209/251/251
f 209/251/251 174/211/213 176/210/212 210/252/252
f 210/252/252 176/210/212 197/238/235 211/253/253
f 211/253/253 197/238/235 198/239/236 212/254/254
f 212/254/254 198/239/236 199/240/237 213/255/255
f 213/255/255 199/240/237 48/241/44 64/256/64
f 205/247/247 215/257/256 214/258/256 204/246/246
f 200/243/257 216/259/258 68/260/68 50/245/67
f 201/244/259 217/70/260 218/261/261 202/47/262
f 202/47/262 218/261/261 216/259/258 200/243/257
f 203/51/263 219/262/264 217/70/260 201/244/259
f 204/246/265 220/263/266 219/262/264 203/51/263
f 206/248/267 222/264/268 221/265/269 205/247/267
f 207/249/270 223/266/271 222/264/272 206/248/272
f 208/250/273 224/267/274 223/266/271 207/249/270
f 209/251/275 225/268/276 224/267/274 208/250/273
f 210/252/277 226/269/278 225/268/276 209/251/275
f 211/253/279 227/270/280 226/269/278 210/252/277
f 212/254/281 228/271/282 227/270/280 211/253/279
f 213/255/283 229/272/284 228/271/282 212/254/281
f 64/256/96 82/273/97 229/272/284 213/255/283
f 215/257/285 231/274/286 230/275/287 214/258/285
f 214/258/288 230/275/289 220/263/266 204/246/265
f 205/247/290 221/265/291 231/274/292 215/257/290
f 223/276/293 85/87/108 222/277/294
f 224/278/295 85/87/108 223/276/293
f 225/279/276 85/87/108 224/278/295
f 226/280/278 85/87/108 225/279/276
f 227/281/280 85/87/108 226/280/278
f 228/282/282 85/87/108 227/281/280
f 229/283/284 85/87/108 228/282/282
f 82/94/97 85/87/108 229/283/284
f 216/284/258 85/87/110 68/96/68
f 231/285/286 85/87/296 230/286/287
f 217/287/260 85/87/110 218/288/261
f 230/286/289 85/87/110 220/289/266
f 218/288/261 85/87/110 216/284/258
f 221/290/291 85/87/297 231/285/292
f 219/291/264 85/87/110 217/287/260
f 220/289/266 85/87/110 219/291/264
f 222/277/268 85/87/298 221/290/269
f 193/39/234 233/292/299 232/104/300 192/35/232
f 234/293/301 191/233/231 192/35/232 232/104/300
f 233/292/299 193/39/234 194/236/233 235/294/302
f 235/294/302 194/236/233 171/204/208 236/108/303
f 236/108/303 171/204/208 170/207/209 237/109/304
f 186/221/223 183/23/224 170/207/209
f 237/109/304 170/207/209 183/23/224 238/295/305
f 238/295/305 183/23/224 169/18/222 239/111/306
f 239/111/306 169/18/222 168/220/221 240/112/307
f 240/112/307 168/220/221 166/54/245 241/113/308
f 241/113/308 166/54/245 167/52/243 242/114/309
f 189/231/230 190/230/229 196/242/238
f 242/114/309 167/52/243 195/48/241 245/115/310
f 245/115/310 195/48/241 196/242/238 244/296/311
f 244/296/311 196/242/238 190/230/229 243/117/312
f 243/117/312 190/230/229 191/233/231 234/293/301
f 233/118/313 247/121/314 246/120/315 232/119/316
f 234/122/317 248/125/318 257/297/319 243/123/320
f 240/126/321 254/298/322 253/128/323 239/127/324
f 237/299/325 251/300/326 250/301/327 236/302/328
f 243/123/320 257/297/319 258/135/329 244/303/330
f 241/304/331 255/305/332 254/298/322 240/126/321
f 244/303/330 258/135/329 259/306/333 245/138/334
f 232/119/316 246/120/315 248/125/318 234/122/317
f 242/140/335 256/307/336 255/305/332 241/304/331
f 245/138/334 259/306/333 256/307/336 242/140/335
f 238/142/337 252/308/338 251/300/326 237/299/325
f 235/144/339 249/145/340 247/121/314 233/118/313
f 239/127/324 253/128/323 252/308/338 238/142/337
f 236/302/328 250/301/327 249/309/340 235/146/339
f 261/148/341 263/151/342 262/310/343 260/149/344
f 261/148/341 264/311/345 265/312/346 263/151/342
f 261/148/341 266/155/347 267/154/348 264/311/345
f 265/312/346 269/157/349 268/156/350 263/151/342
f 264/311/345 270/159/351 271/158/352 265/312/346
f 262/310/343 263/151/342 268/156/350 272/313/353
f 273/161/354 266/155/347 261/148/341 260/149/344
f 267/154/348 274/162/355 270/159/351 264/311/345
f 275/163/356 269/157/349 265/312/346 271/164/352
f 275/163/356 287/166/357 281/314/358 269/157/349
f 270/159/351 282/315/359 283/316/360 271/158/352
f 262/310/343 277/317/361 276/169/362 260/149/344
f 267/154/348 279/318/363 286/171/364 274/162/355
f 269/157/349 281/314/358 280/319/365 268/156/350
f 268/156/350 280/319/365 284/174/366 272/313/353
f 266/155/347 278/320/367 279/318/363 267/154/348
f 274/162/355 286/171/364 282/315/359 270/159/351
f 260/149/344 276/169/362 285/176/368 273/161/354
f 271/164/352 283/321/360 287/166/357 275/163/356
f 273/161/354 285/176/368 278/320/367 266/155/347
f 272/313/353 284/174/366 277/317/361 262/310/343
f 248/125/318 292/322/369 257/297/319
f 253/128/323 293/179/370 252/308/338
f 293/179/370 253/128/323 254/298/322 294/180/371
f 294/180/371 254/298/322 255/305/332 295/323/372
f 295/323/372 255/305/332 256/307/336 288/182/373
f 290/324/374 249/309/340 250/301/327 297/184/375
f 297/184/375 250/301/327 251/300/326 296/325/376
f 296/325/376 251/300/326 252/308/338 293/179/370
f 292/322/369 248/125/318 246/120/315 300/326/377
f 300/326/377 246/120/315 247/121/314 301/187/378
f 301/187/378 247/121/314 249/145/340 290/327/374
f 288/182/373 256/307/336 259/306/333 298/189/379
f 298/189/379 259/306/333 258/135/329 299/190/380
f 299/190/380 258/135/329 257/297/319 292/322/369
f 289/191/381 276/169/362 277/317/361 302/192/382
f 302/192/382 277/317/361 284/174/366 303/328/383
f 303/328/383 284/174/366 280/319/365 304/329/384
f 304/329/384 280/319/365 281/314/358 305/195/385
f 305/195/385 281/314/358 287/166/357 306/330/386
f 306/330/386 287/166/357 283/321/360 291/331/387
f 291/331/387 290/324/374 297/184/375 306/330/386
f 306/330/386 297/184/375 296/325/376 305/195/385
f 305/195/385 296/325/376 293/179/370 304/329/384
f 304/329/384 293/179/370 294/180/371 303/328/383
f 303/328/383 294/180/371 295/323/372 302/192/382
f 302/192/382 295/323/372 288/182/373 289/191/381
f 276/169/362 289/191/381 307/198/388 285/176/368
f 285/176/368 307/198/388 308/332/389 278/320/367
f 278/320/367 308/332/389 309/333/390 279/318/363
f 279/318/363 309/333/390 310/201/391 286/171/364
f 286/171/364 310/201/391 311/202/392 282/315/359
f 282/315/359 311/202/392 291/203/387 283/316/360
f 289/191/381 288/182/373 298/189/379 307/198/388
f 307/198/388 298/189/379 299/190/380 308/332/389
f 308/332/389 299/190/380 292/322/369 309/333/390
f 309/333/390 292/322/369 300/326/377 310/201/391
f 310/201/391 300/326/377 301/187/378 311/202/392
f 311/202/392 301/187/378 290/327/374 291/203/387
