# Blender 3.6.15
# www.blender.org
o brat_hair
v -0.000000 -0.435586 2.120176
v 0.671908 -0.335036 1.974285
v -0.000000 0.206502 2.419466
v 0.625606 0.236346 2.199956
v 1.312239 -0.279140 1.870649
v 1.243905 0.343038 2.052304
v 1.793195 -0.107099 1.471425
v 1.742283 0.488972 1.651626
v 2.126626 0.148945 0.853985
v 2.131112 0.679663 1.072538
v 2.252743 0.239170 0.365613
v 2.402919 0.768219 0.389312
v 2.354430 0.160887 -0.176476
v 2.519276 0.663707 -0.340016
v 2.262298 -0.157046 -0.407531
v 2.372054 0.135818 -0.859465
v 2.178854 -0.504439 -0.443879
v 2.226084 -0.327765 -0.961002
v 1.935193 -1.066016 -0.500827
v 2.018256 -0.903887 -1.026464
v 1.374741 -1.415668 -0.753348
v 1.902677 -1.154500 -1.136344
v 1.148975 -1.669107 -1.138875
v 1.501433 -1.472104 -1.639650
v 0.689561 -1.838432 -1.633241
v 0.831163 -1.531039 -2.012556
v -0.000000 -1.858130 -1.733220
v -0.000000 -1.539746 -2.211782
v 1.668766 1.196482 1.691540
v 1.984426 1.344046 1.107156
v 1.299397 1.854987 1.679248
v 1.563266 1.959260 1.080810
v 0.718488 2.273524 1.631682
v 0.865106 2.394999 1.036792
v -0.000000 2.391709 1.593309
v -0.000000 2.541743 0.999906
v -0.000000 0.988223 2.545427
v 0.618033 0.975228 2.342342
v -0.000000 1.741035 2.240667
v 0.499752 1.730244 2.252180
v 1.258870 1.222240 2.142763
v 2.418777 1.235861 -0.886939
v 2.386717 0.632424 -1.344937
v 2.101212 1.597969 -1.430077
v 2.097238 1.036152 -1.887217
v 1.508892 1.943487 -1.917168
v 1.586138 1.385221 -2.349370
v 0.988928 2.220803 -1.958962
v 0.896742 1.545611 -2.696376
v -0.000000 2.156933 -2.410896
v -0.000000 1.627802 -2.913075
v 0.864564 2.559671 0.233819
v 0.905634 2.614297 -0.369561
v 0.833629 2.449749 -1.615219
v -0.000000 2.560814 -1.718989
v -0.000000 2.712830 -0.438827
v -0.000000 2.678256 0.181018
v 0.820803 0.946508 -2.839506
v -0.000000 1.040274 -3.008385
v 0.794768 -0.308906 -2.731112
v -0.000000 -0.246158 -2.872781
v 0.796005 -0.973678 -2.445098
v -0.000000 -0.947612 -2.634982
v -0.000000 0.436751 -2.976675
v 0.786557 0.356337 -2.835269
v 2.110263 -0.135143 -1.544200
v 1.771314 -1.002856 -1.600244
v 1.792960 0.100698 -2.229593
v 1.317626 -0.869723 -2.193063
v 1.390784 0.570959 -2.632541
v 1.097625 -0.250256 -2.608542
v 0.859802 2.610482 -0.965259
v -0.000000 2.694164 -1.053612
v 1.672249 2.142067 0.336587
v 1.735485 2.210098 -0.230021
v 2.232316 1.488812 0.423362
v 2.324371 1.553195 -0.091684
v 2.070255 1.897109 -0.900869
v 1.464633 2.351696 -1.019389
v -0.000000 0.155785 1.152412
v 0.325379 0.207355 1.077588
v 0.653790 0.236022 1.024435
v 0.900461 0.324258 0.819682
v 1.071471 0.455577 0.503011
v 1.136153 0.501852 0.252536
v 1.188306 0.461703 -0.025489
v 1.141054 0.298642 -0.143992
v 1.098257 0.120472 -0.162634
v 0.973289 -0.167548 -0.191841
v 0.685846 -0.346877 -0.321353
v 0.570056 -0.476860 -0.519081
v 0.334433 -0.563702 -0.772630
v -0.000000 -0.573806 -0.823907
v -0.671908 -0.335036 1.974285
v -0.625606 0.236346 2.199956
v -1.312239 -0.279140 1.870649
v -1.243905 0.343038 2.052304
v -1.793195 -0.107099 1.471425
v -1.742283 0.488972 1.651626
v -2.126626 0.148945 0.853985
v -2.131112 0.679663 1.072538
v -2.252743 0.239170 0.365613
v -2.402919 0.768219 0.389312
v -2.354430 0.160887 -0.176476
v -2.519276 0.663707 -0.340016
v -2.262298 -0.157046 -0.407531
v -2.372054 0.135818 -0.859465
v -2.178854 -0.504439 -0.443879
v -2.226084 -0.327765 -0.961002
v -1.935193 -1.066016 -0.500827
v -2.018256 -0.903887 -1.026464
v -1.374741 -1.415668 -0.753348
v -1.902677 -1.154500 -1.136344
v -1.148975 -1.669107 -1.138875
v -1.501433 -1.472104 -1.639650
v -0.689561 -1.838432 -1.633241
v -0.831163 -1.531039 -2.012556
v -1.668766 1.196482 1.691540
v -1.984426 1.344046 1.107156
v -1.299397 1.854987 1.679248
v -1.563266 1.959260 1.080810
v -0.718488 2.273524 1.631682
v -0.865106 2.394999 1.036792
v -0.618033 0.975228 2.342342
v -0.499752 1.730244 2.252180
v -1.258870 1.222240 2.142763
v -2.418777 1.235861 -0.886939
v -2.386717 0.632424 -1.344937
v -2.101212 1.597969 -1.430077
v -2.097238 1.036152 -1.887217
v -1.508892 1.943487 -1.917168
v -1.586138 1.385221 -2.349370
v -0.988928 2.220803 -1.958962
v -0.896742 1.545611 -2.696376
v -0.864564 2.559671 0.233819
v -0.905634 2.614297 -0.369561
v -0.833629 2.449749 -1.615219
v -0.820803 0.946508 -2.839506
v -0.794768 -0.308906 -2.731112
v -0.796005 -0.973678 -2.445098
v -0.786557 0.356337 -2.835269
v -2.110263 -0.135143 -1.544200
v -1.771314 -1.002856 -1.600244
v -1.792960 0.100698 -2.229593
v -1.317626 -0.869723 -2.193063
v -1.390784 0.570959 -2.632541
v -1.097625 -0.250256 -2.608542
v -0.859802 2.610482 -0.965259
v -1.672249 2.142067 0.336587
v -1.735485 2.210098 -0.230021
v -2.232316 1.488812 0.423362
v -2.324371 1.553195 -0.091684
v -2.070255 1.897109 -0.900869
v -1.464633 2.351696 -1.019389
v -0.325379 0.207355 1.077588
v -0.653790 0.236022 1.024435
v -0.900461 0.324258 0.819682
v -1.071471 0.455577 0.503011
v -1.136153 0.501852 0.252536
v -1.188306 0.461703 -0.025489
v -1.141054 0.298642 -0.143992
v -1.098257 0.120472 -0.162634
v -0.973289 -0.167548 -0.191841
v -0.685846 -0.346877 -0.321353
v -0.570056 -0.476860 -0.519081
v -0.334433 -0.563702 -0.772630
vn -0.0000 -0.3874 0.9219
vn 0.2545 -0.3330 0.9079
vn 0.2833 -0.2484 0.9263
vn -0.0000 -0.2784 0.9605
vn 0.4575 -0.2312 0.8586
vn 0.4686 -0.1638 0.8681
vn 0.7712 -0.1464 0.6196
vn 0.7702 -0.0592 0.6351
vn 0.9100 -0.1703 0.3780
vn 0.9007 -0.0017 0.4345
vn 0.9416 -0.2315 0.2445
vn 0.9660 -0.0030 0.2584
vn 0.9525 -0.2845 0.1089
vn 0.9985 -0.0315 0.0441
vn 0.9576 -0.2867 0.0280
vn 0.9692 -0.2213 -0.1076
vn 0.9441 -0.3296 0.0073
vn 0.9417 -0.3053 -0.1416
vn 0.8013 -0.5970 0.0386
vn 0.8694 -0.4750 -0.1359
vn 0.5888 -0.8006 0.1111
vn 0.7553 -0.6460 -0.1100
vn 0.4963 -0.8663 -0.0561
vn 0.6087 -0.7025 -0.3686
vn 0.2660 -0.8607 -0.4341
vn 0.3373 -0.7041 -0.6248
vn -0.0000 -0.8179 -0.5754
vn -0.0000 -0.7036 -0.7106
vn 0.8293 0.3508 0.4349
vn 0.7366 0.2458 0.6301
vn 0.6375 0.6888 0.3450
vn 0.5864 0.5927 0.5522
vn 0.3333 0.9096 0.2480
vn 0.3020 0.7981 0.5213
vn -0.0000 0.9777 0.2102
vn -0.0000 0.8858 0.4640
vn 0.3061 0.0675 0.9496
vn -0.0000 0.0502 0.9987
vn 0.2292 0.4809 0.8463
vn -0.0000 0.5196 0.8544
vn 0.5044 0.2186 0.8354
vn 0.9469 -0.0347 -0.3196
vn 0.9501 0.2645 -0.1654
vn 0.8290 0.1649 -0.5343
vn 0.8104 0.4603 -0.3625
vn 0.6116 0.3482 -0.7104
vn 0.5898 0.6433 -0.4882
vn 0.3535 0.4353 -0.8280
vn 0.3598 0.7774 -0.5160
vn -0.0000 0.4611 -0.8874
vn -0.0000 0.7742 -0.6329
vn 0.2861 0.9458 0.1536
vn -0.0000 0.9919 0.1271
vn -0.0000 0.9285 -0.3714
vn 0.2652 0.9034 -0.3370
vn 0.2669 0.9552 -0.1276
vn -0.0000 0.9918 -0.1278
vn -0.0000 0.9997 0.0246
vn 0.2771 0.9598 0.0438
vn 0.3141 0.0751 -0.9464
vn -0.0000 0.0803 -0.9968
vn -0.0000 -0.0894 -0.9960
vn 0.2633 -0.1100 -0.9584
vn 0.2834 -0.2599 -0.9231
vn -0.0000 -0.2483 -0.9687
vn 0.3139 -0.4605 -0.8303
vn -0.0000 -0.4696 -0.8829
vn 0.8720 -0.2614 -0.4138
vn 0.7274 -0.1875 -0.6601
vn 0.5351 -0.0255 -0.8444
vn 0.7880 -0.3792 -0.4849
vn 0.5814 -0.4033 -0.7066
vn 0.4662 -0.2647 -0.8442
vn 0.5976 0.7717 0.2174
vn 0.8645 0.4249 0.2684
vn 0.5887 0.8047 0.0775
vn 0.8816 0.4627 0.0930
vn 0.7537 0.6406 -0.1468
vn 0.5127 0.8417 -0.1693
vn 0.0024 -0.8553 -0.5182
vn -0.0000 -0.8532 -0.5216
vn 0.0038 -0.8550 -0.5185
vn 0.1629 -0.1567 0.9741
vn 0.0791 -0.3461 0.9349
vn 0.0526 -0.3998 0.9151
vn 0.1649 -0.1534 0.9743
vn -0.0000 -0.5785 0.8157
vn -0.2778 -0.5891 0.7588
vn -0.3210 -0.5894 0.7413
vn -0.1402 -0.8211 0.5533
vn -0.2233 -0.9732 -0.0559
vn -0.2207 -0.9722 -0.0787
vn -0.1665 -0.8743 0.4559
vn -0.4866 -0.5772 0.6558
vn -0.3382 -0.5318 0.7764
vn -0.2770 -0.5081 0.8155
vn -0.4842 -0.5770 0.6577
vn -0.1588 -0.9290 -0.3344
vn -0.0964 -0.8857 -0.4541
vn -0.0979 -0.8863 -0.4526
vn -0.1600 -0.9299 -0.3313
vn 0.0050 -0.3204 0.9473
vn 0.0238 -0.3023 0.9529
vn -0.0472 -0.8691 -0.4924
vn -0.0412 -0.8674 -0.4960
vn -0.2833 -0.2484 0.9263
vn -0.2545 -0.3330 0.9079
vn -0.4686 -0.1638 0.8681
vn -0.4575 -0.2312 0.8586
vn -0.7702 -0.0592 0.6351
vn -0.7712 -0.1464 0.6196
vn -0.9007 -0.0017 0.4345
vn -0.9100 -0.1703 0.3780
vn -0.9660 -0.0030 0.2584
vn -0.9416 -0.2315 0.2445
vn -0.9985 -0.0315 0.0441
vn -0.9525 -0.2845 0.1089
vn -0.9692 -0.2213 -0.1076
vn -0.9576 -0.2867 0.0280
vn -0.9417 -0.3053 -0.1416
vn -0.9441 -0.3296 0.0073
vn -0.8694 -0.4750 -0.1359
vn -0.8013 -0.5970 0.0386
vn -0.7553 -0.6460 -0.1100
vn -0.5888 -0.8006 0.1111
vn -0.6087 -0.7025 -0.3686
vn -0.4963 -0.8663 -0.0561
vn -0.3373 -0.7041 -0.6248
vn -0.2660 -0.8607 -0.4341
vn -0.7366 0.2458 0.6301
vn -0.8293 0.3508 0.4349
vn -0.5864 0.5927 0.5522
vn -0.6375 0.6888 0.3450
vn -0.3020 0.7981 0.5213
vn -0.3333 0.9096 0.2480
vn -0.3061 0.0675 0.9496
vn -0.2292 0.4809 0.8463
vn -0.5044 0.2186 0.8354
vn -0.9501 0.2645 -0.1654
vn -0.9469 -0.0347 -0.3196
vn -0.8104 0.4603 -0.3625
vn -0.8290 0.1649 -0.5343
vn -0.5898 0.6433 -0.4882
vn -0.6116 0.3482 -0.7104
vn -0.3598 0.7774 -0.5160
vn -0.3535 0.4353 -0.8280
vn -0.2861 0.9458 0.1536
vn -0.2652 0.9034 -0.3370
vn -0.2669 0.9552 -0.1276
vn -0.2771 0.9598 0.0438
vn -0.3141 0.0751 -0.9464
vn -0.2834 -0.2599 -0.9231
vn -0.2633 -0.1100 -0.9584
vn -0.3139 -0.4605 -0.8303
vn -0.8720 -0.2614 -0.4138
vn -0.7274 -0.1875 -0.6601
vn -0.5351 -0.0255 -0.8444
vn -0.7880 -0.3792 -0.4849
vn -0.5814 -0.4033 -0.7066
vn -0.4662 -0.2647 -0.8442
vn -0.5976 0.7717 0.2174
vn -0.8645 0.4249 0.2684
vn -0.5887 0.8047 0.0775
vn -0.8816 0.4627 0.0930
vn -0.7537 0.6406 -0.1468
vn -0.5127 0.8417 -0.1693
vn -0.0024 -0.8553 -0.5182
vn -0.0038 -0.8550 -0.5185
vn -0.1629 -0.1567 0.9741
vn -0.1649 -0.1534 0.9743
vn -0.0526 -0.3998 0.9151
vn -0.0791 -0.3461 0.9349
vn 0.3210 -0.5894 0.7413
vn 0.2778 -0.5891 0.7588
vn 0.1402 -0.8211 0.5533
vn 0.1665 -0.8743 0.4559
vn 0.2207 -0.9722 -0.0787
vn 0.2233 -0.9732 -0.0559
vn 0.4866 -0.5772 0.6558
vn 0.4842 -0.5770 0.6577
vn 0.2770 -0.5081 0.8155
vn 0.3382 -0.5318 0.7764
vn 0.1588 -0.9290 -0.3344
vn 0.1600 -0.9299 -0.3313
vn 0.0979 -0.8863 -0.4526
vn 0.0964 -0.8857 -0.4541
vn -0.0050 -0.3204 0.9473
vn -0.0238 -0.3023 0.9529
vn 0.0472 -0.8691 -0.4924
vn 0.0412 -0.8674 -0.4960
vt 0.620620 0.605287
vt 0.636375 0.545239
vt 0.686821 0.561489
vt 0.679896 0.614085
vt 0.653238 0.489682
vt 0.705262 0.511112
vt 0.676416 0.436817
vt 0.727695 0.458382
vt 0.143563 0.057533
vt 0.201246 -0.000000
vt 0.265137 0.073020
vt 0.209665 0.117134
vt 0.310542 0.118724
vt 0.272052 0.167405
vt 0.368437 0.160338
vt 0.330759 0.211029
vt 0.418847 0.174442
vt 0.398255 0.232568
vt 0.465021 0.175560
vt 0.446013 0.236050
vt 0.541103 0.193631
vt 0.506882 0.247095
vt 0.610159 0.251514
vt 0.531280 0.265182
vt 0.618256 0.313780
vt 0.552944 0.329036
vt 0.615834 0.399849
vt 0.558801 0.399306
vt 0.618256 0.489285
vt 0.550662 0.480043
vt 0.167558 0.180280
vt 0.096788 0.137364
vt 0.128586 0.249004
vt 0.053702 0.226113
vt 0.096640 0.328072
vt 0.025055 0.314844
vt 0.077866 0.415394
vt 0.010423 0.406173
vt 0.744987 0.574575
vt 0.738330 0.622757
vt 0.800661 0.593014
vt 0.797165 0.631490
vt 0.869869 0.575525
vt 0.874385 0.642950
vt 0.787218 0.479848
vt 0.774620 0.527799
vt 0.837859 0.521860
vt 0.372015 0.283168
vt 0.318855 0.275853
vt 0.360840 0.330739
vt 0.318921 0.322482
vt 0.351857 0.371676
vt 0.315473 0.369198
vt 0.348416 0.410080
vt 0.301875 0.395958
vt 0.345052 0.451928
vt 0.312319 0.447453
vt 0.166415 0.357663
vt 0.153798 0.425777
vt 0.273910 0.442201
vt 0.279485 0.399218
vt 0.244432 0.387319
vt 0.237626 0.437239
vt 0.199355 0.432006
vt 0.209783 0.371449
vt 0.378934 0.414667
vt 0.371681 0.455570
vt 0.402167 0.459738
vt 0.410101 0.416808
vt 0.450154 0.416058
vt 0.441330 0.465093
vt 0.499991 0.412126
vt 0.490238 0.471781
vt 0.433913 0.290347
vt 0.422142 0.345977
vt 0.397347 0.381981
vt 0.509625 0.307949
vt 0.495173 0.367412
vt 0.447424 0.394952
vt 0.190775 0.287313
vt 0.226510 0.222651
vt 0.229371 0.309616
vt 0.260477 0.250393
vt 0.283855 0.310695
vt 0.263367 0.353167
vt 0.899512 0.412156
vt 0.846446 0.436817
vt 0.830190 0.343873
vt 0.855403 0.331890
vt 0.979887 0.134888
vt 0.989954 0.162717
vt 0.901487 0.211796
vt 0.896105 0.197864
vt 0.770996 0.002986
vt 0.828965 -0.000000
vt 0.819162 0.127357
vt 0.792087 0.127902
vt 1.000000 0.194463
vt 1.000000 0.242581
vt 0.906876 0.250340
vt 0.907378 0.227486
vt 0.878796 0.029363
vt 0.905313 0.061246
vt 0.856748 0.161597
vt 0.843110 0.144256
vt 0.998439 0.286280
vt 0.983053 0.347898
vt 0.897713 0.300672
vt 0.906063 0.271188
vt 0.954789 0.091119
vt 0.882811 0.175787
vt 0.950638 0.391913
vt 0.881114 0.322237
vt 0.671247 0.666425
vt 0.618256 0.667323
vt 0.674261 0.719986
vt 0.618256 0.725383
vt 0.680413 0.776959
vt 0.625081 0.782701
vt 0.045083 0.777756
vt 0.124759 0.738088
vt 0.166352 0.795475
vt 0.085203 0.848662
vt 0.198351 0.706410
vt 0.222359 0.763638
vt 0.266613 0.680148
vt 0.289300 0.739093
vt 0.337414 0.677519
vt 0.341646 0.739039
vt 0.384354 0.686986
vt 0.386425 0.750358
vt 0.445954 0.692686
vt 0.464565 0.753375
vt 0.474311 0.681814
vt 0.546625 0.716155
vt 0.512322 0.626119
vt 0.571141 0.658349
vt 0.536828 0.560001
vt 0.591913 0.574788
vt 0.021456 0.688299
vt 0.101149 0.665956
vt 0.003776 0.591241
vt 0.082056 0.589293
vt 0.000000 0.498076
vt 0.072509 0.504552
vt 0.730706 0.670796
vt 0.789335 0.669322
vt 0.850481 0.706158
vt 0.743605 0.773706
vt 0.745476 0.724162
vt 0.804264 0.748212
vt 0.272549 0.614508
vt 0.325721 0.621732
vt 0.285130 0.569609
vt 0.327727 0.572908
vt 0.294350 0.523681
vt 0.330064 0.531062
vt 0.288434 0.494253
vt 0.337058 0.493144
vt 0.147667 0.494778
vt 0.267741 0.485103
vt 0.230781 0.487154
vt 0.193143 0.493140
vt 0.367687 0.496918
vt 0.436666 0.514697
vt 0.398285 0.503222
vt 0.483619 0.531864
vt 0.387274 0.631434
vt 0.390870 0.574685
vt 0.376650 0.533347
vt 0.464933 0.634803
vt 0.466974 0.573643
vt 0.428371 0.534295
vt 0.152246 0.569085
vt 0.169312 0.640966
vt 0.195413 0.557962
vt 0.209478 0.623362
vt 0.248187 0.571549
vt 0.239852 0.525136
vt 0.788145 0.431664
vt 0.802425 0.341204
vt 0.618256 0.197981
vt 0.718217 0.228518
vt 0.717838 0.243434
vt 0.618305 0.227447
vt 0.766281 0.135523
vt 0.714887 0.019202
vt 0.619756 0.260764
vt 0.717850 0.259935
vt 0.726352 0.280967
vt 0.636087 0.305783
vt 0.677344 0.063720
vt 0.749783 0.159959
vt 0.743060 0.181543
vt 0.663052 0.103025
vt 0.652225 0.346228
vt 0.734546 0.300507
vt 0.752233 0.326046
vt 0.687508 0.399293
vt 0.626774 0.148237
vt 0.723247 0.203569
vt 0.733025 0.429927
vt 0.775042 0.340922
s 1
f 1/1/1 2/2/2 4/3/3 3/4/4
f 4/3/3 2/2/2 5/5/5 6/6/6
f 6/6/6 5/5/5 7/7/7 8/8/8
f 8/9/8 7/10/7 9/11/9 10/12/10
f 10/12/10 9/11/9 11/13/11 12/14/12
f 12/14/12 11/13/11 13/15/13 14/16/14
f 14/16/14 13/15/13 15/17/15 16/18/16
f 16/18/16 15/17/15 17/19/17 18/20/18
f 18/20/18 17/19/17 19/21/19 20/22/20
f 20/22/20 19/21/19 21/23/21 22/24/22
f 22/24/22 21/23/21 23/25/23 24/26/24
f 24/26/24 23/25/23 25/27/25 26/28/26
f 26/28/26 25/27/25 27/29/27 28/30/28
f 8/9/8 10/12/10 30/31/29 29/32/30
f 29/32/30 30/31/29 32/33/31 31/34/32
f 31/34/32 32/33/31 34/35/33 33/36/34
f 33/36/34 34/35/33 36/37/35 35/38/36
f 3/4/4 4/3/3 38/39/37 37/40/38
f 37/40/38 38/39/37 40/41/39 39/42/40
f 39/42/40 40/41/39 33/43/34 35/44/36
f 29/45/30 41/46/41 6/6/6 8/8/8
f 41/46/41 38/39/37 4/3/3 6/6/6
f 31/47/32 33/43/34 41/46/41 29/45/30
f 33/43/34 40/41/39 38/39/37 41/46/41
f 14/16/14 16/18/16 43/48/42 42/49/43
f 42/49/43 43/48/42 45/50/44 44/51/45
f 44/51/45 45/50/44 47/52/46 46/53/47
f 46/53/47 47/52/46 49/54/48 48/55/49
f 48/55/49 49/54/48 51/56/50 50/57/51
f 52/58/52 57/59/53 36/37/35 34/35/33
f 48/55/49 50/57/51 55/60/54 54/61/55
f 72/62/56 73/63/57 56/64/58 53/65/59
f 53/65/59 56/64/58 57/59/53 52/58/52
f 51/56/50 49/54/48 58/66/60 59/67/61
f 64/68/62 65/69/63 60/70/64 61/71/65
f 61/71/65 60/70/64 62/72/66 63/73/67
f 63/73/67 62/72/66 26/28/26 28/30/28
f 59/67/61 58/66/60 65/69/63 64/68/62
f 18/20/18 66/74/68 43/48/42 16/18/16
f 66/74/68 68/75/69 45/50/44 43/48/42
f 68/75/69 70/76/70 47/52/46 45/50/44
f 70/76/70 58/66/60 49/54/48 47/52/46
f 20/22/20 67/77/71 66/74/68 18/20/18
f 67/77/71 69/78/72 68/75/69 66/74/68
f 69/78/72 71/79/73 70/76/70 68/75/69
f 71/79/73 65/69/63 58/66/60 70/76/70
f 22/24/22 24/26/24 67/77/71 20/22/20
f 24/26/24 26/28/26 69/78/72 67/77/71
f 26/28/26 62/72/66 71/79/73 69/78/72
f 62/72/66 60/70/64 65/69/63 71/79/73
f 54/61/55 55/60/54 73/63/57 72/62/56
f 52/58/52 34/35/33 32/33/31 74/80/74
f 74/80/74 32/33/31 30/31/29 76/81/75
f 76/81/75 30/31/29 10/12/10 12/14/12
f 53/65/59 52/58/52 74/80/74 75/82/76
f 75/82/76 74/80/74 76/81/75 77/83/77
f 77/83/77 76/81/75 12/14/12 14/16/14
f 46/53/47 78/84/78 42/49/43 44/51/45
f 78/84/78 77/83/77 14/16/14 42/49/43
f 48/55/49 79/85/79 78/84/78 46/53/47
f 79/85/79 75/82/76 77/83/77 78/84/78
f 54/61/55 72/62/56 79/85/79 48/55/49
f 72/62/56 53/65/59 75/82/76 79/85/79
f 2/86/80 1/87/81 80/88/81 81/89/82
f 17/90/83 15/91/84 87/92/85 88/93/86
f 27/94/87 25/95/88 92/96/89 93/97/87
f 13/98/90 11/99/91 85/100/92 86/101/93
f 23/102/94 21/103/95 90/104/96 91/105/97
f 9/106/98 7/107/99 83/108/100 84/109/101
f 19/110/102 17/90/83 88/93/86 89/111/103
f 5/112/104 2/86/80 81/89/82 82/113/105
f 15/91/84 13/98/90 86/101/93 87/92/85
f 25/95/88 23/102/94 91/105/97 92/96/89
f 11/99/91 9/106/98 84/109/101 85/100/92
f 21/103/95 19/110/102 89/111/103 90/104/96
f 7/107/99 5/112/104 82/113/105 83/108/100
f 1/1/1 3/4/4 95/114/106 94/115/107
f 95/114/106 97/116/108 96/117/109 94/115/107
f 97/116/108 99/118/110 98/119/111 96/117/109
f 99/120/110 101/121/112 100/122/113 98/123/111
f 101/121/112 103/124/114 102/125/115 100/122/113
f 103/124/114 105/126/116 104/127/117 102/125/115
f 105/126/116 107/128/118 106/129/119 104/127/117
f 107/128/118 109/130/120 108/131/121 106/129/119
f 109/130/120 111/132/122 110/133/123 108/131/121
f 111/132/122 113/134/124 112/135/125 110/133/123
f 113/134/124 115/136/126 114/137/127 112/135/125
f 115/136/126 117/138/128 116/139/129 114/137/127
f 117/138/128 28/30/28 27/29/27 116/139/129
f 99/120/110 118/140/130 119/141/131 101/121/112
f 118/140/130 120/142/132 121/143/133 119/141/131
f 120/142/132 122/144/134 123/145/135 121/143/133
f 122/144/134 35/38/36 36/37/35 123/145/135
f 3/4/4 37/40/38 124/146/136 95/114/106
f 37/40/38 39/42/40 125/147/137 124/146/136
f 39/42/40 35/44/36 122/148/134 125/147/137
f 118/149/130 99/118/110 97/116/108 126/150/138
f 126/150/138 97/116/108 95/114/106 124/146/136
f 120/151/132 118/149/130 126/150/138 122/148/134
f 122/148/134 126/150/138 124/146/136 125/147/137
f 105/126/116 127/152/139 128/153/140 107/128/118
f 127/152/139 129/154/141 130/155/142 128/153/140
f 129/154/141 131/156/143 132/157/144 130/155/142
f 131/156/143 133/158/145 134/159/146 132/157/144
f 133/158/145 50/57/51 51/56/50 134/159/146
f 135/160/147 123/145/135 36/37/35 57/59/53
f 133/158/145 137/161/148 55/60/54 50/57/51
f 148/162/149 136/163/150 56/64/58 73/63/57
f 136/163/150 135/160/147 57/59/53 56/64/58
f 51/56/50 59/67/61 138/164/151 134/159/146
f 64/68/62 61/71/65 139/165/152 141/166/153
f 61/71/65 63/73/67 140/167/154 139/165/152
f 63/73/67 28/30/28 117/138/128 140/167/154
f 59/67/61 64/68/62 141/166/153 138/164/151
f 109/130/120 107/128/118 128/153/140 142/168/155
f 142/168/155 128/153/140 130/155/142 144/169/156
f 144/169/156 130/155/142 132/157/144 146/170/157
f 146/170/157 132/157/144 134/159/146 138/164/151
f 111/132/122 109/130/120 142/168/155 143/171/158
f 143/171/158 142/168/155 144/169/156 145/172/159
f 145/172/159 144/169/156 146/170/157 147/173/160
f 147/173/160 146/170/157 138/164/151 141/166/153
f 113/134/124 111/132/122 143/171/158 115/136/126
f 115/136/126 143/171/158 145/172/159 117/138/128
f 117/138/128 145/172/159 147/173/160 140/167/154
f 140/167/154 147/173/160 141/166/153 139/165/152
f 137/161/148 148/162/149 73/63/57 55/60/54
f 135/160/147 149/174/161 121/143/133 123/145/135
f 149/174/161 151/175/162 119/141/131 121/143/133
f 151/175/162 103/124/114 101/121/112 119/141/131
f 136/163/150 150/176/163 149/174/161 135/160/147
f 150/176/163 152/177/164 151/175/162 149/174/161
f 152/177/164 105/126/116 103/124/114 151/175/162
f 131/156/143 129/154/141 127/152/139 153/178/165
f 153/178/165 127/152/139 105/126/116 152/177/164
f 133/158/145 131/156/143 153/178/165 154/179/166
f 154/179/166 153/178/165 152/177/164 150/176/163
f 137/161/148 133/158/145 154/179/166 148/162/149
f 148/162/149 154/179/166 150/176/163 136/163/150
f 94/180/167 155/181/168 80/88/81 1/87/81
f 108/182/169 162/183/170 161/184/171 106/185/172
f 27/94/87 93/97/87 166/186/173 116/187/174
f 104/188/175 160/189/176 159/190/177 102/191/178
f 114/192/179 165/193/180 164/194/181 112/195/182
f 100/196/183 158/197/184 157/198/185 98/199/186
f 110/200/187 163/201/188 162/183/170 108/182/169
f 96/202/189 156/203/190 155/181/168 94/180/167
f 106/185/172 161/184/171 160/189/176 104/188/175
f 116/187/174 166/186/173 165/193/180 114/192/179
f 102/191/178 159/190/177 158/197/184 100/196/183
f 112/195/182 164/194/181 163/201/188 110/200/187
f 98/199/186 157/198/185 156/203/190 96/202/189
