# Blender 3.6.15
# www.blender.org
o axe
v 0.313881 -0.022484 -2.907867
v 0.313881 0.605278 -2.907867
v 0.313881 -0.022484 3.083032
v 0.313881 0.605278 3.083032
v -0.313881 -0.022484 -2.907867
v -0.313881 0.605278 -2.907867
v -0.313881 -0.022484 3.083032
v -0.313881 0.605278 3.083032
v -0.363376 -0.071979 2.768790
v -0.363376 0.654774 2.768790
v -0.363376 -0.071979 1.909501
v -0.363376 0.654774 1.909501
v 0.735427 -0.071979 2.768790
v 0.735427 0.654774 2.768790
v 0.735427 -0.071979 1.909501
v 0.735427 0.654774 1.909501
v -0.938654 0.038087 1.761881
v -0.938654 0.038087 2.768790
v -0.938654 0.544707 2.768790
v -0.938654 0.544707 1.761881
v -1.970358 0.300365 1.053540
v -0.363376 -0.071979 2.768790
v -0.363376 0.654774 2.768790
v -0.938654 0.038087 2.768790
v -0.938654 0.544707 2.768790
v -1.970358 0.300365 2.972701
vn 1.0000 -0.0000 -0.0000
vn -1.0000 -0.0000 -0.0000
vn -0.0000 -0.0000 -1.0000
vn -0.0000 -1.0000 -0.0000
vn -0.0000 1.0000 -0.0000
vn -0.0000 -0.0000 1.0000
vn -0.1879 -0.9822 -0.0000
vn -0.2305 0.9731 -0.0000
vn 0.2486 -0.0000 -0.9686
vn -0.1879 0.9822 -0.0000
vn -0.2464 -0.9692 -0.0000
vn 0.5660 -0.0000 -0.8244
vn 0.1939 -0.0000 0.9810
vt 0.259952 0.913266
vt 0.173343 0.913266
vt 0.173343 0.086734
vt 0.259952 0.086734
vt 0.000125 0.086734
vt 0.086734 0.086734
vt 0.086734 0.913266
vt 0.000125 0.913266
vt 0.086734 0.999875
vt 0.173343 0.999875
vt 0.346561 0.086734
vt 0.346561 0.913266
vt 0.173343 0.000125
vt 0.086734 0.000125
vt 0.578766 0.094741
vt 0.592675 0.207300
vt 0.514267 0.221809
vt 0.499562 0.084208
vt 0.606833 0.520262
vt 0.596647 0.420672
vt 0.748510 0.411777
vt 0.754942 0.509347
vt 0.846796 0.407657
vt 0.743638 0.295566
vt 0.841924 0.291446
vt 0.737579 0.196505
vt 0.597361 0.302010
vt 0.726963 0.079840
vt 0.515363 0.294636
vt 0.511683 0.443810
vt 0.346811 0.525652
vt 0.368752 0.260911
vt 0.525164 0.516088
vt 0.346811 0.000125
vt 0.592609 0.207291
vt 0.597436 0.301908
vt 0.515348 0.294819
vt 0.514292 0.221923
vt 0.369085 0.260864
s 0
f 1/1/1 2/2/1 4/3/1 3/4/1
f 7/5/2 8/6/2 6/7/2 5/8/2
f 5/9/3 6/7/3 2/2/3 1/10/3
f 3/4/4 7/11/4 5/12/4 1/1/4
f 8/6/5 4/3/5 2/2/5 6/7/5
f 3/13/6 4/3/6 8/6/6 7/14/6
f 11/15/7 9/16/7 18/17/7 17/18/7
f 11/19/3 12/20/3 16/21/3 15/22/3
f 15/23/1 16/21/1 14/24/1 13/25/1
f 13/26/6 14/24/6 10/27/6 9/16/6
f 11/15/4 15/28/4 13/26/4 9/16/4
f 16/21/5 12/20/5 10/27/5 14/24/5
f 19/29/8 20/30/8 21/31/8 26/32/8
f 12/20/9 11/19/9 17/33/9 20/30/9
f 9/16/6 10/27/6 19/29/6 18/17/6
f 10/27/10 12/20/10 20/30/10 19/29/10
f 17/18/11 18/17/11 26/32/11 21/34/11
f 20/30/12 17/33/12 21/31/12
f 18/17/13 19/29/13 26/32/13
f 22/35/6 23/36/6 25/37/6 24/38/6
f 24/38/13 25/37/13 26/39/13
