# Blender 3.6.15
# www.blender.org
o pick
v 0.313881 -0.022484 -2.907867
v 0.313881 0.605278 -2.907867
v 0.313881 -0.022484 3.083032
v 0.313881 0.605278 3.083032
v -0.313881 -0.022484 -2.907867
v -0.313881 0.605278 -2.907867
v -0.313881 -0.022484 3.083032
v -0.313881 0.605278 3.083032
v 1.210022 -0.066521 1.962383
v 1.210022 0.649315 1.962383
v 1.340188 -0.066521 2.666284
v 1.340188 0.649315 2.666284
v 0.000000 -0.066521 2.776209
v 0.000000 0.649315 2.776209
v 0.000000 -0.066521 2.060374
v 0.000000 0.649315 2.060374
v 1.972939 -0.066521 1.398515
v 1.972939 0.649315 1.398515
v 2.543021 -0.066521 1.831444
v 2.543021 0.649315 1.831444
v -1.210022 -0.066521 1.962383
v -1.210022 0.649315 1.962383
v -1.340188 -0.066521 2.666284
v -1.340188 0.649315 2.666284
v -1.972939 -0.066521 1.398516
v -1.972939 0.649315 1.398516
v -2.543021 -0.066521 1.831444
v -2.543021 0.649315 1.831444
vn 1.0000 -0.0000 -0.0000
vn -1.0000 -0.0000 -0.0000
vn -0.0000 -0.0000 -1.0000
vn -0.0000 -1.0000 -0.0000
vn -0.0000 1.0000 -0.0000
vn -0.0000 -0.0000 1.0000
vn -0.0807 -0.0000 -0.9967
vn 0.0817 -0.0000 0.9967
vn 0.6048 -0.0000 -0.7964
vn 0.5702 -0.0000 0.8215
vn -0.5944 -0.0000 -0.8042
vn 0.0807 -0.0000 -0.9967
vn -0.0817 -0.0000 0.9967
vn -0.6048 -0.0000 -0.7964
vn -0.5702 -0.0000 0.8215
vn 0.5944 -0.0000 -0.8042
vt 0.745002 0.913266
vt 0.658393 0.913266
vt 0.658393 0.086734
vt 0.745002 0.086734
vt 0.485175 0.086734
vt 0.571784 0.086734
vt 0.571784 0.913266
vt 0.485175 0.913266
vt 0.571784 0.999875
vt 0.658393 0.999875
vt 0.831611 0.086734
vt 0.831611 0.913266
vt 0.658393 0.000125
vt 0.571784 0.000125
vt 0.120977 0.693423
vt 0.227023 0.675985
vt 0.218432 0.892296
vt 0.112064 0.850667
vt 0.005736 0.499395
vt 0.120660 0.499395
vt 0.004972 0.693638
vt 0.219679 0.499395
vt 0.319545 0.678160
vt 0.323028 0.499395
vt 0.426731 0.499395
vt 0.423772 0.689869
vt 0.070436 0.957036
vt 0.176804 0.998664
vt 0.443909 0.841924
vt 0.338065 0.888745
vt 0.000125 0.845790
vt 0.120977 0.305366
vt 0.112064 0.148122
vt 0.218432 0.106494
vt 0.227023 0.322805
vt 0.004972 0.305152
vt 0.319545 0.320629
vt 0.423772 0.308920
vt 0.070436 0.041754
vt 0.176804 0.000125
vt 0.338065 0.110045
vt 0.443909 0.156865
vt 0.000125 0.152999
s 0
f 1/1/1 2/2/1 4/3/1 3/4/1
f 7/5/2 8/6/2 6/7/2 5/8/2
f 5/9/3 6/7/3 2/2/3 1/10/3
f 3/4/4 7/11/4 5/12/4 1/1/4
f 8/6/5 4/3/5 2/2/5 6/7/5
f 3/13/6 4/3/6 8/6/6 7/14/6
f 10/15/5 12/16/5 20/17/5 18/18/5
f 15/19/7 16/20/7 10/15/7 9/21/7
f 14/22/5 12/16/5 10/15/5 16/20/5
f 11/23/4 13/24/4 15/25/4 9/26/4
f 11/23/8 12/16/8 14/22/8 13/24/8
f 17/27/9 18/18/9 20/17/9 19/28/9
f 11/23/4 9/26/4 17/29/4 19/30/4
f 12/16/10 11/23/10 19/30/10 20/17/10
f 9/21/11 10/15/11 18/18/11 17/31/11
f 22/32/5 26/33/5 28/34/5 24/35/5
f 15/19/12 21/36/12 22/32/12 16/20/12
f 14/22/5 16/20/5 22/32/5 24/35/5
f 23/37/4 21/38/4 15/25/4 13/24/4
f 23/37/13 13/24/13 14/22/13 24/35/13
f 25/39/14 27/40/14 28/34/14 26/33/14
f 23/37/4 27/41/4 25/42/4 21/38/4
f 24/35/15 28/34/15 27/41/15 23/37/15
f 21/36/16 25/43/16 26/33/16 22/32/16
