# Blender 3.6.15
# www.blender.org
o canteen
v -0.000000 1.076186 -1.670507
v -0.000000 1.076186 0.972804
v 0.426364 0.899580 -1.670507
v 0.426364 0.899580 0.972804
v 0.602970 0.473215 -1.670507
v 0.602970 0.473215 0.972804
v 0.426364 0.046851 -1.670507
v 0.426364 0.046851 0.972804
v -0.000000 -0.129755 -1.670507
v -0.000000 -0.129755 0.972804
v -0.426364 0.046851 -1.670507
v -0.426364 0.046851 0.972804
v -0.602970 0.473215 -1.670507
v -0.602970 0.473215 0.972804
v -0.426364 0.899580 -1.670507
v -0.426364 0.899580 0.972804
v -0.000000 0.473215 -1.670507
v 0.200828 0.674043 1.365174
v 0.000000 0.757229 1.365174
v 0.284014 0.473215 1.365174
v 0.200828 0.272387 1.365174
v 0.000000 0.189202 1.365174
v -0.200828 0.272387 1.365174
v -0.284014 0.473215 1.365174
v -0.200828 0.674043 1.365174
v 0.200828 0.674043 1.740052
v -0.000000 0.757229 1.740052
v 0.284014 0.473215 1.740052
v 0.200828 0.272387 1.740052
v -0.000000 0.189202 1.740052
v -0.200828 0.272387 1.740052
v -0.284014 0.473215 1.740052
v -0.200828 0.674043 1.740052
v -0.000000 0.473215 1.740052
vn 0.3827 0.9239 -0.0000
vn 0.9239 0.3827 -0.0000
vn 0.9239 -0.3827 -0.0000
vn 0.3827 -0.9239 -0.0000
vn -0.3827 -0.9239 -0.0000
vn -0.9239 -0.3827 -0.0000
vn -0.3060 -0.7387 0.6005
vn -0.9239 0.3827 -0.0000
vn -0.3827 0.9239 -0.0000
vn -0.0000 -0.0000 -1.0000
vn -0.3060 0.7387 0.6005
vn 0.3060 0.7387 0.6005
vn 0.7387 -0.3060 0.6005
vn -0.7387 -0.3060 0.6005
vn 0.3060 -0.7387 0.6005
vn -0.7387 0.3060 0.6005
vn 0.7387 0.3060 0.6005
vn -0.0000 -0.0000 1.0000
vt 0.766235 0.405415
vt 0.269829 0.385430
vt 0.266525 0.307840
vt 0.769296 0.305715
vt 0.257022 0.229593
vt 0.768692 0.205050
vt 0.237223 0.145270
vt 0.764621 0.103211
vt 0.199305 0.048317
vt 0.757445 0.000112
vt 0.722646 0.793478
vt 0.191414 0.714456
vt 0.231448 0.622440
vt 0.736443 0.700730
vt 0.252737 0.542431
vt 0.749381 0.602706
vt 0.093331 0.625982
vt 0.119579 0.573255
vt 0.264825 0.464124
vt 0.759493 0.504380
vt 0.932415 0.000112
vt 0.999888 0.067585
vt 0.884704 0.115296
vt 0.999888 0.163007
vt 0.932415 0.230480
vt 0.836993 0.230480
vt 0.769520 0.163007
vt 0.769520 0.067585
vt 0.836993 0.000112
vt 0.000112 0.595970
vt 0.017514 0.541917
vt 0.140532 0.445379
vt 0.140927 0.381160
vt 0.144595 0.316595
vt 0.131892 0.252446
vt 0.113066 0.191679
vt 0.133460 0.509727
vt 0.087221 0.137353
vt 0.030376 0.271605
vt 0.017327 0.219818
vt 0.039210 0.379482
vt 0.037673 0.324595
vt 0.037039 0.434767
vt 0.030076 0.489127
vt 0.000112 0.169950
vt 0.846247 0.339213
vt 0.801302 0.339213
vt 0.823775 0.284958
vt 0.769520 0.307431
vt 0.769520 0.262485
vt 0.801302 0.230704
vt 0.846247 0.230704
vt 0.878029 0.262485
vt 0.878029 0.307431
s 0
f 1/1/1 2/2/1 4/3/1 3/4/1
f 3/4/2 4/3/2 6/5/2 5/6/2
f 5/6/3 6/5/3 8/7/3 7/8/3
f 7/8/4 8/7/4 10/9/4 9/10/4
f 9/11/5 10/12/5 12/13/5 11/14/5
f 11/14/6 12/13/6 14/15/6 13/16/6
f 12/13/7 10/12/7 22/17/7 23/18/7
f 13/16/8 14/15/8 16/19/8 15/20/8
f 15/20/9 16/19/9 2/2/9 1/1/9
f 1/21/10 3/22/10 17/23/10
f 3/22/10 5/24/10 17/23/10
f 5/24/10 7/25/10 17/23/10
f 7/25/10 9/26/10 17/23/10
f 9/26/10 11/27/10 17/23/10
f 11/27/10 13/28/10 17/23/10
f 13/28/10 15/29/10 17/23/10
f 15/29/10 1/21/10 17/23/10
f 23/18/5 22/17/5 30/30/5 31/31/5
f 2/2/11 16/19/11 25/32/11 19/33/11
f 4/3/12 2/2/12 19/33/12 18/34/12
f 8/7/13 6/5/13 20/35/13 21/36/13
f 14/15/14 12/13/14 23/18/14 24/37/14
f 10/9/15 8/7/15 21/36/15 22/38/15
f 16/19/16 14/15/16 24/37/16 25/32/16
f 6/5/17 4/3/17 18/34/17 20/35/17
f 21/36/3 20/35/3 28/39/3 29/40/3
f 18/34/1 19/33/1 27/41/1 26/42/1
f 19/33/9 25/32/9 33/43/9 27/41/9
f 24/37/6 23/18/6 31/31/6 32/44/6
f 22/38/4 21/36/4 29/40/4 30/45/4
f 20/35/2 18/34/2 26/42/2 28/39/2
f 25/32/8 24/37/8 32/44/8 33/43/8
f 26/46/18 27/47/18 34/48/18
f 27/47/18 33/49/18 34/48/18
f 33/49/18 32/50/18 34/48/18
f 32/50/18 31/51/18 34/48/18
f 31/51/18 30/52/18 34/48/18
f 30/52/18 29/53/18 34/48/18
f 29/53/18 28/54/18 34/48/18
f 28/54/18 26/46/18 34/48/18
