# Blender 3.6.15
# www.blender.org
o bar
v -0.578141 0.012697 2.048959
v -0.299933 0.841553 1.674341
v -0.578141 0.012697 -2.048959
v -0.299933 0.841553 -1.674341
v 0.578141 0.012697 2.048959
v 0.299933 0.841553 1.674341
v 0.578141 0.012697 -2.048959
v 0.299933 0.841553 -1.674341
vn -0.9480 0.3182 -0.0000
vn -0.0000 0.4119 -0.9112
vn 0.9480 0.3182 -0.0000
vn -0.0000 0.4119 0.9112
vn -0.0000 -1.0000 -0.0000
vn -0.0000 1.0000 -0.0000
vt 0.000000 0.000000
vt 0.198060 0.084864
vt 0.198059 0.843457
vt -0.000000 0.928320
vt 1.000000 0.261938
vt 0.793948 0.198914
vt 0.793948 0.063024
vt 1.000000 -0.000000
vt 0.532010 0.928320
vt 0.333950 0.843457
vt 0.333950 0.084864
vt 0.532010 0.000000
vt 0.793948 0.261938
vt 1.000000 0.324962
vt 1.000000 0.460852
vt 0.793948 0.523876
vt 0.793948 0.928321
vt 0.793948 0.000000
s 0
f 1/1/1 2/2/1 4/3/1 3/4/1
f 3/5/2 4/6/2 8/7/2 7/8/2
f 7/9/3 8/10/3 6/11/3 5/12/3
f 5/13/4 6/14/4 2/15/4 1/16/4
f 3/17/5 7/9/5 5/12/5 1/18/5
f 8/10/6 4/3/6 2/2/6 6/11/6
