# Blender 3.6.15
# www.blender.org
o coil
v 0.000000 -0.036131 -1.000000
v 0.000000 1.075271 -1.000000
v 0.866025 -0.036131 -0.500000
v 0.866025 1.075271 -0.500000
v 0.866025 -0.036131 0.500000
v 0.866025 1.075271 0.500000
v 0.000000 -0.036131 1.000000
v 0.000000 1.075271 1.000000
v -0.866025 -0.036131 0.500000
v -0.866025 1.075271 0.500000
v -0.866025 -0.036131 -0.500000
v -0.866025 1.075271 -0.500000
v 0.000000 0.607118 0.000000
v 0.000000 0.432022 0.000000
vn -0.0000 -0.7299 -0.6836
vn -0.0000 0.7299 -0.6836
vn 0.5920 0.7299 -0.3418
vn 0.5920 -0.7299 -0.3418
vn 0.5920 0.7299 0.3418
vn 0.5920 -0.7299 0.3418
vn -0.0000 0.7299 0.6836
vn -0.0000 -0.7299 0.6836
vn -0.5920 0.7299 0.3418
vn -0.5920 -0.7299 0.3418
vn -0.0000 -1.0000 -0.0000
vn -0.5920 0.7299 -0.3418
vn -0.5920 -0.7299 -0.3418
vn -0.0000 1.0000 -0.0000
vt 0.185234 0.666667
vt 0.000000 0.666667
vt 0.000000 0.500000
vt 0.185234 0.500000
vt 0.000000 0.333333
vt 0.185234 0.333333
vt 0.000000 0.166667
vt 0.185234 0.166667
vt 0.000000 0.000000
vt 0.185234 0.000000
vt 0.339125 -0.000000
vt 0.493016 0.088849
vt 0.339125 0.177698
vt 0.185234 1.000000
vt 0.000000 1.000000
vt 0.000000 0.833333
vt 0.185234 0.833333
vt 0.185234 0.444246
vt 0.339125 0.355396
vt 0.339125 0.533095
vt 0.493016 0.444246
vt 0.493016 0.621944
vt 0.339125 0.710793
vt 0.185234 0.621944
vt 0.493016 0.266547
vt 0.339125 0.355396
vt 0.185234 0.266547
vt 0.185234 0.088849
s 1
f 1/1/1 2/2/2 4/3/3 3/4/4
f 3/4/4 4/3/3 6/5/5 5/6/6
f 5/6/6 6/5/5 8/7/7 7/8/8
f 7/8/8 8/7/7 10/9/9 9/10/10
f 1/11/1 3/12/4 14/13/11
f 9/14/10 10/15/9 12/16/12 11/17/13
f 11/17/13 12/16/12 2/2/2 1/1/1
f 4/18/3 2/19/2 13/20/14
f 2/19/2 12/21/12 13/20/14
f 12/21/12 10/22/9 13/20/14
f 10/22/9 8/23/7 13/20/14
f 8/23/7 6/24/5 13/20/14
f 6/24/5 4/18/3 13/20/14
f 3/12/4 5/25/6 14/13/11
f 5/25/6 7/26/8 14/13/11
f 7/26/8 9/27/10 14/13/11
f 9/27/10 11/28/13 14/13/11
f 11/28/13 1/11/1 14/13/11
