# Blender 3.6.15
# www.blender.org
mtllib dirt_pile.mtl
o dirt_pile
v -1.078837 -0.003962 0.906104
v -0.324785 0.343256 0.468593
v -0.899140 -0.003962 -0.898302
v -0.357386 0.239315 -0.319428
v 0.892008 -0.003962 0.871994
v 0.373738 0.241391 0.417640
v 0.938333 -0.003962 -0.814159
v 0.259629 0.341322 -0.303322
v -1.379124 -0.003962 0.140982
v -0.569146 0.142415 0.536932
v -0.388168 0.247875 0.009709
v -0.512830 0.150260 -0.444776
v -0.008481 -0.003962 -1.192669
v -0.085977 0.346072 -0.436523
v 0.272137 0.187107 -0.560698
v 1.271777 -0.003962 0.037520
v 0.352710 0.328101 0.021688
v 0.639889 0.124453 0.446098
v 0.016932 -0.003962 1.254218
v 0.021674 0.337778 0.444211
v 0.044965 0.435409 0.175892
v -0.000065 -0.003962 -0.001190
v -0.027691 0.060431 0.737913
v 0.665100 0.245490 -0.098025
v -0.174982 0.203557 -0.635130
v -0.816327 0.151514 0.181564
vn -0.2842 0.9588 0.0031
vn -0.3361 0.9409 -0.0407
vn -0.3628 0.9165 -0.1688
vn -0.2658 0.9408 -0.2103
vn -0.0987 0.9239 -0.3698
vn -0.0977 0.9383 -0.3318
vn 0.2453 0.9281 -0.2802
vn 0.2017 0.9094 -0.3637
vn 0.3276 0.9431 -0.0574
vn 0.3052 0.9522 0.0134
vn 0.3061 0.8358 0.4558
vn 0.2422 0.9386 0.2457
vn 0.0277 0.9036 0.4274
vn 0.0664 0.8885 0.4540
vn -0.2341 0.8926 0.3853
vn -0.1968 0.9496 0.2439
vn -0.0000 -1.0000 -0.0000
vn 0.9912 -0.1287 0.0296
vn 0.6249 -0.1084 0.7731
vn 0.0453 -0.0940 0.9945
vn 0.0226 0.9982 0.0555
vn -0.9949 -0.1007 -0.0106
vn -0.6660 -0.0893 0.7406
vn -0.6889 -0.1285 -0.7134
vn 0.0229 -0.1391 -0.9900
vn 0.6871 -0.1512 -0.7107
vt 0.244620 0.825081
vt 0.336715 0.731691
vt 0.425342 0.754578
vt 0.443427 0.813546
vt 0.528148 0.739265
vt 0.477279 0.688934
vt 0.479485 0.592368
vt 0.560264 0.613703
vt 0.474613 0.465883
vt 0.409945 0.536118
vt 0.310339 0.488745
vt 0.324397 0.405787
vt 0.168360 0.546636
vt 0.276023 0.578483
vt 0.241617 0.655182
vt 0.175258 0.717698
vt 0.787248 0.233832
vt 0.866557 0.451178
vt 0.700034 0.443383
vt 0.576437 0.321437
vt 0.343957 0.600889
vt 0.670163 0.010594
vt 0.561251 0.112936
vt 0.878029 0.021485
vt 0.987844 0.151991
vt 0.987844 0.337396
vt 0.032786 0.480628
vt 0.013269 0.820260
vt 0.235887 0.284619
vt 0.508022 0.274505
vt 0.707608 0.458880
vt 0.707608 0.760516
vt 0.527434 0.971501
vt 0.191467 0.988013
s 1
f 26/1/1 11/2/2 4/3/3 12/4/4
f 25/5/5 14/6/6 8/7/7 15/8/8
f 24/9/9 17/10/10 6/11/11 18/12/12
f 23/13/13 20/14/14 2/15/15 10/16/16
f 22/17/17 16/18/18 5/19/19 19/20/20
f 21/21/21 11/2/2 2/15/15 20/14/14
f 17/10/10 21/21/21 20/14/14 6/11/11
f 8/7/7 14/6/6 21/21/21 17/10/10
f 14/6/6 4/3/3 11/2/2 21/21/21
f 9/22/22 22/17/17 19/20/20 1/23/23
f 3/24/24 13/25/25 22/17/17 9/22/22
f 13/25/25 7/26/26 16/18/18 22/17/17
f 19/27/20 23/13/13 10/16/16 1/28/23
f 5/29/19 18/12/12 23/13/13 19/27/20
f 18/12/12 6/11/11 20/14/14 23/13/13
f 16/30/18 24/9/9 18/12/12 5/29/19
f 7/31/26 15/8/8 24/9/9 16/30/18
f 15/8/8 8/7/7 17/10/10 24/9/9
f 13/32/25 25/5/5 15/8/8 7/31/26
f 3/33/24 12/4/4 25/5/5 13/32/25
f 12/4/4 4/3/3 14/6/6 25/5/5
f 9/34/22 26/1/1 12/4/4 3/33/24
f 1/28/23 10/16/16 26/1/1 9/34/22
f 10/16/16 2/15/15 11/2/2 26/1/1
