# Blender 3.6.15
# www.blender.org
o egg
v 0.376865 1.436911 -0.376865
v 0.580476 0.516507 -0.580476
v 0.439924 -0.062107 -0.439924
v 0.532967 1.436911 0.000000
v 0.820918 0.516507 0.000000
v 0.622146 -0.062107 0.000000
v 0.376865 1.436911 0.376865
v 0.580476 0.516507 0.580476
v 0.439923 -0.062107 0.439923
v 0.000000 1.436911 0.532967
v 0.000000 0.516507 0.820917
v 0.000000 -0.062107 0.622146
v -0.376865 1.436911 0.376865
v -0.580476 0.516507 0.580476
v -0.439923 -0.062107 0.439923
v 0.000000 -0.062107 0.000000
v -0.532967 1.436911 0.000000
v -0.820917 0.516507 0.000000
v -0.622146 -0.062107 0.000000
v -0.376865 1.436911 -0.376865
v -0.580476 0.516507 -0.580476
v -0.439923 -0.062107 -0.439923
v 0.000000 1.735273 0.000000
v 0.000000 1.436911 -0.532967
v 0.000000 0.516507 -0.820917
v 0.000000 -0.062107 -0.622146
vn -0.0000 -1.0000 -0.0000
vn -0.0000 -0.7496 -0.6619
vn 0.4680 -0.7496 -0.4680
vn -0.0000 -0.0129 -0.9999
vn -0.0000 0.5892 -0.8080
vn 0.5713 0.5892 -0.5713
vn 0.7070 -0.0129 -0.7070
vn -0.0000 1.0000 -0.0000
vn 0.8080 0.5892 -0.0000
vn 0.9999 -0.0129 -0.0000
vn 0.6619 -0.7496 -0.0000
vn 0.4680 -0.7496 0.4680
vn 0.5713 0.5892 0.5713
vn 0.7070 -0.0129 0.7070
vn -0.0000 -0.7496 0.6619
vn -0.0000 0.5892 0.8080
vn -0.0000 -0.0129 0.9999
vn -0.4680 -0.7496 0.4680
vn -0.5713 0.5892 0.5713
vn -0.7070 -0.0129 0.7070
vn -0.6619 -0.7496 -0.0000
vn -0.8080 0.5892 -0.0000
vn -0.9999 -0.0129 -0.0000
vn -0.5713 0.5892 -0.5713
vn -0.4680 -0.7496 -0.4680
vn -0.7070 -0.0129 -0.7070
vt 0.687500 0.000000
vt 0.750000 0.250000
vt 0.625000 0.250000
vt 0.750000 0.500000
vt 0.750000 0.750000
vt 0.625000 0.750000
vt 0.625000 0.500000
vt 0.687500 1.000000
vt 0.500000 0.750000
vt 0.500000 0.500000
vt 0.500000 0.250000
vt 0.562500 1.000000
vt 0.562500 0.000000
vt 0.437500 0.000000
vt 0.375000 0.250000
vt 0.375000 0.750000
vt 0.375000 0.500000
vt 0.437500 1.000000
vt 0.312500 0.000000
vt 0.250000 0.250000
vt 0.250000 0.750000
vt 0.250000 0.500000
vt 0.312500 1.000000
vt 0.187500 0.000000
vt 0.125000 0.250000
vt 0.125000 0.750000
vt 0.125000 0.500000
vt 0.187500 1.000000
vt 0.062500 0.000000
vt 0.000000 0.250000
vt 0.000000 0.750000
vt 0.000000 0.500000
vt 0.062500 1.000000
vt 1.000000 0.750000
vt 0.937500 1.000000
vt 0.875000 0.750000
vt 0.937500 0.000000
vt 1.000000 0.250000
vt 0.875000 0.250000
vt 1.000000 0.500000
vt 0.875000 0.500000
vt 0.812500 1.000000
vt 0.812500 0.000000
s 1
f 16/1/1 26/2/2 3/3/3
f 25/4/4 24/5/5 1/6/6 2/7/7
f 26/2/2 25/4/4 2/7/7 3/3/3
f 24/5/5 23/8/8 1/6/6
f 2/7/7 1/6/6 4/9/9 5/10/10
f 3/3/3 2/7/7 5/10/10 6/11/11
f 1/6/6 23/12/8 4/9/9
f 16/13/1 3/3/3 6/11/11
f 16/14/1 6/11/11 9/15/12
f 5/10/10 4/9/9 7/16/13 8/17/14
f 6/11/11 5/10/10 8/17/14 9/15/12
f 4/9/9 23/18/8 7/16/13
f 16/19/1 9/15/12 12/20/15
f 8/17/14 7/16/13 10/21/16 11/22/17
f 9/15/12 8/17/14 11/22/17 12/20/15
f 7/16/13 23/23/8 10/21/16
f 16/24/1 12/20/15 15/25/18
f 11/22/17 10/21/16 13/26/19 14/27/20
f 12/20/15 11/22/17 14/27/20 15/25/18
f 10/21/16 23/28/8 13/26/19
f 16/29/1 15/25/18 19/30/21
f 14/27/20 13/26/19 17/31/22 18/32/23
f 15/25/18 14/27/20 18/32/23 19/30/21
f 13/26/19 23/33/8 17/31/22
f 17/34/22 23/35/8 20/36/24
f 16/37/1 19/38/21 22/39/25
f 18/40/23 17/34/22 20/36/24 21/41/26
f 19/38/21 18/40/23 21/41/26 22/39/25
f 22/39/25 21/41/26 25/4/4 26/2/2
f 20/36/24 23/42/8 24/5/5
f 16/43/1 22/39/25 26/2/2
f 21/41/26 20/36/24 24/5/5 25/4/4
