# Blender 3.6.15
# www.blender.org
o glass
v -0.841877 0.012697 0.893009
v -0.841877 0.379259 0.893009
v -0.841877 0.012697 -0.893009
v -0.841877 0.379259 -0.893009
v 0.841877 0.012697 0.893009
v 0.841877 0.379259 0.893009
v 0.841877 0.012697 -0.893009
v 0.841877 0.379259 -0.893009
vn -1.0000 -0.0000 -0.0000
vn -0.0000 -0.0000 -1.0000
vn 1.0000 -0.0000 -0.0000
vn -0.0000 -0.0000 1.0000
vn -0.0000 -1.0000 -0.0000
vn -0.0000 1.0000 -0.0000
vt 0.102620 1.000000
vt 0.000000 1.000000
vt -0.000000 0.500000
vt 0.102620 0.500000
vt 0.307860 0.971371
vt 0.205240 0.971371
vt 0.205240 0.500000
vt 0.307860 0.500000
vt 0.205240 1.000000
vt 0.102620 1.000000
vt 0.102620 0.500000
vt 0.205240 0.500000
vt 0.410480 0.971371
vt 0.307860 0.971371
vt 0.307860 0.500000
vt 0.410480 0.500000
vt 0.471371 0.500000
vt 0.000000 0.500000
vt 0.000000 0.000000
vt 0.471371 0.000000
vt 0.942742 0.500000
vt 0.942742 0.000000
s 0
f 1/1/1 2/2/1 4/3/1 3/4/1
f 3/5/2 4/6/2 8/7/2 7/8/2
f 7/9/3 8/10/3 6/11/3 5/12/3
f 5/13/4 6/14/4 2/15/4 1/16/4
f 3/17/5 7/18/5 5/19/5 1/20/5
f 8/21/6 4/17/6 2/20/6 6/22/6
