# Blender 3.6.15
# www.blender.org
o log
v -0.180159 0.881835 -1.716356
v -0.180159 0.881835 1.716356
v 0.180159 0.881835 -1.716356
v 0.180159 0.881835 1.716356
v 0.434942 0.627052 -1.716356
v 0.434942 0.627052 1.716356
v 0.434942 0.266734 -1.716356
v 0.434942 0.266734 1.716356
v 0.180159 0.011951 -1.716356
v 0.180159 0.011951 1.716356
v -0.180159 0.011951 -1.716356
v -0.180159 0.011951 1.716356
v -0.434942 0.266734 -1.716356
v -0.434942 0.266734 1.716356
v -0.434942 0.627052 -1.716356
v -0.434942 0.627052 1.716356
vn -0.2971 0.7173 -0.6303
vn -0.2971 0.7173 0.6303
vn 0.2971 0.7173 0.6303
vn 0.2971 0.7173 -0.6303
vn 0.7173 0.2971 0.6303
vn 0.7173 0.2971 -0.6303
vn 0.7173 -0.2971 0.6303
vn 0.7173 -0.2971 -0.6303
vn 0.2971 -0.7173 0.6303
vn 0.2971 -0.7173 -0.6303
vn -0.2971 -0.7173 0.6303
vn -0.2971 -0.7173 -0.6303
vn -0.7173 -0.2971 0.6303
vn -0.7173 -0.2971 -0.6303
vn -0.7173 0.2971 0.6303
vn -0.7173 0.2971 -0.6303
vt 0.915328 0.712061
vt 0.001006 0.712061
vt 0.001006 0.616088
vt 0.915328 0.616088
vt 0.001006 0.520116
vt 0.915328 0.520116
vt 0.001006 0.424143
vt 0.915328 0.424143
vt 0.001006 0.328170
vt 0.915328 0.328170
vt 0.001006 0.232198
vt 0.915328 0.232198
vt 0.915328 0.999979
vt 0.001006 0.999979
vt 0.001006 0.904006
vt 0.915328 0.904006
vt 0.164841 0.231937
vt 0.068869 0.231937
vt 0.001006 0.164075
vt 0.001006 0.068102
vt 0.068868 0.000239
vt 0.164841 0.000239
vt 0.232704 0.068102
vt 0.232704 0.164074
vt 0.001006 0.808034
vt 0.915328 0.808034
vt 0.396800 0.231937
vt 0.300827 0.231937
vt 0.232964 0.164075
vt 0.232964 0.068102
vt 0.300827 0.000239
vt 0.396800 0.000239
vt 0.464663 0.068102
vt 0.464663 0.164075
s 1
f 1/1/1 2/2/2 4/3/3 3/4/4
f 3/4/4 4/3/3 6/5/5 5/6/6
f 5/6/6 6/5/5 8/7/7 7/8/8
f 7/8/8 8/7/7 10/9/9 9/10/10
f 9/10/10 10/9/9 12/11/11 11/12/12
f 11/13/12 12/14/11 14/15/13 13/16/14
f 4/17/3 2/18/2 16/19/15 14/20/13 12/21/11 10/22/9 8/23/7 6/24/5
f 13/16/14 14/15/13 16/25/15 15/26/16
f 15/26/16 16/25/15 2/2/2 1/1/1
f 1/27/1 3/28/4 5/29/6 7/30/8 9/31/10 11/32/12 13/33/14 15/34/16
