# Blender 3.6.15
# www.blender.org
o motor
v 0.500000 1.734254 -1.000000
v 0.500000 1.734254 1.000000
v 1.000000 0.868229 -1.000000
v 1.000000 0.868228 1.000000
v 0.500000 0.002203 -1.000000
v 0.500000 0.002203 1.000000
v -0.500000 0.002203 -1.000000
v -0.500000 0.002203 1.000000
v -1.000000 0.868228 -1.000000
v -1.000000 0.868228 1.000000
v -0.500000 1.734254 -1.000000
v -0.500000 1.734254 1.000000
v -0.128900 0.739329 1.869764
v -0.128900 0.997128 1.869764
v -0.128900 0.739329 0.871100
v -0.128900 0.997128 0.871100
v 0.128900 0.739329 1.869764
v 0.128900 0.997128 1.869764
v 0.128900 0.739329 0.871100
v 0.128900 0.997128 0.871100
vn 0.3962 0.6862 -0.6100
vn 0.3962 0.6862 0.6100
vn 0.7924 -0.0000 0.6100
vn 0.7924 -0.0000 -0.6100
vn 0.3962 -0.6862 0.6100
vn 0.3962 -0.6862 -0.6100
vn -0.3962 -0.6862 0.6100
vn -0.3962 -0.6862 -0.6100
vn -0.7924 -0.0000 0.6100
vn -0.7924 -0.0000 -0.6100
vn -0.3962 0.6862 0.6100
vn -0.3962 0.6862 -0.6100
vn -0.5774 -0.5774 0.5774
vn -0.5774 0.5774 0.5774
vn -0.7071 0.7071 -0.0000
vn -0.7071 -0.7071 -0.0000
vn 0.7071 -0.7071 -0.0000
vn 0.7071 0.7071 -0.0000
vn 0.5774 0.5774 0.5774
vn 0.5774 -0.5774 0.5774
vt 0.333333 0.500000
vt 0.000000 0.500000
vt 0.000000 0.333333
vt 0.333333 0.333333
vt 0.000000 0.166667
vt 0.333333 0.166667
vt 0.000000 0.000000
vt 0.333333 0.000000
vt 0.333333 1.000000
vt 0.000000 1.000000
vt 0.000000 0.833333
vt 0.333333 0.833333
vt 0.416667 0.288675
vt 0.583333 0.288675
vt 0.666667 0.433013
vt 0.583333 0.577350
vt 0.416667 0.577350
vt 0.333333 0.433013
vt 0.000000 0.666667
vt 0.333333 0.666667
vt 0.583333 0.288675
vt 0.416667 0.288675
vt 0.333333 0.144338
vt 0.416667 0.000000
vt 0.583333 -0.000000
vt 0.666667 0.144338
vt 0.423896 0.664095
vt 0.424273 0.664017
vt 0.333333 0.750373
vt 0.339541 0.577386
vt 0.511217 0.577350
vt 0.511217 0.752467
vt 0.424519 0.663820
vt 0.424187 0.663602
s 1
f 1/1/1 2/2/2 4/3/3 3/4/4
f 3/4/4 4/3/3 6/5/5 5/6/6
f 5/6/6 6/5/5 8/7/7 7/8/8
f 7/9/8 8/10/7 10/11/9 9/12/10
f 4/13/3 2/14/2 12/15/11 10/16/9 8/17/7 6/18/5
f 9/12/10 10/11/9 12/19/11 11/20/12
f 11/20/12 12/19/11 2/2/2 1/1/1
f 1/21/1 3/22/4 5/23/6 7/24/8 9/25/10 11/26/12
f 13/27/13 14/28/14 16/29/15 15/30/16
f 19/31/17 20/32/18 18/33/19 17/34/20
f 17/34/20 18/33/19 14/28/14 13/27/13
f 15/30/16 19/31/17 17/34/20 13/27/13
f 20/32/18 16/29/15 14/28/14 18/33/19
