# Blender 3.6.15
# www.blender.org
o ore_chunk
v -0.388429 -0.036655 0.395806
v -0.480896 0.964842 0.213172
v -0.409387 -0.036655 -0.412795
v -0.471991 1.097438 -0.473493
v 0.516499 -0.036655 0.536437
v 0.336980 1.020557 0.247941
v 0.419236 -0.036655 -0.347638
v 0.488174 1.143274 -0.498637
v -0.517933 -0.036655 -0.036303
v -0.469371 0.709824 0.278585
v -0.423310 1.058760 -0.028137
v -0.549882 0.755180 -0.642823
v 0.006038 -0.036655 -0.627298
v -0.231204 1.200254 -0.629950
v 0.470623 0.716714 -0.538300
v 0.671013 -0.036655 0.033373
v 0.336158 1.068815 0.034708
v 0.338142 0.777017 0.296920
v -0.011019 -0.036655 0.651424
v 0.120181 1.360224 0.700099
v -0.003498 1.243252 -0.137816
v 0.000000 -0.036655 0.000000
v -0.068275 0.515684 0.532028
v 0.624089 0.896383 -0.007499
v 0.047376 0.635482 -0.717434
v -0.652842 0.740328 -0.043082
vn -0.9876 0.1227 0.0979
vn -0.6849 0.7244 0.0785
vn -0.6502 0.6805 -0.3379
vn -0.7189 0.0711 -0.6915
vn 0.1018 -0.0360 -0.9942
vn -0.1278 0.7534 -0.6451
vn 0.5926 0.6749 -0.4398
vn 0.7121 0.0845 -0.6970
vn 0.9498 0.2853 0.1282
vn 0.6743 0.7322 0.0959
vn 0.8047 0.4329 0.4063
vn 0.7173 0.1384 0.6828
vn -0.1325 0.1137 0.9846
vn 0.1531 0.6555 0.7395
vn -0.7772 0.4696 0.4188
vn -0.7859 0.0705 0.6143
vn -0.0000 -1.0000 -0.0000
vn 0.8002 -0.5971 0.0551
vn 0.5337 -0.4908 0.6887
vn -0.0918 -0.5446 0.8337
vn -0.0133 0.9999 0.0099
vn -0.7040 -0.7073 0.0642
vn -0.5737 -0.6319 0.5211
vn -0.5215 -0.7280 -0.4450
vn 0.0702 -0.6851 -0.7250
vn 0.5305 -0.7199 -0.4476
vt 0.179899 0.226732
vt 0.083997 0.181590
vt 0.161741 0.089856
vt 0.244849 0.110834
vt 0.273993 0.935335
vt 0.088082 1.000000
vt 0.141359 0.836885
vt 0.221719 0.821912
vt 0.146779 0.729599
vt 0.057319 0.740590
vt 0.055669 0.671742
vt 0.114626 0.619282
vt 0.470957 0.064962
vt 0.620391 0.138453
vt 0.544511 0.278071
vt 0.470957 0.232888
vt 0.452723 0.645893
vt 0.306424 0.673313
vt 0.303660 0.596485
vt 0.349132 0.491976
vt 0.746846 0.222239
vt 0.623491 0.309615
vt 0.747763 0.097957
vt 0.691710 0.065342
vt 0.000000 0.856629
vt 0.160199 0.003118
vt -0.000000 0.057690
vt 0.335131 0.291587
vt 0.456169 0.339072
vt 0.322000 0.381056
vt 0.372360 0.218566
vt 0.470956 0.158118
vt 0.436190 0.827832
vt 0.351674 0.739393
vt 0.184711 0.467035
vt 0.143178 0.319468
vt 0.642529 -0.000000
vt 0.356144 0.000000
vt 0.084055 0.263624
s 1
f 26/1/1 11/2/2 4/3/3 12/4/4
f 25/5/5 14/6/6 8/7/7 15/8/8
f 24/9/9 17/10/10 6/11/11 18/12/12
f 23/13/13 20/14/14 2/15/15 10/16/16
f 22/17/17 16/18/18 5/19/19 19/20/20
f 21/21/21 11/22/2 2/15/15 20/14/14
f 17/23/10 21/21/21 20/14/14 6/24/11
f 8/7/7 14/6/6 21/25/21 17/10/10
f 14/26/6 4/3/3 11/2/2 21/27/21
f 9/28/22 22/29/17 19/20/20 1/30/23
f 3/31/24 13/32/25 22/29/17 9/28/22
f 13/33/25 7/34/26 16/18/18 22/17/17
f 19/20/20 23/35/13 10/36/16 1/30/23
f 5/19/19 18/12/12 23/35/13 19/20/20
f 18/37/12 6/24/11 20/14/14 23/13/13
f 16/18/18 24/9/9 18/12/12 5/19/19
f 7/34/26 15/8/8 24/9/9 16/18/18
f 15/8/8 8/7/7 17/10/10 24/9/9
f 13/33/25 25/5/5 15/8/8 7/34/26
f 3/31/24 12/4/4 25/38/5 13/32/25
f 12/4/4 4/3/3 14/26/6 25/38/5
f 9/28/22 26/1/1 12/4/4 3/31/24
f 1/30/23 10/36/16 26/1/1 9/28/22
f 10/36/16 2/39/15 11/2/2 26/1/1
