# Blender 3.6.15
# www.blender.org
o plank
v -0.393100 0.012697 1.674341
v -0.393100 0.379259 1.674341
v -0.393100 0.012697 -1.674341
v -0.393100 0.379259 -1.674341
v 0.393100 0.012697 1.674341
v 0.393100 0.379259 1.674341
v 0.393100 0.012697 -1.674341
v 0.393100 0.379259 -1.674341
vn -1.0000 -0.0000 -0.0000
vn -0.0000 -0.0000 -1.0000
vn 1.0000 -0.0000 -0.0000
vn -0.0000 -0.0000 1.0000
vn -0.0000 -1.0000 -0.0000
vn -0.0000 1.0000 -0.0000
vt 0.688444 0.999885
vt 0.579004 0.999885
vt 0.579004 0.000115
vt 0.688444 0.000115
vt 0.798113 0.234840
vt 0.688674 0.234840
vt 0.688674 0.000115
vt 0.798113 0.000115
vt 0.234840 0.000115
vt 0.344279 0.000115
vt 0.344279 0.999885
vt 0.234840 0.999885
vt 0.688674 0.235070
vt 0.798113 0.235070
vt 0.798113 0.469795
vt 0.688674 0.469795
vt 0.000115 0.000115
vt 0.000115 0.999885
s 0
f 1/1/1 2/2/1 4/3/1 3/4/1
f 3/5/2 4/6/2 8/7/2 7/8/2
f 7/9/3 8/10/3 6/11/3 5/12/3
f 5/13/4 6/14/4 2/15/4 1/16/4
f 3/17/5 7/9/5 5/12/5 1/18/5
f 8/10/6 4/3/6 2/2/6 6/11/6
