# Blender 3.6.15
# www.blender.org
o rivets
v -0.072297 -0.010829 -0.057354
v -0.033878 0.027590 0.000375
v -0.072297 0.133766 -0.057354
v -0.033878 0.095347 0.000375
v 0.072297 -0.010829 -0.057354
v 0.033878 0.027590 0.000375
v 0.072297 0.133766 -0.057354
v 0.033878 0.095347 0.000375
v -0.113552 -0.052083 0.000375
v -0.113552 0.175021 0.000375
v 0.113552 0.175021 0.000375
v 0.113552 -0.052083 0.000375
v -0.033878 0.027590 0.709215
v -0.033878 0.095347 0.709215
v 0.033878 0.095347 0.709215
v 0.033878 0.027590 0.709215
v -0.113552 0.175021 -0.057354
v -0.113552 -0.052083 -0.057354
v 0.113552 0.175021 -0.057354
v 0.113552 -0.052083 -0.057354
v -0.072297 0.133766 -0.595257
v -0.072297 -0.010829 -0.595257
v 0.072297 0.133766 -0.595257
v 0.072297 -0.010829 -0.595257
v 0.078141 0.191821 -0.115527
v 0.062501 0.222881 -0.044287
v -0.004399 0.310257 -0.107308
v 0.023823 0.278380 -0.040435
v 0.183638 0.260399 -0.044289
v 0.111937 0.255017 -0.010905
v 0.101098 0.378836 -0.036069
v 0.073259 0.310516 -0.007053
v 0.049851 0.119833 -0.088069
v -0.079788 0.305852 -0.075159
v 0.085908 0.413564 0.036730
v 0.215548 0.227545 0.023820
v -0.204439 -0.005871 0.571238
v -0.243117 0.049628 0.575089
v -0.193681 0.081764 0.608471
v -0.155003 0.026265 0.604619
v -0.058049 0.324482 -0.125288
v 0.071591 0.138463 -0.138198
v 0.107648 0.432193 -0.013399
v 0.237287 0.246174 -0.026309
v 0.198168 0.483846 -0.574398
v 0.280708 0.365409 -0.582618
v 0.303665 0.552424 -0.503160
v 0.386205 0.433988 -0.511379
v -0.228568 0.024575 0.015235
v -0.170490 0.078448 0.018266
v -0.262003 0.162059 0.045032
v -0.186158 0.142873 0.032229
v -0.165478 0.066604 -0.107894
v -0.140926 0.098143 -0.039432
v -0.198913 0.204088 -0.078097
v -0.156594 0.162567 -0.025469
v -0.186831 -0.020466 0.069693
v -0.239344 0.195469 0.116494
v -0.140253 0.261481 -0.076896
v -0.087740 0.045546 -0.123696
v 0.445896 0.154286 0.359983
v 0.430229 0.218711 0.373946
v 0.459792 0.238405 0.316248
v 0.475460 0.173981 0.302285
v -0.289543 0.189293 0.088664
v -0.237029 -0.026642 0.041864
v -0.190452 0.255305 -0.104726
v -0.137938 0.039369 -0.151526
v -0.729748 0.104509 -0.214279
v -0.696313 -0.032975 -0.244077
v -0.666658 0.146538 -0.337409
v -0.633223 0.009054 -0.367206
v -0.334008 0.190884 0.054193
v -0.348927 0.252092 0.006071
v -0.345618 0.323391 0.110892
v -0.354367 0.314184 0.032640
v -0.465893 0.204059 -0.003603
v -0.410728 0.258265 -0.021012
v -0.477503 0.336566 0.053096
v -0.416168 0.320358 0.005557
v -0.269859 0.171819 0.006676
v -0.288094 0.379937 0.095728
v -0.495235 0.400631 0.004952
v -0.477001 0.192512 -0.084100
v -0.063955 0.528360 -0.581229
v -0.069395 0.590452 -0.554660
v -0.131196 0.596626 -0.581743
v -0.125756 0.534534 -0.608311
v -0.311302 0.357438 0.143558
v -0.293068 0.149319 0.054506
v -0.518444 0.378131 0.052782
v -0.500210 0.170013 -0.036270
v -0.561869 0.113745 0.556564
v -0.550259 -0.018762 0.499865
v -0.693754 0.126921 0.498768
v -0.682144 -0.005587 0.442069
vn -0.5774 -0.5774 -0.5774
vn -0.5774 -0.5774 0.5774
vn -0.5774 0.5774 0.5774
vn -0.5774 0.5774 -0.5774
vn 0.5774 0.5774 0.5774
vn 0.5774 0.5774 -0.5774
vn 0.5774 -0.5774 0.5774
vn 0.5774 -0.5774 -0.5774
vn -0.3015 -0.3015 -0.9045
vn -0.3015 0.3015 -0.9045
vn -0.3015 -0.3015 0.9045
vn 0.3015 -0.3015 0.9045
vn -0.3015 0.3015 0.9045
vn 0.3015 0.3015 0.9045
vn 0.3015 0.3015 -0.9045
vn 0.3015 -0.3015 -0.9045
vn 0.1258 -0.5604 -0.8186
vn -0.3091 -0.9330 0.1841
vn -0.9682 0.0128 0.2497
vn -0.5334 0.3854 -0.7530
vn -0.1258 0.5604 0.8186
vn 0.3091 0.9330 -0.1841
vn 0.5334 -0.3854 0.7530
vn 0.9682 -0.0128 -0.2497
vn 0.2928 -0.0981 -0.9511
vn -0.0515 0.3959 -0.9169
vn -0.3885 -0.6819 0.6198
vn 0.0515 -0.3959 0.9169
vn -0.7327 -0.1879 0.6540
vn -0.2928 0.0981 0.9511
vn 0.3885 0.6819 -0.6198
vn 0.7327 0.1879 -0.6540
vn -0.6205 -0.7785 0.0943
vn 0.3836 -0.6550 0.6510
vn 0.1166 0.4429 0.8889
vn -0.8875 0.3194 0.3323
vn 0.6205 0.7785 -0.0943
vn -0.3836 0.6550 -0.6510
vn 0.8875 -0.3194 -0.3323
vn -0.1166 -0.4429 -0.8889
vn -0.8484 -0.4711 -0.2414
vn -0.9878 0.1023 -0.1172
vn 0.7247 -0.2775 0.6307
vn 0.9878 -0.1023 0.1172
vn 0.5853 0.2958 0.7549
vn 0.8484 0.4711 0.2414
vn -0.7247 0.2775 -0.6307
vn -0.5853 -0.2958 -0.7549
vn 0.3408 -0.8067 0.4827
vn 0.8051 -0.3567 -0.4740
vn 0.7124 0.7015 -0.0212
vn 0.2481 0.2515 0.9355
vn -0.3408 0.8067 -0.4827
vn -0.8051 0.3567 0.4740
vn -0.2481 -0.2515 -0.9355
vn -0.7124 -0.7015 0.0212
vn -0.0644 -0.6563 0.7517
vn -0.1128 -0.1037 0.9882
vn 0.6629 0.0488 -0.7472
vn 0.1128 0.1037 -0.9882
vn 0.6144 0.6014 -0.5107
vn 0.0644 0.6563 -0.7517
vn -0.6629 -0.0488 0.7472
vn -0.6144 -0.6014 0.5107
vt 0.375000 0.000000
vt 0.625000 0.000000
vt 0.625000 0.250000
vt 0.375000 0.250000
vt 0.625000 0.500000
vt 0.375000 0.500000
vt 0.625000 0.750000
vt 0.375000 0.750000
vt 0.625000 1.000000
vt 0.375000 1.000000
vt 0.148439 0.726561
vt 0.148439 0.523439
vt 0.787294 0.662294
vt 0.712706 0.662294
vt 0.787294 0.587706
vt 0.875000 0.500000
vt 0.875000 0.750000
vt 0.712706 0.587706
vt 0.125000 0.750000
vt 0.125000 0.500000
vt 0.351561 0.523439
vt 0.351561 0.726561
s 1
f 18/1/1 9/2/2 10/3/3 17/4/4
f 17/4/4 10/3/3 11/5/5 19/6/6
f 19/6/6 11/5/5 12/7/7 20/8/8
f 20/8/8 12/7/7 9/9/2 18/10/1
f 1/11/9 3/12/10 21/12/4 22/11/1
f 2/13/11 6/14/12 16/14/7 13/13/2
f 2/13/11 4/15/13 10/16/3 9/17/2
f 4/15/13 8/18/14 11/5/5 10/16/3
f 8/18/14 6/14/12 12/7/7 11/5/5
f 6/14/12 2/13/11 9/17/2 12/7/7
f 15/18/5 14/15/3 13/13/2 16/14/7
f 8/18/14 4/15/13 14/15/3 15/18/5
f 6/14/12 8/18/14 15/18/5 16/14/7
f 4/15/13 2/13/11 13/13/2 14/15/3
f 3/12/10 1/11/9 18/19/1 17/20/4
f 7/21/15 3/12/10 17/20/4 19/6/6
f 5/22/16 7/21/15 19/6/6 20/8/8
f 1/11/9 5/22/16 20/8/8 18/19/1
f 21/12/4 23/21/6 24/22/8 22/11/1
f 5/22/16 1/11/9 22/11/1 24/22/8
f 3/12/10 7/21/15 23/21/6 21/12/4
f 7/21/15 5/22/16 24/22/8 23/21/6
f 42/1/17 33/2/18 34/3/19 41/4/20
f 41/4/20 34/3/19 35/5/21 43/6/22
f 43/6/22 35/5/21 36/7/23 44/8/24
f 44/8/24 36/7/23 33/9/18 42/10/17
f 25/11/25 27/12/26 45/12/20 46/11/17
f 26/13/27 30/14/28 40/14/23 37/13/18
f 26/13/27 28/15/29 34/16/19 33/17/18
f 28/15/29 32/18/30 35/5/21 34/16/19
f 32/18/30 30/14/28 36/7/23 35/5/21
f 30/14/28 26/13/27 33/17/18 36/7/23
f 39/18/21 38/15/19 37/13/18 40/14/23
f 32/18/30 28/15/29 38/15/19 39/18/21
f 30/14/28 32/18/30 39/18/21 40/14/23
f 28/15/29 26/13/27 37/13/18 38/15/19
f 27/12/26 25/11/25 42/19/17 41/20/20
f 31/21/31 27/12/26 41/20/20 43/6/22
f 29/22/32 31/21/31 43/6/22 44/8/24
f 25/11/25 29/22/32 44/8/24 42/19/17
f 45/12/20 47/21/22 48/22/24 46/11/17
f 29/22/32 25/11/25 46/11/17 48/22/24
f 27/12/26 31/21/31 47/21/22 45/12/20
f 31/21/31 29/22/32 48/22/24 47/21/22
f 66/1/33 57/2/34 58/3/35 65/4/36
f 65/4/36 58/3/35 59/5/37 67/6/38
f 67/6/38 59/5/37 60/7/39 68/8/40
f 68/8/40 60/7/39 57/9/34 66/10/33
f 49/11/41 51/12/42 69/12/36 70/11/33
f 50/13/43 54/14/44 64/14/39 61/13/34
f 50/13/43 52/15/45 58/16/35 57/17/34
f 52/15/45 56/18/46 59/5/37 58/16/35
f 56/18/46 54/14/44 60/7/39 59/5/37
f 54/14/44 50/13/43 57/17/34 60/7/39
f 63/18/37 62/15/35 61/13/34 64/14/39
f 56/18/46 52/15/45 62/15/35 63/18/37
f 54/14/44 56/18/46 63/18/37 64/14/39
f 52/15/45 50/13/43 61/13/34 62/15/35
f 51/12/42 49/11/41 66/19/33 65/20/36
f 55/21/47 51/12/42 65/20/36 67/6/38
f 53/22/48 55/21/47 67/6/38 68/8/40
f 49/11/41 53/22/48 68/8/40 66/19/33
f 69/12/36 71/21/38 72/22/40 70/11/33
f 53/22/48 49/11/41 70/11/33 72/22/40
f 51/12/42 55/21/47 71/21/38 69/12/36
f 55/21/47 53/22/48 72/22/40 71/21/38
f 90/1/49 81/2/50 82/3/51 89/4/52
f 89/4/52 82/3/51 83/5/53 91/6/54
f 91/6/54 83/5/53 84/7/55 92/8/56
f 92/8/56 84/7/55 81/9/50 90/10/49
f 73/11/57 75/12/58 93/12/52 94/11/49
f 74/13/59 78/14/60 88/14/55 85/13/50
f 74/13/59 76/15/61 82/16/51 81/17/50
f 76/15/61 80/18/62 83/5/53 82/16/51
f 80/18/62 78/14/60 84/7/55 83/5/53
f 78/14/60 74/13/59 81/17/50 84/7/55
f 87/18/53 86/15/51 85/13/50 88/14/55
f 80/18/62 76/15/61 86/15/51 87/18/53
f 78/14/60 80/18/62 87/18/53 88/14/55
f 76/15/61 74/13/59 85/13/50 86/15/51
f 75/12/58 73/11/57 90/19/49 89/20/52
f 79/21/63 75/12/58 89/20/52 91/6/54
f 77/22/64 79/21/63 91/6/54 92/8/56
f 73/11/57 77/22/64 92/8/56 90/19/49
f 93/12/52 95/21/54 96/22/56 94/11/49
f 77/22/64 73/11/57 94/11/49 96/22/56
f 75/12/58 79/21/63 95/21/54 93/12/52
f 79/21/63 77/22/64 96/22/56 95/21/54
