# Blender 3.6.15
# www.blender.org
o sheet
v -1.000000 -0.022588 1.773644
v -1.000000 0.102346 1.773644
v -1.000000 -0.022588 -1.773644
v -1.000000 0.102346 -1.773644
v 1.000000 -0.022588 1.773644
v 1.000000 0.102346 1.773644
v 1.000000 -0.022588 -1.773644
v 1.000000 0.102346 -1.773644
vn -1.0000 -0.0000 -0.0000
vn -0.0000 -0.0000 -1.0000
vn 1.0000 -0.0000 -0.0000
vn -0.0000 -0.0000 1.0000
vn -0.0000 -1.0000 -0.0000
vn -0.0000 1.0000 -0.0000
vt 0.000000 0.529397
vt 0.000000 0.500000
vt 0.834682 0.500000
vt 0.834682 0.529397
vt 0.864079 0.470603
vt 0.834682 0.470603
vt 0.834682 0.000000
vt 0.864079 0.000000
vt 0.834682 -0.000000
vt 0.834682 0.029397
vt 0.000000 0.029397
vt 0.000000 -0.000000
vt 0.893477 0.000000
vt 0.893477 0.470603
vt 0.834682 1.000000
vt 0.000000 1.000000
s 0
f 1/1/1 2/2/1 4/3/1 3/4/1
f 3/5/2 4/6/2 8/7/2 7/8/2
f 7/9/3 8/10/3 6/11/3 5/12/3
f 5/8/4 6/13/4 2/14/4 1/5/4
f 3/4/5 7/15/5 5/16/5 1/1/5
f 8/10/6 4/3/6 2/2/6 6/11/6
