# Blender 3.6.15
# www.blender.org
o stone
v -0.383784 -0.025074 0.361729
v -0.456625 0.720530 0.495814
v -0.436369 -0.025074 -0.467321
v -0.336460 0.790072 -0.345192
v 0.387414 -0.025074 0.472668
v 0.493246 0.873590 0.465496
v 0.396996 -0.025074 -0.389832
v 0.346570 0.879376 -0.349527
v -0.504167 -0.025074 0.038956
v -0.463726 0.404090 0.527987
v -0.391914 0.749005 0.025717
v -0.458391 0.475552 -0.515324
v 0.029423 -0.025074 -0.625214
v -0.078034 1.040897 -0.430888
v 0.519976 0.456460 -0.540737
v 0.501370 -0.025074 0.053862
v 0.577793 0.945070 0.001214
v 0.587922 0.474284 0.651324
v -0.012327 -0.025074 0.584131
v -0.011842 0.888802 0.536447
v 0.073490 0.953702 -0.018942
v 0.014898 -0.025074 0.023131
v 0.010310 0.429375 0.742474
v 0.755328 0.477659 0.076681
v -0.001232 0.454874 -0.785899
v -0.806941 0.451949 0.031457
vn -0.9920 0.1246 0.0186
vn -0.6097 0.7916 0.0401
vn -0.6208 0.7158 -0.3199
vn -0.7270 0.1686 -0.6656
vn -0.0171 0.1157 -0.9931
vn -0.1814 0.8872 -0.4243
vn 0.4922 0.7260 -0.4802
vn 0.7269 0.0473 -0.6851
vn 0.9992 -0.0141 -0.0372
vn 0.6321 0.7723 -0.0628
vn 0.4666 0.7256 0.5057
vn 0.6639 0.0069 0.7478
vn -0.0934 -0.0078 0.9956
vn -0.1681 0.7940 0.5841
vn -0.5672 0.6467 0.5100
vn -0.6746 0.0145 0.7380
vn -0.0000 -1.0000 -0.0000
vn 0.5911 -0.8065 -0.0144
vn 0.4203 -0.7827 0.4591
vn -0.0920 -0.7623 0.6406
vn -0.1288 0.9892 0.0698
vn -0.5910 -0.8058 0.0378
vn -0.4454 -0.7825 0.4351
vn -0.5176 -0.7042 -0.4859
vn 0.0325 -0.7320 -0.6805
vn 0.5020 -0.7676 -0.3984
vt 0.500000 0.125000
vt 0.625000 0.125000
vt 0.625000 0.250000
vt 0.500000 0.250000
vt 0.500000 0.375000
vt 0.625000 0.375000
vt 0.625000 0.500000
vt 0.500000 0.500000
vt 0.500000 0.625000
vt 0.625000 0.625000
vt 0.625000 0.750000
vt 0.500000 0.750000
vt 0.500000 0.875000
vt 0.625000 0.875000
vt 0.625000 1.000000
vt 0.500000 1.000000
vt 0.250000 0.625000
vt 0.375000 0.625000
vt 0.375000 0.750000
vt 0.250000 0.750000
vt 0.750000 0.625000
vt 0.875000 0.625000
vt 0.875000 0.750000
vt 0.750000 0.750000
vt 0.750000 0.500000
vt 0.875000 0.500000
vt 0.125000 0.625000
vt 0.125000 0.750000
vt 0.125000 0.500000
vt 0.250000 0.500000
vt 0.375000 0.500000
vt 0.375000 0.875000
vt 0.375000 1.000000
vt 0.375000 0.375000
vt 0.375000 0.250000
vt 0.375000 0.125000
vt 0.375000 0.000000
vt 0.500000 0.000000
vt 0.625000 0.000000
s 1
f 26/1/1 11/2/2 4/3/3 12/4/4
f 25/5/5 14/6/6 8/7/7 15/8/8
f 24/9/9 17/10/10 6/11/11 18/12/12
f 23/13/13 20/14/14 2/15/15 10/16/16
f 22/17/17 16/18/18 5/19/19 19/20/20
f 21/21/21 11/22/2 2/23/15 20/24/14
f 17/10/10 21/21/21 20/24/14 6/11/11
f 8/7/7 14/25/6 21/21/21 17/10/10
f 14/25/6 4/26/3 11/22/2 21/21/21
f 9/27/22 22/17/17 19/20/20 1/28/23
f 3/29/24 13/30/25 22/17/17 9/27/22
f 13/30/25 7/31/26 16/18/18 22/17/17
f 19/32/20 23/13/13 10/16/16 1/33/23
f 5/19/19 18/12/12 23/13/13 19/32/20
f 18/12/12 6/11/11 20/14/14 23/13/13
f 16/18/18 24/9/9 18/12/12 5/19/19
f 7/31/26 15/8/8 24/9/9 16/18/18
f 15/8/8 8/7/7 17/10/10 24/9/9
f 13/34/25 25/5/5 15/8/8 7/31/26
f 3/35/24 12/4/4 25/5/5 13/34/25
f 12/4/4 4/3/3 14/6/6 25/5/5
f 9/36/22 26/1/1 12/4/4 3/35/24
f 1/37/23 10/38/16 26/1/1 9/36/22
f 10/38/16 2/39/15 11/2/2 26/1/1
