# Blender 3.6.15
# www.blender.org
mtllib bush1.mtl
o bush.001
v -0.961590 -0.469934 -0.932943
v -1.370916 1.902324 -1.330616
v -0.776406 -0.469934 -1.609843
v -1.092049 1.484397 -2.231719
v -0.097602 -0.469934 -1.787918
v -0.127882 1.484397 -2.484656
v 0.396018 -0.469934 -1.289095
v 0.557417 1.902324 -1.836490
v 0.210834 -0.469934 -0.612195
v 0.278549 2.320251 -0.935388
v -0.467970 -0.469934 -0.434120
v -0.685618 2.320251 -0.682451
v -1.400651 3.327224 -2.150353
v -1.124700 2.694102 -2.820962
v -0.388690 2.694102 -3.014045
v 0.180921 3.327224 -2.565259
v -0.095030 3.960347 -1.894650
v -0.831041 3.960347 -1.701567
v -1.571507 2.481487 -3.198589
v -2.024064 3.519800 -2.098798
v -0.184796 2.481487 -3.562376
v 0.749359 3.519800 -2.826371
v 0.296802 4.558115 -1.726580
v -1.089909 4.558115 -1.362793
v -0.693439 0.627788 -1.729993
v -0.823483 0.676683 -1.138457
v -0.228866 0.627788 -1.851868
v 0.174811 0.676683 -1.400347
v 0.044767 0.725579 -0.808810
v -0.419806 0.725579 -0.686936
v -0.428230 -0.469934 0.297117
v -0.543988 1.902324 0.855948
v -1.098730 -0.469934 0.504279
v -1.453936 1.484397 1.104436
v -1.613388 -0.469934 0.027191
v -2.184951 1.484397 0.426785
v -1.457546 -0.469934 -0.657060
v -2.006018 1.902324 -0.499356
v -0.787046 -0.469934 -0.864222
v -1.096069 2.320251 -0.747844
v -0.272389 -0.469934 -0.387134
v -0.365054 2.320251 -0.070192
v -1.219615 3.327224 1.321115
v -1.933536 2.694102 1.448323
v -2.491567 2.694102 0.931028
v -2.418736 3.327224 0.209528
v -1.704815 3.960347 0.082321
v -1.146784 3.960347 0.599616
v -2.012259 2.481487 2.028013
v -0.841437 3.519800 1.819394
v -3.063640 2.481487 1.053382
v -2.944199 3.519800 -0.129869
v -1.773376 4.558115 -0.338488
v -0.721995 4.558115 0.636144
v -1.244639 0.627788 0.498785
v -0.675760 0.676683 0.290931
v -1.596870 0.627788 0.172267
v -1.432650 0.676683 -0.410707
v -0.863771 0.725579 -0.618562
v -0.511540 0.725579 -0.292043
v 0.176754 -0.437044 -0.952191
v 0.839601 2.781721 -1.352484
v 1.001376 -0.437044 -0.476096
v 1.926217 2.214662 -0.676242
v 1.001376 -0.437044 0.476096
v 1.926217 2.214662 0.676242
v 0.176754 -0.437044 0.952191
v 0.839601 2.781721 1.352484
v -0.647867 -0.437044 0.476096
v -0.247015 3.348780 0.676242
v -0.647867 -0.437044 -0.476095
v -0.247015 3.348780 -0.676242
v 1.925683 4.715077 -1.109274
v 2.710798 3.856034 -0.516219
v 2.710798 3.856034 0.516219
v 1.925683 4.715077 1.109274
v 1.140568 5.574121 0.516219
v 1.140568 5.574121 -0.516219
v 3.360241 3.567549 -0.972604
v 2.072661 4.976371 -1.945207
v 3.360241 3.567549 0.972603
v 2.072661 4.976371 1.945207
v 0.785081 6.385193 0.972604
v 0.785081 6.385193 -0.972604
v 1.130499 1.052384 -0.325839
v 0.398926 1.118727 -0.700178
v 1.130499 1.052384 0.325839
v 0.398926 1.118727 0.700177
v -0.332648 1.185071 0.325839
v -0.332648 1.185071 -0.325840
v -1.697725 -0.822162 0.932293
v 1.433683 -0.822162 0.235403
v -1.418383 2.116854 2.187490
v 1.713025 2.116854 1.490599
v 0.046276 -0.822162 -2.038806
v -2.048281 -0.822162 0.391050
v -0.927710 2.116854 -2.878391
v -3.022267 2.116854 -0.448534
v 1.462979 -0.822162 0.533673
v 0.003428 -0.822162 -2.323088
v 2.608086 2.116854 -0.051375
v 1.148536 2.116854 -2.908136
vn -0.9340 -0.1060 0.3413
vn -0.9122 -0.1441 0.3835
vn -0.6914 -0.5018 -0.5197
vn -0.7082 -0.3087 -0.6349
vn 0.3473 -0.5018 -0.7922
vn 0.3053 -0.3087 -0.9008
vn 0.9830 -0.1441 -0.1137
vn 0.9812 -0.1060 -0.1612
vn 0.6758 0.1577 0.7201
vn 0.6740 0.0664 0.7358
vn 0.9907 -0.1342 -0.0224
vn 0.6366 0.2466 0.7307
vn -0.2353 0.1577 0.9591
vn -0.2260 0.0664 0.9719
vn 0.5226 0.4668 -0.7135
vn 0.0287 0.2206 -0.9749
vn 0.1785 0.4600 -0.8698
vn 0.6961 0.6294 -0.3453
vn -0.6612 -0.6493 -0.3757
vn 0.3916 -0.6493 -0.6519
vn -0.1959 0.2466 0.9491
vn -0.8741 -0.1342 0.4668
vn 0.4284 0.8973 -0.1059
vn 0.0468 0.8457 -0.5316
vn 0.1327 0.6335 -0.7623
vn -0.4253 0.8973 0.1180
vn -0.3017 0.8457 -0.4401
vn -0.8055 0.4668 -0.3650
vn -0.4898 0.6335 -0.5990
vn -0.5036 0.2206 -0.8353
vn -0.3634 0.4652 -0.8072
vn -0.0796 0.4652 -0.8816
vn 0.5016 0.7901 0.3523
vn -0.5825 0.4600 -0.6702
vn -0.7760 0.6294 0.0409
vn -0.2641 0.7901 0.5532
vn 0.7893 -0.1060 0.6048
vn 0.8133 -0.1441 0.5638
vn -0.0673 -0.5018 0.8624
vn -0.1555 -0.3087 0.9384
vn -0.8548 -0.5018 0.1323
vn -0.9239 -0.3087 0.2260
vn -0.6237 -0.1441 -0.7683
vn -0.6628 -0.1060 -0.7413
vn 0.2447 0.1577 -0.9567
vn 0.2589 0.0664 -0.9636
vn -0.5507 -0.1342 -0.8238
vn 0.2747 0.2466 -0.9294
vn 0.9354 0.1577 -0.3164
vn 0.9413 0.0664 -0.3311
vn -0.8825 0.4668 -0.0579
vn -0.8379 0.2206 0.4992
vn -0.8296 0.4600 0.3164
vn -0.6651 0.6294 -0.4019
vn 0.0380 -0.6493 0.7596
vn -0.7603 -0.6493 0.0196
vn 0.9059 0.2466 -0.3442
vn 0.8631 -0.1342 0.4868
vn -0.3194 0.8973 -0.3046
vn -0.4736 0.8457 0.2459
vn -0.7143 0.6335 0.2973
vn 0.3279 0.8973 0.2954
vn -0.2093 0.8457 0.4908
vn 0.1245 0.4668 0.8756
vn -0.2424 0.6335 0.7348
vn -0.4344 0.2206 0.8733
vn -0.4859 0.4652 0.7400
vn -0.7011 0.4652 0.5405
vn 0.0279 0.7901 -0.6123
vn -0.2527 0.4600 0.8512
vn 0.4511 0.6294 0.6327
vn 0.6085 0.7901 -0.0742
vn -0.0931 -0.1060 -0.9900
vn -0.1395 -0.1441 -0.9797
vn 0.6782 -0.5018 -0.5369
vn 0.7939 -0.3087 -0.5239
vn 0.6782 -0.5018 0.5369
vn 0.7939 -0.3087 0.5239
vn -0.1395 -0.1441 0.9797
vn -0.0931 -0.1060 0.9900
vn -0.8680 0.1577 0.4709
vn -0.8827 0.0664 0.4652
vn -0.2298 -0.1342 0.9640
vn -0.8683 0.2466 0.4303
vn -0.8680 0.1577 -0.4709
vn -0.8827 0.0664 -0.4652
vn 0.5575 0.4668 0.6865
vn 0.9358 0.2206 0.2752
vn 0.7960 0.4600 0.3933
vn 0.1574 0.6294 0.7609
vn 0.5312 -0.6493 -0.5443
vn 0.5312 -0.6493 0.5443
vn -0.8683 0.2466 -0.4303
vn -0.2298 -0.1342 -0.9640
vn -0.0062 0.8973 0.4413
vn 0.5023 0.8457 0.1802
vn 0.7036 0.6335 0.3217
vn -0.0062 0.8973 -0.4413
vn 0.5023 0.8457 -0.1802
vn 0.5575 0.4668 -0.6865
vn 0.7036 0.6335 -0.3217
vn 0.9358 0.2206 -0.2752
vn 0.8730 0.4652 -0.1467
vn 0.8730 0.4652 0.1467
vn -0.4681 0.7901 0.3958
vn 0.7960 0.4600 -0.3933
vn 0.1574 0.6294 -0.7609
vn -0.4681 0.7901 -0.3958
vn 0.1990 -0.4008 0.8943
vn -0.6939 -0.4008 -0.5982
vn 0.8158 -0.4008 -0.4168
vt 0.669046 0.253423
vt 0.654165 0.132219
vt 0.693059 0.122669
vt 0.693024 0.231404
vt 0.614818 0.959727
vt 0.613332 0.860613
vt 0.670445 0.860613
vt 0.655027 0.959727
vt 0.338777 0.592502
vt 0.337260 0.477074
vt 0.393857 0.463248
vt 0.376022 0.598520
vt 0.436814 0.468004
vt 0.403664 0.617619
vt 0.378510 0.354727
vt 0.436814 0.335317
vt 0.034609 0.667189
vt 0.020358 0.514596
vt 0.077448 0.514596
vt 0.074802 0.667189
vt 0.631375 0.262283
vt 0.595822 0.123077
vt 0.918503 0.620245
vt 0.966840 0.593556
vt 0.966840 0.776649
vt 0.933582 0.772115
vt 0.608526 0.820316
vt 0.690668 0.820316
vt 0.000000 0.399116
vt 0.082110 0.399116
vt 0.677815 0.039373
vt 0.731837 0.051864
vt 0.300590 0.400862
vt 0.595822 0.000000
vt 0.884929 0.218155
vt 0.869239 0.261717
vt 0.838946 0.257795
vt 0.864677 0.186354
vt 0.884929 0.300937
vt 0.868508 0.331687
vt 0.117937 0.784094
vt 0.117937 0.734900
vt 0.145893 0.710101
vt 0.145893 0.790778
vt 0.073457 0.708735
vt 0.072946 0.667189
vt 0.034740 0.728779
vt 0.000000 0.704955
vt 0.034740 0.777973
vt 0.000000 0.785632
vt 0.595823 0.317732
vt 0.595823 0.282727
vt 0.622772 0.262283
vt 0.646230 0.274957
vt 0.646230 0.309962
vt 0.619280 0.330407
vt 0.838946 -0.000000
vt 0.871450 0.009302
vt 0.862665 0.171040
vt 0.838946 0.186354
vt 0.436814 0.459312
vt 0.480386 0.460192
vt 0.480386 0.560743
vt 0.452883 0.560187
vt 0.132005 0.863848
vt 0.107567 0.876500
vt 0.920143 0.035852
vt 0.896603 0.166614
vt 0.882612 0.631006
vt 0.908179 0.757526
vt 0.705055 0.820315
vt 0.638260 0.696691
vt 0.696588 0.685237
vt 0.738194 0.797309
vt 0.415967 0.929143
vt 0.415967 0.839623
vt 0.465583 0.861660
vt 0.450898 0.944657
vt 0.516596 0.837661
vt 0.484180 0.941775
vt 0.536307 0.606720
vt 0.549318 0.471690
vt 0.608526 0.466482
vt 0.574564 0.619549
vt 0.524689 0.367114
vt 0.608526 0.331915
vt 0.619183 0.593556
vt 0.608526 0.452911
vt 0.659574 0.439671
vt 0.655123 0.584234
vt 0.707629 0.469774
vt 0.688961 0.590622
vt 0.769788 0.669041
vt 0.813818 0.635533
vt 0.811604 0.782268
vt 0.783384 0.788848
vt 0.723929 0.680064
vt 0.698871 0.604082
vt 0.738194 0.596642
vt 0.608526 0.350959
vt 0.681946 0.331915
vt 0.608526 0.593556
vt 0.518344 0.473226
vt 0.481459 0.397032
vt 0.747459 0.394711
vt 0.769788 0.720663
vt 0.738195 0.733168
vt 0.738195 0.648508
vt 0.392806 0.841348
vt 0.349866 0.840104
vt 0.335064 0.814990
vt 0.415967 0.817333
vt 0.808114 0.736431
vt 0.852144 0.702923
vt 0.882612 0.707923
vt 0.810403 0.762876
vt 0.852144 0.651301
vt 0.882612 0.623263
vt 0.810403 0.593556
vt 0.403019 0.930615
vt 0.415967 0.960930
vt 0.397778 0.990343
vt 0.370674 0.989558
vt 0.357725 0.959243
vt 0.375915 0.929830
vt 0.365505 0.619549
vt 0.415967 0.642559
vt 0.399607 0.807073
vt 0.365505 0.814990
vt 0.835796 0.792221
vt 0.436814 0.335317
vt 0.477949 0.372328
vt 0.465472 0.459312
vt 0.436814 0.451482
vt 0.920027 0.815332
vt 0.970423 0.792221
vt 0.970423 0.958966
vt 0.936303 0.951129
vt 0.300973 0.335317
vt 0.300590 0.147073
vt 0.359464 0.162566
vt 0.344515 0.323829
vt 0.431377 0.176325
vt 0.395144 0.333516
vt 0.500633 0.313740
vt 0.515603 0.152314
vt 0.595822 0.146506
vt 0.551733 0.331915
vt 0.081002 0.383119
vt 0.053868 0.203766
vt 0.116881 0.195101
vt 0.125591 0.399116
vt -0.000000 0.065280
vt 0.085841 0.015499
vt 0.187706 0.184325
vt 0.175455 0.391530
vt 0.235055 0.388278
vt 0.187706 0.181501
vt 0.267731 0.189968
vt 0.286744 0.371913
vt 0.082110 0.431086
vt 0.150124 0.399116
vt 0.150124 0.663403
vt 0.103901 0.653191
vt 0.378029 0.059260
vt 0.481459 0.079048
vt 0.187706 0.000000
vt 0.300590 -0.000000
vt 0.481459 0.045955
vt 0.595822 -0.000000
vt 0.187706 0.000000
vt 0.300590 0.049667
vt 0.459330 0.692432
vt 0.459330 0.758930
vt 0.415967 0.780296
vt 0.415967 0.671240
vt 0.510431 0.789377
vt 0.512246 0.837661
vt 0.569139 0.757858
vt 0.608526 0.785969
vt 0.569139 0.691360
vt 0.608526 0.676914
vt 0.518037 0.660913
vt 0.512246 0.619549
vt 0.731837 0.299927
vt 0.731837 0.253081
vt 0.770114 0.226121
vt 0.803432 0.243431
vt 0.803432 0.290277
vt 0.765155 0.317237
vt 0.243451 0.392324
vt 0.294554 0.422720
vt 0.257762 0.645698
vt 0.222893 0.656985
vt 0.731837 0.036592
vt 0.786046 0.029374
vt 0.801918 0.214289
vt 0.767701 0.218844
vt 0.187706 0.388278
vt 0.187706 0.654432
vt 0.747459 0.331915
vt 0.815841 0.363205
vt 0.793584 0.547615
vt 0.747459 0.558250
vt 0.838946 -0.000000
vt 0.838946 0.226121
vt 0.051732 0.045129
vt 0.954980 0.045129
vt 0.954981 0.948376
vt 0.051732 0.948377
vt 0.051733 0.045129
vt 0.954981 0.045129
vt 0.954981 0.948377
vt 0.051733 0.948377
vt 0.051732 0.948377
s 1
usemtl skin
f 1/1/1 2/2/2 4/3/3 3/4/4
f 3/5/4 4/6/3 6/7/5 5/8/6
f 5/9/6 6/10/5 8/11/7 7/12/8
f 7/12/8 8/11/7 10/13/9 9/14/10
f 10/13/9 8/11/7 22/15/11 23/16/12
f 9/17/10 10/18/9 12/19/13 11/20/14
f 11/21/14 12/22/13 2/2/2 1/1/1
f 13/23/15 18/24/16 30/25/17 26/26/18
f 6/7/5 4/6/3 19/27/19 21/28/20
f 12/19/13 10/18/9 23/29/12 24/30/21
f 4/3/3 2/2/2 20/31/22 19/32/19
f 8/11/7 6/10/5 21/33/20 22/15/11
f 2/2/2 12/22/13 24/34/21 20/31/22
f 13/35/15 14/36/23 19/37/24 20/38/25
f 14/36/23 15/39/26 21/40/27 19/37/24
f 15/41/26 16/42/28 22/43/29 21/44/27
f 16/42/28 17/45/30 23/46/31 22/43/29
f 17/45/30 18/47/16 24/48/32 23/46/31
f 18/47/16 13/49/15 20/50/25 24/48/32
f 25/51/33 26/52/18 30/53/17 29/54/34 28/55/35 27/56/36
f 17/57/30 16/58/28 28/59/35 29/60/34
f 15/61/26 14/62/23 25/63/33 27/64/36
f 18/47/16 17/45/30 29/65/34 30/66/17
f 16/58/28 15/67/26 27/68/36 28/59/35
f 14/69/23 13/23/15 26/26/18 25/70/33
f 31/71/37 32/72/38 34/73/39 33/74/40
f 33/75/40 34/76/39 36/77/41 35/78/42
f 35/78/42 36/77/41 38/79/43 37/80/44
f 37/81/44 38/82/43 40/83/45 39/84/46
f 40/83/45 38/82/43 52/85/47 53/86/48
f 39/87/46 40/88/45 42/89/49 41/90/50
f 41/90/50 42/89/49 32/91/38 31/92/37
f 43/93/51 48/94/52 60/95/53 56/96/54
f 36/97/41 34/73/39 49/98/55 51/99/56
f 42/89/49 40/88/45 53/100/48 54/101/57
f 34/73/39 32/72/38 50/102/58 49/98/55
f 38/82/43 36/103/41 51/104/56 52/85/47
f 32/91/38 42/89/49 54/101/57 50/105/58
f 43/93/51 44/106/59 49/107/60 50/108/61
f 44/109/59 45/110/62 51/111/63 49/112/60
f 45/113/62 46/114/64 52/115/65 51/116/63
f 46/114/64 47/117/66 53/118/67 52/115/65
f 47/117/66 48/94/52 54/119/68 53/118/67
f 48/94/52 43/93/51 50/108/61 54/119/68
f 55/120/69 56/121/54 60/122/53 59/123/70 58/124/71 57/125/72
f 47/126/66 46/127/64 58/128/71 59/129/70
f 45/110/62 44/109/59 55/120/69 57/125/72
f 48/94/52 47/117/66 59/130/70 60/95/53
f 46/131/64 45/132/62 57/133/72 58/134/71
f 44/135/59 43/136/51 56/137/54 55/138/69
f 61/139/73 62/140/74 64/141/75 63/142/76
f 63/142/76 64/141/75 66/143/77 65/144/78
f 65/145/78 66/146/77 68/147/79 67/148/80
f 67/149/80 68/150/79 70/151/81 69/152/82
f 70/151/81 68/150/79 82/153/83 83/154/84
f 69/152/82 70/151/81 72/155/85 71/156/86
f 71/157/86 72/158/85 62/159/74 61/160/73
f 73/161/87 78/162/88 90/163/89 86/164/90
f 66/143/77 64/141/75 79/165/91 81/166/92
f 72/155/85 70/151/81 83/154/84 84/167/93
f 64/141/75 62/140/74 80/168/94 79/165/91
f 68/147/79 66/146/77 81/169/92 82/170/83
f 62/159/74 72/158/85 84/171/93 80/172/94
f 73/173/87 74/174/95 79/175/96 80/176/97
f 74/174/95 75/177/98 81/178/99 79/175/96
f 75/177/98 76/179/100 82/180/101 81/178/99
f 76/179/100 77/181/102 83/182/103 82/180/101
f 77/181/102 78/183/88 84/184/104 83/182/103
f 78/183/88 73/173/87 80/176/97 84/184/104
f 85/185/105 86/186/90 90/187/89 89/188/106 88/189/107 87/190/108
f 77/191/102 76/192/100 88/193/107 89/194/106
f 75/195/98 74/196/95 85/197/105 87/198/108
f 78/199/88 77/191/102 89/194/106 90/200/89
f 76/201/100 75/202/98 87/203/108 88/204/107
f 74/196/95 73/205/87 86/206/90 85/197/105
s 0
usemtl Material
f 91/207/109 92/208/109 94/209/109 93/210/109
f 95/211/110 96/212/110 98/213/110 97/214/110
f 99/207/111 100/208/111 102/209/111 101/215/111
