# Blender 3.6.15
# www.blender.org
mtllib bush2.mtl
o bush
v 0.988403 2.571559 -1.259440
v 2.032984 3.839370 -1.648284
v 1.209707 2.466629 -1.257564
v 0.666414 1.379530 -0.563356
v 1.343503 2.466629 -1.052412
v 0.986318 1.327512 -0.578314
v 1.255996 2.571559 -0.849135
v 1.128984 1.275493 -0.865035
v 1.034693 2.676489 -0.851011
v 0.951746 1.275493 -1.136798
v 0.900896 2.676489 -1.056164
v 0.631842 1.327512 -1.121840
v 0.489176 1.379530 -0.835119
v 0.632967 -0.098537 -0.497739
v 1.030212 -0.098537 -0.519334
v 1.210133 -0.098537 -0.874155
v 0.992809 -0.098537 -1.207382
v 0.595564 -0.098537 -1.185787
v 0.415643 -0.098537 -0.830966
v 2.001482 3.367912 -1.648284
v 2.387450 3.606759 -1.628812
v 2.102233 3.606759 -1.275190
v 1.677777 3.606759 -1.437170
v 1.700675 3.606759 -1.890906
v 2.139275 3.606759 -2.009342
v 2.302289 3.993224 -1.405662
v 1.863689 3.993224 -1.287225
v 1.615514 3.993224 -1.667755
v 1.900730 3.993224 -2.021378
v 2.325186 3.993224 -1.859398
v 2.001482 4.232071 -1.648284
v -0.733434 2.574392 -0.088962
v -1.651696 4.023623 0.730344
v -0.967525 2.460060 0.001722
v -0.725870 1.389656 -0.925117
v -1.192273 2.460584 -0.158222
v -1.050574 1.304631 -0.780664
v -1.182930 2.575441 -0.408850
v -1.076774 1.222915 -0.425466
v -0.948839 2.689774 -0.499534
v -0.778269 1.226225 -0.214722
v -0.724092 2.689250 -0.339590
v -0.453564 1.311251 -0.359175
v -0.427365 1.392966 -0.714373
v -0.729528 -0.162180 -0.990055
v -1.136908 -0.162180 -0.803504
v -1.179040 -0.162180 -0.357427
v -0.813792 -0.162180 -0.097901
v -0.406412 -0.162180 -0.284452
v -0.364280 -0.162180 -0.730529
v -1.658979 3.390810 0.738502
v -2.191535 3.749118 0.914150
v -1.992185 3.738639 0.279328
v -1.326787 3.730897 0.272833
v -1.114909 3.736592 0.903652
v -1.649353 3.747852 1.300000
v -2.188483 4.310654 0.557036
v -1.654039 4.299393 0.160687
v -1.111858 4.298128 0.546537
v -1.311208 4.308607 1.181359
v -1.976606 4.316348 1.187854
v -1.644413 4.656435 0.722185
v 0.508934 1.802479 0.467630
v 0.881579 2.525046 1.108972
v 0.529560 1.721395 0.648457
v -0.139685 0.870462 0.140560
v 0.375499 1.721395 0.778208
v -0.095447 0.830266 0.400184
v 0.200814 1.802479 0.727133
v 0.152873 0.790069 0.487929
v 0.180188 1.883562 0.546305
v 0.356954 0.790069 0.316050
v 0.334249 1.883562 0.416554
v 0.312716 0.830266 0.056425
v 0.064396 0.870462 -0.031320
v -0.196594 -0.125028 0.119828
v -0.139196 -0.125028 0.441917
v 0.168441 -0.125028 0.553254
v 0.418680 -0.125028 0.342501
v 0.361281 -0.125028 0.020411
v 0.053644 -0.125028 -0.090925
v -0.211982 1.287290 -1.554881
v -0.100993 1.637163 -2.203050
v -0.164797 1.221751 -1.694216
v 0.098575 0.661923 -1.284292
v -0.007458 1.221751 -1.736048
v 0.168439 0.596620 -1.477233
v 0.102696 1.287290 -1.638545
v 0.028105 0.522434 -1.622747
v 0.055510 1.352828 -1.499210
v -0.182093 0.513552 -1.575321
v -0.101829 1.352828 -1.457378
v -0.251958 0.578855 -1.382380
v -0.111623 0.653041 -1.236866
v 0.103914 -0.165216 -1.267096
v 0.172852 -0.165216 -1.522394
v -0.013773 -0.165216 -1.709746
v -0.269337 -0.165216 -1.641799
v -0.338275 -0.165216 -1.386501
v -0.151650 -0.165216 -1.199150
vn -0.5511 0.1208 -0.8256
vn 0.5432 0.7612 -0.3543
vn 0.3730 -0.3055 -0.8761
vn 0.9521 -0.3055 0.0119
vn 0.5333 0.1208 0.8372
vn -0.3485 0.5034 0.7906
vn -0.8640 0.5034 0.0002
vn -0.9814 0.1804 0.0655
vn -0.4556 0.1804 0.8717
vn 0.5153 0.0604 0.8549
vn 0.9977 -0.0597 -0.0311
vn 0.4307 -0.0597 -0.9005
vn -0.5746 0.0604 -0.8162
vn 0.4554 0.0581 -0.8884
vn -0.5419 0.0525 -0.8388
vn 0.5491 0.0525 0.8341
vn 0.9966 0.0581 -0.0586
vn -0.9973 0.0497 0.0544
vn -0.4518 0.0497 0.8907
vn -0.0000 -1.0000 -0.0000
vn 0.8933 -0.4472 0.0451
vn 0.2332 -0.4472 0.8635
vn 0.3189 -0.4472 -0.8356
vn -0.7492 -0.4472 0.4886
vn -0.6962 -0.4472 -0.5615
vn 0.7492 0.4472 -0.4886
vn 0.6962 0.4472 0.5615
vn -0.3189 0.4472 0.8356
vn -0.8933 0.4472 -0.0451
vn -0.2332 0.4472 -0.8635
vn -0.0000 1.0000 -0.0000
vn 0.8154 0.1161 0.5671
vn -0.3672 0.7722 0.5185
vn -0.0269 -0.3001 0.9535
vn -0.8917 -0.2928 0.3453
vn -0.8059 0.1299 -0.5776
vn 0.0354 0.5031 -0.8635
vn 0.8077 0.4970 -0.3173
vn 0.8872 0.1794 -0.4251
vn 0.0999 0.1840 -0.9778
vn -0.7945 0.0680 -0.6034
vn -0.9171 -0.0369 0.3970
vn -0.0700 -0.0449 0.9965
vn 0.8371 0.0557 0.5443
vn -0.1041 0.0838 0.9910
vn 0.8078 0.0585 0.5865
vn -0.8218 0.0601 -0.5666
vn -0.9007 0.0847 0.4261
vn 0.9080 0.0405 -0.4169
vn 0.0916 0.0411 -0.9949
vn -0.0115 -0.9999 0.0129
vn -0.8530 -0.4337 0.2904
vn -0.5380 -0.4503 -0.7126
vn 0.0037 -0.4357 0.9001
vn 0.5134 -0.4625 -0.7229
vn 0.8481 -0.4535 0.2738
vn -0.5134 0.4625 0.7229
vn -0.8481 0.4535 -0.2738
vn -0.0037 0.4357 -0.9001
vn 0.8530 0.4337 -0.2904
vn 0.5380 0.4503 0.7126
vn 0.0115 0.9999 -0.0129
vn 0.7612 0.1426 -0.6326
vn 0.5059 0.7075 0.4934
vn 0.8853 -0.3864 0.2588
vn 0.0812 -0.3621 0.9286
vn -0.7394 0.1535 0.6556
vn -0.7877 0.5849 -0.1934
vn -0.0859 0.5895 -0.8032
vn -0.1773 0.2460 -0.9529
vn -0.9075 0.2303 -0.3513
vn -0.8015 0.0556 0.5954
vn 0.1367 -0.1257 0.9826
vn 0.9507 -0.0968 0.2945
vn 0.7302 0.0981 -0.6761
vn 0.9362 0.0716 0.3441
vn 0.7665 0.0645 -0.6390
vn -0.7601 0.0645 0.6466
vn 0.1798 0.0716 0.9811
vn -0.1751 0.0608 -0.9827
vn -0.9386 0.0608 -0.3396
vn -0.9366 0.2894 0.1973
vn -0.0686 0.5153 -0.8543
vn -0.7436 -0.2791 -0.6076
vn 0.3542 -0.4224 -0.8344
vn 0.9727 0.1457 -0.1809
vn 0.5894 0.5984 0.5427
vn -0.2838 0.6334 0.7199
vn -0.2732 0.1764 0.9457
vn 0.6664 0.1464 0.7310
vn 0.9812 0.0242 -0.1916
vn 0.3033 -0.0147 -0.9528
vn -0.6883 0.0348 -0.7246
vn -0.9641 0.1015 0.2454
vn -0.6782 0.1486 -0.7197
vn -0.9705 0.1191 0.2097
vn 0.9660 0.0281 -0.2571
vn 0.2398 0.1041 -0.9652
vn -0.2879 0.0585 0.9559
vn 0.6840 0.0162 0.7293
vt 0.697289 0.180111
vt 0.772304 -0.000000
vt 0.723003 0.195713
vt 0.757224 0.193868
vt 0.635881 0.230559
vt 0.564549 0.000000
vt 0.670138 0.223365
vt 0.321748 0.836189
vt 0.321748 0.628431
vt 0.356280 0.843892
vt 0.919758 -0.000000
vt 0.953274 0.001319
vt 0.980814 0.186654
vt 0.936415 0.184907
vt 0.381926 0.826209
vt 0.390297 0.228548
vt 0.498921 0.000000
vt 0.425211 0.235970
vt 0.673882 0.413299
vt 0.627708 0.409280
vt 0.756746 0.365825
vt 0.711414 0.368269
vt 0.893193 0.016388
vt 0.899707 0.194208
vt 0.433893 0.421773
vt 0.387200 0.425066
vt 0.676416 0.360107
vt 0.716719 0.569821
vt 0.673882 0.569096
vt 0.619410 0.612455
vt 0.564549 0.598343
vt 0.498921 0.609170
vt 0.443602 0.621825
vt 0.772304 0.566824
vt 0.932203 0.400035
vt 0.886990 0.402177
vt 0.986643 0.402177
vt 0.819721 0.932745
vt 0.856724 0.895280
vt 0.861930 0.961595
vt 0.162602 0.906006
vt 0.107400 0.915868
vt 0.104935 0.879260
vt 0.765445 0.966317
vt 0.722180 0.938423
vt 0.759437 0.900089
vt 0.819721 0.927875
vt 0.819721 0.983379
vt 0.161080 0.843726
vt 0.916597 0.923813
vt 0.621514 0.948383
vt 0.564549 0.978085
vt 0.565048 0.913246
vt 0.810001 0.876221
vt 0.971202 0.978222
vt 0.916597 0.962349
vt 0.973797 0.930390
vt 0.908174 0.871610
vt 0.916597 0.978912
vt 0.621514 0.887121
vt 0.916597 0.896459
vt 0.104935 0.815097
vt 0.444281 0.950514
vt 0.389171 0.974072
vt 0.387200 0.916616
vt 0.444281 0.884297
vt 0.389172 0.866930
vt 0.971202 0.871610
vt 0.162603 0.802190
vt 0.047437 0.249085
vt 0.162603 0.000000
vt 0.083650 0.258133
vt 0.508541 0.238969
vt 0.526762 0.000000
vt 0.548945 0.238861
vt 0.721175 0.790526
vt 0.756075 0.569821
vt 0.756075 0.807997
vt 0.268153 0.256665
vt 0.162603 -0.000000
vt 0.305366 0.244432
vt 0.341066 0.206932
vt 0.381363 0.207007
vt 0.380623 0.400592
vt 0.327260 0.401067
vt 0.375874 -0.000000
vt 0.015868 0.243252
vt 0.238641 0.255973
vt 0.271032 0.445584
vt 0.230857 0.434114
vt 0.558302 0.422696
vt 0.504784 0.422268
vt 0.321748 0.439467
vt 0.042758 0.440905
vt -0.000000 0.444177
vt 0.092019 0.442395
vt 0.162603 0.631673
vt 0.104472 0.644961
vt 0.210226 0.640883
vt 0.162603 0.613109
vt 0.053966 0.663578
vt 0.564549 0.623824
vt 0.498921 0.623878
vt 0.270437 0.647564
vt 0.387200 0.628431
vt 0.321748 0.628431
vt 0.000000 0.903914
vt 0.084412 0.855224
vt 0.084412 0.952462
vt 0.010073 0.821291
vt 0.010072 0.978626
vt 0.195853 0.793713
vt 0.218566 0.754462
vt 0.286404 0.802190
vt 0.300232 0.999160
vt 0.298586 0.931593
vt 0.381926 0.977209
vt 0.084007 0.694210
vt 0.084007 0.791681
vt 0.000000 0.743033
vt 0.248815 0.931543
vt 0.162603 0.959652
vt 0.167588 0.884207
vt 0.162603 0.705153
vt 0.232603 0.658898
vt 0.309116 0.718869
vt 0.381926 0.881248
vt 0.005141 0.663578
vt 0.248815 0.834226
vt 0.300233 0.843892
vt 0.005141 0.821291
vt 0.482722 0.845766
vt 0.564549 0.866107
vt 0.481249 0.910905
vt 0.162603 0.802190
vt 0.309116 0.647564
vt 0.564549 0.961430
vt 0.482723 1.000000
vt 0.870449 0.570496
vt 0.935009 0.436872
vt 0.892044 0.574969
vt 0.692059 0.696293
vt 0.707348 0.569821
vt 0.721176 0.696255
vt 0.818154 0.139390
vt 0.772304 -0.000000
vt 0.845938 0.135672
vt 0.866369 0.131639
vt 0.773587 0.571881
vt 0.802779 0.571397
vt 0.819721 0.736939
vt 0.781050 0.737580
vt 0.784232 0.436872
vt 0.843350 0.566024
vt 0.859588 0.291438
vt 0.822444 0.285800
vt 0.712812 0.837809
vt 0.674242 0.837860
vt 0.886990 0.296658
vt 0.856241 0.725866
vt 0.819721 0.730493
vt 0.885468 0.721239
vt 0.935009 0.846082
vt 0.900683 0.858845
vt 0.816176 0.423420
vt 0.772304 0.409456
vt 0.857415 0.871610
vt 0.721176 0.970022
vt 0.673882 0.970084
vt 0.848103 0.436872
vt 0.819721 0.875435
vt 0.772304 0.876221
vt 0.391128 0.667332
vt 0.465828 0.621825
vt 0.413049 0.675003
vt 0.465828 0.704372
vt 0.485323 0.621825
vt 0.485323 0.708239
vt 0.605333 0.680757
vt 0.564549 0.612455
vt 0.628409 0.675863
vt 0.084007 0.755237
vt 0.128189 0.663578
vt 0.092694 0.770360
vt 0.518023 0.623878
vt 0.537606 0.625954
vt 0.560100 0.726357
vt 0.534919 0.722230
vt 0.114785 0.779013
vt 0.128189 0.772542
vt 0.629366 0.778661
vt 0.598277 0.783282
vt 0.431420 0.666286
vt 0.440572 0.756351
vt 0.417248 0.769285
vt 0.497718 0.633701
vt 0.506484 0.732061
vt 0.647425 0.612455
vt 0.668855 0.622224
vt 0.658505 0.723967
vt 0.629366 0.712695
vt 0.387200 0.762331
vt 0.435988 0.865955
vt 0.400619 0.866930
vt 0.602295 0.887121
vt 0.564549 0.879241
vt 0.668855 0.832188
vt 0.630604 0.831665
vt 0.465828 0.851797
vt 0.532739 0.842394
vt 0.497718 0.843182
vt 0.564549 0.845766
s 1
usemtl Material.001
f 1/1/1 2/2/2 3/3/3
f 3/3/3 2/2/2 5/4/4
f 5/5/4 2/6/2 7/7/5
f 7/8/5 2/9/2 9/10/6
f 9/11/6 11/12/7 13/13/8 4/14/9
f 9/10/6 2/9/2 11/15/7
f 11/16/7 2/17/2 1/18/1
f 5/5/4 7/7/5 6/19/10 8/20/11
f 3/3/3 5/4/4 8/21/11 10/22/12
f 7/23/5 9/11/6 4/14/9 6/24/10
f 11/16/7 1/18/1 12/25/13 13/26/8
f 1/1/1 3/3/3 10/22/12 12/27/13
f 12/27/13 10/22/12 17/28/14 18/29/15
f 8/20/11 6/19/10 15/30/16 16/31/17
f 13/26/8 12/25/13 18/32/15 19/33/18
f 10/22/12 8/21/11 16/34/17 17/28/14
f 6/24/10 4/14/9 14/35/19 15/36/16
f 4/14/9 13/13/8 19/37/18 14/35/19
f 32/70/32 33/71/33 34/72/34
f 34/73/34 33/74/33 36/75/35
f 36/76/35 33/77/33 38/78/36
f 38/79/36 33/80/33 40/81/37
f 40/82/37 42/83/38 44/84/39 35/85/40
f 40/82/37 33/86/33 42/83/38
f 42/87/38 33/71/33 32/70/32
f 36/88/35 38/79/36 37/89/41 39/90/42
f 34/73/34 36/75/35 39/91/42 41/92/43
f 38/79/36 40/81/37 35/93/40 37/89/41
f 42/87/38 32/70/32 43/94/44 44/95/39
f 32/70/32 34/72/34 41/96/43 43/94/44
f 43/94/44 41/96/43 48/97/45 49/98/46
f 39/90/42 37/89/41 46/99/47 47/100/48
f 44/95/39 43/94/44 49/98/46 50/101/49
f 41/92/43 39/91/42 47/102/48 48/103/45
f 37/89/41 35/93/40 45/104/50 46/99/47
f 35/85/40 44/84/39 50/105/49 45/106/50
f 63/139/63 64/140/64 65/141/65
f 65/142/65 64/143/64 67/144/66
f 67/145/66 64/146/64 69/147/67
f 69/147/67 64/146/64 71/148/68
f 71/149/68 73/150/69 75/151/70 66/152/71
f 71/149/68 64/153/64 73/150/69
f 73/154/69 64/140/64 63/139/63
f 67/145/66 69/147/67 68/155/72 70/156/73
f 65/142/65 67/144/66 70/157/73 72/158/74
f 69/147/67 71/148/68 66/159/71 68/155/72
f 73/154/69 63/139/63 74/160/75 75/161/70
f 63/139/63 65/141/65 72/162/74 74/160/75
f 74/160/75 72/162/74 79/163/76 80/164/77
f 70/156/73 68/155/72 77/165/78 78/166/79
f 75/161/70 74/160/75 80/164/77 81/167/80
f 72/158/74 70/157/73 78/168/79 79/169/76
f 68/155/72 66/159/71 76/170/81 77/165/78
f 66/152/71 75/151/70 81/171/80 76/172/81
f 82/173/82 83/174/83 84/175/84
f 84/176/84 83/177/83 86/178/85
f 86/179/85 83/180/83 88/181/86
f 88/182/86 83/183/83 90/184/87
f 90/185/87 92/186/88 94/187/89 85/188/90
f 90/184/87 83/183/83 92/189/88
f 92/189/88 83/183/83 82/190/82
f 86/179/85 88/181/86 87/191/91 89/192/92
f 84/175/84 86/193/85 89/194/92 91/195/93
f 88/196/86 90/185/87 85/188/90 87/197/91
f 92/198/88 82/199/82 93/200/94 94/201/89
f 82/173/82 84/175/84 91/195/93 93/202/94
f 93/202/94 91/195/93 98/203/95 99/204/96
f 89/192/92 87/191/91 96/205/97 97/206/98
f 94/201/89 93/200/94 99/207/96 100/208/99
f 91/195/93 89/194/92 97/209/98 98/203/95
f 87/197/91 85/188/90 95/210/100 96/211/97
f 85/188/90 94/187/89 100/212/99 95/210/100
usemtl Material.002
f 20/38/20 21/39/21 22/40/22
f 21/41/21 20/42/20 25/43/23
f 20/44/20 22/45/22 23/46/24
f 20/44/20 23/46/24 24/47/25
f 20/44/20 24/47/25 25/48/23
f 21/41/21 25/43/23 30/49/26
f 22/40/22 21/39/21 26/50/27
f 23/51/24 22/52/22 27/53/28
f 24/47/25 23/46/24 28/54/29
f 25/55/23 24/56/25 29/57/30
f 21/39/21 30/58/26 26/50/27
f 22/40/22 26/50/27 27/59/28
f 23/51/24 27/53/28 28/60/29
f 24/56/25 28/61/29 29/57/30
f 25/43/23 29/62/30 30/49/26
f 26/63/27 30/64/26 31/65/31
f 27/66/28 26/63/27 31/65/31
f 28/67/29 27/66/28 31/65/31
f 29/57/30 28/61/29 31/68/31
f 30/49/26 29/62/30 31/69/31
f 51/107/51 52/108/52 53/109/53
f 52/108/52 51/107/51 56/110/54
f 51/107/51 53/109/53 54/111/55
f 51/112/51 54/113/55 55/114/56
f 51/115/51 55/116/56 56/117/54
f 52/118/52 56/119/54 61/120/57
f 53/121/53 52/122/52 57/123/58
f 54/113/55 53/124/53 58/125/59
f 55/114/56 54/113/55 59/126/60
f 56/117/54 55/116/56 60/127/61
f 52/118/52 61/120/57 57/128/58
f 53/121/53 57/123/58 58/129/59
f 54/113/55 58/125/59 59/126/60
f 55/116/56 59/130/60 60/127/61
f 56/119/54 60/131/61 61/120/57
f 57/132/58 61/133/57 62/134/62
f 58/129/59 57/123/58 62/135/62
f 59/126/60 58/125/59 62/136/62
f 60/137/61 59/138/60 62/134/62
f 61/133/57 60/137/61 62/134/62
