# Blender 3.6.15
# www.blender.org
mtllib bush3.mtl
o bush3
v 0.529277 0.901522 1.077490
v 1.188334 0.901522 0.170376
v 0.143062 0.547049 0.103915
v 0.813297 1.697699 0.590869
v 1.416958 1.883814 1.465466
v 1.831629 1.883814 0.894720
v 1.734575 2.289258 1.260217
v 1.188310 0.901522 -0.170410
v 0.529253 0.901522 -1.077524
v 0.143037 0.547049 -0.103948
v 0.813272 1.697699 -0.590903
v 1.831605 1.883814 -0.894753
v 1.416934 1.883814 -1.465500
v 1.734550 2.289258 -1.260251
v 0.205138 0.901522 -1.182810
v -0.861238 0.901522 -0.836323
v -0.054660 0.547049 -0.168159
v -0.310667 1.697699 -0.956067
v -0.284964 1.883814 -2.018454
v -0.955916 1.883814 -1.800448
v -0.662564 2.289258 -2.039094
v -1.061527 0.901522 -0.560606
v -1.061527 0.901522 0.560648
v -0.176819 0.547049 0.000021
v -1.005275 1.697699 0.000021
v -2.007723 1.883814 -0.352720
v -2.007722 1.883814 0.352761
v -2.144037 2.289258 0.000021
v -0.861198 0.901522 0.836336
v 0.205178 0.901522 1.182822
v -0.054620 0.547049 0.168171
v -0.310627 1.697699 0.956080
v -0.955877 1.883814 1.800461
v -0.284924 1.883814 2.018467
v -0.662524 2.289258 2.039108
v -0.000000 -0.395586 -0.000000
v 1.690155 0.327093 0.784777
v 1.690155 0.327093 -0.784777
v 0.372054 0.120839 -0.000000
v 1.863000 1.430924 -0.000000
v 3.288950 1.370582 0.493773
v 3.288950 1.370582 -0.493773
v 3.602021 1.880985 0.000000
v 1.268654 0.327093 -1.364923
v -0.224081 0.327093 -1.849942
v 0.114971 0.120839 -0.353845
v 0.575699 1.430924 -1.771818
v 1.485948 1.370582 -2.975394
v 0.546735 1.370582 -3.280562
v 1.113086 1.880985 -3.425725
v -0.906083 0.327093 -1.628346
v -1.828645 0.327093 -0.358550
v -0.300998 0.120839 -0.218688
v -1.507199 1.430924 -1.095044
v -2.370584 1.370582 -2.332668
v -2.951049 1.370582 -1.533726
v -2.914096 1.880985 -2.117215
v -1.828645 0.327093 0.358550
v -0.906083 0.327093 1.628346
v -0.300998 0.120839 0.218688
v -1.507199 1.430924 1.095044
v -2.951049 1.370582 1.533726
v -2.370584 1.370582 2.332668
v -2.914096 1.880985 2.117215
v -0.224081 0.327093 1.849942
v 1.268654 0.327093 1.364923
v 0.114971 0.120839 0.353845
v 0.575699 1.430924 1.771818
v 0.546736 1.370582 3.280562
v 1.485948 1.370582 2.975394
v 1.113086 1.880985 3.425725
v 0.000000 0.982147 -0.000000
v 0.448372 1.324676 0.325758
v -0.171260 1.324676 0.527092
v -0.554223 1.324676 -0.000000
v -0.171260 1.324676 -0.527092
v 0.448372 1.324676 -0.325758
v 0.171260 1.878902 0.527092
v -0.448372 1.878902 0.325758
v -0.448372 1.878902 -0.325758
v 0.171260 1.878902 -0.527092
v 0.554223 1.878902 -0.000000
v 0.000000 2.221430 -0.000000
vn -0.7293 0.4329 -0.5299
vn -0.5415 0.7430 -0.3934
vn 0.0178 0.3820 -0.9240
vn -0.7293 0.4329 -0.5298
vn -0.8733 0.3820 0.3024
vn -0.7235 0.5788 0.3762
vn -0.4308 0.8464 -0.3130
vn 0.1342 0.5788 -0.8043
vn 0.6261 -0.6333 0.4549
vn 0.6035 -0.6660 0.4384
vn 0.6594 -0.5794 0.4791
vn 0.7668 -0.3187 0.5571
vn -0.7293 0.4329 0.5298
vn -0.5415 0.7430 0.3934
vn -0.8733 0.3820 -0.3025
vn -0.7293 0.4329 0.5299
vn 0.0178 0.3820 0.9240
vn 0.1342 0.5788 0.8043
vn -0.4308 0.8464 0.3130
vn -0.7235 0.5788 -0.3762
vn 0.6261 -0.6333 -0.4549
vn 0.6035 -0.6660 -0.4384
vn 0.6594 -0.5794 -0.4791
vn 0.7668 -0.3187 -0.5571
vn 0.2786 0.4329 0.8573
vn 0.2068 0.7430 0.6366
vn -0.5575 0.3820 0.7371
vn 0.8843 0.3820 0.2686
vn 0.8064 0.5788 0.1209
vn 0.1646 0.8464 0.5065
vn -0.5813 0.5788 0.5718
vn -0.2391 -0.6333 -0.7360
vn -0.2305 -0.6660 -0.7094
vn -0.2519 -0.5794 -0.7751
vn -0.2929 -0.3187 -0.9015
vn 0.9014 0.4329 -0.0000
vn 0.6693 0.7430 -0.0000
vn 0.5287 0.3820 0.7580
vn 0.5287 0.3820 -0.7580
vn 0.3642 0.5788 -0.7296
vn 0.5325 0.8464 -0.0000
vn 0.3642 0.5788 0.7296
vn -0.7739 -0.6333 -0.0000
vn -0.7459 -0.6660 -0.0000
vn -0.8150 -0.5794 -0.0000
vn -0.9479 -0.3187 -0.0000
vn 0.2786 0.4329 -0.8573
vn 0.2068 0.7430 -0.6366
vn 0.8843 0.3820 -0.2686
vn -0.5575 0.3820 -0.7371
vn -0.5813 0.5788 -0.5718
vn 0.1646 0.8464 -0.5065
vn 0.8064 0.5788 -0.1209
vn -0.2391 -0.6333 0.7360
vn -0.2305 -0.6660 0.7094
vn -0.2519 -0.5794 0.7751
vn -0.2929 -0.3187 0.9015
vn -0.7001 0.7141 -0.0000
vn -0.4606 0.8876 -0.0000
vn -0.4101 0.5604 -0.7195
vn -0.4101 0.5604 0.7195
vn -0.2253 0.6457 0.7296
vn -0.3295 0.9442 -0.0000
vn -0.2253 0.6457 -0.7296
vn 0.3932 -0.9195 -0.0000
vn 0.4791 -0.8777 -0.0000
vn 0.6646 -0.7472 -0.0000
vn 0.8524 -0.5229 -0.0000
vn -0.2163 0.7141 0.6658
vn -0.1423 0.8876 0.4381
vn -0.8110 0.5604 0.1677
vn 0.5576 0.5604 0.6124
vn 0.6243 0.6457 0.4397
vn -0.1018 0.9442 0.3133
vn -0.7635 0.6457 -0.0112
vn 0.1215 -0.9195 -0.3739
vn 0.1481 -0.8777 -0.4557
vn 0.2054 -0.7472 -0.6320
vn 0.2634 -0.5229 -0.8107
vn 0.5664 0.7141 0.4115
vn 0.3727 0.8876 0.2708
vn -0.0911 0.5604 0.8232
vn 0.7547 0.5604 -0.3410
vn 0.6111 0.6457 -0.4578
vn 0.2665 0.9442 0.1937
vn -0.2466 0.6457 0.7227
vn -0.3181 -0.9195 -0.2311
vn -0.3876 -0.8777 -0.2816
vn -0.5377 -0.7472 -0.3906
vn -0.6896 -0.5229 -0.5010
vn 0.5664 0.7141 -0.4115
vn 0.3727 0.8876 -0.2708
vn 0.7547 0.5604 0.3410
vn -0.0911 0.5604 -0.8232
vn -0.2466 0.6457 -0.7227
vn 0.2665 0.9442 -0.1937
vn 0.6111 0.6457 0.4578
vn -0.3181 -0.9195 0.2311
vn -0.3876 -0.8777 0.2816
vn -0.5377 -0.7472 0.3906
vn -0.6896 -0.5229 0.5010
vn -0.2163 0.7141 -0.6658
vn -0.1423 0.8876 -0.4381
vn 0.5576 0.5604 -0.6124
vn -0.8110 0.5604 -0.1677
vn -0.7635 0.6457 0.0112
vn -0.1018 0.9442 -0.3133
vn 0.6243 0.6457 -0.4397
vn 0.1215 -0.9195 0.3739
vn 0.1481 -0.8777 0.4557
vn 0.2054 -0.7472 0.6320
vn 0.2634 -0.5229 0.8107
vn -0.0000 -1.0000 -0.0000
vn 0.7236 -0.4472 0.5257
vn -0.2764 -0.4472 0.8507
vn 0.7236 -0.4472 -0.5257
vn -0.8944 -0.4472 -0.0000
vn -0.2764 -0.4472 -0.8507
vn 0.8944 0.4472 -0.0000
vn 0.2764 0.4472 0.8507
vn -0.7236 0.4472 0.5257
vn -0.7236 0.4472 -0.5257
vn 0.2764 0.4472 -0.8507
vn -0.0000 1.0000 -0.0000
vt 0.126990 0.583595
vt 0.126990 0.462107
vt 0.190485 0.514253
vt 0.144404 0.657129
vt 0.909102 0.283727
vt 0.909102 0.169713
vt 0.968383 0.178300
vt 0.952608 0.241244
vt 0.909816 0.548931
vt 0.851956 0.609158
vt 0.851956 0.502681
vt 0.872275 0.459819
vt 0.151727 0.362730
vt 0.183333 0.397911
vt 0.823551 0.854788
vt 0.765207 0.726305
vt 0.851956 0.707127
vt 0.765207 0.608957
vt 0.819788 0.596890
vt 0.794342 0.572447
vt 0.798644 0.919343
vt 0.792056 0.854788
vt 0.851956 0.854788
vt 0.835609 0.967627
vt 0.109572 0.657129
vt 0.063495 0.514253
vt 0.126990 0.462107
vt 0.126990 0.583595
vt 0.070647 0.397911
vt 0.102252 0.362730
vt 0.967677 0.609158
vt 0.909816 0.548930
vt 0.947357 0.459819
vt 0.967677 0.502681
vt 0.323350 0.652836
vt 0.253980 0.518812
vt 0.348962 0.504113
vt 0.253980 0.402288
vt 0.313742 0.393040
vt 0.278454 0.362730
vt 0.190485 0.583595
vt 0.190485 0.462107
vt 0.253980 0.514253
vt 0.207899 0.657129
vt 0.735466 0.579325
vt 0.700171 0.445787
vt 0.765207 0.393282
vt 0.763529 0.511880
vt 0.700171 0.327535
vt 0.728165 0.290106
vt 0.215222 0.362730
vt 0.246828 0.397910
vt 0.819561 0.258826
vt 0.795153 0.109309
vt 0.849821 0.131744
vt 0.815425 0.000000
vt 0.849821 0.014116
vt 0.474709 0.387590
vt 0.451411 0.417827
vt 0.451411 0.357353
vt 0.496821 0.817816
vt 0.496821 0.696448
vt 0.549769 0.750933
vt 0.500994 0.893972
vt 0.849821 0.283727
vt 0.849821 0.169713
vt 0.909102 0.178300
vt 0.893327 0.241244
vt 0.909816 0.698270
vt 0.851956 0.758497
vt 0.851956 0.652020
vt 0.872275 0.609158
vt 0.909816 0.907836
vt 0.851956 0.847609
vt 0.889497 0.758497
vt 0.909816 0.801359
vt 0.769541 0.290106
vt 0.700171 0.156082
vt 0.795153 0.141384
vt 0.700171 0.039559
vt 0.759933 0.030311
vt 0.724645 0.000000
vt 0.706564 0.795221
vt 0.700171 0.681590
vt 0.764274 0.735202
vt 0.741110 0.857440
vt 0.046077 0.657129
vt 0.000000 0.514253
vt 0.063495 0.462107
vt 0.063495 0.583595
vt 0.007152 0.397910
vt 0.038757 0.362730
vt 0.738515 0.579325
vt 0.764274 0.618417
vt 0.793615 0.572447
vt 0.765207 0.424786
vt 0.851956 0.443964
vt 0.797374 0.314549
vt 0.851956 0.326615
vt 0.822820 0.290106
vt 0.277550 0.311546
vt 0.272881 0.143470
vt 0.363841 0.216674
vt 0.288938 0.362730
vt 0.165864 0.362730
vt 0.090960 0.216674
vt 0.181921 0.143470
vt 0.177252 0.311546
vt 0.090960 0.051358
vt 0.129215 0.000000
vt 0.325587 -0.000000
vt 0.363841 0.051358
vt 0.949179 0.459819
vt 0.851956 0.331956
vt 0.949179 0.290106
vt 0.117470 0.865175
vt 0.161030 0.708267
vt 0.234941 0.707493
vt 0.234941 0.863945
vt 0.193854 0.657129
vt 0.253980 0.815768
vt 0.253980 0.652836
vt 0.321250 0.740951
vt 0.253980 0.870208
vt 0.423743 0.689659
vt 0.363841 0.572873
vt 0.451411 0.495284
vt 0.438897 0.645583
vt 0.363841 0.414160
vt 0.397567 0.357353
vt 0.909816 0.745744
vt 0.909816 0.631797
vt 1.000000 0.609158
vt 0.979856 0.669165
vt 0.638348 0.349102
vt 0.587310 0.188289
vt 0.700171 0.220897
vt 0.629160 0.037539
vt 0.700171 0.058055
vt 0.682221 0.000000
vt 0.186590 0.311546
vt 0.181921 0.143470
vt 0.272881 0.216674
vt 0.197978 0.362730
vt 0.578176 0.696448
vt 0.496821 0.553620
vt 0.583095 0.475639
vt 0.583095 0.642110
vt 0.510269 0.401580
vt 0.555111 0.354256
vt 0.234627 0.000000
vt 0.272881 0.051358
vt 0.649132 0.698203
vt 0.587310 0.569999
vt 0.700170 0.537391
vt 0.587310 0.407157
vt 0.658320 0.386640
vt 0.605259 0.349101
vt 0.496821 0.300357
vt 0.496821 0.131093
vt 0.587310 0.205285
vt 0.504029 0.354256
vt 0.074903 0.362730
vt -0.000000 0.216674
vt 0.090960 0.143470
vt 0.086291 0.311546
vt 0.000000 0.051358
vt 0.038254 0.000000
vt 0.537821 0.000000
vt 0.580925 0.047500
vt 0.849821 0.169713
vt 0.849821 -0.000000
vt 0.947044 0.041849
vt 0.000000 0.863945
vt 0.000000 0.707493
vt 0.073911 0.708267
vt 0.117470 0.865175
vt 0.041086 0.657129
vt 0.667136 0.827709
vt 0.568266 0.698203
vt 0.675206 0.727420
vt 0.700171 0.870980
vt 0.568266 0.809062
vt 0.790354 0.880079
vt 0.790354 0.994026
vt 0.720315 0.917447
vt 0.700171 0.857440
vt 0.448091 0.893483
vt 0.363842 0.812417
vt 0.417208 0.689659
vt 0.448091 0.748568
vt 0.407483 0.357353
vt 0.363841 0.198458
vt 0.496821 0.218895
vt 0.413152 0.041817
vt 0.496821 0.054675
vt 0.462401 -0.000000
vt 0.181819 0.000000
vt 0.272728 0.157461
vt 0.090910 0.157461
vt 0.363637 0.000000
vt 0.454546 0.157461
vt 0.909091 0.000000
vt 1.000000 0.157461
vt 0.818182 0.157461
vt 0.727273 0.000000
vt 0.636364 0.157461
vt 0.545455 0.000000
vt 0.363637 0.314921
vt 0.181819 0.314921
vt 0.909091 0.314921
vt 0.727273 0.314921
vt 0.545455 0.314921
vt 0.000000 0.314921
vt 0.272728 0.472382
vt 0.090910 0.472382
vt 0.818182 0.472382
vt 0.636364 0.472382
vt 0.454546 0.472382
s 1
usemtl Material
f 3/1/1 4/2/2 2/3/3 36/4/4
f 36/5/4 1/6/5 4/7/2 3/8/1
f 4/9/2 1/10/5 5/11/6 7/12/7
f 2/3/3 4/2/2 7/13/7 6/14/8
f 36/15/9 2/16/10 1/17/10
f 2/16/10 6/18/11 5/19/11 1/17/10
f 7/20/12 5/19/11 6/18/11
f 10/21/13 11/22/14 9/23/15 36/24/16
f 36/25/16 8/26/17 11/27/14 10/28/13
f 11/27/14 8/26/17 12/29/18 14/30/19
f 9/31/15 11/32/14 14/33/19 13/34/20
f 36/35/21 9/36/22 8/37/22
f 9/36/22 13/38/23 12/39/23 8/37/22
f 14/40/24 12/39/23 13/38/23
f 17/41/25 18/42/26 16/43/27 36/44/25
f 36/45/25 15/46/28 18/47/26 17/48/25
f 18/47/26 15/46/28 19/49/29 21/50/30
f 16/43/27 18/42/26 21/51/30 20/52/31
f 36/53/32 16/54/33 15/55/33
f 16/54/33 20/56/34 19/57/34 15/55/33
f 21/58/35 19/59/34 20/60/34
f 24/61/36 25/62/37 23/63/38 36/64/36
f 36/65/36 22/66/39 25/67/37 24/68/36
f 25/69/37 22/70/39 26/71/40 28/72/41
f 23/73/38 25/74/37 28/75/41 27/76/42
f 36/77/43 23/78/44 22/79/44
f 23/78/44 27/80/45 26/81/45 22/79/44
f 28/82/46 26/81/45 27/80/45
f 31/83/47 32/84/48 30/85/49 36/86/47
f 36/87/47 29/88/50 32/89/48 31/90/47
f 32/89/48 29/88/50 33/91/51 35/92/52
f 30/85/49 32/84/48 35/93/52 34/94/53
f 36/95/54 30/96/55 29/97/55
f 30/96/55 34/98/56 33/99/56 29/97/55
f 35/100/57 33/99/56 34/98/56
f 39/101/58 40/102/59 38/103/60 36/104/58
f 36/105/58 37/106/61 40/107/59 39/108/58
f 40/107/59 37/106/61 41/109/62 43/110/63
f 38/103/60 40/102/59 43/111/63 42/112/64
f 36/113/65 38/114/66 37/115/66
f 38/116/66 42/117/67 41/118/67 37/119/66
f 43/120/68 41/118/67 42/117/67
f 46/121/69 47/122/70 45/123/71 36/124/69
f 36/125/69 44/126/72 47/127/70 46/128/69
f 47/127/70 44/126/72 48/129/73 50/130/74
f 45/131/71 47/132/70 50/133/74 49/134/75
f 36/135/76 45/136/77 44/137/77
f 45/136/77 49/138/78 48/139/78 44/137/77
f 50/140/79 48/139/78 49/138/78
f 53/141/80 54/142/81 52/143/82 36/144/80
f 36/145/80 51/146/83 54/147/81 53/148/80
f 54/147/81 51/146/83 55/149/84 57/150/85
f 52/143/82 54/142/81 57/151/85 56/152/86
f 36/153/87 52/154/88 51/155/88
f 52/154/88 56/156/89 55/157/89 51/155/88
f 57/158/90 55/157/89 56/156/89
f 60/159/91 61/160/92 59/161/93 36/162/91
f 36/163/91 58/164/94 61/165/92 60/166/91
f 61/165/92 58/164/94 62/167/95 64/168/96
f 59/161/93 61/160/92 64/169/96 63/170/97
f 36/171/98 59/172/99 58/173/99
f 59/174/99 63/175/100 62/176/100 58/177/99
f 64/178/101 62/176/100 63/175/100
f 67/179/102 68/180/103 66/181/104 36/182/102
f 36/182/102 65/183/105 68/180/103 67/179/102
f 68/184/103 65/185/105 69/186/106 71/187/107
f 66/188/104 68/189/103 71/190/107 70/191/108
f 36/192/109 66/193/110 65/194/110
f 66/193/110 70/195/111 69/196/111 65/194/110
f 71/197/112 69/196/111 70/195/111
usemtl Material.004
f 72/198/113 73/199/114 74/200/115
f 73/199/114 72/201/113 77/202/116
f 72/203/113 74/204/115 75/205/117
f 72/206/113 75/205/117 76/207/118
f 72/208/113 76/207/118 77/202/116
f 73/199/114 77/202/116 82/209/119
f 74/200/115 73/199/114 78/210/120
f 75/205/117 74/204/115 79/211/121
f 76/207/118 75/205/117 80/212/122
f 77/202/116 76/207/118 81/213/123
f 73/199/114 82/209/119 78/210/120
f 74/200/115 78/210/120 79/214/121
f 75/205/117 79/211/121 80/212/122
f 76/207/118 80/212/122 81/213/123
f 77/202/116 81/213/123 82/209/119
f 78/210/120 82/209/119 83/215/124
f 79/214/121 78/210/120 83/216/124
f 80/212/122 79/211/121 83/217/124
f 81/213/123 80/212/122 83/218/124
f 82/209/119 81/213/123 83/219/124
