# Blender 3.6.15
# www.blender.org
o grass1
v 1.776468 0.864252 -0.441671
v 1.825202 0.792896 -0.608857
v 2.065266 0.839736 -0.668106
v 2.158868 0.865987 -0.481122
v 2.006413 0.868799 -0.319659
v 1.289098 2.095967 -1.841603
v 1.677811 -0.588380 -0.400405
v 1.747709 -0.588380 -0.738955
v 2.119514 -0.588380 -0.786066
v 2.256272 -0.588380 -0.482003
v 2.024117 -0.588380 -0.201850
v -2.073896 0.796296 2.103460
v -1.998486 0.814726 2.364434
v -2.267051 0.799641 2.447037
v -2.458735 0.795635 2.273305
v -2.308948 0.805603 2.047994
v -2.291796 3.150700 2.349229
v -1.969922 -0.588380 1.984352
v -1.885437 -0.588380 2.402584
v -2.293617 -0.588380 2.550193
v -2.552661 -0.588380 2.313073
v -2.368304 -0.588380 1.944869
v -2.576281 0.632071 -1.071418
v -2.529390 0.661161 -0.912047
v -2.729010 0.638530 -0.795719
v -2.870058 0.607749 -0.918605
v -2.802437 0.564273 -1.120286
v -3.164501 2.043365 -1.340494
v -2.424934 -0.588380 -1.080859
v -2.299422 -0.588380 -0.766440
v -2.630474 -0.588380 -0.551292
v -2.856636 -0.588380 -0.802264
v -2.760581 -0.588380 -1.125675
v 0.580669 0.805812 -0.071369
v 0.837801 0.768108 0.112085
v 0.765309 0.747791 0.348145
v 0.463584 0.789572 0.377501
v 0.371795 0.775855 0.096559
v 1.256175 3.278696 0.168117
v 0.535781 -0.588380 -0.193967
v 0.930668 -0.588380 0.038867
v 0.774652 -0.588380 0.504573
v 0.318884 -0.588380 0.494984
v 0.175202 -0.588380 0.048753
v 0.341662 0.988529 -2.026738
v 0.079622 1.039075 -2.022698
v -0.003138 1.016637 -2.259054
v 0.175851 0.986067 -2.418525
v 0.381592 0.978137 -2.249251
v 1.518401 3.009002 -3.304401
v 0.473758 -0.588380 -1.952360
v 0.035410 -0.588380 -1.926363
v -0.123598 -0.588380 -2.314003
v 0.191369 -0.588380 -2.582592
v 0.538558 -0.588380 -2.364797
v 0.787409 0.860342 2.046188
v 0.809052 0.876492 2.297132
v 0.538743 0.919649 2.375940
v 0.415014 0.905700 2.135942
v 0.592999 0.905145 1.968421
v 1.421279 2.265002 3.666283
v 0.977304 -0.588380 2.015588
v 0.905509 -0.588380 2.416437
v 0.482351 -0.588380 2.502242
v 0.314259 -0.588380 2.135749
v 0.622166 -0.588380 1.844854
v -1.793817 0.755948 -2.130437
v -1.741251 0.775727 -2.417194
v -1.481759 0.749755 -2.519200
v -1.334324 0.765486 -2.281306
v -1.509754 0.761267 -2.064419
v -1.957103 3.295426 -2.765614
v -1.884407 -0.588380 -1.994671
v -1.838984 -0.588380 -2.489337
v -1.416973 -0.588380 -2.603554
v -1.149079 -0.588380 -2.226924
v -1.416788 -0.588380 -1.853041
v -1.509566 0.979246 0.360805
v -1.397411 1.040761 0.134346
v -1.141770 1.061099 0.117351
v -1.078726 0.985217 0.363935
v -1.311409 0.956927 0.475812
v -0.798255 3.013962 1.962268
v -1.617375 -0.588380 0.432571
v -1.476124 -0.588380 0.037080
v -1.056295 -0.588380 0.058206
v -0.939214 -0.588380 0.481331
v -1.275257 -0.588380 0.687909
v 2.106321 0.753835 1.053935
v 2.245203 0.754216 0.902309
v 2.445074 0.786313 1.005766
v 2.453079 0.766103 1.250538
v 2.173231 0.801285 1.269893
v 2.405522 2.894122 1.036784
v 1.957922 -0.588380 1.020101
v 2.239587 -0.588380 0.771633
v 2.586645 -0.588380 0.942848
v 2.504108 -0.588380 1.332469
v 2.112507 -0.588380 1.396186
vn -0.8957 -0.4385 -0.0740
vn -0.0413 -0.6956 -0.7173
vn 0.8814 0.1171 -0.4577
vn -0.1771 0.0880 -0.9802
vn 0.4570 0.7853 0.4178
vn -0.3746 0.6275 0.6825
vn -0.0000 -1.0000 -0.0000
vn -0.9692 0.0677 -0.2369
vn -0.4856 0.0612 0.8720
vn 0.7531 0.0561 0.6555
vn 0.9021 0.0650 -0.4267
vn 0.9518 0.1177 -0.2833
vn 0.2915 0.0428 0.9556
vn -0.6716 0.0237 0.7405
vn 0.3204 0.0578 0.9455
vn -0.8319 0.0767 -0.5496
vn 0.2325 0.1222 -0.9649
vn 0.9696 0.0822 -0.2305
vn 0.1489 0.0812 -0.9855
vn -0.8703 0.0592 -0.4890
vn -0.6725 0.0672 0.7371
vn 0.8946 0.3118 -0.3201
vn 0.4151 0.4379 0.7975
vn -0.6648 0.0819 0.7425
vn 0.5130 0.1995 0.8349
vn -0.9299 -0.2655 -0.2545
vn 0.2351 -0.0866 -0.9681
vn 0.9299 0.1245 -0.3460
vn 0.1622 0.0194 -0.9866
vn -0.9549 -0.0364 -0.2946
vn -0.7145 0.0706 0.6960
vn 0.5716 -0.0770 -0.8169
vn 0.9469 -0.1640 0.2767
vn 0.1036 0.0506 0.9933
vn 0.9495 0.0456 0.3105
vn -0.9073 0.3126 0.2812
vn -0.6287 0.2433 -0.7386
vn 0.5397 0.0691 -0.8390
vn -0.5854 0.1009 -0.8044
vn -0.9446 0.1253 0.3035
vn 0.0314 0.0988 0.9946
vn 0.1071 0.4861 0.8673
vn -0.7285 0.6574 0.1927
vn -0.6517 0.1035 -0.7513
vn -0.9318 0.0521 0.3592
vn 0.4932 -0.6022 -0.6277
vn 0.8952 -0.4078 0.1797
vn 0.0467 0.0544 0.9974
vn 0.9830 0.0883 0.1607
vn 0.5714 0.1038 -0.8141
vn -0.6505 0.0735 -0.7559
vn 0.9332 -0.3546 -0.0577
vn 0.0865 -0.7186 0.6901
vn -0.8822 0.1509 0.4460
vn 0.2351 0.0832 0.9684
vn -0.4110 0.7988 -0.4393
vn 0.4122 0.6024 -0.6835
vn 0.9923 0.0998 0.0739
vn 0.4161 0.0784 -0.9059
vn -0.6855 0.0465 -0.7266
vn -0.8998 0.0652 0.4314
vn -0.9763 -0.1094 -0.1865
vn -0.3749 -0.1584 -0.9134
vn 0.8421 0.1060 -0.5289
vn -0.2999 0.0588 -0.9522
vn 0.7394 0.2976 0.6039
vn -0.2246 0.2228 0.9486
vn -0.9903 0.0660 -0.1225
vn -0.2651 0.1230 0.9564
vn 0.7916 0.1399 0.5948
vn 0.8247 0.0828 -0.5595
vn -0.8220 0.5008 -0.2711
vn -0.1026 0.6926 -0.7140
vn 0.9712 0.0494 -0.2331
vn 0.0047 0.0477 -0.9989
vn 0.4048 -0.5998 0.6902
vn -0.4894 -0.4273 0.7602
vn -0.9265 0.0570 -0.3719
vn -0.5607 0.0880 0.8233
vn 0.4806 0.1189 0.8689
vn 0.9655 0.0628 -0.2526
vn -0.7340 0.0972 -0.6721
vn 0.4568 0.0217 -0.8893
vn 0.9993 0.0192 -0.0311
vn 0.4431 0.0857 -0.8924
vn 0.0813 0.1014 0.9915
vn -0.9544 0.1356 0.2659
vn -0.6869 0.0836 -0.7219
vn -0.9355 0.0832 0.3433
vn 0.1263 0.0746 0.9892
vn 0.9904 0.0707 0.1186
vt 0.250000 0.490000
vt 0.250000 0.250000
vt 0.478254 0.324164
vt 0.391068 0.055836
vt 0.108932 0.055836
vt 0.021746 0.324164
vt 0.750000 0.490000
vt 0.978254 0.324164
vt 0.891068 0.055836
vt 0.608932 0.055836
vt 0.521746 0.324164
s 0
f 1/1/1 6/2/1 2/3/1
f 2/3/2 6/2/2 3/4/2
f 3/4/3 6/2/3 4/5/3
f 2/3/4 3/4/4 9/4/4 8/3/4
f 4/5/5 6/2/5 5/6/5
f 5/6/6 6/2/6 1/1/6
f 7/7/7 8/8/7 9/9/7 10/10/7 11/11/7
f 1/1/8 2/3/8 8/3/8 7/1/8
f 5/6/9 1/1/9 7/1/9 11/6/9
f 4/5/10 5/6/10 11/6/10 10/5/10
f 3/4/11 4/5/11 10/5/11 9/4/11
f 12/1/12 17/2/12 13/3/12
f 13/3/13 17/2/13 14/4/13
f 14/4/14 17/2/14 15/5/14
f 13/3/15 14/4/15 20/4/15 19/3/15
f 15/5/16 17/2/16 16/6/16
f 16/6/17 17/2/17 12/1/17
f 18/7/7 19/8/7 20/9/7 21/10/7 22/11/7
f 12/1/18 13/3/18 19/3/18 18/1/18
f 16/6/19 12/1/19 18/1/19 22/6/19
f 15/5/20 16/6/20 22/6/20 21/5/20
f 14/4/21 15/5/21 21/5/21 20/4/21
f 23/1/22 28/2/22 24/3/22
f 24/3/23 28/2/23 25/4/23
f 25/4/24 28/2/24 26/5/24
f 24/3/25 25/4/25 31/4/25 30/3/25
f 26/5/26 28/2/26 27/6/26
f 27/6/27 28/2/27 23/1/27
f 29/7/7 30/8/7 31/9/7 32/10/7 33/11/7
f 23/1/28 24/3/28 30/3/28 29/1/28
f 27/6/29 23/1/29 29/1/29 33/6/29
f 26/5/30 27/6/30 33/6/30 32/5/30
f 25/4/31 26/5/31 32/5/31 31/4/31
f 34/1/32 39/2/32 35/3/32
f 35/3/33 39/2/33 36/4/33
f 36/4/34 39/2/34 37/5/34
f 35/3/35 36/4/35 42/4/35 41/3/35
f 37/5/36 39/2/36 38/6/36
f 38/6/37 39/2/37 34/1/37
f 40/7/7 41/8/7 42/9/7 43/10/7 44/11/7
f 34/1/38 35/3/38 41/3/38 40/1/38
f 38/6/39 34/1/39 40/1/39 44/6/39
f 37/5/40 38/6/40 44/6/40 43/5/40
f 36/4/41 37/5/41 43/5/41 42/4/41
f 45/1/42 50/2/42 46/3/42
f 46/3/43 50/2/43 47/4/43
f 47/4/44 50/2/44 48/5/44
f 46/3/45 47/4/45 53/4/45 52/3/45
f 48/5/46 50/2/46 49/6/46
f 49/6/47 50/2/47 45/1/47
f 51/7/7 52/8/7 53/9/7 54/10/7 55/11/7
f 45/1/48 46/3/48 52/3/48 51/1/48
f 49/6/49 45/1/49 51/1/49 55/6/49
f 48/5/50 49/6/50 55/6/50 54/5/50
f 47/4/51 48/5/51 54/5/51 53/4/51
f 56/1/52 61/2/52 57/3/52
f 57/3/53 61/2/53 58/4/53
f 58/4/54 61/2/54 59/5/54
f 57/3/55 58/4/55 64/4/55 63/3/55
f 59/5/56 61/2/56 60/6/56
f 60/6/57 61/2/57 56/1/57
f 62/7/7 63/8/7 64/9/7 65/10/7 66/11/7
f 56/1/58 57/3/58 63/3/58 62/1/58
f 60/6/59 56/1/59 62/1/59 66/6/59
f 59/5/60 60/6/60 66/6/60 65/5/60
f 58/4/61 59/5/61 65/5/61 64/4/61
f 67/1/62 72/2/62 68/3/62
f 68/3/63 72/2/63 69/4/63
f 69/4/64 72/2/64 70/5/64
f 68/3/65 69/4/65 75/4/65 74/3/65
f 70/5/66 72/2/66 71/6/66
f 71/6/67 72/2/67 67/1/67
f 73/7/7 74/8/7 75/9/7 76/10/7 77/11/7
f 67/1/68 68/3/68 74/3/68 73/1/68
f 71/6/69 67/1/69 73/1/69 77/6/69
f 70/5/70 71/6/70 77/6/70 76/5/70
f 69/4/71 70/5/71 76/5/71 75/4/71
f 78/1/72 83/2/72 79/3/72
f 79/3/73 83/2/73 80/4/73
f 80/4/74 83/2/74 81/5/74
f 79/3/75 80/4/75 86/4/75 85/3/75
f 81/5/76 83/2/76 82/6/76
f 82/6/77 83/2/77 78/1/77
f 84/7/7 85/8/7 86/9/7 87/10/7 88/11/7
f 78/1/78 79/3/78 85/3/78 84/1/78
f 82/6/79 78/1/79 84/1/79 88/6/79
f 81/5/80 82/6/80 88/6/80 87/5/80
f 80/4/81 81/5/81 87/5/81 86/4/81
f 89/1/82 94/2/82 90/3/82
f 90/3/83 94/2/83 91/4/83
f 91/4/84 94/2/84 92/5/84
f 90/3/85 91/4/85 97/4/85 96/3/85
f 92/5/86 94/2/86 93/6/86
f 93/6/87 94/2/87 89/1/87
f 95/7/7 96/8/7 97/9/7 98/10/7 99/11/7
f 89/1/88 90/3/88 96/3/88 95/1/88
f 93/6/89 89/1/89 95/1/89 99/6/89
f 92/5/90 93/6/90 99/6/90 98/5/90
f 91/4/91 92/5/91 98/5/91 97/4/91
