# Blender 3.6.15
# www.blender.org
o Cylinder
v 0.000000 -1.250000 -5.000000
v 0.000000 1.250000 -5.000000
v 4.330127 -1.250000 -2.500000
v 4.330127 1.250000 -2.500000
v 4.330127 -1.250000 2.500000
v 4.330127 1.250000 2.500000
v 0.000000 -1.250000 5.000000
v 0.000000 1.250000 5.000000
v -4.330127 -1.250000 2.500000
v -4.330127 1.250000 2.500000
v -4.330127 -1.250000 -2.500000
v -4.330127 1.250000 -2.500000
vn 0.5000 -0.0000 -0.8660
vn 1.0000 -0.0000 -0.0000
vn 0.5000 -0.0000 0.8660
vn -0.5000 -0.0000 0.8660
vn -0.0000 1.0000 -0.0000
vn -1.0000 -0.0000 -0.0000
vn -0.5000 -0.0000 -0.8660
vn -0.0000 -1.0000 -0.0000
vt 0.166735 0.833265
vt 0.000103 0.833265
vt 0.000103 0.666632
vt 0.166735 0.666632
vt 0.000103 0.500000
vt 0.166735 0.500000
vt 0.000103 0.333368
vt 0.166735 0.333368
vt 0.000103 0.166735
vt 0.166735 0.166735
vt 0.166941 0.083419
vt 0.311249 0.000103
vt 0.455557 0.083419
vt 0.455557 0.250051
vt 0.311249 0.333368
vt 0.166941 0.250051
vt 0.000103 0.000103
vt 0.166735 0.000103
vt 0.166735 0.999897
vt 0.000103 0.999897
vt 0.311249 0.666838
vt 0.166941 0.583522
vt 0.166941 0.416889
vt 0.311249 0.333573
vt 0.455557 0.416889
vt 0.455557 0.583522
s 0
f 1/1/1 2/2/1 4/3/1 3/4/1
f 3/4/2 4/3/2 6/5/2 5/6/2
f 5/6/3 6/5/3 8/7/3 7/8/3
f 7/8/4 8/7/4 10/9/4 9/10/4
f 4/11/5 2/12/5 12/13/5 10/14/5 8/15/5 6/16/5
f 9/10/6 10/9/6 12/17/6 11/18/6
f 11/19/7 12/20/7 2/2/7 1/1/7
f 1/21/8 3/22/8 5/23/8 7/24/8 9/25/8 11/26/8
