# Blender 3.6.15
# www.blender.org
mtllib ore_gem.mtl
o Cylinder.001
v -0.004265 0.956160 -1.297739
v -0.917351 5.036094 -1.506354
v 0.915326 1.108243 -0.763018
v 0.529016 5.275295 -0.665323
v 0.938224 1.005925 0.306426
v 0.565031 5.114367 1.016739
v 0.041532 0.751525 0.841148
v -0.845320 4.714236 1.857770
v -0.878058 0.599442 0.306426
v -2.291687 4.475035 1.016739
v -0.900956 0.701760 -0.763018
v -2.327703 4.635963 -0.665323
v -1.192801 6.266879 0.315527
v 1.596186 1.968086 1.660037
v 0.568682 0.647149 0.641601
v 1.356158 2.488702 1.115086
v 0.416073 0.978153 0.295124
v 0.642526 2.824326 1.176026
v -0.037649 1.191540 0.333870
v 0.267569 0.529532 1.026823
v 1.122583 1.783094 2.265930
v -0.186153 0.742919 1.065568
v 0.408952 2.118718 2.326870
v -0.338762 1.073924 0.719091
v 0.168923 2.639333 1.781918
v 1.148207 2.803168 2.081124
v 1.379153 3.375673 -1.874406
v 0.450096 0.791327 -1.204878
v 1.320109 3.144772 -2.663008
v 0.412556 0.644521 -1.706266
v 0.599371 3.206074 -3.057310
v -0.045685 0.683497 -1.956960
v 0.029395 0.977108 -0.954184
v 0.717459 3.667876 -1.480104
v -0.428845 1.016083 -1.204878
v -0.003279 3.729179 -1.874406
v -0.466385 0.869278 -1.706266
v -0.062324 3.498277 -2.663008
v 0.824059 4.084750 -2.470776
v -1.074017 2.828609 -1.453787
v 0.081400 0.559444 -0.952511
v -1.019898 2.709046 -2.003663
v 0.115809 0.483427 -1.302118
v -1.413649 2.399378 -2.265683
v -0.134535 0.286542 -1.468709
v -0.203352 0.438577 -0.769494
v -1.521886 2.638504 -1.165931
v -0.453696 0.241693 -0.936084
v -1.915637 2.328836 -1.427951
v -0.419288 0.165675 -1.285692
v -1.861518 2.209274 -1.977827
v -1.708401 2.918455 -1.826359
vn 0.4934 0.0661 -0.8673
vn 0.9956 0.0926 -0.0125
vn 0.5300 -0.0975 0.8424
vn -0.4379 -0.3141 0.8424
vn -0.7410 0.5248 -0.4190
vn -0.9401 -0.3406 -0.0125
vn -0.4745 -0.1505 -0.8673
vn -0.4769 -0.1292 0.8694
vn -0.5096 0.6753 -0.5332
vn 0.1989 0.7127 0.6727
vn 0.1731 0.8281 -0.5332
vn -0.8380 0.5412 0.0697
vn 0.5274 0.8468 0.0697
vn -0.4837 0.5599 0.6727
vn -0.9101 0.0139 0.4142
vn -0.2197 -0.6059 0.7646
vn 0.6398 -0.7150 0.2818
vn 0.8089 -0.2042 -0.5513
vn 0.1185 0.4157 -0.9017
vn -0.8230 -0.5665 0.0422
vn -0.2039 0.9694 0.1366
vn 0.7700 0.0950 0.6309
vn 0.4023 0.8925 -0.2039
vn -0.3232 0.6091 0.7243
vn 0.8893 0.4553 0.0432
vn 0.1638 0.1719 0.9714
vn -0.5660 -0.2037 -0.7988
vn -0.9865 0.1613 0.0266
vn -0.4424 0.2797 0.8521
vn 0.5223 0.0330 0.8521
vn 0.9429 -0.3321 0.0266
vn 0.3987 -0.4504 -0.7988
vn -0.3115 -0.4946 -0.8114
vn -0.2128 0.5795 -0.7867
vn 0.5518 0.7458 0.3732
vn 0.4649 0.4062 -0.7867
vn -0.5083 0.8360 -0.2067
vn 0.8472 0.4894 -0.2067
vn -0.1260 0.9191 0.3732
vn 0.3806 0.3800 0.8431
vn 0.8920 0.4519 -0.0105
vn 0.5460 0.0146 -0.8377
vn -0.6014 0.2889 -0.7449
vn -0.1161 0.9023 0.4153
vn -0.0001 0.6460 -0.7633
vn -0.9600 0.2385 -0.1464
vn 0.2426 0.9527 -0.1833
vn -0.7174 0.5452 0.4337
vt 1.000000 0.500000
vt 1.000000 1.000000
vt 0.833333 1.000000
vt 0.833333 0.500000
vt 0.666667 1.000000
vt 0.666667 0.500000
vt 0.500000 1.000000
vt 0.500000 0.500000
vt 0.333333 1.000000
vt 0.333333 0.500000
vt 0.166667 0.500000
vt 0.166667 1.000000
vt -0.000000 1.000000
vt -0.000000 0.500000
s 0
f 1/1/1 2/2/1 4/3/1 3/4/1
f 3/4/2 4/3/2 6/5/2 5/6/2
f 5/6/3 6/5/3 8/7/3 7/8/3
f 7/8/4 8/7/4 10/9/4 9/10/4
f 24/11/5 25/12/5 18/13/5 19/14/5
f 9/10/6 10/9/6 12/12/6 11/11/6
f 11/11/7 12/12/7 2/13/7 1/14/7
f 46/8/8 47/7/8 49/9/8 48/10/8
f 2/13/9 12/12/9 13/13/9
f 8/7/10 6/5/10 13/7/10
f 4/3/11 2/2/11 13/3/11
f 12/12/12 10/9/12 13/12/12
f 6/5/13 4/3/13 13/5/13
f 10/9/14 8/7/14 13/9/14
f 22/10/15 23/9/15 25/12/15 24/11/15
f 20/8/16 21/7/16 23/9/16 22/10/16
f 15/6/17 14/5/17 21/7/17 20/8/17
f 17/4/18 16/3/18 14/5/18 15/6/18
f 19/1/19 18/2/19 16/3/19 17/4/19
f 48/10/20 49/9/20 51/12/20 50/11/20
f 18/13/21 25/12/21 26/13/21
f 21/7/22 14/5/22 26/7/22
f 16/3/23 18/2/23 26/3/23
f 25/12/24 23/9/24 26/12/24
f 14/5/25 16/3/25 26/5/25
f 23/9/26 21/7/26 26/9/26
f 37/11/27 38/12/27 31/13/27 32/14/27
f 35/10/28 36/9/28 38/12/28 37/11/28
f 33/8/29 34/7/29 36/9/29 35/10/29
f 28/6/30 27/5/30 34/7/30 33/8/30
f 30/4/31 29/3/31 27/5/31 28/6/31
f 32/1/32 31/2/32 29/3/32 30/4/32
f 50/11/33 51/12/33 44/13/33 45/14/33
f 31/13/34 38/12/34 39/13/34
f 34/7/35 27/5/35 39/7/35
f 29/3/36 31/2/36 39/3/36
f 38/12/37 36/9/37 39/12/37
f 27/5/38 29/3/38 39/5/38
f 36/9/39 34/7/39 39/9/39
f 41/6/40 40/5/40 47/7/40 46/8/40
f 43/4/41 42/3/41 40/5/41 41/6/41
f 45/1/42 44/2/42 42/3/42 43/4/42
f 44/13/43 51/12/43 52/13/43
f 47/7/44 40/5/44 52/7/44
f 42/3/45 44/2/45 52/3/45
f 51/12/46 49/9/46 52/12/46
f 40/5/47 42/3/47 52/5/47
f 49/9/48 47/7/48 52/9/48
