# Blender 3.6.15
# www.blender.org
mtllib ore_stone.mtl
o Icosphere
v 0.835361 1.063984 2.571021
v -2.187046 1.063984 1.588964
v -1.975045 1.421990 -1.682728
v 0.799438 1.207716 -2.649047
v 2.765934 1.048838 0.057168
v 0.000000 2.225948 0.000000
v 2.874498 0.123911 0.933966
v 2.874498 0.123911 -0.933966
v 0.000000 0.123911 3.022421
v 1.776536 0.123911 2.445189
v -2.874498 0.123911 0.933966
v -1.776536 0.123911 2.445189
v -1.776536 0.123911 -2.445189
v -2.874498 0.123911 -0.933966
v 1.776536 0.123911 -2.445189
v 0.000000 0.123911 -3.022421
v 2.079998 1.229029 1.511202
v -0.794500 1.229032 2.445174
v -2.724481 1.638476 -0.212322
v -0.794500 1.229032 -2.445174
v 2.079998 1.229029 -1.511202
v 0.492291 1.921132 1.515140
v 1.661504 2.071421 0.000000
v -1.348696 2.082878 0.979550
v -1.285504 1.912018 -0.933963
v 0.500944 1.993999 -1.548782
vn 0.3417 0.7809 0.5229
vn -0.4334 0.6977 0.5704
vn -0.3193 0.9005 -0.2953
vn -0.0649 0.8035 -0.5918
vn 0.6699 0.7117 -0.2112
vn 0.0920 0.9887 -0.1183
vn 0.4147 0.8388 -0.3527
vn 0.3959 0.7945 -0.4604
vn -0.1072 0.9776 -0.1811
vn -0.1968 0.8679 -0.4562
vn -0.1436 0.8835 -0.4459
vn -0.1718 0.9807 -0.0932
vn -0.2313 0.9683 -0.0941
vn -0.5763 0.7130 0.3994
vn 0.0318 0.9818 0.1872
vn -0.0778 0.8484 0.5237
vn 0.0309 0.7809 0.6239
vn 0.0913 0.9816 0.1678
vn 0.3718 0.8508 0.3713
vn 0.6565 0.7214 0.2203
vn 0.8407 0.4387 -0.3173
vn 0.7801 0.2648 -0.5668
vn 0.6010 0.4132 -0.6841
vn -0.1113 0.3961 -0.9114
vn -0.2980 0.2648 -0.9171
vn -0.4502 0.4001 -0.7983
vn -0.8296 0.3050 -0.4677
vn -0.9951 0.0986 -0.0000
vn -0.8536 0.3655 0.3712
vn -0.5059 0.4496 0.7362
vn -0.2980 0.2648 0.9171
vn -0.0234 0.4496 0.8929
vn 0.5438 0.4496 0.7086
vn 0.7801 0.2648 0.5668
vn 0.8384 0.4236 0.3430
vn 0.3075 0.0992 -0.9464
vn -0.7899 0.2163 -0.5739
vn -0.7959 0.1791 0.5783
vn 0.3040 0.1791 0.9357
vn 0.9932 0.1166 -0.0000
vt 0.181819 0.314921
vt 0.272728 0.314921
vt 0.227273 0.393651
vt 0.000000 0.314921
vt 0.090910 0.314921
vt 0.045455 0.393651
vt 0.727273 0.314921
vt 0.818182 0.314921
vt 0.772727 0.393651
vt 0.545455 0.314921
vt 0.636364 0.314921
vt 0.590909 0.393651
vt 0.363637 0.314921
vt 0.454546 0.314921
vt 0.409092 0.393651
vt 0.500000 0.393651
vt 0.454546 0.472382
vt 0.681818 0.393651
vt 0.636364 0.472382
vt 0.863636 0.393651
vt 0.818182 0.472382
vt 0.909091 0.314921
vt 0.136365 0.393651
vt 0.090910 0.472382
vt 0.318182 0.393651
vt 0.272728 0.472382
vt 0.409092 0.236191
vt 0.500000 0.236191
vt 0.590909 0.236191
vt 0.681818 0.236191
vt 0.772727 0.236191
vt 0.863636 0.236191
vt 0.045455 0.236191
vt 0.136365 0.236191
vt 0.227273 0.236191
vt 0.318182 0.236191
vt 0.954545 0.236191
s 0
f 1/1/1 17/2/1 22/3/1
f 2/4/2 18/5/2 24/6/2
f 3/7/3 19/8/3 25/9/3
f 4/10/4 20/11/4 26/12/4
f 5/13/5 21/14/5 23/15/5
f 23/15/6 26/16/6 6/17/6
f 23/15/7 21/14/7 26/16/7
f 21/14/8 4/10/8 26/16/8
f 26/12/9 25/18/9 6/19/9
f 26/12/10 20/11/10 25/18/10
f 20/11/11 3/7/11 25/18/11
f 25/9/12 24/20/12 6/21/12
f 25/9/13 19/8/13 24/20/13
f 19/8/14 2/22/14 24/20/14
f 24/6/15 22/23/15 6/24/15
f 24/6/16 18/5/16 22/23/16
f 18/5/17 1/1/17 22/23/17
f 22/3/18 23/25/18 6/26/18
f 22/3/19 17/2/19 23/25/19
f 17/2/20 5/13/20 23/25/20
f 8/27/21 21/14/21 5/13/21
f 8/27/22 15/28/22 21/14/22
f 15/28/23 4/10/23 21/14/23
f 16/29/24 20/11/24 4/10/24
f 16/29/25 13/30/25 20/11/25
f 13/30/26 3/7/26 20/11/26
f 14/31/27 19/8/27 3/7/27
f 14/31/28 11/32/28 19/8/28
f 11/32/29 2/22/29 19/8/29
f 12/33/30 18/5/30 2/4/30
f 12/33/31 9/34/31 18/5/31
f 9/34/32 1/1/32 18/5/32
f 10/35/33 17/2/33 1/1/33
f 10/35/34 7/36/34 17/2/34
f 7/36/35 5/13/35 17/2/35
f 15/28/36 16/29/36 4/10/36
f 13/30/37 14/31/37 3/7/37
f 11/32/38 12/37/38 2/22/38
f 9/34/39 10/35/39 1/1/39
f 7/36/40 8/27/40 5/13/40
