# Blender 3.6.15
# www.blender.org
mtllib tree1_leafs.mtl
o Plane
v -0.829132 2.763672 -1.527791
v -0.798469 3.090240 -1.246900
v -1.147251 2.738694 -1.498776
v -1.177082 3.060512 -1.212368
v -0.652450 2.759562 -1.436359
v -0.588946 2.986643 -1.231359
v -0.922095 3.222970 -1.025945
v -1.037803 3.213885 -1.015392
v -1.361792 2.925961 -1.160871
v -1.301811 2.708576 -1.377133
v -0.911571 2.428420 -1.590717
v -1.026585 2.419389 -1.580227
v -0.777117 3.204168 -0.960530
v -1.163968 3.173793 -0.925247
v 2.108102 2.556198 -1.483863
v 1.820754 2.893163 -1.557561
v 2.082209 2.435172 -1.793117
v 1.789937 2.749122 -1.925624
v 2.010424 2.606668 -1.308643
v 1.799937 2.853877 -1.318129
v 1.594960 2.989964 -1.724795
v 1.585541 2.945944 -1.837280
v 1.737031 2.559853 -2.069438
v 1.957570 2.359623 -1.939909
v 2.169525 2.197187 -1.463042
v 2.160163 2.153432 -1.574851
v 1.524559 3.015934 -1.576163
v 1.493071 2.868760 -1.952233
v -0.746700 3.204483 -2.256245
v -0.512432 3.424637 -2.144699
v -0.897844 3.236616 -2.056572
v -0.692319 3.462882 -1.907055
v -0.604575 3.163542 -2.308285
v -0.414503 3.308659 -2.249724
v -0.426102 3.527837 -1.964036
v -0.481077 3.539525 -1.891410
v -0.781696 3.386725 -1.764635
v -0.913098 3.229135 -1.900703
v -0.884676 2.967502 -2.220634
v -0.939321 2.979119 -2.148445
v -0.317715 3.483277 -2.010876
v -0.501515 3.522353 -1.768062
v 0.450732 3.039558 -1.893685
v 0.706766 3.017210 -1.975656
v 0.324039 2.789610 -2.533177
v 0.400159 2.782966 -2.557548
v 0.222190 2.931196 -2.276767
v 0.248026 2.996873 -2.072286
v 0.532686 3.076149 -1.958799
v 0.609267 3.069464 -1.983318
v 0.759526 2.952227 -2.236048
v 0.651964 2.893683 -2.414364
v 0.391218 3.068891 -2.097022
v 0.317648 2.968448 -2.368844
v 0.641800 3.047019 -2.177249
v 0.528192 2.950071 -2.436252
v -0.434178 3.370215 -0.960778
v -0.192221 3.338884 -0.780520
v 0.096827 3.698005 -1.437207
v 0.168762 3.688690 -1.383615
v -0.236802 3.644035 -1.351319
v -0.409156 3.532521 -1.220828
v -0.348646 3.423589 -0.887412
v -0.276276 3.414218 -0.833497
v 0.074223 3.469928 -0.860711
v 0.169343 3.591443 -1.048741
v -0.331961 3.564637 -1.058754
v -0.122073 3.714327 -1.274551
v -0.095155 3.533973 -0.882335
v 0.076896 3.688562 -1.126320
v -1.825662 3.715163 -1.033551
v -1.609374 3.713677 -0.787236
v -1.138603 3.930543 -1.482280
v -1.074300 3.930101 -1.409049
v -1.513636 3.906688 -1.454397
v -1.732126 3.825844 -1.332656
v -1.745715 3.784860 -0.950450
v -1.681023 3.784415 -0.876776
v -1.300028 3.822874 -0.840572
v -1.150579 3.904193 -1.040937
v -1.680983 3.893771 -1.154870
v -1.402072 3.993844 -1.365067
v -1.469300 3.892316 -0.913800
v -1.224212 3.992622 -1.162515
v -1.785914 3.734943 0.267487
v -1.876727 3.658452 -0.029912
v -2.209495 3.047037 0.452614
v -2.236494 3.024296 0.364196
v -2.051727 3.361207 0.561768
v -1.904774 3.567374 0.518900
v -1.882559 3.725253 0.178655
v -1.909722 3.702374 0.089702
v -2.086199 3.414561 -0.075239
v -2.204164 3.232810 0.062559
v -1.994158 3.620434 0.356856
v -2.176081 3.333425 0.459267
v -2.083036 3.545571 0.065790
v -2.250759 3.270525 0.214707
v -1.678875 2.384495 1.280139
v -1.771941 2.393880 0.893292
v -2.232462 1.516393 1.248395
v -2.260131 1.519183 1.133383
v -2.037747 1.850818 1.492456
v -1.847919 2.106062 1.518331
v -1.792637 2.405827 1.164529
v -1.820474 2.408633 1.048822
v -2.033844 2.124810 0.745493
v -2.193965 1.866570 0.843101
v -1.946085 2.226279 1.336225
v -2.185298 1.856050 1.352777
v -2.037169 2.235464 0.957615
v -2.261829 1.863767 1.034662
v 1.816274 2.073246 -0.252791
v 1.863699 2.110320 0.025040
v 1.681794 1.383265 -0.035567
v 1.695894 1.394287 0.047034
v 1.746718 1.595077 -0.275802
v 1.772378 1.807316 -0.354928
v 1.884344 2.053648 -0.159859
v 1.898529 2.064737 -0.076759
v 1.867123 1.881382 0.200120
v 1.826325 1.657309 0.190561
v 1.879506 1.857924 -0.231755
v 1.824226 1.556321 -0.159330
v 1.925920 1.894209 0.040160
v 1.863225 1.586808 0.069139
v -1.295721 2.640680 0.145079
v -1.184228 2.556718 0.412096
v -0.921202 1.999630 -0.093430
v -0.888054 1.974668 -0.014044
v -1.076443 2.299882 -0.168994
v -1.208568 2.492580 -0.107492
v -1.197215 2.627697 0.219007
v -1.163867 2.602583 0.298873
v -0.985829 2.324840 0.425951
v -0.889293 2.158943 0.279217
v -1.109722 2.535733 0.038034
v -0.950887 2.269244 -0.085503
v -1.000603 2.453558 0.299366
v -0.859202 2.200199 0.134074
v -0.263808 3.739515 0.629131
v -0.461063 3.769292 0.803971
v 0.014292 3.382118 1.145156
v -0.044353 3.390971 1.197136
v 0.046497 3.527119 0.878843
v -0.033726 3.624400 0.707534
v -0.300162 3.784711 0.721459
v -0.359162 3.793617 0.773754
v -0.427800 3.683889 1.056827
v -0.284612 3.577103 1.172326
v -0.128198 3.723660 0.789112
v 0.008703 3.572396 1.000794
v -0.321253 3.752803 0.960229
v -0.153506 3.596882 1.144570
v 0.654364 3.660982 0.036095
v 0.513988 3.679103 -0.196708
v 0.033497 3.848294 0.313015
v -0.008237 3.853682 0.243802
v 0.343338 3.814444 0.343767
v 0.537277 3.743739 0.272213
v 0.603584 3.725577 -0.040001
v 0.561597 3.730998 -0.109633
v 0.256837 3.779941 -0.192877
v 0.107707 3.844862 -0.047011
v 0.523984 3.809750 0.122896
v 0.268208 3.895068 0.258834
v 0.386598 3.827485 -0.104949
v 0.152773 3.909970 0.067394
v 1.302202 2.687901 -0.835912
v 1.307621 2.737786 -0.627123
v 1.048007 2.232872 -0.643003
v 1.049618 2.247703 -0.580929
v 1.165370 2.349214 -0.826372
v 1.233828 2.490474 -0.897147
v 1.335620 2.672451 -0.755692
v 1.337240 2.687372 -0.693243
v 1.244652 2.590134 -0.480031
v 1.174464 2.432950 -0.475902
v 1.304662 2.522853 -0.794191
v 1.198967 2.320846 -0.725915
v 1.309965 2.571676 -0.589847
v 1.203423 2.361868 -0.554222
v 1.302986 2.759933 0.496185
v 1.057722 2.752134 0.692804
v 1.109830 1.975130 0.400790
v 1.036911 1.972811 0.459246
v 1.348089 2.244086 0.361362
v 1.410833 2.488180 0.369053
v 1.253114 2.720259 0.608631
v 1.179755 2.717927 0.667441
v 0.920847 2.472597 0.761856
v 0.936393 2.230992 0.691404
v 1.344144 2.518597 0.543306
v 1.283177 2.179166 0.493108
v 1.104103 2.510963 0.735739
v 1.081489 2.172751 0.654794
v -0.910841 2.402995 1.269313
v -1.109423 2.277246 1.299326
v -0.649139 1.865446 1.405960
v -0.708178 1.828061 1.414883
v -0.629205 2.135662 1.377954
v -0.698828 2.303921 1.323679
v -0.971674 2.357052 1.329937
v -1.031070 2.319440 1.338913
v -1.095553 2.052702 1.383638
v -0.962542 1.924582 1.428333
v -0.823574 2.289456 1.390933
v -0.696258 2.068253 1.452805
v -1.017928 2.166385 1.420306
v -0.859558 1.964846 1.477486
v 0.664453 3.346169 1.151740
v 0.448054 3.395539 1.084298
v 0.423334 2.804955 1.248873
v 0.358997 2.819633 1.228822
v 0.622398 2.978048 1.287938
v 0.709967 3.138060 1.251445
v 0.573263 3.360836 1.175439
v 0.508537 3.375603 1.155266
v 0.277647 3.236690 1.116709
v 0.259154 3.060919 1.174730
v 0.597122 3.218714 1.265987
v 0.507842 2.983215 1.317675
v 0.385330 3.267032 1.199980
v 0.329890 3.023813 1.262215
v 0.472526 2.660530 1.789549
v 0.342824 2.812593 1.646491
v 0.350771 2.252023 1.317348
v 0.312210 2.297232 1.274816
v 0.433772 2.298703 1.583362
v 0.487586 2.419042 1.729882
v 0.383045 2.687013 1.750837
v 0.344250 2.732496 1.708048
v 0.228469 2.722831 1.444082
v 0.216056 2.553953 1.343226
v 0.372187 2.510341 1.716382
v 0.324559 2.321550 1.525871
v 0.245247 2.659166 1.576370
v 0.217901 2.446595 1.408230
v 1.442605 2.855215 1.315602
v 1.296401 2.758579 1.490319
v 1.459010 2.246844 1.115990
v 1.415542 2.218114 1.167934
v 1.568113 2.509510 1.110492
v 1.561322 2.702619 1.155675
v 1.433389 2.797146 1.398607
v 1.389659 2.768241 1.450866
v 1.269235 2.509560 1.504723
v 1.322695 2.347298 1.403769
v 1.534408 2.682455 1.300601
v 1.556641 2.426362 1.204967
v 1.391317 2.587876 1.471598
v 1.436413 2.346895 1.348642
v -0.851791 2.713189 -1.410156
v -0.820827 2.989295 -1.168094
v -1.096272 2.693993 -1.387858
v -1.125566 2.965368 -1.140299
v -0.705112 2.702507 -1.332093
v -0.638002 2.896919 -1.151091
v -0.933913 3.110729 -0.961429
v -0.997347 3.105749 -0.955643
v -1.285815 2.846053 -1.092006
v -1.223073 2.661838 -1.284852
v -0.911984 2.404536 -1.462931
v -0.999510 2.397663 -1.454948
v -0.826171 3.093606 -0.912887
v -1.090634 3.072841 -0.888767
v 1.990059 2.502494 -1.492907
v 1.740777 2.790892 -1.550913
v 1.969931 2.408416 -1.733302
v 1.715744 2.673886 -1.849896
v 1.906071 2.537789 -1.344227
v 1.719039 2.754561 -1.340311
v 1.528953 2.879819 -1.704519
v 1.523628 2.854929 -1.768121
v 1.665923 2.506293 -1.974702
v 1.863505 2.338831 -1.852619
v 2.041416 2.175518 -1.458746
v 2.034206 2.141822 -1.544851
v 1.475971 2.896359 -1.591687
v 1.454065 2.793973 -1.853312
v -0.687666 3.147380 -2.155476
v -0.492742 3.322779 -2.066359
v -0.794410 3.170074 -2.014460
v -0.628085 3.351553 -1.887560
v -0.576251 3.107969 -2.194226
v -0.408603 3.223253 -2.151893
v -0.412453 3.414330 -1.902150
v -0.435909 3.419317 -1.871163
v -0.700406 3.285291 -1.766399
v -0.805546 3.156718 -1.891311
v -0.797784 2.930324 -2.131373
v -0.835855 2.938417 -2.081079
v -0.340160 3.381245 -1.933509
v -0.450165 3.404632 -1.788184
v 0.495687 2.921377 -1.923890
v 0.634723 2.909242 -1.968404
v 0.360921 2.705982 -2.440733
v 0.410765 2.701631 -2.456691
v 0.295973 2.831828 -2.236994
v 0.306196 2.880775 -2.066165
v 0.547716 2.947099 -1.963306
v 0.574325 2.944777 -1.971826
v 0.698171 2.846562 -2.191660
v 0.600134 2.805279 -2.334374
v 0.422245 2.942955 -2.088213
v 0.368395 2.867330 -2.304814
v 0.602206 2.927247 -2.145830
v 0.508544 2.855097 -2.349685
v -0.335190 3.297078 -1.002638
v -0.191557 3.278479 -0.895632
v 0.092261 3.568267 -1.430333
v 0.142113 3.561812 -1.393193
v -0.176986 3.529149 -1.340218
v -0.328132 3.432869 -1.240942
v -0.279841 3.333546 -0.951116
v -0.249468 3.329613 -0.928488
v 0.054797 3.383283 -0.955660
v 0.123594 3.490227 -1.116287
v -0.264270 3.463552 -1.104577
v -0.091461 3.587985 -1.275193
v -0.086814 3.440573 -0.972373
v 0.048348 3.569880 -1.171036
v -1.726582 3.631180 -1.039033
v -1.591630 3.630253 -0.885346
v -1.154559 3.805475 -1.450602
v -1.108523 3.805159 -1.398174
v -1.466217 3.794625 -1.408646
v -1.656834 3.721248 -1.315603
v -1.673359 3.680859 -0.979578
v -1.643407 3.680653 -0.945467
v -1.307830 3.718849 -0.918147
v -1.190485 3.792730 -1.094635
v -1.613975 3.782820 -1.164867
v -1.381906 3.869189 -1.334174
v -1.451388 3.781702 -0.979708
v -1.252985 3.868303 -1.187354
v -1.745148 3.621973 0.217728
v -1.801002 3.574927 0.034813
v -2.089467 3.034154 0.404371
v -2.108615 3.018025 0.341665
v -1.968290 3.304861 0.479529
v -1.837195 3.477575 0.453560
v -1.811977 3.618410 0.156236
v -1.824208 3.608108 0.116181
v -1.982906 3.354844 -0.023621
v -2.083194 3.208078 0.103235
v -1.916151 3.524066 0.317763
v -2.069965 3.289777 0.398159
v -1.983928 3.466977 0.095800
v -2.123609 3.244593 0.222481
v -1.637285 2.287394 1.204366
v -1.701526 2.293871 0.937338
v -2.110101 1.512852 1.204630
v -2.131297 1.514989 1.116529
v -1.950711 1.815506 1.402579
v -1.778266 2.034550 1.435058
v -1.722750 2.306472 1.118221
v -1.738275 2.308037 1.053691
v -1.934743 2.050328 0.784627
v -2.075982 1.828137 0.881866
v -1.867646 2.141183 1.277015
v -2.076619 1.826684 1.287766
v -1.941330 2.148613 0.970728
v -2.135806 1.832652 1.041742
v 1.718063 2.052475 -0.170190
v 1.744923 2.073473 -0.012834
v 1.589040 1.472538 -0.017483
v 1.598521 1.479950 0.038060
v 1.657152 1.651485 -0.200331
v 1.670958 1.824990 -0.275546
v 1.764525 2.041666 -0.110871
v 1.769927 2.045889 -0.079228
v 1.744693 1.882632 0.156423
v 1.714679 1.696457 0.136684
v 1.762896 1.865133 -0.174745
v 1.723413 1.624236 -0.113239
v 1.796897 1.891714 0.024450
v 1.750039 1.645050 0.042742
v -1.332413 2.525900 0.193855
v -1.266536 2.476290 0.351625
v -1.036107 1.985242 -0.034356
v -1.013204 1.967995 0.020494
v -1.152002 2.240495 -0.081449
v -1.270251 2.400411 -0.039668
v -1.266175 2.520305 0.243738
v -1.252310 2.509864 0.276942
v -1.094113 2.267766 0.382168
v -1.013826 2.136439 0.249470
v -1.184373 2.438142 0.080497
v -1.050955 2.223522 -0.016251
v -1.102788 2.376703 0.275886
v -0.986717 2.175146 0.137594
v -0.325645 3.633105 0.671002
v -0.431233 3.649045 0.764592
v -0.077120 3.324560 1.072830
v -0.115177 3.330305 1.106563
v -0.061896 3.456019 0.869062
v -0.120384 3.528527 0.721628
v -0.348518 3.664184 0.727372
v -0.368365 3.667180 0.744964
v -0.420810 3.573879 0.987915
v -0.294588 3.491146 1.075312
v -0.194796 3.612015 0.789436
v -0.089121 3.497412 0.959464
v -0.332520 3.632806 0.911510
v -0.196176 3.513573 1.054354
v 0.552684 3.581781 0.019108
v 0.475821 3.591704 -0.108364
v 0.049934 3.724394 0.277259
v 0.022465 3.727940 0.231702
v 0.300474 3.707344 0.283832
v 0.462192 3.643975 0.236030
v 0.523190 3.623883 -0.030250
v 0.508331 3.625801 -0.054893
v 0.246637 3.671801 -0.121452
v 0.133032 3.728960 0.006142
v 0.451982 3.701847 0.114373
v 0.249005 3.773308 0.217534
v 0.352933 3.714633 -0.049894
v 0.171785 3.783276 0.089469
v 1.189337 2.702125 -0.772992
v 1.191645 2.723373 -0.684060
v 0.978645 2.342354 -0.653124
v 0.979558 2.350754 -0.617969
v 1.081125 2.434788 -0.776573
v 1.127995 2.541975 -0.841946
v 1.210049 2.695035 -0.730754
v 1.210341 2.697724 -0.719498
v 1.135642 2.612378 -0.547277
v 1.086880 2.487778 -0.554788
v 1.185552 2.564383 -0.762759
v 1.111853 2.415695 -0.708176
v 1.188977 2.595921 -0.630763
v 1.114437 2.439487 -0.608598
v 1.186017 2.730515 0.447680
v 1.036904 2.725773 0.567219
v 1.038794 2.063963 0.337841
v 0.987470 2.062331 0.378986
v 1.232671 2.291671 0.325107
v 1.290690 2.497342 0.320250
v 1.153726 2.705385 0.526165
v 1.121434 2.704358 0.552052
v 0.898933 2.484883 0.634307
v 0.924207 2.281861 0.572392
v 1.237176 2.521352 0.469480
v 1.186409 2.242964 0.434238
v 1.055172 2.515564 0.615387
v 1.042573 2.238389 0.549546
v -0.932328 2.301948 1.190397
v -1.027602 2.241617 1.204796
v -0.694779 1.882676 1.285461
v -0.730616 1.859983 1.290877
v -0.696655 2.092991 1.275340
v -0.741498 2.229365 1.226106
v -0.968624 2.278007 1.226774
v -0.983896 2.268336 1.229082
v -1.032683 2.044977 1.270114
v -0.919076 1.952147 1.308955
v -0.839365 2.218555 1.283120
v -0.746672 2.049730 1.334419
v -0.971361 2.134971 1.303069
v -0.847814 1.985683 1.349705
v 0.615179 3.281356 1.050393
v 0.513772 3.304491 1.018789
v 0.453971 2.837543 1.126810
v 0.415461 2.846329 1.114808
v 0.592314 2.984587 1.161636
v 0.672345 3.105107 1.131450
v 0.563783 3.292481 1.065267
v 0.548173 3.296043 1.060402
v 0.357502 3.176936 1.033327
v 0.352530 3.039292 1.086905
v 0.583000 3.168794 1.146787
v 0.510859 2.993739 1.188137
v 0.440619 3.201277 1.102413
v 0.402096 3.018553 1.154240
v 0.518356 2.687683 1.670964
v 0.453703 2.763481 1.599654
v 0.445664 2.339210 1.300206
v 0.421712 2.367291 1.273788
v 0.493678 2.387784 1.510041
v 0.546851 2.477347 1.629941
v 0.464086 2.704484 1.650702
v 0.453076 2.717392 1.638558
v 0.354190 2.703223 1.417440
v 0.345803 2.561152 1.346939
v 0.451660 2.548307 1.620764
v 0.409492 2.405294 1.474168
v 0.363984 2.651098 1.524060
v 0.341973 2.484453 1.399696
v 1.331223 2.799230 1.278730
v 1.257847 2.750730 1.366416
v 1.354148 2.318110 1.087265
v 1.327037 2.300192 1.119663
v 1.439013 2.523229 1.103777
v 1.436006 2.681479 1.128304
v 1.327176 2.766634 1.330139
v 1.314552 2.758290 1.345225
v 1.218323 2.537598 1.388439
v 1.271788 2.412700 1.303613
v 1.417947 2.664260 1.245777
v 1.435636 2.465341 1.177794
v 1.318815 2.598737 1.364241
v 1.359227 2.414837 1.269104
vn -0.5741 0.5052 -0.6444
vn -0.1195 0.6538 -0.7471
vn -0.1154 0.8217 -0.5582
vn 0.3636 0.5788 -0.7299
vn -0.5641 0.7766 -0.2806
vn -0.1050 0.2083 -0.9724
vn 0.4599 0.0533 -0.8864
vn 0.3773 0.8505 -0.3665
vn -0.6144 -0.0311 -0.7884
vn 0.6599 0.3091 -0.6848
vn 0.7584 0.5829 -0.2916
vn 0.5719 0.7465 -0.3400
vn 0.7333 0.6523 0.1920
vn 0.3000 0.5753 -0.7609
vn 0.9768 0.1588 -0.1439
vn 0.8805 0.1762 0.4401
vn 0.3738 0.9198 0.1194
vn 0.7964 -0.2170 -0.5645
vn -0.7264 0.6844 -0.0629
vn -0.4711 0.7425 -0.4761
vn -0.2936 0.8837 -0.3645
vn -0.1610 0.5642 -0.8098
vn -0.3950 0.9055 0.1548
vn -0.7257 0.3319 -0.6027
vn -0.3305 0.0508 -0.9425
vn 0.1727 0.7849 -0.5951
vn -0.9782 0.1885 -0.0867
vn 0.3258 0.3790 -0.8661
vn -0.7012 0.4687 -0.5373
vn -0.1752 0.6627 -0.7281
vn -0.3458 0.9091 0.2324
vn -0.4858 0.8519 -0.1957
vn 0.0527 0.9930 -0.1061
vn -0.0268 0.9400 -0.3401
vn 0.5542 0.8305 -0.0558
vn 0.4105 0.7736 -0.4827
vn 0.6132 0.7589 0.2193
vn -0.2499 0.8706 -0.4237
vn 0.1014 0.9942 0.0367
vn -0.7614 0.5626 0.3220
vn -0.5262 0.8483 0.0591
vn -0.3352 0.7431 0.5791
vn -0.1988 0.8852 0.4207
vn -0.0051 0.4647 0.8855
vn 0.2271 0.7508 0.6203
vn 0.6181 0.7648 0.1819
vn -0.0959 0.7697 -0.6312
vn 0.1703 0.9749 -0.1437
vn -0.7622 0.6460 0.0422
vn -0.4596 0.8605 -0.2197
vn -0.3796 0.8610 0.3385
vn -0.2049 0.9610 0.1857
vn -0.1365 0.6417 0.7547
vn 0.1635 0.8563 0.4900
vn -0.9495 -0.2013 -0.2409
vn -0.6426 0.0572 0.7641
vn -0.9583 0.1056 0.2655
vn -0.3136 0.8690 0.3828
vn -0.6118 0.5697 0.5488
vn -0.6719 0.7405 0.0147
vn -0.8220 0.5593 0.1072
vn -0.5825 0.6425 -0.4979
vn -0.8797 0.3441 -0.3283
vn -0.9374 -0.1002 -0.3336
vn -0.6844 -0.1257 0.7182
vn -0.9700 0.0625 0.2349
vn -0.3199 0.7469 0.5829
vn -0.6324 0.4241 0.6482
vn -0.6587 0.7315 0.1762
vn -0.8170 0.5372 0.2096
vn -0.5417 0.7693 -0.3388
vn -0.8532 0.4464 -0.2697
vn 0.6099 -0.5907 0.5283
vn 0.4293 -0.7318 -0.5292
vn 0.7565 -0.6527 -0.0420
vn 0.7555 0.1598 -0.6354
vn 0.7650 -0.2901 -0.5750
vn 0.9841 0.0393 -0.1732
vn 0.9680 -0.2103 -0.1372
vn 0.9137 0.2834 0.2913
vn 0.9225 -0.1669 0.3480
vn 0.9666 -0.2151 0.1393
vn 0.5662 0.0864 -0.8197
vn 0.9290 0.1126 -0.3525
vn 0.2822 0.8829 -0.3752
vn 0.5606 0.5896 -0.5815
vn 0.6734 0.7376 -0.0492
vn 0.8124 0.5598 -0.1632
vn 0.6331 0.6187 0.4652
vn 0.9101 0.3264 0.2555
vn 0.1501 0.3185 0.9360
vn 0.9548 0.1970 0.2227
vn 0.6197 0.4859 0.6164
vn 0.4757 0.8185 -0.3221
vn 0.7450 0.6670 0.0105
vn 0.2773 0.9488 0.1513
vn 0.4210 0.8444 0.3312
vn -0.2295 0.9250 0.3029
vn 0.0427 0.7730 0.6330
vn -0.5455 0.8025 -0.2418
vn 0.0120 0.7305 0.6828
vn -0.1549 0.9733 0.1692
vn 0.7822 0.6092 0.1307
vn 0.4464 0.8245 0.3476
vn 0.4671 0.8577 -0.2149
vn 0.2720 0.9581 -0.0895
vn 0.2936 0.6723 -0.6796
vn -0.0401 0.8873 -0.4594
vn 0.3450 -0.6280 0.6975
vn 0.3177 -0.8794 -0.3546
vn 0.5665 -0.8047 0.1776
vn 0.8682 -0.1094 -0.4840
vn 0.7553 -0.5360 -0.3772
vn 0.9777 -0.2086 0.0245
vn 0.8942 -0.4402 0.0820
vn 0.8921 0.1109 0.4380
vn 0.7791 -0.3166 0.5411
vn -0.0930 -0.6855 0.7221
vn 0.7511 -0.6587 0.0455
vn 0.4794 -0.6659 0.5716
vn 0.8998 0.2263 0.3731
vn 0.9036 -0.2276 0.3629
vn 0.6247 0.0292 0.7804
vn 0.6141 -0.2223 0.7573
vn 0.1601 0.2028 0.9660
vn 0.1670 -0.2510 0.9535
vn -0.1691 -0.5587 0.8119
vn 0.7378 0.0155 0.6749
vn 0.2476 -0.1631 0.9550
vn 0.1653 0.7773 0.6070
vn 0.4039 0.4430 0.8004
vn -0.1545 0.4535 0.8778
vn -0.0184 0.2595 0.9656
vn -0.6294 0.2741 0.7271
vn -0.3875 -0.0582 0.9200
vn -0.8018 -0.2060 0.5609
vn 0.2076 -0.4363 0.8755
vn -0.3326 -0.1982 0.9220
vn 0.3790 0.4986 0.7796
vn 0.2306 0.1124 0.9665
vn -0.1462 0.5140 0.8453
vn -0.2241 0.2892 0.9307
vn -0.5055 0.7004 0.5039
vn -0.6504 0.3134 0.6920
vn -0.8986 -0.2384 -0.3683
vn -0.3276 -0.9079 0.2615
vn -0.8003 -0.5917 0.0967
vn -0.3525 -0.2089 0.9122
vn -0.4949 -0.5611 0.6636
vn -0.7768 -0.0742 0.6254
vn -0.8382 -0.2680 0.4751
vn -0.8529 0.3778 0.3603
vn -0.9932 0.0232 0.1139
vn 0.2592 -0.8004 0.5405
vn 0.8985 -0.3779 -0.2235
vn 0.7574 -0.5699 0.3186
vn 0.8568 0.4307 0.2836
vn 0.9865 0.0125 0.1635
vn 0.7411 0.0834 0.6662
vn 0.7974 -0.1491 0.5848
vn 0.2966 0.0604 0.9531
vn 0.4285 -0.3563 0.8303
vn 0.5948 -0.4933 0.6347
vn 0.1195 -0.6620 0.7399
vn 0.1151 -0.8277 0.5493
vn -0.3874 -0.5705 0.7242
vn 0.5795 -0.7754 0.2508
vn 0.1038 -0.1873 0.9768
vn -0.4723 -0.0583 0.8795
vn -0.3978 -0.8521 0.3400
vn 0.6260 0.0280 0.7793
vn -0.6506 -0.2926 0.7007
vn -0.7516 -0.5905 0.2940
vn -0.5635 -0.7522 0.3416
vn -0.7274 -0.6514 -0.2159
vn -0.2718 -0.5703 0.7752
vn -0.9807 -0.1397 0.1368
vn -0.8739 -0.1843 -0.4499
vn -0.3482 -0.9273 -0.1372
vn -0.7880 0.2173 0.5761
vn 0.7386 -0.6734 0.0329
vn 0.4616 -0.7520 0.4705
vn 0.2833 -0.8899 0.3576
vn 0.1377 -0.5456 0.8266
vn 0.3798 -0.9038 -0.1973
vn 0.7349 -0.3056 0.6055
vn 0.3114 -0.0526 0.9488
vn -0.2169 -0.7769 0.5911
vn 0.9786 -0.1945 0.0674
vn -0.3483 -0.3766 0.8584
vn 0.7151 -0.4694 0.5179
vn 0.1836 -0.6383 0.7476
vn 0.3630 -0.8891 -0.2790
vn 0.5196 -0.8347 0.1825
vn -0.0577 -0.9942 0.0909
vn 0.0215 -0.9455 0.3248
vn -0.5917 -0.8057 0.0267
vn -0.4425 -0.7507 0.4905
vn -0.6208 -0.7479 -0.2349
vn 0.2686 -0.8631 0.4277
vn -0.1183 -0.9929 -0.0138
vn 0.7898 -0.5278 -0.3125
vn 0.5447 -0.8380 -0.0315
vn 0.3422 -0.7338 -0.5869
vn 0.2072 -0.8784 -0.4308
vn -0.0059 -0.4248 -0.9053
vn -0.2566 -0.7343 -0.6285
vn -0.6214 -0.7578 -0.1988
vn 0.1123 -0.7629 0.6367
vn -0.1893 -0.9687 0.1604
vn 0.7882 -0.6144 -0.0351
vn 0.4722 -0.8467 0.2452
vn 0.3879 -0.8544 -0.3458
vn 0.2146 -0.9572 -0.1942
vn 0.1330 -0.6099 -0.7812
vn -0.1872 -0.8422 -0.5057
vn 0.9451 0.1990 0.2594
vn 0.6295 -0.0668 -0.7741
vn 0.9589 -0.0798 -0.2723
vn 0.2730 -0.8782 -0.3928
vn 0.5924 -0.5648 -0.5744
vn 0.6628 -0.7487 -0.0098
vn 0.8151 -0.5702 -0.1022
vn 0.5550 -0.6407 0.5306
vn 0.8763 -0.3258 0.3550
vn 0.9332 0.0948 0.3465
vn 0.6747 0.1209 -0.7281
vn 0.9712 -0.0415 -0.2347
vn 0.2893 -0.7509 -0.5937
vn 0.6185 -0.4150 -0.6672
vn 0.6512 -0.7386 -0.1746
vn 0.8113 -0.5462 -0.2084
vn 0.5193 -0.7740 0.3622
vn 0.8496 -0.4383 0.2933
vn -0.6102 0.5754 -0.5446
vn -0.4237 0.7212 0.5480
vn -0.7368 0.6752 0.0357
vn -0.7254 -0.1897 0.6617
vn -0.7409 0.2944 0.6036
vn -0.9831 -0.0543 0.1750
vn -0.9708 0.1948 0.1397
vn -0.8925 -0.3203 -0.3175
vn -0.9093 0.1628 -0.3829
vn -0.9638 0.2135 -0.1597
vn -0.5511 -0.0973 0.8288
vn -0.9287 -0.0853 0.3609
vn -0.2376 -0.8934 0.3814
vn -0.5371 -0.5855 0.6072
vn -0.6643 -0.7462 0.0427
vn -0.8056 -0.5714 0.1567
vn -0.6069 -0.6153 -0.5031
vn -0.9090 -0.3054 -0.2835
vn -0.1261 -0.3230 -0.9380
vn -0.9600 -0.1971 -0.1989
vn -0.6276 -0.4570 -0.6303
vn -0.4672 -0.8014 0.3734
vn -0.7652 -0.6436 0.0164
vn -0.2674 -0.9535 -0.1392
vn -0.4118 -0.8535 -0.3193
vn 0.2817 -0.9145 -0.2904
vn -0.0103 -0.7575 -0.6527
vn 0.5462 -0.7949 0.2641
vn -0.0309 -0.7204 -0.6928
vn 0.1819 -0.9658 -0.1848
vn -0.8113 -0.5669 -0.1431
vn -0.4552 -0.8048 -0.3809
vn -0.4785 -0.8495 0.2224
vn -0.2858 -0.9533 0.0981
vn -0.2934 -0.6338 0.7157
vn 0.0667 -0.8722 0.4846
vn -0.3467 0.6029 -0.7186
vn -0.3181 0.8665 0.3848
vn -0.5313 0.8270 -0.1838
vn -0.8424 0.0629 0.5351
vn -0.7271 0.5408 0.4228
vn -0.9818 0.1889 -0.0197
vn -0.9043 0.4200 -0.0769
vn -0.8684 -0.1757 -0.4637
vn -0.7533 0.3000 -0.5853
vn 0.1067 0.6744 -0.7306
vn -0.7619 0.6468 -0.0343
vn -0.4682 0.6860 -0.5569
vn -0.9040 -0.2567 -0.3419
vn -0.9157 0.2266 -0.3320
vn -0.6241 -0.0427 -0.7802
vn -0.6158 0.2085 -0.7598
vn -0.1276 -0.2320 -0.9643
vn -0.1341 0.2515 -0.9585
vn 0.1967 0.5600 -0.8048
vn -0.7486 -0.0385 -0.6619
vn -0.2657 0.1942 -0.9443
vn -0.1758 -0.8131 -0.5550
vn -0.4416 -0.4539 -0.7739
vn 0.1642 -0.4667 -0.8690
vn 0.0294 -0.2758 -0.9608
vn 0.6765 -0.2734 -0.6838
vn 0.4182 0.0905 -0.9039
vn 0.8177 0.1880 -0.5440
vn -0.2357 0.4283 -0.8723
vn 0.3377 0.2349 -0.9115
vn -0.4317 -0.5123 -0.7424
vn -0.2734 -0.0910 -0.9576
vn 0.1399 -0.5297 -0.8366
vn 0.2181 -0.3086 -0.9258
vn 0.5189 -0.7292 -0.4461
vn 0.6857 -0.3098 -0.6587
vn 0.9027 0.2123 0.3742
vn 0.3087 0.9087 -0.2810
vn 0.7896 0.6099 -0.0675
vn 0.2980 0.1940 -0.9346
vn 0.4564 0.5831 -0.6721
vn 0.7706 0.0603 -0.6345
vn 0.8353 0.2537 -0.4877
vn 0.8329 -0.4330 -0.3447
vn 0.9958 -0.0493 -0.0772
vn -0.2396 0.7945 -0.5579
vn -0.9044 0.3551 0.2365
vn -0.7470 0.5954 -0.2958
vn -0.8410 -0.4790 -0.2514
vn -0.9923 -0.0261 -0.1213
vn -0.7353 -0.0995 -0.6704
vn -0.7949 0.1317 -0.5923
vn -0.2426 -0.0835 -0.9665
vn -0.3887 0.3728 -0.8425
vt 0.000000 0.333333
vt 0.333333 0.333333
vt 0.333333 0.666667
vt 0.000000 0.666667
vt 0.666667 0.333333
vt 0.666667 0.666667
vt 0.333333 0.000000
vt 0.666667 0.000000
vt 1.000000 0.333333
vt 1.000000 0.666667
vt 0.000000 0.000000
vt 0.666667 1.000000
vt 0.333333 1.000000
vt 1.000000 0.000000
vt 0.000000 1.000000
s 0
f 9/1/1 4/2/1 3/3/1 10/4/1
f 4/2/2 2/5/2 1/6/2 3/3/2
f 8/7/3 7/8/3 2/5/3 4/2/3
f 2/5/4 6/9/4 5/10/4 1/6/4
f 14/11/5 8/7/5 4/2/5 9/1/5
f 3/3/6 1/6/6 11/12/6 12/13/6
f 1/6/7 5/10/7 11/12/7
f 7/8/8 13/14/8 6/9/8 2/5/8
f 10/4/9 3/3/9 12/15/9
f 23/1/10 18/2/10 17/3/10 24/4/10
f 18/2/11 16/5/11 15/6/11 17/3/11
f 22/7/12 21/8/12 16/5/12 18/2/12
f 16/5/13 20/9/13 19/10/13 15/6/13
f 28/11/14 22/7/14 18/2/14 23/1/14
f 17/3/15 15/6/15 25/12/15 26/13/15
f 15/6/16 19/10/16 25/12/16
f 21/8/17 27/14/17 20/9/17 16/5/17
f 24/4/18 17/3/18 26/15/18
f 37/1/19 32/2/19 31/3/19 38/4/19
f 32/2/20 30/5/20 29/6/20 31/3/20
f 36/7/21 35/8/21 30/5/21 32/2/21
f 30/5/22 34/9/22 33/10/22 29/6/22
f 42/11/23 36/7/23 32/2/23 37/1/23
f 31/3/24 29/6/24 39/12/24 40/13/24
f 29/6/25 33/10/25 39/12/25
f 35/8/26 41/14/26 34/9/26 30/5/26
f 38/4/27 31/3/27 40/15/27
f 56/6/28 52/10/28 46/12/28
f 47/4/29 54/3/29 45/15/29
f 54/3/30 56/6/30 46/12/30 45/13/30
f 43/11/31 49/7/31 53/2/31 48/1/31
f 48/1/32 53/2/32 54/3/32 47/4/32
f 49/7/33 50/8/33 55/5/33 53/2/33
f 53/2/34 55/5/34 56/6/34 54/3/34
f 50/8/35 44/14/35 51/9/35 55/5/35
f 55/5/36 51/9/36 52/10/36 56/6/36
f 70/6/37 66/10/37 60/12/37
f 61/4/38 68/3/38 59/15/38
f 68/3/39 70/6/39 60/12/39 59/13/39
f 57/11/40 63/7/40 67/2/40 62/1/40
f 62/1/41 67/2/41 68/3/41 61/4/41
f 63/7/42 64/8/42 69/5/42 67/2/42
f 67/2/43 69/5/43 70/6/43 68/3/43
f 64/8/44 58/14/44 65/9/44 69/5/44
f 69/5/45 65/9/45 66/10/45 70/6/45
f 84/6/46 80/10/46 74/12/46
f 75/4/47 82/3/47 73/15/47
f 82/3/48 84/6/48 74/12/48 73/13/48
f 71/11/49 77/7/49 81/2/49 76/1/49
f 76/1/50 81/2/50 82/3/50 75/4/50
f 77/7/51 78/8/51 83/5/51 81/2/51
f 81/2/52 83/5/52 84/6/52 82/3/52
f 78/8/53 72/14/53 79/9/53 83/5/53
f 83/5/54 79/9/54 80/10/54 84/6/54
f 98/6/55 94/10/55 88/12/55
f 89/4/56 96/3/56 87/15/56
f 96/3/57 98/6/57 88/12/57 87/13/57
f 85/11/58 91/7/58 95/2/58 90/1/58
f 90/1/59 95/2/59 96/3/59 89/4/59
f 91/7/60 92/8/60 97/5/60 95/2/60
f 95/2/61 97/5/61 98/6/61 96/3/61
f 92/8/62 86/14/62 93/9/62 97/5/62
f 97/5/63 93/9/63 94/10/63 98/6/63
f 112/6/64 108/10/64 102/12/64
f 103/4/65 110/3/65 101/15/65
f 110/3/66 112/6/66 102/12/66 101/13/66
f 99/11/67 105/7/67 109/2/67 104/1/67
f 104/1/68 109/2/68 110/3/68 103/4/68
f 105/7/69 106/8/69 111/5/69 109/2/69
f 109/2/70 111/5/70 112/6/70 110/3/70
f 106/8/71 100/14/71 107/9/71 111/5/71
f 111/5/72 107/9/72 108/10/72 112/6/72
f 126/6/73 122/10/73 116/12/73
f 117/4/74 124/3/74 115/15/74
f 124/3/75 126/6/75 116/12/75 115/13/75
f 113/11/76 119/7/76 123/2/76 118/1/76
f 118/1/77 123/2/77 124/3/77 117/4/77
f 119/7/78 120/8/78 125/5/78 123/2/78
f 123/2/79 125/5/79 126/6/79 124/3/79
f 120/8/80 114/14/80 121/9/80 125/5/80
f 125/5/81 121/9/81 122/10/81 126/6/81
f 140/6/82 136/10/82 130/12/82
f 131/4/83 138/3/83 129/15/83
f 138/3/84 140/6/84 130/12/84 129/13/84
f 127/11/85 133/7/85 137/2/85 132/1/85
f 132/1/86 137/2/86 138/3/86 131/4/86
f 133/7/87 134/8/87 139/5/87 137/2/87
f 137/2/88 139/5/88 140/6/88 138/3/88
f 134/8/89 128/14/89 135/9/89 139/5/89
f 139/5/90 135/9/90 136/10/90 140/6/90
f 154/6/91 150/10/91 144/12/91
f 145/4/92 152/3/92 143/15/92
f 152/3/93 154/6/93 144/12/93 143/13/93
f 141/11/94 147/7/94 151/2/94 146/1/94
f 146/1/95 151/2/95 152/3/95 145/4/95
f 147/7/96 148/8/96 153/5/96 151/2/96
f 151/2/97 153/5/97 154/6/97 152/3/97
f 148/8/98 142/14/98 149/9/98 153/5/98
f 153/5/99 149/9/99 150/10/99 154/6/99
f 168/6/100 164/10/100 158/12/100
f 159/4/101 166/3/101 157/15/101
f 166/3/102 168/6/102 158/12/102 157/13/102
f 155/11/103 161/7/103 165/2/103 160/1/103
f 160/1/104 165/2/104 166/3/104 159/4/104
f 161/7/105 162/8/105 167/5/105 165/2/105
f 165/2/106 167/5/106 168/6/106 166/3/106
f 162/8/107 156/14/107 163/9/107 167/5/107
f 167/5/108 163/9/108 164/10/108 168/6/108
f 182/6/109 178/10/109 172/12/109
f 173/4/110 180/3/110 171/15/110
f 180/3/111 182/6/111 172/12/111 171/13/111
f 169/11/112 175/7/112 179/2/112 174/1/112
f 174/1/113 179/2/113 180/3/113 173/4/113
f 175/7/114 176/8/114 181/5/114 179/2/114
f 179/2/115 181/5/115 182/6/115 180/3/115
f 176/8/116 170/14/116 177/9/116 181/5/116
f 181/5/117 177/9/117 178/10/117 182/6/117
f 196/6/118 192/10/118 186/12/118
f 187/4/119 194/3/119 185/15/119
f 194/3/120 196/6/120 186/12/120 185/13/120
f 183/11/121 189/7/121 193/2/121 188/1/121
f 188/1/122 193/2/122 194/3/122 187/4/122
f 189/7/123 190/8/123 195/5/123 193/2/123
f 193/2/124 195/5/124 196/6/124 194/3/124
f 190/8/125 184/14/125 191/9/125 195/5/125
f 195/5/126 191/9/126 192/10/126 196/6/126
f 210/6/127 206/10/127 200/12/127
f 201/4/128 208/3/128 199/15/128
f 208/3/129 210/6/129 200/12/129 199/13/129
f 197/11/130 203/7/130 207/2/130 202/1/130
f 202/1/131 207/2/131 208/3/131 201/4/131
f 203/7/132 204/8/132 209/5/132 207/2/132
f 207/2/133 209/5/133 210/6/133 208/3/133
f 204/8/134 198/14/134 205/9/134 209/5/134
f 209/5/135 205/9/135 206/10/135 210/6/135
f 224/6/136 220/10/136 214/12/136
f 215/4/137 222/3/137 213/15/137
f 222/3/138 224/6/138 214/12/138 213/13/138
f 211/11/139 217/7/139 221/2/139 216/1/139
f 216/1/140 221/2/140 222/3/140 215/4/140
f 217/7/141 218/8/141 223/5/141 221/2/141
f 221/2/142 223/5/142 224/6/142 222/3/142
f 218/8/143 212/14/143 219/9/143 223/5/143
f 223/5/144 219/9/144 220/10/144 224/6/144
f 238/6/145 234/10/145 228/12/145
f 229/4/146 236/3/146 227/15/146
f 236/3/147 238/6/147 228/12/147 227/13/147
f 225/11/148 231/7/148 235/2/148 230/1/148
f 230/1/149 235/2/149 236/3/149 229/4/149
f 231/7/150 232/8/150 237/5/150 235/2/150
f 235/2/151 237/5/151 238/6/151 236/3/151
f 232/8/152 226/14/152 233/9/152 237/5/152
f 237/5/153 233/9/153 234/10/153 238/6/153
f 252/6/154 248/10/154 242/12/154
f 243/4/155 250/3/155 241/15/155
f 250/3/156 252/6/156 242/12/156 241/13/156
f 239/11/157 245/7/157 249/2/157 244/1/157
f 244/1/158 249/2/158 250/3/158 243/4/158
f 245/7/159 246/8/159 251/5/159 249/2/159
f 249/2/160 251/5/160 252/6/160 250/3/160
f 246/8/161 240/14/161 247/9/161 251/5/161
f 251/5/162 247/9/162 248/10/162 252/6/162
f 261/1/163 262/4/163 255/3/163 256/2/163
f 256/2/164 255/3/164 253/6/164 254/5/164
f 260/7/165 256/2/165 254/5/165 259/8/165
f 254/5/166 253/6/166 257/10/166 258/9/166
f 266/11/167 261/1/167 256/2/167 260/7/167
f 255/3/168 264/13/168 263/12/168 253/6/168
f 253/6/169 263/12/169 257/10/169
f 259/8/170 254/5/170 258/9/170 265/14/170
f 262/4/171 264/15/171 255/3/171
f 275/1/172 276/4/172 269/3/172 270/2/172
f 270/2/173 269/3/173 267/6/173 268/5/173
f 274/7/174 270/2/174 268/5/174 273/8/174
f 268/5/175 267/6/175 271/10/175 272/9/175
f 280/11/176 275/1/176 270/2/176 274/7/176
f 269/3/177 278/13/177 277/12/177 267/6/177
f 267/6/178 277/12/178 271/10/178
f 273/8/179 268/5/179 272/9/179 279/14/179
f 276/4/180 278/15/180 269/3/180
f 289/1/181 290/4/181 283/3/181 284/2/181
f 284/2/182 283/3/182 281/6/182 282/5/182
f 288/7/183 284/2/183 282/5/183 287/8/183
f 282/5/184 281/6/184 285/10/184 286/9/184
f 294/11/185 289/1/185 284/2/185 288/7/185
f 283/3/186 292/13/186 291/12/186 281/6/186
f 281/6/187 291/12/187 285/10/187
f 287/8/188 282/5/188 286/9/188 293/14/188
f 290/4/189 292/15/189 283/3/189
f 308/6/190 298/12/190 304/10/190
f 299/4/191 297/15/191 306/3/191
f 306/3/192 297/13/192 298/12/192 308/6/192
f 295/11/193 300/1/193 305/2/193 301/7/193
f 300/1/194 299/4/194 306/3/194 305/2/194
f 301/7/195 305/2/195 307/5/195 302/8/195
f 305/2/196 306/3/196 308/6/196 307/5/196
f 302/8/197 307/5/197 303/9/197 296/14/197
f 307/5/198 308/6/198 304/10/198 303/9/198
f 322/6/199 312/12/199 318/10/199
f 313/4/200 311/15/200 320/3/200
f 320/3/201 311/13/201 312/12/201 322/6/201
f 309/11/202 314/1/202 319/2/202 315/7/202
f 314/1/203 313/4/203 320/3/203 319/2/203
f 315/7/204 319/2/204 321/5/204 316/8/204
f 319/2/205 320/3/205 322/6/205 321/5/205
f 316/8/206 321/5/206 317/9/206 310/14/206
f 321/5/207 322/6/207 318/10/207 317/9/207
f 336/6/208 326/12/208 332/10/208
f 327/4/209 325/15/209 334/3/209
f 334/3/210 325/13/210 326/12/210 336/6/210
f 323/11/211 328/1/211 333/2/211 329/7/211
f 328/1/212 327/4/212 334/3/212 333/2/212
f 329/7/213 333/2/213 335/5/213 330/8/213
f 333/2/214 334/3/214 336/6/214 335/5/214
f 330/8/215 335/5/215 331/9/215 324/14/215
f 335/5/216 336/6/216 332/10/216 331/9/216
f 350/6/217 340/12/217 346/10/217
f 341/4/218 339/15/218 348/3/218
f 348/3/219 339/13/219 340/12/219 350/6/219
f 337/11/220 342/1/220 347/2/220 343/7/220
f 342/1/221 341/4/221 348/3/221 347/2/221
f 343/7/222 347/2/222 349/5/222 344/8/222
f 347/2/223 348/3/223 350/6/223 349/5/223
f 344/8/224 349/5/224 345/9/224 338/14/224
f 349/5/225 350/6/225 346/10/225 345/9/225
f 364/6/226 354/12/226 360/10/226
f 355/4/227 353/15/227 362/3/227
f 362/3/228 353/13/228 354/12/228 364/6/228
f 351/11/229 356/1/229 361/2/229 357/7/229
f 356/1/230 355/4/230 362/3/230 361/2/230
f 357/7/231 361/2/231 363/5/231 358/8/231
f 361/2/232 362/3/232 364/6/232 363/5/232
f 358/8/233 363/5/233 359/9/233 352/14/233
f 363/5/234 364/6/234 360/10/234 359/9/234
f 378/6/235 368/12/235 374/10/235
f 369/4/236 367/15/236 376/3/236
f 376/3/237 367/13/237 368/12/237 378/6/237
f 365/11/238 370/1/238 375/2/238 371/7/238
f 370/1/239 369/4/239 376/3/239 375/2/239
f 371/7/240 375/2/240 377/5/240 372/8/240
f 375/2/241 376/3/241 378/6/241 377/5/241
f 372/8/242 377/5/242 373/9/242 366/14/242
f 377/5/243 378/6/243 374/10/243 373/9/243
f 392/6/244 382/12/244 388/10/244
f 383/4/245 381/15/245 390/3/245
f 390/3/246 381/13/246 382/12/246 392/6/246
f 379/11/247 384/1/247 389/2/247 385/7/247
f 384/1/248 383/4/248 390/3/248 389/2/248
f 385/7/249 389/2/249 391/5/249 386/8/249
f 389/2/250 390/3/250 392/6/250 391/5/250
f 386/8/251 391/5/251 387/9/251 380/14/251
f 391/5/252 392/6/252 388/10/252 387/9/252
f 406/6/253 396/12/253 402/10/253
f 397/4/254 395/15/254 404/3/254
f 404/3/255 395/13/255 396/12/255 406/6/255
f 393/11/256 398/1/256 403/2/256 399/7/256
f 398/1/257 397/4/257 404/3/257 403/2/257
f 399/7/258 403/2/258 405/5/258 400/8/258
f 403/2/259 404/3/259 406/6/259 405/5/259
f 400/8/260 405/5/260 401/9/260 394/14/260
f 405/5/261 406/6/261 402/10/261 401/9/261
f 420/6/262 410/12/262 416/10/262
f 411/4/263 409/15/263 418/3/263
f 418/3/264 409/13/264 410/12/264 420/6/264
f 407/11/265 412/1/265 417/2/265 413/7/265
f 412/1/266 411/4/266 418/3/266 417/2/266
f 413/7/267 417/2/267 419/5/267 414/8/267
f 417/2/268 418/3/268 420/6/268 419/5/268
f 414/8/269 419/5/269 415/9/269 408/14/269
f 419/5/270 420/6/270 416/10/270 415/9/270
f 434/6/271 424/12/271 430/10/271
f 425/4/272 423/15/272 432/3/272
f 432/3/273 423/13/273 424/12/273 434/6/273
f 421/11/274 426/1/274 431/2/274 427/7/274
f 426/1/275 425/4/275 432/3/275 431/2/275
f 427/7/276 431/2/276 433/5/276 428/8/276
f 431/2/277 432/3/277 434/6/277 433/5/277
f 428/8/278 433/5/278 429/9/278 422/14/278
f 433/5/279 434/6/279 430/10/279 429/9/279
f 448/6/280 438/12/280 444/10/280
f 439/4/281 437/15/281 446/3/281
f 446/3/282 437/13/282 438/12/282 448/6/282
f 435/11/283 440/1/283 445/2/283 441/7/283
f 440/1/284 439/4/284 446/3/284 445/2/284
f 441/7/285 445/2/285 447/5/285 442/8/285
f 445/2/286 446/3/286 448/6/286 447/5/286
f 442/8/287 447/5/287 443/9/287 436/14/287
f 447/5/288 448/6/288 444/10/288 443/9/288
f 462/6/289 452/12/289 458/10/289
f 453/4/290 451/15/290 460/3/290
f 460/3/291 451/13/291 452/12/291 462/6/291
f 449/11/292 454/1/292 459/2/292 455/7/292
f 454/1/293 453/4/293 460/3/293 459/2/293
f 455/7/294 459/2/294 461/5/294 456/8/294
f 459/2/295 460/3/295 462/6/295 461/5/295
f 456/8/296 461/5/296 457/9/296 450/14/296
f 461/5/297 462/6/297 458/10/297 457/9/297
f 476/6/298 466/12/298 472/10/298
f 467/4/299 465/15/299 474/3/299
f 474/3/300 465/13/300 466/12/300 476/6/300
f 463/11/301 468/1/301 473/2/301 469/7/301
f 468/1/302 467/4/302 474/3/302 473/2/302
f 469/7/303 473/2/303 475/5/303 470/8/303
f 473/2/304 474/3/304 476/6/304 475/5/304
f 470/8/305 475/5/305 471/9/305 464/14/305
f 475/5/306 476/6/306 472/10/306 471/9/306
f 490/6/307 480/12/307 486/10/307
f 481/4/308 479/15/308 488/3/308
f 488/3/309 479/13/309 480/12/309 490/6/309
f 477/11/310 482/1/310 487/2/310 483/7/310
f 482/1/311 481/4/311 488/3/311 487/2/311
f 483/7/312 487/2/312 489/5/312 484/8/312
f 487/2/313 488/3/313 490/6/313 489/5/313
f 484/8/314 489/5/314 485/9/314 478/14/314
f 489/5/315 490/6/315 486/10/315 485/9/315
f 504/6/316 494/12/316 500/10/316
f 495/4/317 493/15/317 502/3/317
f 502/3/318 493/13/318 494/12/318 504/6/318
f 491/11/319 496/1/319 501/2/319 497/7/319
f 496/1/320 495/4/320 502/3/320 501/2/320
f 497/7/321 501/2/321 503/5/321 498/8/321
f 501/2/322 502/3/322 504/6/322 503/5/322
f 498/8/323 503/5/323 499/9/323 492/14/323
f 503/5/324 504/6/324 500/10/324 499/9/324
