# Blender 3.6.15
# www.blender.org
mtllib tree4.mtl
o tree4
v 0.000000 -0.045713 -1.901708
v 0.000000 5.942950 -2.431687
v 1.344711 -0.045713 -1.344711
v 1.719462 5.942950 -1.719462
v 1.901708 -0.045713 0.000000
v 2.431687 5.942950 0.000000
v 1.344711 -0.045713 1.344711
v 1.719462 5.942950 1.719462
v 0.000000 -0.045713 1.901708
v 0.000000 5.942950 2.431687
v -1.344711 -0.045713 1.344711
v -1.719462 5.942950 1.719462
v -1.901708 -0.045713 0.000000
v -2.431687 5.942950 0.000000
v -1.344711 -0.045713 -1.344711
v -1.719462 5.942950 -1.719462
v 0.000000 12.271691 -2.630939
v 1.860354 12.271691 -1.860354
v 2.630939 12.271691 -0.000000
v 1.860354 12.271691 1.860354
v 0.000000 12.271691 2.630939
v -1.860354 12.271691 1.860354
v -2.630939 12.271691 -0.000000
v -1.860354 12.271691 -1.860354
v 0.000001 18.854788 -2.179703
v 1.541284 18.854788 -1.541283
v 2.179704 18.854788 -0.000000
v 1.541284 18.854788 1.541283
v 0.000001 18.854788 2.179703
v -1.541282 18.854788 1.541283
v -2.179703 18.854788 -0.000000
v -1.541282 18.854788 -1.541283
v 0.000000 23.527973 -1.109773
v 0.784728 23.527973 -0.784728
v 1.109773 23.527973 -0.000000
v 0.784728 23.527973 0.784728
v 0.000000 23.527973 1.109773
v -0.784728 23.527973 0.784728
v -1.109773 23.527973 -0.000000
v -0.784728 23.527973 -0.784728
v 1.643461 16.675827 -0.999997
v 3.930303 17.289923 -2.153495
v 1.821811 15.991582 -0.707104
v 4.560828 16.480719 -1.952771
v 1.895686 15.708158 0.000002
v 5.089540 16.145538 -1.115647
v 1.821811 15.991582 0.707109
v 5.206723 16.480719 -0.132499
v 1.643462 16.675827 1.000002
v 4.843737 17.289923 0.420758
v 1.465112 17.360071 0.707109
v 4.213211 18.099123 0.220033
v 1.391237 17.643496 0.000003
v 3.684500 18.434305 -0.617091
v 1.465112 17.360071 -0.707104
v 3.567317 18.099123 -1.600239
v 5.656498 19.591904 -2.933897
v 5.004896 19.852062 -2.865226
v 6.201718 19.491735 -2.498372
v 6.321174 19.610229 -1.813777
v 5.944890 19.877975 -1.281139
v 5.293289 20.138130 -1.212468
v 4.748069 20.238300 -1.647993
v 4.628613 20.119808 -2.332588
v -1.906337 13.034237 -0.395125
v -3.142967 13.395815 -0.454870
v -1.850920 12.631357 -0.589281
v -3.410412 12.868696 -0.792902
v -1.574616 12.464479 -0.903746
v -3.391105 12.650358 -1.437572
v -1.239282 12.631357 -1.154310
v -3.096358 12.868696 -2.011240
v -1.041350 13.034237 -1.194197
v -2.698828 13.395815 -2.177860
v -1.096767 13.437117 -1.000040
v -2.431383 13.922930 -1.839828
v -1.373070 13.603996 -0.685575
v -2.450690 14.141268 -1.195158
v -1.708406 13.437117 -0.435011
v -2.745438 13.922930 -0.621490
v -4.386772 14.688696 -1.490876
v -3.983980 14.901423 -1.137608
v -4.427703 14.606787 -2.060004
v -4.082798 14.703678 -2.511605
v -3.554096 14.922613 -2.581138
v -3.151305 15.135340 -2.227870
v -3.110374 15.217249 -1.658741
v -3.455280 15.120356 -1.207140
v -3.769039 14.912017 -1.859372
v -0.000000 23.527973 -0.000000
v 5.474892 19.865021 -2.073181
v -0.097307 8.195498 2.096225
v -0.463477 8.675896 3.837829
v -0.330792 7.729429 2.089572
v -0.906032 8.092613 4.015701
v -0.762252 7.536376 1.869675
v -1.584126 7.851010 3.793155
v -1.138944 7.729429 1.565346
v -2.100538 8.092613 3.300556
v -1.240206 8.195498 1.354858
v -2.152764 8.675896 2.826461
v -1.006721 8.661568 1.361511
v -1.710209 9.259175 2.648589
v -0.575262 8.854620 1.581408
v -1.032116 9.500773 2.871135
v -0.198570 8.661568 1.885736
v -0.515704 9.259175 3.363735
v -1.045113 10.476701 5.349195
v -0.686306 10.680217 4.983166
v -1.590931 10.398339 5.358120
v -2.004026 10.491038 5.004714
v -2.042415 10.700490 4.495996
v -1.683608 10.904006 4.129968
v -1.137791 10.982368 4.121043
v -0.724695 10.889673 4.474450
v -1.364360 10.690357 4.739580
v 1.146600 15.741396 1.561595
v 1.898540 16.140747 2.887715
v 1.149291 15.298446 1.610796
v 1.938400 15.552790 3.147782
v 0.841398 14.989753 1.703232
v 1.513451 15.126143 3.376487
v 0.403279 14.996145 1.784753
v 0.872623 15.110730 3.439857
v 0.091580 15.313879 1.807607
v 0.391303 15.515580 3.300772
v 0.088890 15.756828 1.758404
v 0.351443 16.103535 3.040704
v 0.396783 16.065521 1.665970
v 0.776394 16.530178 2.811999
v 0.834901 16.059130 1.584448
v 1.417221 16.545595 2.748630
v 2.030889 17.492479 4.450437
v 1.935962 17.739262 4.060090
v 1.772935 17.255531 4.766026
v 1.313206 17.167223 4.821990
v 0.921008 17.279270 4.585546
v 0.826081 17.526051 4.195200
v 1.084035 17.763000 3.879611
v 1.543762 17.851315 3.823647
v 1.428483 17.509268 4.322818
v -0.060982 9.702402 -1.239753
v -0.253441 10.203479 -3.361236
v 0.226195 9.136883 -1.285431
v 0.102832 9.533645 -3.783912
v 0.797231 8.908229 -1.124181
v 0.914584 9.263611 -3.933576
v 1.317621 9.150380 -0.850460
v 1.706302 9.551555 -3.722556
v 1.482528 9.721490 -0.624611
v 2.014209 10.228808 -3.274467
v 1.195352 10.287005 -0.578932
v 1.657936 10.898641 -2.851791
v 0.624316 10.515661 -0.740183
v 0.846184 11.168674 -2.702127
v 0.103926 10.273509 -1.013904
v 0.054466 10.880730 -2.913147
v -0.345890 12.109923 -4.939912
v -0.495701 12.326172 -4.416596
v 0.158848 12.031315 -5.226486
v 0.722842 12.136392 -5.108449
v 1.015715 12.363601 -4.654944
v 0.865903 12.579846 -4.131629
v 0.361166 12.658456 -3.845055
v -0.202830 12.553381 -3.963092
v 0.260007 12.344888 -4.535769
v 5.167269 20.308702 -1.958539
v 6.038972 20.974628 -1.325217
v 4.834315 20.974628 -0.933794
v 4.089777 20.974628 -1.958539
v 4.834315 20.974628 -2.983284
v 6.038972 20.974628 -2.591861
v 5.500223 22.052126 -0.933794
v 4.295566 22.052126 -1.325217
v 4.295566 22.052126 -2.591861
v 5.500223 22.052126 -2.983284
v 6.244761 22.052126 -1.958539
v 5.167269 22.718052 -1.958539
v 1.185531 17.731733 4.535338
v 1.757097 18.168375 4.950602
v 0.967216 18.168375 5.207253
v 0.479030 18.168375 4.535338
v 0.967216 18.168375 3.863423
v 1.757097 18.168375 4.120075
v 1.403846 18.874878 5.207253
v 0.613964 18.874878 4.950602
v 0.613964 18.874878 4.120075
v 1.403846 18.874878 3.863423
v 1.892031 18.874878 4.535338
v 1.185531 19.311520 4.535338
v -1.274995 11.080937 4.876514
v -0.558381 11.628386 5.397160
v -1.548712 11.628386 5.718942
v -2.160785 11.628386 4.876514
v -1.548712 11.628386 4.034086
v -0.558381 11.628386 4.355870
v -1.001278 12.514181 5.718942
v -1.991609 12.514181 5.397160
v -1.991609 12.514181 4.355870
v -1.001278 12.514181 4.034086
v -0.389205 12.514181 4.876514
v -1.274995 13.061628 4.876514
v -3.950469 15.153741 -2.080532
v -3.206589 15.722019 -1.540078
v -4.234601 15.722019 -1.206052
v -4.869962 15.722019 -2.080532
v -4.234601 15.722019 -2.955013
v -3.206589 15.722019 -2.620986
v -3.666338 16.641518 -1.206052
v -4.694350 16.641518 -1.540078
v -4.694350 16.641518 -2.620986
v -3.666338 16.641518 -2.955013
v -3.030977 16.641518 -2.080532
v -3.950469 17.209795 -2.080532
v 0.057092 12.791727 -4.771012
v 0.852369 13.399269 -4.193216
v -0.246671 13.399269 -3.836111
v -0.925931 13.399269 -4.771012
v -0.246671 13.399269 -5.705914
v 0.852369 13.399269 -5.348808
v 0.360855 14.382298 -3.836111
v -0.738185 14.382298 -4.193216
v -0.738185 14.382298 -5.348808
v 0.360855 14.382298 -5.705914
v 1.040116 14.382298 -4.771012
v 0.057092 14.989840 -4.771012
vn -0.0000 -0.0882 -0.9961
vn -0.0000 -0.0594 -0.9982
vn 0.7059 -0.0594 -0.7059
vn 0.7044 -0.0882 -0.7044
vn 0.9982 -0.0594 -0.0000
vn 0.9961 -0.0882 -0.0000
vn 0.7059 -0.0594 0.7059
vn 0.7044 -0.0882 0.7044
vn -0.0000 -0.0594 0.9982
vn -0.0000 -0.0882 0.9961
vn -0.7059 -0.0594 0.7059
vn -0.7044 -0.0882 0.7044
vn -0.9982 -0.0594 -0.0000
vn -0.9961 -0.0882 -0.0000
vn -0.7059 -0.0594 -0.7059
vn -0.9998 0.0183 -0.0000
vn -0.7070 0.0183 -0.7070
vn -0.7044 -0.0882 -0.7044
vn -0.0000 0.0183 -0.9998
vn -0.6998 0.1435 -0.6998
vn -0.0000 0.1435 -0.9896
vn 0.7070 0.0183 -0.7070
vn 0.9998 0.0183 -0.0000
vn -0.0000 0.0183 0.9998
vn -0.7070 0.0183 0.7070
vn 0.7070 0.0183 0.7070
vn 0.6998 0.1435 0.6998
vn 0.9896 0.1435 -0.0000
vn 0.9748 0.2232 -0.0000
vn 0.6893 0.2232 0.6893
vn -0.6998 0.1435 0.6998
vn -0.9896 0.1435 -0.0000
vn -0.0000 0.1435 0.9896
vn 0.6998 0.1435 -0.6998
vn -0.0000 0.2232 -0.9748
vn 0.6893 0.2232 -0.6893
vn -0.6893 0.2232 -0.6893
vn -0.6893 0.2232 0.6893
vn -0.9748 0.2232 -0.0000
vn -0.0000 0.2232 0.9748
vn 0.3420 0.9141 -0.2179
vn -0.0000 1.0000 -0.0000
vn -0.4223 -0.0813 -0.9028
vn -0.3792 -0.1403 -0.9146
vn 0.1355 -0.6299 -0.7648
vn -0.1439 -0.7720 -0.6191
vn 0.5547 -0.8095 -0.1924
vn 0.1438 -0.9884 0.0493
vn 0.6782 -0.5446 0.4934
vn 0.2630 -0.6701 0.6941
vn 0.4569 0.0256 0.8891
vn 0.1826 -0.0107 0.9831
vn 0.0012 0.5883 0.8086
vn -0.0382 0.6526 0.7568
vn -0.5231 0.8181 0.2390
vn -0.2963 0.9474 0.1212
vn -0.7054 0.4644 -0.5355
vn -0.7386 0.6038 0.2998
vn -0.8674 0.3238 -0.3780
vn -0.4731 0.6624 -0.5808
vn 0.2613 -0.3760 -0.8890
vn 0.8080 -0.4276 -0.4053
vn 0.6311 0.2196 0.7440
vn -0.0949 0.5949 0.7982
vn -0.4567 -0.0627 -0.8874
vn 0.9511 -0.2031 0.2328
vn -0.1114 -0.1411 0.9837
vn -0.3128 -0.0409 0.9489
vn -0.5772 -0.5910 0.5635
vn -0.1963 -0.7994 0.5678
vn -0.5176 -0.8439 -0.1414
vn -0.0386 -0.9867 -0.1577
vn -0.1424 -0.6437 -0.7519
vn 0.2571 -0.6559 -0.7097
vn 0.3521 -0.1389 -0.9256
vn 0.5020 -0.0419 -0.8638
vn 0.6990 0.4404 -0.5634
vn 0.5670 0.5979 -0.5666
vn 0.6012 0.7694 0.2157
vn 0.4008 0.9097 0.1085
vn 0.1368 0.5201 0.8431
vn 0.7994 0.5727 0.1815
vn 0.2814 0.5404 0.7929
vn 0.1203 0.6007 0.7904
vn -0.3921 0.9141 -0.1034
vn -0.8607 -0.2960 0.4143
vn -0.8165 -0.5115 -0.2679
vn 0.3013 -0.0892 -0.9493
vn 0.7930 0.3108 -0.5240
vn -0.4405 0.1502 0.8851
vn -0.3680 -0.4270 -0.8260
vn -0.1249 0.9141 0.3858
vn 0.9599 -0.1398 0.2432
vn 0.9178 -0.1800 0.3540
vn 0.4288 -0.6557 0.6214
vn 0.5542 -0.7736 0.3072
vn -0.2767 -0.8204 0.5004
vn -0.1171 -0.9875 0.1060
vn -0.8340 -0.5439 0.0933
vn -0.6920 -0.6805 -0.2411
vn -0.9393 0.0433 -0.3403
vn -0.8522 -0.0050 -0.5231
vn -0.5187 0.6092 -0.5998
vn -0.4990 0.6482 -0.5752
vn 0.2828 0.7810 -0.5568
vn 0.1820 0.9036 -0.3877
vn 0.9049 0.3992 -0.1477
vn 0.3781 0.6105 -0.6960
vn 0.9158 0.3031 -0.2635
vn 0.8141 0.5784 -0.0519
vn 0.3861 -0.4371 0.8123
vn -0.3456 -0.4871 0.8020
vn -0.9634 0.1997 -0.1786
vn -0.4420 0.5965 -0.6700
vn 0.9239 -0.1121 0.3659
vn -0.8777 -0.2465 0.4110
vn -0.0930 0.8312 0.5481
vn 0.8074 0.2558 -0.5317
vn 0.8747 0.2132 -0.4352
vn 0.9230 -0.3846 -0.0142
vn 0.8106 -0.4753 -0.3420
vn 0.4577 -0.8136 0.3586
vn 0.3241 -0.9442 -0.0587
vn -0.2664 -0.8069 0.5272
vn -0.3771 -0.9104 0.1700
vn -0.8339 -0.3460 0.4301
vn -0.8971 -0.3748 0.2339
vn -0.9473 0.3099 0.0814
vn -0.9300 0.3556 0.0930
vn -0.4820 0.7744 -0.4100
vn -0.4610 0.8652 -0.1975
vn 0.3171 0.6953 -0.6450
vn -0.4692 0.6401 -0.6083
vn 0.2712 0.6000 -0.7526
vn 0.2730 0.8351 -0.4776
vn 0.9642 -0.1814 0.1934
vn 0.5258 -0.5044 0.6849
vn -0.7823 -0.1959 0.5913
vn -0.9470 0.3205 -0.0227
vn 0.8651 0.2792 -0.4167
vn -0.1597 -0.5197 0.8393
vn -0.0859 0.9119 -0.4014
vn -0.9940 -0.0921 0.0584
vn -0.9884 -0.1511 0.0141
vn -0.6533 -0.6385 -0.4069
vn -0.6198 -0.7792 -0.0929
vn 0.0356 -0.8111 -0.5839
vn 0.1099 -0.9876 -0.1120
vn 0.7154 -0.5382 -0.4456
vn 0.7495 -0.6618 0.0149
vn 0.9948 0.0362 -0.0954
vn 0.9809 0.0008 0.1944
vn 0.7451 0.5975 0.2963
vn 0.6816 0.6612 0.3134
vn 0.0193 0.8202 0.5717
vn -0.0076 0.9484 0.3170
vn -0.7637 0.4575 0.4555
vn -0.0016 0.6065 0.7951
vn -0.6758 0.3185 0.6647
vn -0.7220 0.6553 0.2223
vn -0.7249 -0.3860 -0.5706
vn -0.0726 -0.4314 -0.8992
vn 0.9223 0.2287 -0.3115
vn 0.6997 0.6040 0.3816
vn -0.9927 -0.0734 0.0959
vn 0.5706 -0.1995 -0.7966
vn -0.0000 -1.0000 -0.0000
vn 0.7236 -0.4472 0.5257
vn -0.2764 -0.4472 0.8507
vn 0.7236 -0.4472 -0.5257
vn -0.8944 -0.4472 -0.0000
vn -0.2764 -0.4472 -0.8507
vn 0.8944 0.4472 -0.0000
vn 0.2764 0.4472 0.8507
vn -0.7236 0.4472 0.5257
vn -0.7236 0.4472 -0.5257
vn 0.2764 0.4472 -0.8507
vt 0.365619 0.906626
vt 0.376315 0.669389
vt 0.430525 0.683370
vt 0.408013 0.917560
vt 0.000000 0.946003
vt 0.006305 0.706091
vt 0.080725 0.711045
vt 0.058201 0.949877
vt 0.136511 0.713356
vt 0.101829 0.951684
vt 0.467987 0.903263
vt 0.451794 0.685744
vt 0.526316 0.685520
vt 0.526267 0.903088
vt 0.582470 0.666501
vt 0.570183 0.888214
vt 0.175508 0.946152
vt 0.165473 0.705586
vt 0.240097 0.705249
vt 0.233868 0.945889
vt 0.295412 0.705586
vt 0.241789 0.451116
vt 0.301636 0.451480
vt 0.277127 0.946152
vt 0.307215 0.906305
vt 0.301636 0.668978
vt 0.382435 0.422117
vt 0.301636 0.421672
vt 0.312396 0.170812
vt 0.379337 0.171180
vt 0.019290 0.452622
vt 0.099808 0.457981
vt 0.521715 0.450836
vt 0.582470 0.430258
vt 0.441086 0.437243
vt 0.160166 0.460482
vt 0.161049 0.451480
vt 0.441086 0.451079
vt 0.161049 0.195597
vt 0.111044 0.193525
vt 0.109214 0.004403
vt 0.134673 0.005458
vt 0.167730 0.187381
vt 0.234621 0.187079
vt 0.441638 0.198232
vt 0.508437 0.198031
vt 0.044335 0.189085
vt 0.284204 0.187381
vt 0.558772 0.180983
vt 0.427929 0.183712
vt 0.000000 0.184877
vt 0.052677 0.000000
vt 0.075250 0.002143
vt 0.332284 -0.000000
vt 0.366366 0.000187
vt 0.185314 0.000154
vt 0.219371 -0.000000
vt 0.455336 0.008782
vt 0.489346 0.008680
vt 0.244616 0.000154
vt 0.514973 0.000000
vt 0.507241 0.924475
vt 0.526104 0.904003
vt 0.539443 0.937689
vt 0.507241 0.952688
vt 0.621248 0.872741
vt 0.582470 0.857374
vt 0.605186 0.832500
vt 0.637311 0.831199
vt 0.660027 0.888108
vt 0.660027 0.854232
vt 0.605186 0.914283
vt 0.582470 0.891249
vt 0.608334 0.464693
vt 0.650461 0.367796
vt 0.691357 0.373402
vt 0.633534 0.481229
vt 0.602155 0.815493
vt 0.582470 0.694844
vt 0.612667 0.688022
vt 0.624974 0.823573
vt 0.654518 0.691079
vt 0.654518 0.831199
vt 0.658965 0.252251
vt 0.582470 0.134525
vt 0.614542 0.135250
vt 0.683021 0.246221
vt 0.655988 0.129394
vt 0.708649 0.229498
vt 0.886666 0.796146
vt 0.886666 0.905949
vt 0.858436 0.886164
vt 0.863899 0.794352
vt 0.922562 0.080526
vt 0.881524 0.080223
vt 0.881524 0.004334
vt 0.909090 -0.000000
vt 0.816525 0.884438
vt 0.833618 0.799520
vt 0.582470 0.458236
vt 0.615678 0.367866
vt 0.637311 0.912981
vt 0.775393 0.819556
vt 0.744446 0.792573
vt 0.768725 0.669452
vt 0.789132 0.682283
vt 0.664280 0.013497
vt 0.689581 0.026093
vt 0.582470 0.278007
vt 0.601048 0.264983
vt 0.626039 0.252251
vt 0.816525 0.821139
vt 0.816525 0.687892
vt 0.682530 0.120386
vt 0.708649 0.030410
vt 0.647567 0.000000
vt 0.927066 0.880584
vt 0.946660 0.917636
vt 0.936112 0.939901
vt 0.917138 0.887887
vt 0.911262 0.951224
vt 0.900404 0.885288
vt 0.886666 0.944971
vt 0.886666 0.874310
vt 0.826227 0.394475
vt 0.795780 0.339952
vt 0.822070 0.334300
vt 0.841916 0.387316
vt 0.881179 0.365202
vt 0.841916 0.318232
vt 0.867366 0.310455
vt 0.895976 0.355694
vt 0.815261 0.821139
vt 0.815261 0.880736
vt 0.790097 0.870100
vt 0.797749 0.825390
vt 0.861378 0.186116
vt 0.837925 0.184086
vt 0.826619 0.132057
vt 0.846834 0.128511
vt 0.826619 0.229857
vt 0.844404 0.227851
vt 0.886961 0.193454
vt 0.859285 0.235703
vt 0.946660 0.953150
vt 0.961268 0.938036
vt 0.971597 0.966431
vt 0.946660 0.976044
vt 0.814663 0.235676
vt 0.789094 0.238032
vt 0.793305 0.154767
vt 0.814663 0.148310
vt 0.855855 0.252251
vt 0.875902 0.256258
vt 0.868124 0.122537
vt 0.765216 0.226037
vt 0.772701 0.155251
vt 0.772645 0.338381
vt 0.801519 0.252251
vt 0.821038 0.258711
vt 0.892334 0.317008
vt 0.895976 0.266168
vt 0.841916 0.265795
vt 0.981926 0.939556
vt 0.996534 0.956819
vt 0.981926 0.994826
vt 0.961268 0.993306
vt 0.996534 0.979712
vt 0.552781 0.903263
vt 0.571644 0.922690
vt 0.552781 0.971376
vt 0.526104 0.972115
vt 0.571644 0.950903
vt 0.761117 0.030756
vt 0.742851 0.040291
vt 0.736933 0.020145
vt 0.765216 0.015006
vt 0.691357 0.403763
vt 0.705019 0.331119
vt 0.729963 0.330740
vt 0.706227 0.409232
vt 0.757975 0.341806
vt 0.724290 0.419734
vt 0.772645 0.357835
vt 0.734964 0.429118
vt 0.729994 0.931693
vt 0.670138 0.920964
vt 0.679362 0.894705
vt 0.732562 0.911349
vt 0.701971 0.875439
vt 0.743925 0.895856
vt 0.730200 0.176295
vt 0.710023 0.116113
vt 0.738476 0.108211
vt 0.748781 0.167803
vt 0.830637 0.562990
vt 0.804258 0.570363
vt 0.804727 0.494761
vt 0.822173 0.486586
vt 0.761449 0.096174
vt 0.765216 0.161304
vt 0.804258 0.614079
vt 0.859578 0.570297
vt 0.822991 0.623392
vt 0.708848 0.252251
vt 0.730540 0.252599
vt 0.670138 0.830449
vt 0.690226 0.823524
vt 0.842946 0.481229
vt 0.691357 0.264160
vt 0.853726 0.122537
vt 0.826619 0.118279
vt 0.826619 0.000000
vt 0.844960 0.006133
vt 0.721118 0.038024
vt 0.881524 0.111587
vt 0.866234 0.008754
vt 0.708649 0.025284
vt 0.731015 0.000000
vt 0.752747 0.002267
vt 0.712748 0.009534
vt 0.726966 0.440042
vt 0.726966 0.458392
vt 0.709162 0.452721
vt 0.716537 0.429118
vt 0.777570 0.139040
vt 0.801604 0.081654
vt 0.826619 0.087691
vt 0.792839 0.148310
vt 0.758619 0.627699
vt 0.758619 0.559958
vt 0.780749 0.565409
vt 0.773260 0.634109
vt 0.804258 0.573248
vt 0.789935 0.637916
vt 0.707138 0.823524
vt 0.670138 0.765215
vt 0.690356 0.764997
vt 0.719519 0.818613
vt 0.715500 0.759411
vt 0.734972 0.809630
vt 0.730842 0.751730
vt 0.744446 0.801836
vt 0.870040 0.423306
vt 0.844599 0.427452
vt 0.841916 0.368834
vt 0.859933 0.365202
vt 0.841916 0.479286
vt 0.859719 0.478075
vt 0.765216 0.133681
vt 0.781298 0.080760
vt 0.766167 0.484219
vt 0.782796 0.481229
vt 0.714461 0.678207
vt 0.731917 0.685290
vt 0.765216 0.015084
vt 0.777616 0.006770
vt 0.795197 -0.000000
vt 0.800416 0.487712
vt 0.744446 0.686552
vt 0.702301 0.669452
vt 0.716536 0.473421
vt 0.701786 0.476323
vt 0.691357 0.447050
vt 0.701787 0.432021
vt 0.691357 0.465400
vt 0.686647 0.931693
vt 0.709994 0.931766
vt 0.698321 0.960102
vt 0.670138 0.948262
vt 0.694779 0.653610
vt 0.730443 0.576320
vt 0.758619 0.584361
vt 0.711358 0.669452
vt 0.902492 0.486277
vt 0.918498 0.576968
vt 0.894307 0.593270
vt 0.884188 0.487903
vt 0.859578 0.591518
vt 0.859578 0.481229
vt 0.627044 0.688022
vt 0.582470 0.593145
vt 0.616610 0.595941
vt 0.652026 0.684492
vt 0.645728 0.590415
vt 0.670138 0.670173
vt 0.937092 0.122537
vt 0.951369 0.199966
vt 0.919012 0.189239
vt 0.913839 0.124451
vt 0.833306 0.473372
vt 0.805948 0.467796
vt 0.813274 0.394475
vt 0.833306 0.395152
vt 0.886961 0.199966
vt 0.892542 0.137318
vt 0.670138 0.647887
vt 0.696076 0.576088
vt 0.849083 0.794352
vt 0.816525 0.782234
vt 0.816525 0.669452
vt 0.839544 0.671653
vt 0.652808 0.493919
vt 0.670138 0.503929
vt 0.670138 0.500647
vt 0.690329 0.489693
vt 0.708245 0.481229
vt 0.875813 0.788246
vt 0.859033 0.670871
vt 0.772645 0.478107
vt 0.790404 0.394813
vt 0.633757 0.481229
vt 0.726502 0.948438
vt 0.726502 0.971942
vt 0.686647 0.988439
vt 0.670138 0.971767
vt 0.709994 0.988511
vt 0.889174 0.841348
vt 0.931582 0.813845
vt 0.931582 0.863261
vt 0.886666 0.794352
vt 0.886666 0.874310
vt 0.923890 0.750447
vt 0.875813 0.735896
vt 0.913490 0.714871
vt 0.953602 0.709383
vt 0.965959 0.069851
vt 0.922762 0.048847
vt 0.965959 0.022030
vt 0.948040 0.406122
vt 0.918247 0.447327
vt 0.902798 0.404723
vt 0.931287 0.642083
vt 0.930935 0.593270
vt 0.974441 0.615192
vt 0.875813 0.685838
vt 0.923889 0.669452
vt 0.870040 0.431874
vt 0.918247 0.365202
vt 0.974441 0.663052
vt 0.922562 -0.000000
vt 0.870040 0.381118
vt 0.744446 0.834650
vt 0.790097 0.821139
vt 0.786299 0.858084
vt 0.744446 0.885068
vt 0.790097 0.902719
vt 0.924207 0.100665
vt 0.952013 0.082632
vt 0.952013 0.115034
vt 0.922562 0.069851
vt 0.922562 0.122278
vt 0.212193 0.988596
vt 0.212193 0.955660
vt 0.232544 0.975311
vt 0.243608 0.999443
vt 0.755421 0.474919
vt 0.727097 0.461147
vt 0.755421 0.443564
vt 0.212193 0.972982
vt 0.192658 1.000000
vt 0.182528 0.972065
vt 0.804489 0.655398
vt 0.804258 0.623391
vt 0.832784 0.637765
vt 0.243608 0.946152
vt 0.263024 0.973211
vt 0.161049 0.989868
vt 0.192658 0.946152
vt 0.832784 0.669146
vt 0.726966 0.429118
vt 0.161049 0.956588
vt 0.953603 0.735677
vt 0.983536 0.726818
vt 0.981046 0.751042
vt 0.953602 0.768736
vt 0.983536 0.780309
vt 0.367647 0.956195
vt 0.402510 0.933585
vt 0.402510 0.974209
vt 0.365585 0.917560
vt 0.365585 0.983292
vt 0.341159 0.984145
vt 0.301636 0.972183
vt 0.332609 0.954898
vt 0.365585 0.950387
vt 0.987045 0.239510
vt 0.951533 0.222243
vt 0.987045 0.200197
vt 0.880648 0.939589
vt 0.856155 0.973463
vt 0.843455 0.938439
vt 0.953892 0.709580
vt 0.953602 0.669452
vt 0.989368 0.687473
vt 0.301636 0.931031
vt 0.341158 0.917560
vt 0.816525 0.960759
vt 0.856155 0.905949
vt 0.989368 0.726818
vt 0.951369 0.182086
vt 0.816525 0.919033
vt 0.620800 0.925390
vt 0.658329 0.914283
vt 0.655207 0.944655
vt 0.620800 0.966838
vt 0.658329 0.981348
vt 0.584610 0.954387
vt 0.620800 0.930917
vt 0.620800 0.973087
vt 0.582470 0.914283
vt 0.582470 0.982515
vt 0.441086 0.958503
vt 0.441086 0.915638
vt 0.467573 0.941214
vt 0.481972 0.972620
vt 0.439544 0.977168
vt 0.402680 0.959245
vt 0.439544 0.936360
vt 0.811008 0.937638
vt 0.785584 0.972801
vt 0.772400 0.936444
vt 0.951669 0.164193
vt 0.951369 0.122537
vt 0.988495 0.141244
vt 0.481972 0.903263
vt 0.507241 0.938480
vt 0.744446 0.959614
vt 0.785583 0.902719
vt 0.988495 0.182086
vt 0.402510 0.917560
vt 0.744446 0.916301
vt 0.931583 0.805882
vt 0.970540 0.794352
vt 0.967299 0.825880
vt 0.931582 0.848907
vt 0.970540 0.863969
vt 0.920786 0.524104
vt 0.959476 0.499012
vt 0.959476 0.544096
vt 0.918498 0.481229
vt 0.918498 0.554176
vt 0.895976 0.311308
vt 0.895976 0.265481
vt 0.924293 0.292823
vt 0.939687 0.326400
vt 0.986252 0.938036
vt 0.946842 0.918875
vt 0.986252 0.894409
vt 0.930935 0.653598
vt 0.886834 0.667989
vt 0.898318 0.628271
vt 0.948361 0.409736
vt 0.948040 0.365202
vt 0.987732 0.385202
vt 0.939687 0.252251
vt 0.966702 0.289901
vt 0.859578 0.630705
vt 0.930935 0.607419
vt 0.987732 0.428865
vt 0.946660 0.874310
vt 0.886834 0.593270
vt 0.708650 0.188622
vt 0.750298 0.176295
vt 0.746833 0.210001
vt 0.708649 0.234620
vt 0.750298 0.250722
s 1
usemtl Material.003
f 167/318/167 168/319/168 169/320/169
f 168/319/168 167/318/167 172/321/170
f 167/318/167 169/320/169 170/322/171
f 167/323/167 170/324/171 171/325/172
f 167/323/167 171/325/172 172/326/170
f 168/327/168 172/328/170 177/329/173
f 169/330/169 168/331/168 173/332/174
f 170/333/171 169/334/169 174/335/175
f 171/325/172 170/324/171 175/336/176
f 172/326/170 171/325/172 176/337/177
f 168/331/168 177/338/173 173/332/174
f 169/330/169 173/332/174 174/339/175
f 170/333/171 174/335/175 175/340/176
f 171/325/172 175/336/176 176/337/177
f 172/328/170 176/341/177 177/329/173
f 173/332/174 177/338/173 178/342/42
f 174/339/175 173/332/174 178/342/42
f 175/343/176 174/344/175 178/345/42
f 176/346/177 175/343/176 178/345/42
f 177/347/173 176/346/177 178/345/42
f 179/348/167 180/349/168 181/350/169
f 180/349/168 179/348/167 184/351/170
f 179/348/167 181/350/169 182/352/171
f 179/353/167 182/354/171 183/355/172
f 179/353/167 183/355/172 184/356/170
f 180/357/168 184/358/170 189/359/173
f 181/360/169 180/361/168 185/362/174
f 182/363/171 181/364/169 186/365/175
f 183/355/172 182/354/171 187/366/176
f 184/356/170 183/355/172 188/367/177
f 180/361/168 189/368/173 185/362/174
f 181/360/169 185/362/174 186/369/175
f 182/363/171 186/365/175 187/370/176
f 183/355/172 187/366/176 188/367/177
f 184/358/170 188/371/177 189/359/173
f 185/362/174 189/368/173 190/372/42
f 186/369/175 185/362/174 190/372/42
f 187/373/176 186/374/175 190/375/42
f 188/376/177 187/373/176 190/375/42
f 189/377/173 188/376/177 190/375/42
f 191/378/167 192/379/168 193/380/169
f 192/379/168 191/378/167 196/381/170
f 191/378/167 193/380/169 194/382/171
f 191/383/167 194/384/171 195/385/172
f 191/383/167 195/385/172 196/386/170
f 192/387/168 196/388/170 201/389/173
f 193/390/169 192/391/168 197/392/174
f 194/393/171 193/394/169 198/395/175
f 195/385/172 194/384/171 199/396/176
f 196/386/170 195/385/172 200/397/177
f 192/391/168 201/398/173 197/392/174
f 193/390/169 197/392/174 198/399/175
f 194/393/171 198/395/175 199/400/176
f 195/385/172 199/396/176 200/397/177
f 196/388/170 200/401/177 201/389/173
f 197/392/174 201/398/173 202/402/42
f 198/399/175 197/392/174 202/402/42
f 199/403/176 198/404/175 202/405/42
f 200/406/177 199/403/176 202/405/42
f 201/407/173 200/406/177 202/405/42
f 203/408/167 204/409/168 205/410/169
f 204/409/168 203/408/167 208/411/170
f 203/408/167 205/410/169 206/412/171
f 203/413/167 206/414/171 207/415/172
f 203/413/167 207/415/172 208/416/170
f 204/417/168 208/418/170 213/419/173
f 205/420/169 204/421/168 209/422/174
f 206/423/171 205/424/169 210/425/175
f 207/415/172 206/414/171 211/426/176
f 208/416/170 207/415/172 212/427/177
f 204/421/168 213/428/173 209/422/174
f 205/420/169 209/422/174 210/429/175
f 206/423/171 210/425/175 211/430/176
f 207/415/172 211/426/176 212/427/177
f 208/418/170 212/431/177 213/419/173
f 209/422/174 213/428/173 214/432/42
f 210/429/175 209/422/174 214/432/42
f 211/433/176 210/434/175 214/435/42
f 212/436/177 211/433/176 214/435/42
f 213/437/173 212/436/177 214/435/42
f 215/438/167 216/439/168 217/440/169
f 216/439/168 215/438/167 220/441/170
f 215/438/167 217/440/169 218/442/171
f 215/443/167 218/444/171 219/445/172
f 215/443/167 219/445/172 220/446/170
f 216/447/168 220/448/170 225/449/173
f 217/450/169 216/451/168 221/452/174
f 218/453/171 217/454/169 222/455/175
f 219/445/172 218/444/171 223/456/176
f 220/446/170 219/445/172 224/457/177
f 216/451/168 225/458/173 221/452/174
f 217/450/169 221/452/174 222/459/175
f 218/453/171 222/455/175 223/460/176
f 219/445/172 223/456/176 224/457/177
f 220/448/170 224/461/177 225/449/173
f 221/452/174 225/458/173 226/462/42
f 222/459/175 221/452/174 226/462/42
f 223/463/176 222/464/175 226/465/42
f 224/466/177 223/463/176 226/465/42
f 225/467/173 224/466/177 226/465/42
usemtl Material.004
f 1/1/1 2/2/2 4/3/3 3/4/4
f 3/5/4 4/6/3 6/7/5 5/8/6
f 5/8/6 6/7/5 8/9/7 7/10/8
f 7/11/8 8/12/7 10/13/9 9/14/10
f 9/14/10 10/13/9 12/15/11 11/16/12
f 11/17/12 12/18/11 14/19/13 13/20/14
f 16/21/15 14/19/13 23/22/16 24/23/17
f 13/20/14 14/19/13 16/21/15 15/24/18
f 15/25/18 16/26/15 2/2/2 1/1/1
f 17/27/19 24/28/17 32/29/20 25/30/21
f 6/7/5 4/6/3 18/31/22 19/32/23
f 12/15/11 10/13/9 21/33/24 22/34/25
f 2/2/2 16/26/15 24/28/17 17/27/19
f 4/3/3 2/2/2 17/27/19 18/35/22
f 8/9/7 6/7/5 19/32/23 20/36/26
f 14/19/13 12/18/11 22/37/25 23/22/16
f 10/13/9 8/12/7 20/38/26 21/33/24
f 28/39/27 27/40/28 35/41/29 36/42/30
f 23/22/16 22/37/25 30/43/31 31/44/32
f 21/33/24 20/38/26 28/45/27 29/46/33
f 19/32/23 18/31/22 26/47/34 27/40/28
f 24/23/17 23/22/16 31/44/32 32/48/20
f 22/34/25 21/33/24 29/46/33 30/49/31
f 20/36/26 19/32/23 27/40/28 28/39/27
f 18/35/22 17/27/19 25/30/21 26/50/34
f 26/47/34 25/51/21 33/52/35 34/53/36
f 25/30/21 32/29/20 40/54/37 33/55/35
f 31/44/32 30/43/31 38/56/38 39/57/39
f 29/46/33 28/45/27 36/58/30 37/59/40
f 27/40/28 26/47/34 34/53/36 35/41/29
f 32/48/20 31/44/32 39/57/39 40/60/37
f 30/49/31 29/46/33 37/59/40 38/61/38
f 64/62/41 63/63/41 91/64/41 58/65/41
f 90/66/42 37/67/42 36/68/42 35/69/42
f 33/70/42 90/66/42 35/69/42 34/71/42
f 39/72/42 38/73/42 37/67/42 90/66/42
f 41/74/43 42/75/44 44/76/45 43/77/46
f 43/78/46 44/79/45 46/80/47 45/81/48
f 45/81/48 46/80/47 48/82/49 47/83/50
f 47/84/50 48/85/49 50/86/51 49/87/52
f 49/87/52 50/86/51 52/88/53 51/89/54
f 51/90/54 52/91/53 54/92/55 53/93/56
f 56/94/57 54/95/55 63/96/58 64/97/59
f 53/93/56 54/92/55 56/98/57 55/99/60
f 55/100/60 56/101/57 42/75/44 41/74/43
f 40/102/42 39/72/42 90/66/42 33/70/42
f 46/103/47 44/104/45 57/105/61 59/106/62
f 52/88/53 50/86/51 61/107/63 62/108/64
f 42/75/44 56/101/57 64/109/59 58/110/65
f 44/76/45 42/75/44 58/110/65 57/111/61
f 48/112/49 46/103/47 59/106/62 60/113/66
f 54/114/55 52/88/53 62/108/64 63/115/58
f 50/86/51 48/85/49 60/116/66 61/107/63
f 65/117/67 66/118/68 68/119/69 67/120/70
f 67/120/70 68/119/69 70/121/71 69/122/72
f 69/122/72 70/121/71 72/123/73 71/124/74
f 71/125/74 72/126/73 74/127/75 73/128/76
f 73/129/76 74/130/75 76/131/77 75/132/78
f 75/133/78 76/134/77 78/135/79 77/136/80
f 80/137/81 78/138/79 87/139/82 88/140/83
f 77/141/80 78/138/79 80/137/81 79/142/84
f 79/142/84 80/137/81 66/143/68 65/144/67
f 82/145/85 88/146/85 89/147/85 81/148/85
f 70/149/71 68/150/69 81/151/86 83/152/87
f 76/131/77 74/130/75 85/153/88 86/154/89
f 66/143/68 80/137/81 88/140/83 82/155/90
f 68/150/69 66/156/68 82/157/90 81/151/86
f 72/126/73 70/158/71 83/159/87 84/160/91
f 78/161/79 76/131/77 86/154/89 87/162/82
f 74/127/75 72/126/73 84/160/91 85/163/88
f 88/146/85 87/164/85 86/165/85 89/147/85
f 81/148/85 89/147/85 84/166/85 83/167/85
f 89/147/85 86/165/85 85/168/85 84/166/85
f 63/63/41 62/169/41 61/170/41 91/64/41
f 58/65/41 91/64/41 59/171/41 57/172/41
f 91/64/41 61/170/41 60/173/41 59/171/41
f 115/174/92 114/175/92 116/176/92 109/177/92
f 92/178/93 93/179/94 95/180/95 94/181/96
f 94/181/96 95/180/95 97/182/97 96/183/98
f 96/183/98 97/182/97 99/184/99 98/185/100
f 98/186/100 99/187/99 101/188/101 100/189/102
f 100/189/102 101/188/101 103/190/103 102/191/104
f 102/192/104 103/193/103 105/194/105 104/195/106
f 107/196/107 105/197/105 114/198/108 115/199/109
f 104/195/106 105/194/105 107/200/107 106/201/110
f 106/202/110 107/196/107 93/203/94 92/204/93
f 97/182/97 95/180/95 108/205/111 110/206/112
f 103/190/103 101/188/101 112/207/113 113/208/114
f 93/203/94 107/196/107 115/199/109 109/209/115
f 95/180/95 93/179/94 109/210/115 108/205/111
f 99/211/99 97/212/97 110/213/112 111/214/116
f 105/194/105 103/193/103 113/215/114 114/175/108
f 101/216/101 99/211/99 111/214/116 112/217/113
f 114/175/92 113/215/92 112/218/92 116/176/92
f 109/177/92 116/176/92 110/219/92 108/220/92
f 116/176/92 112/218/92 111/221/92 110/219/92
f 140/222/117 139/223/117 141/224/117 134/225/117
f 117/226/118 118/227/119 120/228/120 119/229/121
f 119/230/121 120/231/120 122/232/122 121/233/123
f 121/233/123 122/232/122 124/234/124 123/235/125
f 123/236/125 124/237/124 126/238/126 125/239/127
f 125/239/127 126/238/126 128/240/128 127/241/129
f 127/241/129 128/240/128 130/242/130 129/243/131
f 132/244/132 130/245/130 139/246/133 140/247/134
f 129/248/131 130/245/130 132/244/132 131/249/135
f 131/250/135 132/251/132 118/227/119 117/226/118
f 122/232/122 120/231/120 133/252/136 135/253/137
f 128/240/128 126/238/126 137/254/138 138/255/139
f 118/227/119 132/251/132 140/256/134 134/257/140
f 120/228/120 118/227/119 134/257/140 133/258/136
f 124/234/124 122/232/122 135/253/137 136/259/141
f 130/242/130 128/240/128 138/255/139 139/260/133
f 126/238/126 124/237/124 136/261/141 137/254/138
f 139/223/117 138/262/117 137/263/117 141/224/117
f 134/225/117 141/224/117 135/264/117 133/265/117
f 141/224/117 137/263/117 136/266/117 135/264/117
f 165/267/142 164/268/142 166/269/142 159/270/142
f 142/271/143 143/272/144 145/273/145 144/274/146
f 144/275/146 145/276/145 147/277/147 146/278/148
f 146/278/148 147/277/147 149/279/149 148/280/150
f 148/281/150 149/282/149 151/283/151 150/284/152
f 150/284/152 151/283/151 153/285/153 152/286/154
f 152/287/154 153/288/153 155/289/155 154/290/156
f 157/291/157 155/292/155 164/293/158 165/294/159
f 154/290/156 155/289/155 157/295/157 156/296/160
f 156/297/160 157/298/157 143/272/144 142/271/143
f 147/299/147 145/300/145 158/301/161 160/302/162
f 153/285/153 151/283/151 162/303/163 163/304/164
f 143/272/144 157/298/157 165/305/159 159/306/165
f 145/273/145 143/272/144 159/306/165 158/307/161
f 149/308/149 147/299/147 160/302/162 161/309/166
f 155/292/155 153/310/153 163/311/164 164/293/158
f 151/283/151 149/282/149 161/312/166 162/303/163
f 164/268/142 163/313/142 162/314/142 166/269/142
f 159/270/142 166/269/142 160/315/142 158/316/142
f 166/269/142 162/314/142 161/317/142 160/315/142
