# Blender 3.6.15
# www.blender.org
o trunk
v -0.031757 -0.486880 0.279523
v 1.368152 -0.486880 0.279523
v 1.364654 -0.486880 1.730767
v -0.035254 -0.486880 1.730767
v -0.658624 14.897276 -0.727297
v 0.667208 13.594339 -1.351275
v 0.670852 13.444204 0.088806
v -0.600062 15.085553 0.715705
v 5.218738 24.535278 2.845737
v 6.821686 23.886139 2.972996
v 6.360315 23.064148 4.436311
v 4.757367 23.713219 4.309052
v -1.876542 3.805362 0.298391
v -3.325299 3.879114 0.306682
v -3.319275 3.839354 1.757462
v -1.870518 3.764192 1.749171
v -1.495927 -0.839628 -0.456176
v -2.942655 -0.839628 -0.466702
v -2.934669 -0.839628 0.965880
v -1.487941 -0.839628 0.976406
v 2.828607 1.734202 -2.315696
v 1.384692 1.611174 -2.236577
v 1.501913 1.107498 -0.880533
v 2.945827 1.230526 -0.959652
v 2.702649 -0.839628 -2.805927
v 1.257794 -0.839628 -2.679317
v 1.373658 -0.839628 -1.254720
v 2.818512 -0.839628 -1.381330
v 0.827306 -1.107533 2.515603
v -0.621809 -1.027839 2.515603
v -0.603569 -0.696161 3.928381
v 0.845546 -0.775855 3.928381
v -0.940123 2.925923 -3.440035
v -2.384608 3.061064 -3.478591
v -2.434416 2.941072 -2.033113
v -0.989931 2.805931 -1.994557
v 0.345618 -0.839628 -3.853768
v -1.000145 -0.839628 -3.966417
v -1.036199 -0.839628 -2.531263
v 0.309564 -0.839628 -2.418614
v -3.442580 22.535923 -5.002224
v -2.254039 23.772427 -4.816193
v -3.000388 24.214787 -3.317817
v -4.188929 22.977196 -3.503848
v -7.417718 31.980244 -9.010575
v 7.069821 30.186749 8.356512
v 4.766862 23.597366 -7.356292
v 6.194686 22.679478 -7.818160
v 7.037957 23.339497 -6.433531
v 5.610132 24.258709 -5.971663
v 8.889448 30.294773 -9.252589
v -5.072749 22.537991 1.020671
v -3.852757 23.744022 0.813362
v -3.206173 23.435539 2.386503
v -4.426166 22.230879 2.593812
v -5.870237 30.312885 6.558777
v 1.843159 3.036912 1.085863
v -1.595636 12.218335 -0.498685
v -0.246444 11.720961 -0.498685
v -0.198474 11.875284 0.946769
v -1.547666 12.371634 0.946769
v 0.047599 16.004223 -0.873809
v 0.931080 15.174654 -1.003656
v 1.295840 15.379933 0.604631
v 1.253652 19.846989 -0.925733
v 2.954703 19.513992 -0.925733
v 2.938864 19.490305 0.814908
v 1.237813 19.821133 0.814908
v 2.450239 18.114498 0.619757
v 2.416236 22.764858 0.654372
v 3.964027 22.039070 0.654371
v 3.336475 20.966515 1.734269
v 1.857414 21.969954 1.503030
v -0.519072 9.365831 -0.042428
v -2.021280 9.452850 1.275375
v -1.152496 7.670453 -0.109493
v -2.575566 7.910758 -0.109493
v -2.544700 8.083967 1.333269
v -1.402266 6.274053 0.029187
v -2.825336 6.527207 0.029187
v -2.794471 6.694850 1.471948
v -1.371401 6.443124 1.471948
v 0.799807 5.105071 -0.912375
v 2.251105 5.120446 -0.912375
v 2.539974 6.480040 0.231065
v 0.796811 6.168331 0.179312
v 2.377502 4.123242 -0.904648
v -0.585939 11.154701 -0.954544
v -1.431923 9.760940 -0.954544
v 0.166345 10.606931 0.163083
v 0.130330 10.581020 -1.684803
v -0.715655 9.198805 -1.684803
v 0.257675 8.750394 -0.376844
v 0.600435 10.277212 -0.853139
v 0.797560 9.963280 -2.517156
v 0.000614 8.619165 -2.415062
v 0.967732 5.010828 0.900005
v 0.281079 7.113542 0.455247
v 1.488799 7.055495 0.174604
v -0.403276 5.172987 0.754717
v 1.050716 2.963395 1.558992
v -0.398399 3.039724 1.558992
v -0.380158 3.375133 2.971771
v 1.068957 3.299739 2.971771
v 2.199139 10.018663 -2.619249
v 0.717702 11.113365 -2.027323
v 2.168319 11.196833 -2.027323
v 2.042687 10.208153 -0.853139
v 0.271851 7.682624 -3.341946
v 0.857640 5.724203 -3.371959
v -0.368806 6.546631 -3.371959
v -0.388236 6.558115 -1.921109
v 0.838210 5.729374 -1.921109
v 0.197553 4.623770 -1.951123
v -1.669550 4.346876 -1.981136
v -0.443104 3.554888 -1.981136
v 2.089193 15.266847 -1.171782
v 2.092837 15.122127 0.268299
v 2.118216 13.671288 -1.351275
v 2.121860 13.522270 0.088806
v 0.141745 7.903750 1.512627
v 1.575630 7.682656 1.512627
v 1.691561 8.529757 -0.376844
v 0.344507 9.397011 0.961179
v 1.778392 9.176752 0.961179
v 0.547268 10.894826 0.409731
v 1.981153 10.675383 0.409731
v -1.025025 7.574424 0.342152
v -1.395869 8.176681 1.678558
v -0.926643 6.553358 0.602482
v -1.044108 6.949271 2.000955
v -0.692347 5.734671 2.323351
v 1.028035 20.911306 -1.374450
v 2.016953 22.055393 -1.551467
v 1.405042 22.522938 -0.069421
v 0.557673 21.147387 -0.069421
v 3.265687 20.661541 -1.728483
v 4.268711 21.476070 -0.609577
v 3.118565 22.662964 -0.609577
v 1.121735 20.861679 1.271789
v 0.446748 3.440870 -0.365381
v 1.846656 3.049234 -0.365381
v 0.443251 3.428693 1.085863
v 0.119464 16.221607 0.566352
v -2.325796 9.318565 -0.248172
v 0.613302 7.110033 -2.263808
v 2.524655 3.350943 0.337186
v 1.170214 3.057073 0.110097
v 0.954324 3.816790 -0.904648
v 1.910377 9.338387 -1.333674
v 0.773238 8.300339 -1.261803
v 2.200125 8.067513 -1.262612
v 1.754701 6.874435 -2.077452
v 0.252421 7.708261 -1.891096
v 1.498297 6.842943 -3.341946
vn 0.8524 -0.0094 -0.5227
vn 0.4798 -0.6951 0.5353
vn 0.3246 -0.6598 0.6777
vn 0.9407 0.2074 -0.2685
vn -0.5398 -0.3481 -0.7665
vn -0.4121 -0.9110 -0.0128
vn -0.7751 0.0157 -0.6317
vn -0.2662 0.8031 -0.5330
vn -0.2130 0.9760 -0.0445
vn 0.1408 -0.1482 0.9789
vn 0.6423 -0.1782 0.7454
vn 0.6171 -0.4365 0.6547
vn -0.6902 -0.2306 0.6859
vn -0.6380 0.2219 0.7374
vn 0.7534 -0.1779 0.6330
vn 0.6662 0.0045 -0.7457
vn 0.6914 -0.4486 -0.5663
vn -0.1419 0.0983 -0.9850
vn -0.6437 0.3156 -0.6972
vn -0.6693 -0.2412 -0.7028
vn 0.7390 0.3158 -0.5951
vn 0.0874 0.5010 -0.8610
vn -0.7971 0.2267 -0.5597
vn -0.6066 0.3823 -0.6971
vn -0.3029 0.3473 -0.8875
vn -0.4570 0.7560 -0.4687
vn 0.9245 0.3784 -0.0462
vn 0.6580 0.0318 0.7524
vn 0.1351 0.3289 0.9347
vn -0.7377 0.3099 -0.5998
vn -0.6070 0.3104 0.7316
vn 0.1569 -0.1704 0.9728
vn -0.2752 0.0229 -0.9611
vn -0.0385 0.9990 -0.0206
vn -0.2829 0.3984 0.8725
vn 0.7561 -0.0369 0.6535
vn -0.6008 0.2781 0.7494
vn 0.5142 -0.4651 -0.7206
vn 0.9829 -0.0643 0.1726
vn -0.7650 -0.1158 -0.6335
vn -0.5328 -0.0619 -0.8440
vn -0.7740 -0.2287 -0.5904
vn -0.6393 -0.6472 0.4153
vn -0.3146 -0.4982 0.8080
vn -0.7997 -0.5937 -0.0900
vn 0.1333 0.9896 0.0530
vn -0.1885 0.5804 -0.7922
vn 0.8984 -0.2994 0.3212
vn 0.7355 0.3776 0.5625
vn 0.6424 -0.1653 0.7483
vn -0.2263 -0.0392 0.9733
vn 0.1987 -0.7182 -0.6668
vn -0.5993 -0.3106 -0.7378
vn -0.6828 0.0724 0.7270
vn -0.5318 0.2855 -0.7973
vn -0.9423 -0.0775 -0.3256
vn 0.7015 -0.5649 -0.4344
vn 0.6640 -0.1233 -0.7375
vn -0.9344 0.0448 0.3533
vn 0.8645 -0.4081 -0.2935
vn -0.4472 0.8942 -0.0218
vn -0.4372 -0.1414 0.8882
vn 0.8612 0.2284 0.4541
vn 0.7258 0.2078 -0.6558
vn 0.7249 -0.0524 0.6869
vn 0.6370 0.3053 -0.7078
vn -0.7035 0.2148 -0.6774
vn 0.6957 0.2211 -0.6835
vn 0.2377 -0.9538 -0.1837
vn 0.7323 0.1245 0.6695
vn 0.0968 0.3215 0.9420
vn -0.6782 0.1899 0.7099
vn 0.1081 -0.7491 -0.6536
vn -0.2986 -0.6737 -0.6760
vn 0.5560 -0.2961 -0.7767
vn -0.7015 -0.2046 -0.6826
vn 0.6717 -0.2521 -0.6966
vn 0.6574 -0.3264 -0.6792
vn 0.7298 0.1420 0.6687
vn -0.9859 0.1670 0.0140
vn -0.7269 0.2064 0.6550
vn -0.6055 0.2832 0.7438
vn 0.9549 -0.2907 0.0607
vn 0.7479 0.2045 -0.6315
vn 0.7377 0.0891 0.6692
vn 0.7173 0.1523 -0.6799
vn 0.6341 -0.1985 -0.7473
vn -0.6116 0.3430 0.7130
vn -0.6813 0.2530 0.6869
vn -0.7416 -0.0445 0.6694
vn 0.4901 0.2207 -0.8432
vn -0.7534 0.3257 -0.5712
vn 0.0134 -0.1239 -0.9922
vn -0.7911 0.1784 0.5851
vn 0.3331 -0.2895 -0.8974
vn 0.7791 -0.5955 0.1959
vn -0.8859 0.0369 -0.4623
vn -0.7457 0.1160 0.6561
vn 0.4724 -0.4603 0.7516
vn 0.7029 -0.0164 -0.7111
vn -0.7653 0.0579 -0.6410
vn 0.6467 -0.0601 0.7604
vn -0.7036 0.0126 0.7105
vn 0.6810 0.1723 -0.7117
vn -0.6507 0.0702 -0.7561
vn -0.7181 -0.1723 0.6743
vn 0.7614 -0.0462 0.6467
vn -0.6598 -0.2925 0.6922
vn 0.8082 -0.1616 0.5664
vn 0.7669 -0.1952 0.6113
vn 0.5893 0.1167 -0.7995
vn -0.7265 0.1655 -0.6669
vn -0.7013 -0.0986 0.7060
vn 0.7903 -0.1608 0.5912
vn -0.8050 -0.3700 -0.4637
vn -0.1789 -0.7941 0.5808
vn -0.6679 0.1774 -0.7228
vn 0.3659 -0.2561 0.8947
vn -0.7147 -0.1226 -0.6886
vn -0.6974 0.1999 0.6882
vn 0.6972 -0.2001 -0.6884
vn 0.7150 0.1224 0.6884
vn 0.5959 -0.3685 -0.7135
vn -0.5992 0.3597 -0.7152
vn -0.4184 0.8247 0.3805
vn 0.5901 -0.3675 0.7188
vn 0.8261 -0.3450 0.4455
vn 0.6035 -0.0147 -0.7972
vn -0.7662 0.1176 -0.6317
vn -0.8787 0.0502 0.4748
vn -0.7893 0.0157 0.6139
vn 0.5223 -0.1352 0.8420
vn 0.6351 -0.5279 0.5639
vn 0.7482 0.1816 0.6381
vn 0.7343 0.3263 -0.5953
vn -0.5383 -0.0970 -0.8371
vn -0.6510 -0.3212 0.6878
vn -0.0812 -0.3084 -0.9478
vn -0.0647 -0.3091 -0.9488
vn 0.6426 -0.3539 -0.6795
vn 0.7251 0.1351 0.6752
vn -0.0281 -0.2792 -0.9598
vn -0.0649 0.2528 0.9653
vn -0.2175 -0.7442 -0.6316
vn 0.7340 0.2258 -0.6406
vn 0.0148 0.7434 0.6687
vn -0.8095 -0.3832 0.4448
vn -0.3928 0.8007 -0.4523
vn 0.1611 0.7944 0.5857
vn -0.8389 0.0803 -0.5383
vn 0.1701 -0.6822 -0.7111
vn 0.9216 -0.2691 0.2798
vn -0.1138 0.8446 0.5232
vn 0.3814 0.8723 -0.3060
vn -0.7618 -0.3827 -0.5226
vn -0.0048 0.6186 -0.7857
vn 0.6399 0.3345 0.6918
vn -0.3552 -0.7197 0.5965
vn -0.1982 0.8174 0.5409
vn -0.6763 0.2051 0.7075
vn 0.7213 0.0996 0.6854
vn 0.6937 -0.1059 -0.7124
vn 0.6031 -0.1106 -0.7900
vn -0.7112 0.0221 -0.7027
vn 0.4139 0.9032 0.1140
vn 0.9044 0.3196 0.2826
vt 0.374105 0.279511
vt 0.393342 0.278008
vt 0.384707 0.329058
vt 0.367056 0.322975
vt 0.160668 0.257436
vt 0.168516 0.253677
vt 0.161189 0.259705
vt 0.355536 0.282662
vt 0.349279 0.328692
vt 0.240438 0.464333
vt 0.252949 0.489013
vt 0.260478 0.499509
vt 0.245318 0.509022
vt 0.228831 0.472592
vt 0.247553 0.110236
vt 0.224764 0.152209
vt 0.204560 0.141678
vt 0.233246 0.079650
vt 0.258666 0.089886
vt 0.164536 0.411550
vt 0.169517 0.400051
vt 0.181713 0.395847
vt 0.211954 0.426128
vt 0.200435 0.440501
vt 0.145892 0.369715
vt 0.140874 0.364145
vt 0.156457 0.360822
vt 0.129371 0.378599
vt 0.116439 0.373576
vt 0.129336 0.368929
vt 0.345495 0.367437
vt 0.333863 0.359175
vt 0.345329 0.364870
vt 0.328277 0.385589
vt 0.316766 0.330213
vt 0.215136 0.477115
vt 0.210451 0.465550
vt 0.223020 0.460939
vt 0.235192 0.445532
vt 0.155241 0.389767
vt 0.175069 0.383715
vt 0.286873 0.006198
vt 0.307753 0.023610
vt 0.287602 0.026126
vt 0.248666 0.446195
vt 0.248290 0.461224
vt 0.200547 0.441395
vt 0.212949 0.436714
vt 0.224668 0.430524
vt 0.351372 0.365966
vt 0.367281 0.380443
vt 0.228814 0.512957
vt 0.281534 0.073588
vt 0.251210 0.046729
vt 0.273399 0.048983
vt 0.141133 0.237924
vt 0.141096 0.237917
vt 0.141095 0.237919
vt 0.141095 0.237919
vt 0.249747 0.519626
vt 0.271108 0.513433
vt 0.260398 0.527521
vt 0.237796 0.524220
vt 0.264837 0.024567
vt 0.261304 0.000082
vt 0.141094 0.237915
vt 0.141045 0.237908
vt 0.141094 0.237919
vt 0.210345 0.355335
vt 0.180483 0.313080
vt 0.227415 0.304569
vt 0.234393 0.338423
vt 0.092267 0.356066
vt 0.109317 0.357646
vt 0.370852 0.350222
vt 0.379107 0.364822
vt 0.367445 0.364822
vt 0.141087 0.237923
vt 0.145708 0.251903
vt 0.125411 0.235529
vt 0.103003 0.348305
vt 0.100047 0.351924
vt 0.153554 0.242528
vt 0.154250 0.254558
vt 0.145453 0.229882
vt 0.155929 0.201780
vt 0.160095 0.222016
vt 0.141094 0.237917
vt 0.141095 0.237917
vt 0.141095 0.237917
vt 0.281393 0.331150
vt 0.227383 0.385142
vt 0.272652 0.318263
vt 0.212001 0.454106
vt 0.223508 0.428888
vt 0.232095 0.441952
vt 0.236054 0.277535
vt 0.266974 0.301917
vt 0.268373 0.284746
vt 0.207196 0.261422
vt 0.218372 0.245484
vt 0.271781 0.270479
vt 0.347364 0.354259
vt 0.367281 0.330699
vt 0.349343 0.363229
vt 0.189086 0.416393
vt 0.202693 0.407616
vt 0.178633 0.220273
vt 0.168269 0.196180
vt 0.200928 0.218114
vt 0.192612 0.163955
vt 0.212790 0.174548
vt 0.233712 0.421985
vt 0.247061 0.419649
vt 0.110536 0.387617
vt 0.078829 0.364955
vt 0.110728 0.224828
vt 0.123667 0.393080
vt 0.149119 0.404219
vt 0.229818 0.405811
vt 0.141088 0.237873
vt 0.141096 0.237923
vt 0.132985 0.348753
vt 0.136438 0.336346
vt 0.226034 0.522501
vt 0.196294 0.467836
vt 0.246983 0.389204
vt 0.316766 0.269426
vt 0.335220 0.277788
vt 0.335044 0.330049
vt 0.316766 0.322128
vt 0.166060 0.280078
vt 0.159303 0.261135
vt 0.180041 0.407171
vt 0.190330 0.394040
vt 0.172602 0.283917
vt 0.151533 0.311523
vt 0.168493 0.402128
vt 0.173575 0.383176
vt 0.187621 0.346762
vt 0.119772 0.359997
vt 0.106294 0.349103
vt 0.118740 0.327947
vt 0.129919 0.374570
vt 0.136219 0.390788
vt 0.140859 0.404844
vt 0.075593 0.390956
vt 0.068345 0.379259
vt 0.097586 0.427247
vt 0.093060 0.413416
vt 0.084821 0.401036
vt 0.141094 0.237917
vt 0.141094 0.237917
vt 0.141094 0.237917
vt 0.141094 0.237917
vt 0.141094 0.237917
vt 0.141094 0.237917
vt 0.121380 0.353286
vt 0.157923 0.255168
vt 0.162785 0.247735
vt 0.367445 0.330213
vt 0.378829 0.333800
vt 0.380553 0.350057
vt 0.367445 0.348879
vt 0.172070 0.240007
vt 0.310776 0.295306
vt 0.313170 0.307938
vt 0.309245 0.282597
vt 0.316602 0.320190
vt 0.308689 0.269775
vt 0.070924 0.353878
vt 0.084837 0.345220
vt 0.096253 0.338493
vt 0.131421 0.266452
vt 0.112190 0.254151
vt 0.097469 0.238801
vt 0.094119 0.272060
vt 0.049291 0.324099
vt 0.056710 0.311515
vt 0.083125 0.304929
vt 0.060992 0.299911
vt 0.064045 0.284714
vt 0.077623 0.282137
vt 0.060788 0.267068
vt 0.020272 0.276510
vt 0.020491 0.261934
vt 0.009652 0.315541
vt 0.016567 0.303727
vt 0.022084 0.288952
vt 0.196153 0.277341
vt 0.179279 0.254784
vt 0.194345 0.244151
vt 0.245327 0.404708
vt 0.207105 0.232842
vt 0.206526 0.387844
vt 0.332431 0.185161
vt 0.316766 0.181353
vt 0.316766 0.114708
vt 0.335860 0.119454
vt 0.349304 0.189212
vt 0.356505 0.122860
vt 0.366119 0.188789
vt 0.375657 0.122813
vt 0.383360 0.187432
vt 0.394739 0.121573
vt 0.366645 0.000082
vt 0.364407 0.189376
vt 0.268204 0.501481
vt 0.258630 0.513134
vt 0.246987 0.524272
vt 0.244115 0.431965
vt 0.258546 0.424189
vt 0.301069 0.485818
vt 0.282546 0.490935
vt 0.316602 0.564639
vt 0.009487 0.052803
vt 0.001302 0.050875
vt 0.000859 0.172433
vt 0.007052 0.188247
vt 0.005789 0.028878
vt 0.000082 0.202931
vt 0.000425 0.000082
vt 0.001077 0.188605
vt 0.009487 0.999918
vt 0.141095 0.237921
vt 0.141095 0.237921
vt 0.141095 0.237920
vt 0.141095 0.237921
vt 0.121279 0.338897
vt 0.347463 0.362988
s 1
f 10/1/1 11/2/2 72/3/3 71/4/4
f 89/5/5 74/6/6 145/7/7
f 9/8/8 10/1/1 71/4/4 70/9/9
f 64/10/10 69/11/11 67/12/12 68/13/13 144/14/14
f 69/15/11 118/16/15 117/17/16 66/18/17 67/19/12
f 117/20/16 63/21/18 62/22/19
f 117/20/16 62/22/19 65/23/20 66/24/17
f 59/25/21 88/26/22 58/27/23
f 106/28/24 95/29/25 91/30/26
f 59/31/21 90/32/27 88/33/22
f 90/32/27 60/34/28 124/35/29
f 90/32/27 59/31/21 60/34/28
f 144/14/14 62/36/19 5/37/30 8/38/31
f 64/10/10 144/14/14 8/38/31 7/39/32
f 62/22/19 63/21/18 6/40/33 5/41/30
f 135/42/34 73/43/35 70/44/9
f 64/10/10 7/39/32 120/45/36 118/46/15
f 8/38/31 5/37/30 58/47/23 61/48/37
f 7/39/32 8/38/31 61/48/37 60/49/28
f 6/50/33 7/51/32 60/34/28 59/31/38
f 62/36/19 144/14/14 68/13/13 65/52/20
f 118/46/15 69/11/11 64/10/10
f 72/53/3 138/54/39 71/55/4
f 83/56/40 149/57/41 141/58/42
f 148/59/43 141/58/42 149/57/41
f 140/60/44 72/61/3 73/62/35
f 68/13/13 140/60/44 136/63/45
f 70/44/9 139/64/46 134/65/47
f 147/66/48 85/67/49 57/68/50
f 138/54/39 72/53/3 67/19/12
f 131/69/51 130/70/52 100/71/53 132/72/54
f 95/29/25 109/73/55 96/74/56
f 87/75/57 147/76/57 142/77/57
f 84/78/58 83/56/40 154/79/59 153/80/60
f 109/73/55 154/81/59 146/82/61
f 154/79/59 151/83/62 96/84/56
f 152/85/63 105/86/64 150/87/65
f 21/88/66 22/89/67 149/57/41 87/90/68
f 147/66/48 57/68/50 148/59/69
f 104/91/70 121/92/71 132/72/54 103/93/72
f 137/94/73 133/95/74 134/96/47
f 100/71/53 97/97/75 102/98/76
f 97/97/75 101/99/77 102/98/76
f 99/100/78 122/101/79 104/102/70
f 6/50/33 94/103/80 126/104/81 7/51/32
f 6/50/33 106/105/24 94/103/80
f 61/48/37 58/47/23 145/106/7 75/107/82
f 108/108/83 107/109/84 127/110/85
f 107/109/84 119/111/86 120/112/36 127/110/85
f 120/45/36 7/39/32 126/113/81 127/114/85
f 132/72/54 100/71/53 102/98/76 103/93/72
f 105/115/64 155/116/87 109/73/55 95/29/25
f 152/85/63 153/80/60 155/117/87 105/86/64
f 107/118/84 106/28/24 6/40/33 119/119/86
f 124/120/29 60/49/28 61/48/37 75/107/82
f 67/19/12 66/18/17 138/54/39
f 86/121/88 83/56/40 141/58/42 143/122/89
f 58/27/23 88/26/22 89/123/5 145/124/7
f 68/13/13 67/12/12 72/61/3 140/60/44
f 87/90/68 84/78/58 85/67/49 147/66/48
f 133/95/74 137/94/73 65/23/20
f 84/78/58 87/90/68 149/57/41 83/56/40
f 65/52/20 68/13/13 136/63/45 133/125/74
f 134/65/47 135/42/34 70/44/9
f 138/54/39 139/64/46 70/44/9 71/55/4
f 150/87/65 151/83/62 152/85/63
f 66/24/17 65/23/20 137/94/73 138/126/39
f 121/92/71 104/91/70 122/127/79
f 11/128/2 12/129/90 73/130/35 72/131/3
f 12/129/90 9/8/8 70/9/9 73/130/35
f 76/132/91 77/133/92 145/7/7 74/6/93
f 77/134/92 78/135/94 75/107/82 145/106/7
f 76/132/91 128/136/95 130/70/52 79/137/96
f 80/138/97 81/139/98 78/135/94 77/134/92
f 82/140/99 79/137/96 130/70/52 131/69/51
f 13/141/100 14/142/101 80/143/97 79/137/96
f 16/144/102 13/141/100 79/137/96 82/140/99
f 15/145/103 16/144/102 82/140/99 81/139/98
f 14/146/101 15/145/103 81/139/98 80/138/97
f 14/142/101 13/141/100 17/147/104 18/148/105
f 15/145/103 14/146/101 18/149/105 19/150/106
f 16/144/102 15/145/103 19/150/106 20/151/107
f 13/141/100 16/144/102 20/151/107 17/147/104
f 109/73/55 146/82/61 154/81/59 96/74/56
f 85/67/49 84/78/58 153/80/60 152/85/63
f 151/83/62 154/79/59 83/56/40 86/121/88
f 22/89/67 23/152/108 148/59/43 149/57/41
f 23/152/108 24/153/109 147/66/110 148/59/43
f 24/153/109 21/88/66 87/90/68 147/66/110
f 25/154/111 26/155/112 22/89/67 21/88/66
f 26/155/112 27/156/113 23/152/108 22/89/67
f 27/156/113 28/157/114 24/153/109 23/152/108
f 28/157/114 25/154/111 21/88/66 24/153/109
f 5/41/30 6/40/33 59/25/38 58/27/23
f 91/30/26 92/158/115 89/123/5 88/26/22
f 92/159/115 93/160/116 74/6/6 89/5/5
f 93/161/117 74/162/117 90/163/117 94/164/117
f 95/29/25 96/74/56 92/158/115 91/30/26
f 96/84/56 151/83/62 93/160/116 92/159/115
f 151/83/62 150/87/65 94/165/118 93/160/116
f 86/121/88 85/67/49 152/85/63 151/83/62
f 57/68/50 85/67/49 86/121/88 143/122/89
f 104/102/70 101/99/77 97/97/75 99/100/78
f 30/166/119 31/167/120 103/93/72 102/98/76
f 29/168/121 30/166/119 102/98/76 101/99/77
f 103/93/72 31/167/120 32/169/122 104/91/70
f 104/102/70 32/170/122 29/168/121 101/99/77
f 106/28/24 107/118/84 105/115/64 95/29/25
f 107/109/84 108/108/83 150/87/65 105/86/64
f 110/171/123 111/172/124 109/73/55 155/116/87
f 111/172/124 112/173/125 154/81/59 109/73/55
f 112/174/125 113/175/126 153/80/60 154/79/59
f 113/175/126 110/176/123 155/117/87 153/80/60
f 113/175/126 112/174/125 114/177/127
f 33/178/128 34/179/129 111/172/124 110/171/123
f 115/180/130 111/172/124 34/179/129 35/181/131
f 35/181/131 36/182/132 116/183/133 115/180/130
f 33/184/128 36/182/132 40/185/134 37/186/135
f 34/179/129 33/178/128 37/187/135 38/188/136
f 35/181/131 34/179/129 38/188/136 39/189/137
f 36/182/132 35/181/131 39/189/137 40/185/134
f 119/119/86 6/40/33 63/21/18 117/20/16
f 120/112/36 119/111/86 117/17/16 118/16/15
f 99/100/78 98/190/138 93/191/139 123/192/140
f 121/92/71 122/127/79 125/193/141 124/120/29
f 122/101/79 99/100/78 123/192/140 125/194/141
f 123/192/140 93/191/139 94/165/142 108/108/83
f 124/120/29 125/193/141 127/114/85 126/113/81
f 125/194/141 123/192/140 108/108/83 127/110/85
f 128/136/95 76/132/91 74/6/93 93/191/139
f 124/120/29 75/107/82 129/195/143 121/92/71
f 128/136/95 93/191/139 98/190/138 130/70/52
f 131/69/51 78/135/94 81/139/98 82/140/99
f 134/196/47 133/197/74 41/198/144 42/199/145
f 135/200/34 134/196/47 42/199/145 43/201/146
f 136/202/45 135/200/34 43/201/146 44/203/147
f 133/204/74 136/202/45 44/203/147 41/205/144
f 42/199/145 41/198/144 45/206/148
f 43/201/146 42/199/145 45/206/148
f 44/203/147 43/201/146 45/206/148
f 41/205/144 44/203/147 45/206/148
f 46/207/149 10/1/1 9/8/8
f 46/207/149 11/2/2 10/1/1
f 46/207/149 12/129/90 11/128/2
f 46/207/149 9/8/8 12/129/90
f 137/94/73 134/96/47 47/208/150 48/209/151
f 138/126/39 137/94/73 48/209/151 49/210/152
f 139/211/46 138/212/39 49/213/152 50/214/153
f 134/96/47 139/211/46 50/214/153 47/208/150
f 48/209/151 47/208/150 51/215/154
f 49/210/152 48/209/151 51/215/154
f 50/214/153 49/213/152 51/215/154
f 47/208/150 50/214/153 51/215/154
f 135/216/34 136/217/45 52/218/155 53/219/156
f 73/220/35 135/216/34 53/219/156 54/221/157
f 140/222/44 73/220/35 54/221/157 55/223/158
f 136/217/45 140/222/44 55/223/158 52/218/155
f 53/219/156 52/218/155 56/224/159
f 54/221/157 53/219/156 56/224/159
f 55/223/158 54/221/157 56/224/159
f 52/218/155 55/223/158 56/224/159
f 132/72/54 121/92/71 129/195/143 131/69/51
f 78/135/94 131/69/51 129/195/143 75/107/82
f 98/190/138 100/71/53 130/70/52
f 99/100/78 97/97/75 100/71/53 98/190/138
f 4/225/160 3/226/161 57/68/50 143/122/89
f 3/226/161 2/227/162 148/59/163 57/68/50
f 2/227/162 1/228/164 141/58/42 148/59/163
f 1/228/164 4/225/160 143/122/89 141/58/42
f 112/173/125 115/180/130 80/143/97 77/229/92
f 115/180/130 116/183/133 79/137/96 80/143/97
f 116/183/133 114/177/127 76/132/91 79/137/96
f 77/133/92 76/132/91 112/174/125
f 110/176/123 116/183/133 36/182/132 33/184/128
f 113/175/126 114/177/127 116/183/133 110/176/123
f 112/173/125 111/172/124 115/180/130
f 91/230/26 94/103/165 106/105/24
f 90/32/27 94/103/165 91/230/26 88/33/22
f 150/87/65 108/108/83 94/165/118
f 124/35/29 94/103/80 90/32/166
f 124/35/29 126/104/81 94/103/80
f 76/132/91 114/177/127 112/174/125
o leaves
v -5.870234 25.930473 6.558777
v -2.699093 28.352982 8.862719
v -7.081479 28.352980 10.286668
v -9.789973 28.352999 6.558777
v -7.081479 28.352980 2.830886
v -2.699093 28.352982 4.254835
v -4.658989 32.272778 10.286668
v -9.041375 32.272778 8.862719
v -9.041375 32.272778 4.254835
v -4.658989 32.272778 2.830886
v -1.950495 32.272758 6.558777
v -5.870234 34.695286 6.558777
v -6.582181 26.584967 8.749960
v -4.006297 26.584967 7.912991
v -4.718236 28.008884 10.104195
v -2.142349 28.008890 6.558777
v -4.006297 26.584967 5.204563
v -8.174196 26.584978 6.558777
v -8.886160 28.008890 8.749967
v -6.582181 26.584967 4.367594
v -8.886160 28.008890 4.367587
v -4.718236 28.008884 3.013359
v -1.702312 30.312880 7.912996
v -1.702312 30.312880 5.204558
v -5.870234 30.312880 10.941183
v -3.294318 30.312880 10.104218
v -10.038157 30.312880 7.912996
v -8.446150 30.312880 10.104218
v -8.446150 30.312880 3.013336
v -10.038157 30.312880 5.204558
v -3.294318 30.312880 3.013336
v -5.870234 30.312880 2.176370
v -2.854309 32.616871 8.749967
v -7.022232 32.616875 10.104195
v -9.598119 32.616867 6.558777
v -7.022232 32.616875 3.013359
v -2.854309 32.616871 4.367587
v -5.158288 34.040794 8.749960
v -3.566272 34.040779 6.558777
v -7.734171 34.040791 7.912991
v -7.734171 34.040791 5.204563
v -5.158288 34.040794 4.367594
v -7.417717 26.036720 -9.010575
v -3.116935 29.322189 -5.885911
v -9.060438 29.322186 -3.954716
v -12.733767 29.322210 -9.010575
v -9.060438 29.322186 -14.066435
v -3.116935 29.322189 -12.135241
v -5.774997 34.638313 -3.954716
v -11.718500 34.638313 -5.885911
v -11.718500 34.638313 -12.135241
v -5.774997 34.638313 -14.066435
v -2.101667 34.638290 -9.010575
v -7.417717 37.923782 -9.010575
v -8.383277 26.924360 -6.038837
v -4.889799 26.924362 -7.173956
v -5.855348 28.855513 -4.202190
v -2.361865 28.855524 -9.010575
v -4.889799 26.924362 -10.847193
v -10.542408 26.924377 -9.010575
v -11.507992 28.855522 -6.038828
v -8.383277 26.924360 -11.982315
v -11.507992 28.855522 -11.982323
v -5.855348 28.855513 -13.818958
v -1.765075 31.980251 -7.173949
v -1.765075 31.980251 -10.847200
v -7.417717 31.980251 -3.067043
v -3.924196 31.980251 -4.202159
v -13.070358 31.980251 -7.173949
v -10.911238 31.980251 -4.202159
v -10.911238 31.980251 -13.818989
v -13.070358 31.980251 -10.847200
v -3.924196 31.980251 -13.818989
v -7.417717 31.980251 -14.954105
v -3.327443 35.104980 -6.038828
v -8.980085 35.104988 -4.202190
v -12.473568 35.104980 -9.010575
v -8.980085 35.104988 -13.818958
v -3.327443 35.104980 -11.982323
v -6.452157 37.036140 -6.038837
v -4.293026 37.036125 -9.010575
v -9.945635 37.036140 -7.173956
v -9.945635 37.036140 -10.847193
v -6.452157 37.036140 -11.982315
v 8.889448 25.912374 -9.252589
v 12.060589 28.334883 -6.948647
v 7.678204 28.334881 -5.524698
v 4.969709 28.334900 -9.252589
v 7.678204 28.334881 -12.980480
v 12.060589 28.334883 -11.556530
v 10.100693 32.254681 -5.524698
v 5.718307 32.254677 -6.948647
v 5.718307 32.254677 -11.556530
v 10.100693 32.254681 -12.980480
v 12.809187 32.254662 -9.252589
v 8.889448 34.677189 -9.252589
v 8.177502 26.566868 -7.061406
v 10.753386 26.566868 -7.898376
v 10.041445 27.990784 -5.707171
v 12.617332 27.990791 -9.252589
v 10.753386 26.566868 -10.606804
v 6.585486 26.566879 -9.252589
v 5.873522 27.990791 -7.061399
v 8.177502 26.566868 -11.443771
v 5.873522 27.990791 -11.443779
v 10.041445 27.990784 -12.798008
v 13.057369 30.294781 -7.898371
v 13.057369 30.294781 -10.606808
v 8.889448 30.294781 -4.870182
v 11.465363 30.294781 -5.707149
v 4.721526 30.294781 -7.898371
v 6.313532 30.294781 -5.707149
v 6.313532 30.294781 -12.798031
v 4.721526 30.294781 -10.606808
v 11.465363 30.294781 -12.798031
v 8.889448 30.294781 -13.634996
v 11.905373 32.598770 -7.061399
v 7.737450 32.598778 -5.707171
v 5.161563 32.598770 -9.252589
v 7.737450 32.598778 -12.798008
v 11.905373 32.598770 -11.443779
v 9.601395 34.022694 -7.061406
v 11.193409 34.022682 -9.252589
v 7.025511 34.022694 -7.898376
v 7.025511 34.022694 -10.606804
v 9.601395 34.022694 -11.443771
v 7.069821 25.112103 8.356513
v 10.741869 27.917267 11.024382
v 5.667250 27.917267 12.673255
v 2.530926 27.917288 8.356513
v 5.667250 27.917267 4.039770
v 10.741869 27.917267 5.688644
v 8.472391 32.456230 12.673255
v 3.397770 32.456226 11.024382
v 3.397770 32.456226 5.688644
v 8.472391 32.456230 4.039770
v 11.608715 32.456207 8.356513
v 7.069821 35.261391 8.356513
v 6.245417 25.869980 10.893812
v 9.228184 25.869980 9.924637
v 8.403786 27.518816 12.461960
v 11.386557 27.518826 8.356513
v 9.228184 25.869980 6.788388
v 4.401928 25.869993 8.356513
v 3.577504 27.518824 10.893819
v 6.245417 25.869980 5.819215
v 3.577504 27.518824 5.819206
v 8.403786 27.518816 4.251065
v 11.896099 30.186749 9.924641
v 11.896099 30.186749 6.788383
v 7.069821 30.186749 13.431158
v 10.052622 30.186749 12.461987
v 2.243540 30.186749 9.924641
v 4.087018 30.186749 12.461987
v 4.087018 30.186749 4.251039
v 2.243540 30.186749 6.788383
v 10.052622 30.186749 4.251039
v 7.069821 30.186749 3.281867
v 10.562136 32.854671 10.893819
v 5.735855 32.854679 12.461960
v 2.753085 32.854671 8.356513
v 5.735855 32.854679 4.251065
v 10.562136 32.854671 5.819206
v 7.894226 34.503517 10.893812
v 9.737711 34.503502 8.356513
v 4.911459 34.503517 9.924637
v 4.911459 34.503517 6.788388
v 7.894226 34.503517 5.819215
vn 0.1024 -0.9435 0.3151
vn 0.7002 -0.6617 0.2680
vn -0.2680 -0.9435 0.1947
vn -0.2680 -0.9435 -0.1947
vn 0.1024 -0.9435 -0.3151
vn 0.9050 -0.3304 0.2680
vn 0.0247 -0.3304 0.9435
vn -0.8897 -0.3304 0.3151
vn -0.5746 -0.3304 -0.7488
vn 0.5346 -0.3304 -0.7779
vn 0.8026 -0.1256 0.5831
vn -0.3066 -0.1256 0.9435
vn -0.9921 -0.1256 -0.0000
vn -0.3066 -0.1256 -0.9435
vn 0.8026 -0.1256 -0.5831
vn 0.4089 0.6617 0.6284
vn -0.4713 0.6617 0.5831
vn -0.7002 0.6617 -0.2680
vn 0.0385 0.6617 -0.7488
vn 0.7240 0.6617 -0.1947
vn 0.2680 0.9435 -0.1947
vn 0.4911 0.7947 -0.3568
vn 0.4089 0.6617 -0.6284
vn -0.1024 0.9435 -0.3151
vn -0.1876 0.7947 -0.5773
vn -0.4713 0.6617 -0.5831
vn -0.3313 0.9435 -0.0000
vn -0.6071 0.7947 -0.0000
vn -0.7002 0.6617 0.2680
vn -0.1024 0.9435 0.3151
vn -0.1876 0.7947 0.5773
vn 0.0385 0.6617 0.7488
vn 0.2680 0.9435 0.1947
vn 0.4911 0.7947 0.3568
vn 0.7240 0.6617 0.1947
vn 0.8897 0.3304 -0.3151
vn 0.7947 0.1876 -0.5773
vn 0.5746 0.3304 -0.7488
vn -0.0247 0.3304 -0.9435
vn -0.3035 0.1876 -0.9342
vn -0.5346 0.3304 -0.7779
vn -0.9050 0.3304 -0.2680
vn -0.9822 0.1876 -0.0000
vn -0.9050 0.3304 0.2680
vn -0.5346 0.3304 0.7779
vn -0.3035 0.1876 0.9342
vn -0.0247 0.3304 0.9435
vn 0.5746 0.3304 0.7488
vn 0.7947 0.1876 0.5773
vn 0.8897 0.3304 0.3151
vn 0.3066 0.1256 -0.9435
vn 0.3035 -0.1876 -0.9342
vn 0.0247 -0.3304 -0.9435
vn -0.8026 0.1256 -0.5831
vn -0.7947 -0.1876 -0.5773
vn -0.8897 -0.3304 -0.3151
vn -0.8026 0.1256 0.5831
vn -0.7947 -0.1876 0.5773
vn -0.5746 -0.3304 0.7488
vn 0.3066 0.1256 0.9435
vn 0.3035 -0.1876 0.9342
vn 0.5346 -0.3304 0.7779
vn 0.9921 0.1256 -0.0000
vn 0.9822 -0.1876 -0.0000
vn 0.9050 -0.3304 -0.2680
vn 0.4713 -0.6617 -0.5831
vn 0.1876 -0.7947 -0.5773
vn -0.0385 -0.6617 -0.7488
vn -0.4089 -0.6617 -0.6284
vn -0.4911 -0.7947 -0.3568
vn -0.7240 -0.6617 -0.1947
vn -0.7240 -0.6617 0.1947
vn -0.4911 -0.7947 0.3568
vn -0.4089 -0.6617 0.6284
vn 0.7002 -0.6617 -0.2680
vn 0.6071 -0.7947 -0.0000
vn 0.3313 -0.9435 -0.0000
vn -0.0385 -0.6617 0.7488
vn 0.1876 -0.7947 0.5773
vn 0.4713 -0.6617 0.5831
vt 0.181819 0.000000
vt 0.227273 0.078731
vt 0.136365 0.078731
vt 0.272728 0.157461
vt 0.318182 0.078731
vt 0.363637 0.157461
vt 0.909091 0.000000
vt 0.954545 0.078731
vt 0.863636 0.078731
vt 0.727273 0.000000
vt 0.772727 0.078731
vt 0.681818 0.078731
vt 0.545455 0.000000
vt 0.590909 0.078731
vt 0.500000 0.078731
vt 0.318182 0.236191
vt 0.090910 0.157461
vt 0.181819 0.157461
vt 0.136365 0.236191
vt 0.818182 0.157461
vt 0.909091 0.157461
vt 0.863636 0.236191
vt 0.636364 0.157461
vt 0.727273 0.157461
vt 0.681818 0.236191
vt 0.454546 0.157461
vt 0.545455 0.157461
vt 0.500000 0.236191
vt 0.227273 0.236191
vt 0.045455 0.236191
vt 0.772727 0.236191
vt 0.590909 0.236191
vt 0.409092 0.236191
vt 0.181819 0.314921
vt 0.272728 0.314921
vt 0.227273 0.393651
vt 0.000000 0.314921
vt 0.090910 0.314921
vt 0.045455 0.393651
vt 0.727273 0.314921
vt 0.818182 0.314921
vt 0.772727 0.393651
vt 0.545455 0.314921
vt 0.636364 0.314921
vt 0.590909 0.393651
vt 0.363637 0.314921
vt 0.454546 0.314921
vt 0.409092 0.393651
vt 0.500000 0.393651
vt 0.454546 0.472382
vt 0.681818 0.393651
vt 0.636364 0.472382
vt 0.863636 0.393651
vt 0.818182 0.472382
vt 0.909091 0.314921
vt 0.136365 0.393651
vt 0.090910 0.472382
vt 0.318182 0.393651
vt 0.272728 0.472382
vt 0.954545 0.236191
vt 1.000000 0.157461
vt 0.409092 0.078731
vt 0.363637 0.000000
s 0
f 156/231/167 169/232/167 168/233/167
f 157/234/168 169/235/168 171/236/168
f 156/237/169 168/238/169 173/239/169
f 156/240/170 173/241/170 175/242/170
f 156/243/171 175/244/171 172/245/171
f 157/234/172 171/236/172 178/246/172
f 158/247/173 170/248/173 180/249/173
f 159/250/174 174/251/174 182/252/174
f 160/253/175 176/254/175 184/255/175
f 161/256/176 177/257/176 186/258/176
f 157/234/177 178/246/177 181/259/177
f 158/247/178 180/249/178 183/260/178
f 159/250/179 182/252/179 185/261/179
f 160/253/180 184/255/180 187/262/180
f 161/256/181 186/258/181 179/263/181
f 162/264/182 188/265/182 193/266/182
f 163/267/183 189/268/183 195/269/183
f 164/270/184 190/271/184 196/272/184
f 165/273/185 191/274/185 197/275/185
f 166/276/186 192/277/186 194/278/186
f 194/278/187 197/279/187 167/280/187
f 194/278/188 192/277/188 197/279/188
f 192/277/189 165/273/189 197/279/189
f 197/275/190 196/281/190 167/282/190
f 197/275/191 191/274/191 196/281/191
f 191/274/192 164/270/192 196/281/192
f 196/272/193 195/283/193 167/284/193
f 196/272/194 190/271/194 195/283/194
f 190/271/195 163/285/195 195/283/195
f 195/269/196 193/286/196 167/287/196
f 195/269/197 189/268/197 193/286/197
f 189/268/198 162/264/198 193/286/198
f 193/266/199 194/288/199 167/289/199
f 193/266/200 188/265/200 194/288/200
f 188/265/201 166/276/201 194/288/201
f 179/263/202 192/277/202 166/276/202
f 179/263/203 186/258/203 192/277/203
f 186/258/204 165/273/204 192/277/204
f 187/262/205 191/274/205 165/273/205
f 187/262/206 184/255/206 191/274/206
f 184/255/207 164/270/207 191/274/207
f 185/261/208 190/271/208 164/270/208
f 185/261/209 182/252/209 190/271/209
f 182/252/210 163/285/210 190/271/210
f 183/260/211 189/268/211 163/267/211
f 183/260/212 180/249/212 189/268/212
f 180/249/213 162/264/213 189/268/213
f 181/259/214 188/265/214 162/264/214
f 181/259/215 178/246/215 188/265/215
f 178/246/216 166/276/216 188/265/216
f 186/258/217 187/262/217 165/273/217
f 186/258/218 177/257/218 187/262/218
f 177/257/219 160/253/219 187/262/219
f 184/255/220 185/261/220 164/270/220
f 184/255/221 176/254/221 185/261/221
f 176/254/222 159/250/222 185/261/222
f 182/252/223 183/290/223 163/285/223
f 182/252/224 174/251/224 183/290/224
f 174/251/225 158/291/225 183/290/225
f 180/249/226 181/259/226 162/264/226
f 180/249/227 170/248/227 181/259/227
f 170/248/228 157/234/228 181/259/228
f 178/246/229 179/263/229 166/276/229
f 178/246/230 171/236/230 179/263/230
f 171/236/231 161/256/231 179/263/231
f 172/245/232 177/257/232 161/256/232
f 172/245/233 175/244/233 177/257/233
f 175/244/234 160/253/234 177/257/234
f 175/242/235 176/254/235 160/253/235
f 175/242/236 173/241/236 176/254/236
f 173/241/237 159/250/237 176/254/237
f 173/239/238 174/251/238 159/250/238
f 173/239/239 168/238/239 174/251/239
f 168/238/240 158/291/240 174/251/240
f 171/236/241 172/292/241 161/256/241
f 171/236/242 169/235/242 172/292/242
f 169/235/243 156/293/243 172/292/243
f 168/233/244 170/248/244 158/247/244
f 168/233/245 169/232/245 170/248/245
f 169/232/246 157/234/246 170/248/246
f 198/231/167 211/232/167 210/233/167
f 199/234/168 211/235/168 213/236/168
f 198/237/169 210/238/169 215/239/169
f 198/240/170 215/241/170 217/242/170
f 198/243/171 217/244/171 214/245/171
f 199/234/172 213/236/172 220/246/172
f 200/247/173 212/248/173 222/249/173
f 201/250/174 216/251/174 224/252/174
f 202/253/175 218/254/175 226/255/175
f 203/256/176 219/257/176 228/258/176
f 199/234/177 220/246/177 223/259/177
f 200/247/178 222/249/178 225/260/178
f 201/250/179 224/252/179 227/261/179
f 202/253/180 226/255/180 229/262/180
f 203/256/181 228/258/181 221/263/181
f 204/264/182 230/265/182 235/266/182
f 205/267/183 231/268/183 237/269/183
f 206/270/184 232/271/184 238/272/184
f 207/273/185 233/274/185 239/275/185
f 208/276/186 234/277/186 236/278/186
f 236/278/187 239/279/187 209/280/187
f 236/278/188 234/277/188 239/279/188
f 234/277/189 207/273/189 239/279/189
f 239/275/190 238/281/190 209/282/190
f 239/275/191 233/274/191 238/281/191
f 233/274/192 206/270/192 238/281/192
f 238/272/193 237/283/193 209/284/193
f 238/272/194 232/271/194 237/283/194
f 232/271/195 205/285/195 237/283/195
f 237/269/196 235/286/196 209/287/196
f 237/269/197 231/268/197 235/286/197
f 231/268/198 204/264/198 235/286/198
f 235/266/199 236/288/199 209/289/199
f 235/266/200 230/265/200 236/288/200
f 230/265/201 208/276/201 236/288/201
f 221/263/202 234/277/202 208/276/202
f 221/263/203 228/258/203 234/277/203
f 228/258/204 207/273/204 234/277/204
f 229/262/205 233/274/205 207/273/205
f 229/262/206 226/255/206 233/274/206
f 226/255/207 206/270/207 233/274/207
f 227/261/208 232/271/208 206/270/208
f 227/261/209 224/252/209 232/271/209
f 224/252/210 205/285/210 232/271/210
f 225/260/211 231/268/211 205/267/211
f 225/260/212 222/249/212 231/268/212
f 222/249/213 204/264/213 231/268/213
f 223/259/214 230/265/214 204/264/214
f 223/259/215 220/246/215 230/265/215
f 220/246/216 208/276/216 230/265/216
f 228/258/217 229/262/217 207/273/217
f 228/258/218 219/257/218 229/262/218
f 219/257/219 202/253/219 229/262/219
f 226/255/220 227/261/220 206/270/220
f 226/255/221 218/254/221 227/261/221
f 218/254/222 201/250/222 227/261/222
f 224/252/223 225/290/223 205/285/223
f 224/252/224 216/251/224 225/290/224
f 216/251/225 200/291/225 225/290/225
f 222/249/226 223/259/226 204/264/226
f 222/249/227 212/248/227 223/259/227
f 212/248/228 199/234/228 223/259/228
f 220/246/229 221/263/229 208/276/229
f 220/246/230 213/236/230 221/263/230
f 213/236/231 203/256/231 221/263/231
f 214/245/232 219/257/232 203/256/232
f 214/245/233 217/244/233 219/257/233
f 217/244/234 202/253/234 219/257/234
f 217/242/235 218/254/235 202/253/235
f 217/242/236 215/241/236 218/254/236
f 215/241/237 201/250/237 218/254/237
f 215/239/238 216/251/238 201/250/238
f 215/239/239 210/238/239 216/251/239
f 210/238/240 200/291/240 216/251/240
f 213/236/241 214/292/241 203/256/241
f 213/236/242 211/235/242 214/292/242
f 211/235/243 198/293/243 214/292/243
f 210/233/244 212/248/244 200/247/244
f 210/233/245 211/232/245 212/248/245
f 211/232/246 199/234/246 212/248/246
f 240/231/167 253/232/167 252/233/167
f 241/234/168 253/235/168 255/236/168
f 240/237/169 252/238/169 257/239/169
f 240/240/170 257/241/170 259/242/170
f 240/243/171 259/244/171 256/245/171
f 241/234/172 255/236/172 262/246/172
f 242/247/173 254/248/173 264/249/173
f 243/250/174 258/251/174 266/252/174
f 244/253/175 260/254/175 268/255/175
f 245/256/176 261/257/176 270/258/176
f 241/234/177 262/246/177 265/259/177
f 242/247/178 264/249/178 267/260/178
f 243/250/179 266/252/179 269/261/179
f 244/253/180 268/255/180 271/262/180
f 245/256/181 270/258/181 263/263/181
f 246/264/182 272/265/182 277/266/182
f 247/267/183 273/268/183 279/269/183
f 248/270/184 274/271/184 280/272/184
f 249/273/185 275/274/185 281/275/185
f 250/276/186 276/277/186 278/278/186
f 278/278/187 281/279/187 251/280/187
f 278/278/188 276/277/188 281/279/188
f 276/277/189 249/273/189 281/279/189
f 281/275/190 280/281/190 251/282/190
f 281/275/191 275/274/191 280/281/191
f 275/274/192 248/270/192 280/281/192
f 280/272/193 279/283/193 251/284/193
f 280/272/194 274/271/194 279/283/194
f 274/271/195 247/285/195 279/283/195
f 279/269/196 277/286/196 251/287/196
f 279/269/197 273/268/197 277/286/197
f 273/268/198 246/264/198 277/286/198
f 277/266/199 278/288/199 251/289/199
f 277/266/200 272/265/200 278/288/200
f 272/265/201 250/276/201 278/288/201
f 263/263/202 276/277/202 250/276/202
f 263/263/203 270/258/203 276/277/203
f 270/258/204 249/273/204 276/277/204
f 271/262/205 275/274/205 249/273/205
f 271/262/206 268/255/206 275/274/206
f 268/255/207 248/270/207 275/274/207
f 269/261/208 274/271/208 248/270/208
f 269/261/209 266/252/209 274/271/209
f 266/252/210 247/285/210 274/271/210
f 267/260/211 273/268/211 247/267/211
f 267/260/212 264/249/212 273/268/212
f 264/249/213 246/264/213 273/268/213
f 265/259/214 272/265/214 246/264/214
f 265/259/215 262/246/215 272/265/215
f 262/246/216 250/276/216 272/265/216
f 270/258/217 271/262/217 249/273/217
f 270/258/218 261/257/218 271/262/218
f 261/257/219 244/253/219 271/262/219
f 268/255/220 269/261/220 248/270/220
f 268/255/221 260/254/221 269/261/221
f 260/254/222 243/250/222 269/261/222
f 266/252/223 267/290/223 247/285/223
f 266/252/224 258/251/224 267/290/224
f 258/251/225 242/291/225 267/290/225
f 264/249/226 265/259/226 246/264/226
f 264/249/227 254/248/227 265/259/227
f 254/248/228 241/234/228 265/259/228
f 262/246/229 263/263/229 250/276/229
f 262/246/230 255/236/230 263/263/230
f 255/236/231 245/256/231 263/263/231
f 256/245/232 261/257/232 245/256/232
f 256/245/233 259/244/233 261/257/233
f 259/244/234 244/253/234 261/257/234
f 259/242/235 260/254/235 244/253/235
f 259/242/236 257/241/236 260/254/236
f 257/241/237 243/250/237 260/254/237
f 257/239/238 258/251/238 243/250/238
f 257/239/239 252/238/239 258/251/239
f 252/238/240 242/291/240 258/251/240
f 255/236/241 256/292/241 245/256/241
f 255/236/242 253/235/242 256/292/242
f 253/235/243 240/293/243 256/292/243
f 252/233/244 254/248/244 242/247/244
f 252/233/245 253/232/245 254/248/245
f 253/232/246 241/234/246 254/248/246
f 282/231/167 295/232/167 294/233/167
f 283/234/168 295/235/168 297/236/168
f 282/237/169 294/238/169 299/239/169
f 282/240/170 299/241/170 301/242/170
f 282/243/171 301/244/171 298/245/171
f 283/234/172 297/236/172 304/246/172
f 284/247/173 296/248/173 306/249/173
f 285/250/174 300/251/174 308/252/174
f 286/253/175 302/254/175 310/255/175
f 287/256/176 303/257/176 312/258/176
f 283/234/177 304/246/177 307/259/177
f 284/247/178 306/249/178 309/260/178
f 285/250/179 308/252/179 311/261/179
f 286/253/180 310/255/180 313/262/180
f 287/256/181 312/258/181 305/263/181
f 288/264/182 314/265/182 319/266/182
f 289/267/183 315/268/183 321/269/183
f 290/270/184 316/271/184 322/272/184
f 291/273/185 317/274/185 323/275/185
f 292/276/186 318/277/186 320/278/186
f 320/278/187 323/279/187 293/280/187
f 320/278/188 318/277/188 323/279/188
f 318/277/189 291/273/189 323/279/189
f 323/275/190 322/281/190 293/282/190
f 323/275/191 317/274/191 322/281/191
f 317/274/192 290/270/192 322/281/192
f 322/272/193 321/283/193 293/284/193
f 322/272/194 316/271/194 321/283/194
f 316/271/195 289/285/195 321/283/195
f 321/269/196 319/286/196 293/287/196
f 321/269/197 315/268/197 319/286/197
f 315/268/198 288/264/198 319/286/198
f 319/266/199 320/288/199 293/289/199
f 319/266/200 314/265/200 320/288/200
f 314/265/201 292/276/201 320/288/201
f 305/263/202 318/277/202 292/276/202
f 305/263/203 312/258/203 318/277/203
f 312/258/204 291/273/204 318/277/204
f 313/262/205 317/274/205 291/273/205
f 313/262/206 310/255/206 317/274/206
f 310/255/207 290/270/207 317/274/207
f 311/261/208 316/271/208 290/270/208
f 311/261/209 308/252/209 316/271/209
f 308/252/210 289/285/210 316/271/210
f 309/260/211 315/268/211 289/267/211
f 309/260/212 306/249/212 315/268/212
f 306/249/213 288/264/213 315/268/213
f 307/259/214 314/265/214 288/264/214
f 307/259/215 304/246/215 314/265/215
f 304/246/216 292/276/216 314/265/216
f 312/258/217 313/262/217 291/273/217
f 312/258/218 303/257/218 313/262/218
f 303/257/219 286/253/219 313/262/219
f 310/255/220 311/261/220 290/270/220
f 310/255/221 302/254/221 311/261/221
f 302/254/222 285/250/222 311/261/222
f 308/252/223 309/290/223 289/285/223
f 308/252/224 300/251/224 309/290/224
f 300/251/225 284/291/225 309/290/225
f 306/249/226 307/259/226 288/264/226
f 306/249/227 296/248/227 307/259/227
f 296/248/228 283/234/228 307/259/228
f 304/246/229 305/263/229 292/276/229
f 304/246/230 297/236/230 305/263/230
f 297/236/231 287/256/231 305/263/231
f 298/245/232 303/257/232 287/256/232
f 298/245/233 301/244/233 303/257/233
f 301/244/234 286/253/234 303/257/234
f 301/242/235 302/254/235 286/253/235
f 301/242/236 299/241/236 302/254/236
f 299/241/237 285/250/237 302/254/237
f 299/239/238 300/251/238 285/250/238
f 299/239/239 294/238/239 300/251/239
f 294/238/240 284/291/240 300/251/240
f 297/236/241 298/292/241 287/256/241
f 297/236/242 295/235/242 298/292/242
f 295/235/243 282/293/243 298/292/243
f 294/233/244 296/248/244 284/247/244
f 294/233/245 295/232/245 296/248/245
f 295/232/246 283/234/246 296/248/246
