# Blender 3.6.15
# www.blender.org
o Sphere
v -1.137064 8.285210 -3.122403
v -1.528999 7.326432 -2.765229
v -0.959986 8.349127 -1.704973
v -1.685715 7.452146 -2.455155
v -1.629376 9.115153 -1.717687
v -1.263160 7.655334 -1.479769
v -2.272180 7.559038 -1.845813
v -2.284589 8.648699 -2.486681
v -1.830922 7.348295 -2.826299
v 0.932582 8.653160 -3.325556
v 3.228802 8.564987 -3.439855
v 0.943102 9.124154 -3.148166
v 2.692932 9.002361 -2.246198
v 3.216905 7.710089 -2.554980
v 1.740296 9.620804 -2.877627
v 1.313128 8.479319 -2.008078
v 0.756991 8.863319 -3.011548
v 1.672613 7.351495 -2.503548
v 2.868381 7.518495 -2.576755
v 0.623507 7.999465 -3.547427
v 2.607893 7.306255 -3.409471
v 3.110522 7.507674 -2.891483
v 1.256485 8.597674 -4.106720
v 3.045371 5.993298 -0.678773
v 3.162012 7.801198 -0.294136
v 3.605074 6.579692 0.220178
v 2.556920 5.909508 -0.084099
v 3.252880 7.834892 0.006677
v 2.983299 6.850781 0.808756
v 2.410178 6.092890 0.153792
v 2.370962 6.283559 -0.109577
v 2.996417 7.859444 -0.143003
v 2.330293 7.551852 0.280278
v 1.786104 6.922969 -0.215381
v 3.227264 7.455212 -0.832588
v 2.239939 7.757814 -1.216171
v 2.263455 7.781973 -1.728747
v 2.279889 8.969904 -1.749900
v 2.857971 8.154572 -1.177009
v 2.360803 7.745493 -1.048278
v 2.397129 9.069502 -1.544294
v 2.147866 8.353597 -0.696311
v 1.641623 8.285650 -1.339099
v 2.097940 7.821130 -1.051368
v 2.165763 8.985133 -1.507044
v 1.243381 8.155269 1.133577
v 1.739651 8.888645 0.889550
v 1.960535 7.227014 0.605431
v 1.858771 8.008265 0.023062
v 1.954723 9.091291 0.707508
v 2.289577 8.382174 1.535255
v 1.944541 8.998055 0.946852
v 2.870148 7.914024 0.822649
v 1.842489 7.452713 1.455733
v 2.248821 7.346523 0.774294
v 1.758413 8.855349 1.077811
v 1.991079 7.293357 0.857949
v 1.849512 7.712488 2.438110
v 2.417344 7.507464 2.322238
v 2.435496 7.498116 2.101900
v 1.818156 8.792540 2.618884
v 2.976288 8.053156 2.186035
v 2.015675 8.943588 2.713425
v 2.597726 7.659955 2.290981
v 1.922413 8.876366 2.802016
v 1.972171 8.205721 3.144026
v 1.462639 9.387371 1.816192
v 0.863774 8.451841 2.072921
v 1.405992 8.549026 2.551676
v 1.448340 9.518483 2.023985
v 0.882719 8.548895 2.335039
v 0.843708 9.549351 2.228150
v 1.283071 9.458847 1.848786
v 0.642541 8.491386 2.094143
v 1.106036 8.981833 1.325374
v 0.131225 7.295268 1.890674
v 1.196174 8.481941 2.874685
v 1.332341 7.342406 2.484778
v 0.149504 7.136296 2.107254
v 1.319650 8.325213 3.143536
v 0.393479 7.025194 2.932258
v 1.134535 8.562108 3.157028
v 0.429287 8.005474 3.473677
v -0.351214 7.859868 2.558331
v 0.300183 8.640263 2.450142
v -0.021999 7.434928 2.237542
v 0.570206 8.053633 1.640935
v -1.254274 7.347454 1.136250
v -1.991414 7.261291 1.571929
v -1.094707 7.265355 2.083389
v -1.206021 8.875182 1.750412
v -1.920776 6.928526 1.713983
v -1.861780 8.133472 2.662693
v -1.528763 8.943838 1.876962
v -2.125224 7.062032 1.766680
v -2.431089 7.328122 2.311615
v -2.679045 7.863094 1.370028
v -1.764055 7.937427 0.931251
v -1.570004 8.843495 1.667014
v -3.189510 7.179322 1.292258
v -3.058170 7.521354 1.836641
v -2.932680 7.638450 1.992101
v -2.830031 6.515080 1.788684
v -3.413809 6.417817 1.834713
v -3.294606 6.776432 2.460336
v -3.530906 6.502669 1.963490
v -3.088017 7.801987 1.960254
v -3.932981 6.829204 1.814056
v -3.514115 6.565976 1.770932
v 0.547598 10.524587 -0.798049
v 1.445887 9.786530 -0.271882
v 1.395560 9.568470 -0.249745
v 0.076975 10.065628 -0.467084
v 0.294980 9.489065 -0.347622
v 0.207503 9.953936 0.182533
v 0.103258 10.184999 -0.294195
v 1.331955 9.743754 0.015967
v 0.519492 10.620689 0.113708
v 0.211405 10.265351 -0.422241
v -1.188453 9.451664 -4.530286
v -0.532485 10.052723 -3.130606
v -1.578089 8.742050 -4.161016
v -0.363216 9.351292 -4.438375
v -0.286124 8.951979 -3.208803
v -0.844818 8.231255 -3.615458
v -1.400329 8.498331 -3.923200
v -1.332679 9.085846 -2.598703
v -1.739420 8.604702 -3.836639
v -1.700412 9.875574 -3.489154
v -2.774506 10.744969 -0.504204
v -2.254448 9.775468 -1.659220
v -2.976984 10.316089 -0.050445
v -1.790343 10.097892 -1.116120
v -2.377813 9.097929 -1.197976
v -3.016650 9.975292 -0.082966
v -2.355583 9.447495 -1.808881
v -3.429091 9.251092 -1.059730
v -3.233517 10.125765 -0.098341
v -2.492239 9.725859 -1.918306
v -3.506506 10.257012 -1.795198
v -3.416985 8.818427 0.493066
v -3.326468 8.888529 0.758851
v -2.868710 9.988109 0.154251
v -2.902723 9.888228 0.785926
v -3.825253 9.458929 0.351924
v -3.513522 8.971802 0.643733
v -1.965951 7.185872 0.000776
v -2.102543 8.269945 0.341274
v -1.552096 7.230710 0.282139
v -1.947877 8.250703 0.493873
v -1.272806 7.600822 0.259439
v -1.527657 7.257340 0.391968
v -2.150613 8.188614 0.608774
v -1.794827 7.414119 0.897788
v -1.711469 7.250150 0.375258
v -0.683337 9.733684 -1.811083
v -0.230328 10.021325 -2.176191
v -0.194609 9.222374 -1.331244
v -0.036457 9.181943 -1.438673
v 0.118435 9.166409 -1.998213
v -0.003885 10.003512 -2.318197
v 0.061272 9.245295 -1.301475
v -0.105249 10.183397 -2.164314
v 0.290971 9.943587 -1.389175
v -0.557304 10.271130 1.750102
v -0.938848 9.966048 1.975984
v -1.570156 9.414324 1.435190
v -1.165809 9.413782 0.750844
v -1.647948 10.060581 0.591748
v -0.617022 10.564931 1.566521
v -0.938531 9.340374 0.512813
v -0.363050 10.403244 1.494392
v -0.670023 9.680063 0.195941
v -0.025833 10.289540 0.901183
v -0.396451 8.997718 1.276147
v -0.980168 9.171350 0.691351
vn 0.1539 -0.3996 -0.9037
vn 0.7483 0.6519 -0.1229
vn 0.9008 -0.4240 -0.0934
vn -0.1972 -0.9392 0.2811
vn 0.2236 0.2112 0.9515
vn -0.3458 0.0658 0.9360
vn -0.8082 0.2917 0.5116
vn -0.4671 0.0673 -0.8816
vn -0.0113 0.8592 -0.5116
vn -0.3094 0.7872 -0.5335
vn 0.9622 -0.2023 -0.1825
vn 0.5659 0.8231 -0.0476
vn 0.2348 -0.1848 0.9543
vn -0.8877 -0.1358 0.4400
vn -0.5755 0.4935 -0.6521
vn -0.3015 -0.9158 -0.2655
vn 0.1962 -0.9631 0.1841
vn -0.7890 0.4961 -0.3624
vn 0.3126 -0.1767 -0.9333
vn -0.9066 0.1663 -0.3877
vn 0.2803 -0.7244 0.6298
vn 0.1862 -0.7193 0.6693
vn -0.6509 -0.0345 0.7584
vn -0.1538 0.8986 0.4109
vn -0.6002 0.2580 -0.7571
vn -0.4822 0.7093 -0.5142
vn -0.6865 -0.3834 -0.6179
vn 0.7475 0.5963 -0.2926
vn -0.4665 -0.8823 -0.0630
vn 0.6876 -0.0224 -0.7258
vn 0.6099 -0.7819 -0.1292
vn 0.5709 0.5369 0.6211
vn -0.1641 -0.5366 0.8277
vn -0.7226 -0.3354 0.6045
vn -0.6695 -0.7328 -0.1212
vn -0.7749 0.3490 -0.5270
vn 0.5825 -0.4356 -0.6862
vn 0.5927 0.3921 -0.7035
vn 0.7602 0.6124 0.2171
vn 0.6002 -0.3502 0.7191
vn -0.7730 -0.6315 0.0603
vn -0.4558 0.1340 -0.8799
vn -0.1606 0.2991 -0.9406
vn 0.7176 -0.6962 -0.0198
vn 0.6754 0.3416 0.6535
vn -0.9747 -0.0641 0.2142
vn 0.8710 -0.3560 -0.3387
vn -0.1458 -0.9243 0.3528
vn -0.3812 0.0835 0.9207
vn -0.3371 0.7498 -0.5693
vn -0.1958 -0.7689 -0.6086
vn 0.1542 0.7037 -0.6935
vn 0.4023 -0.4880 -0.7746
vn 0.3157 -0.7520 -0.5786
vn 0.9290 0.2143 -0.3018
vn 0.2287 -0.9535 -0.1961
vn -0.8209 -0.5453 0.1693
vn 0.5042 -0.4763 0.7203
vn -0.7604 -0.6452 0.0743
vn -0.6919 -0.3295 0.6424
vn -0.6502 0.6062 0.4580
vn -0.6680 0.4786 -0.5699
vn 0.2655 0.9411 -0.2093
vn 0.3628 0.8078 -0.4645
vn 0.8169 0.2717 -0.5088
vn 0.9860 0.0344 -0.1631
vn -0.4215 -0.4302 -0.7983
vn 0.4300 -0.8904 -0.1496
vn 0.7186 0.1882 0.6695
vn 0.1270 -0.4705 0.8732
vn 0.4040 0.5458 0.7341
vn -0.8140 0.3863 0.4338
vn -0.8546 0.0711 -0.5144
vn -0.7196 0.6126 0.3268
vn -0.3765 0.6313 -0.6781
vn -0.3249 -0.5485 -0.7705
vn -0.3415 -0.6255 -0.7015
vn -0.0059 -0.3987 -0.9170
vn -0.1879 0.8514 -0.4896
vn 0.8357 0.0954 0.5409
vn -0.6202 0.4412 0.6486
vn 0.8881 0.2611 -0.3783
vn 0.3826 -0.1803 -0.9061
vn 0.1104 -0.4190 -0.9013
vn -0.6691 0.7360 -0.1033
vn 0.6542 0.7540 -0.0593
vn 0.1374 -0.6242 -0.7691
vn 0.9760 0.2178 0.0095
vn 0.8272 -0.5172 -0.2198
vn 0.3229 -0.6425 0.6949
vn -0.3122 0.6431 0.6993
vn -0.9088 0.1358 -0.3945
vn 0.0110 0.8818 -0.4715
vn 0.1487 0.9393 -0.3093
vn 0.6557 0.3805 0.6522
vn 0.6104 -0.4139 0.6754
vn 0.9628 -0.2481 -0.1069
vn -0.5935 0.7001 0.3969
vn 0.3087 0.7306 -0.6090
vn -0.0153 -0.9837 0.1792
vn 0.1611 0.3142 -0.9356
vn 0.0643 0.9665 -0.2487
vn 0.6348 0.4271 0.6440
vn 0.6416 -0.6966 0.3210
vn -0.5970 -0.7728 -0.2154
vn 0.9533 0.0242 -0.3010
vn -0.1285 0.1651 0.9779
vn -0.7031 0.5734 -0.4206
vn -0.4349 0.3592 0.8257
vn -0.7049 0.5301 0.4712
vn -0.7308 -0.0569 -0.6802
vn 0.0214 0.7467 -0.6649
vn 0.3772 -0.7149 -0.5888
vn 0.5003 0.3814 -0.7774
vn 0.9108 -0.4040 -0.0850
vn 0.0231 -0.9807 0.1943
vn 0.0746 -0.9675 0.2415
vn -0.9061 -0.2221 -0.3601
vn 0.2398 0.6976 -0.6751
vn 0.9072 0.2965 0.2986
vn -0.1045 0.6271 0.7719
vn -0.5754 0.6621 0.4802
vn 0.0550 -0.2109 0.9760
vn -0.5562 0.6252 0.5475
vn 0.1082 -0.3707 0.9224
vn -0.7540 -0.4504 0.4782
vn 0.1475 -0.9685 0.2007
vn -0.1495 -0.5863 -0.7962
vn 0.7338 -0.3757 -0.5660
vn 0.8810 -0.1566 -0.4464
vn 0.9592 0.2453 -0.1403
vn 0.4646 -0.8457 0.2624
vn 0.7214 0.3079 0.6203
vn 0.0396 0.6247 0.7798
vn -0.6476 -0.1550 0.7461
vn -0.6506 -0.6579 -0.3794
vn -0.5081 0.7596 -0.4060
vn -0.6340 -0.6494 -0.4200
vn -0.3774 -0.0503 -0.9247
vn -0.5354 -0.0076 -0.8446
vn -0.0342 -0.9982 -0.0486
vn 0.8118 0.1867 -0.5533
vn 0.4708 -0.3126 0.8250
vn -0.6040 0.6876 0.4030
vn 0.0992 0.1614 0.9819
vn -0.7779 0.4878 -0.3962
vn -0.7879 0.3773 -0.4866
vn -0.8211 -0.4060 -0.4012
vn -0.5128 0.8071 0.2926
vn 0.5090 -0.4974 -0.7025
vn 0.6920 0.6623 0.2874
vn -0.0147 0.6864 0.7271
vn 0.5820 -0.6758 0.4523
vn -0.4015 0.3624 0.8411
vn -0.3758 0.1019 0.9211
vn 0.2882 -0.9050 0.3129
vn -0.0101 -0.9668 0.2552
vn -0.7849 0.5920 0.1829
vn 0.0120 0.5192 -0.8546
vn 0.6022 -0.3945 0.6940
vn 0.4358 0.4344 0.7883
vn 0.5293 -0.4832 0.6973
vn -0.1676 -0.7942 0.5841
vn -0.8874 0.1555 0.4340
vn -0.3374 -0.9413 0.0121
vn 0.9974 -0.0046 0.0716
vn 0.3069 0.4446 0.8415
vn -0.0464 0.9582 -0.2824
vn -0.7130 0.0469 0.6996
vn -0.8911 0.2197 -0.3971
vn 0.4877 -0.7789 -0.3942
vn 0.4474 -0.4448 0.7758
vn 0.2879 0.1713 0.9422
vn -0.3710 0.7675 0.5228
vn -0.7045 -0.0100 -0.7097
vn -0.8161 0.3123 -0.4862
vn -0.4432 -0.8945 -0.0594
vn 0.0633 -0.8038 0.5915
vn -0.5209 -0.8451 0.1203
vn -0.6050 0.7581 -0.2435
vn -0.5848 -0.7618 -0.2788
vn 0.8885 0.1591 -0.4305
vn 0.1811 -0.8677 0.4629
vn -0.3930 -0.1985 0.8978
vn -0.0670 -0.8601 0.5058
vn -0.6318 -0.5115 0.5823
vn -0.6259 0.6156 -0.4788
vn -0.5289 -0.7915 -0.3063
vn 0.0421 0.2264 -0.9731
vn -0.2031 -0.6543 -0.7284
vn -0.7644 0.5784 -0.2848
vn -0.3270 -0.3087 -0.8932
vn -0.9359 -0.3266 0.1319
vn 0.0110 -0.8335 0.5525
vn -0.9807 -0.0556 0.1875
vn -0.0441 -0.7547 0.6545
vn 0.1521 0.0308 0.9879
vn -0.8202 0.4235 0.3846
vn 0.7021 0.6094 0.3684
vn -0.6741 0.7322 -0.0980
vn 0.0395 -0.4783 -0.8773
vn 0.0976 -0.6577 -0.7470
vn -0.3377 -0.9218 -0.1903
vn 0.5079 0.0526 0.8598
vn -0.4365 -0.7809 0.4469
vn -0.9408 -0.0623 0.3333
vn -0.8431 0.2040 -0.4976
vn 0.6459 -0.1467 0.7492
vn 0.7959 -0.4330 -0.4231
vn -0.0363 -0.7954 0.6050
vn -0.1886 -0.8494 -0.4929
vn -0.4658 -0.6053 0.6455
vn -0.4027 -0.5602 -0.7239
vn -0.9859 0.0425 0.1619
vn -0.3521 -0.4870 -0.7993
vn -0.7355 0.6561 0.1691
vn 0.7211 0.1134 -0.6835
vn 0.2635 0.8434 -0.4682
vn -0.0605 -0.2514 -0.9660
vn 0.8709 -0.4591 -0.1755
vn 0.9208 -0.3900 -0.0121
vn -0.4870 0.1833 0.8539
vn -0.4244 0.2497 0.8703
vn -0.4628 0.8791 0.1141
vn -0.8438 -0.5366 0.0056
vn 0.5726 -0.6281 -0.5268
vn 0.5332 0.7163 -0.4501
vn -0.0984 0.4210 0.9017
vn 0.3276 0.4587 0.8260
vn -0.1607 -0.9488 0.2721
vn -0.9111 -0.3230 0.2560
vn -0.9789 -0.0622 -0.1948
vn -0.4541 -0.3752 -0.8081
vn -0.2796 -0.9588 -0.0508
vn 0.3981 -0.9073 0.1354
vn 0.9481 -0.2979 0.1115
vn 0.7676 0.6074 -0.2044
vn -0.3674 0.8188 0.4411
vn -0.5315 -0.2059 -0.8217
vn -0.1167 -0.6239 0.7728
vn -0.7555 0.5944 0.2755
vn -0.6834 -0.6086 -0.4033
vn 0.0668 0.5384 0.8400
vn -0.4874 -0.5334 -0.6914
vn -0.0482 0.9070 -0.4183
vn 0.5625 0.8102 0.1645
vn 0.8226 -0.3630 -0.4377
vn 0.3071 -0.7676 -0.5626
vn 0.8283 -0.2236 0.5137
vn 0.8451 -0.0894 0.5271
vn 0.6151 -0.2056 0.7612
vt 0.000000 0.000000
vt 1.000000 0.515767
vt 0.000000 1.000000
vt 1.000000 0.470894
vt 0.651685 1.000000
vt 1.000000 0.510684
vt 1.000000 0.473064
vt 1.000000 0.533496
vt 0.000000 0.620897
vt 1.000000 0.501693
vt 1.000000 0.801303
vt 0.444342 0.000000
vt 1.000000 1.000000
vt 0.000000 0.507073
vt 0.653003 0.000000
vt 1.000000 0.200229
vt 0.567713 0.000000
vt 1.000000 0.469075
vt 1.000000 0.516610
vt 0.410619 0.000000
vt 1.000000 0.461938
vt 1.000000 0.530104
vt 1.000000 0.497442
vt 1.000000 0.558520
vt 1.000000 0.323982
vt 1.000000 0.443888
vt 1.000000 0.510829
vt 1.000000 0.000000
vt 0.531427 1.000000
vt 1.000000 0.542692
vt 0.753229 0.493107
vt 0.484285 1.000000
vt 0.993911 0.000000
vt 1.000000 0.362601
vt 1.000000 0.483338
vt 1.009432 1.000000
vt 1.000000 0.459781
vt 1.000000 0.442739
vt 1.000000 0.482751
vt 0.444303 0.000000
vt 1.000000 0.525230
vt 0.497308 0.000000
vt 1.000000 0.502876
vt 0.563232 0.000000
vt 0.394462 0.000000
vt 1.000000 0.514773
vt 1.000000 0.500878
vt 1.000000 0.516770
vt 1.000000 0.458036
vt 1.000000 0.257908
vt 0.465660 1.000000
vt 1.000000 0.421687
vt 1.000000 0.449438
vt 0.464609 1.000000
vt 0.025838 0.000000
vt 1.000000 0.572021
vt 1.000000 0.495181
vt 1.000000 0.443275
vt 1.000000 0.605464
vt 1.000000 0.405901
vt 0.000000 0.566911
vt 1.000000 0.483777
vt 0.408184 0.000000
vt 0.998192 1.000000
vt 0.000000 0.472728
vt 0.486140 0.000000
vt 0.461160 0.769405
vt 0.349090 0.000000
vt 1.000000 0.315826
vt 1.003118 0.353613
vt 0.498120 1.000000
vt 1.000000 0.480624
vt 1.000000 0.553439
vt 1.000000 0.409139
vt 1.000000 0.499456
vt 1.000000 0.510567
vt 0.000000 0.557151
vt 1.000000 0.494280
vt 0.697741 1.000000
vt 1.000000 0.542902
vt 1.000000 0.467767
vt 1.000000 0.493162
vt 1.000000 0.573249
vt 1.000000 0.502321
vt 1.000000 0.365482
vt 0.503887 0.000000
vt 0.687324 0.000000
vt 1.000000 0.356170
vt 0.394746 1.000000
vt 1.000000 0.426383
vt 1.000000 0.682109
vt 1.000000 0.523649
vt 1.000000 0.519431
vt 0.388311 0.860444
vt 0.400752 0.000000
vt 1.000000 0.332325
vt 1.000000 0.467922
vt 1.000000 0.470120
vt 1.000000 0.499928
vt 1.000000 0.427074
vt 0.392332 1.000000
vt 1.000000 0.520963
vt 1.000000 0.460453
vt 1.000000 0.557642
vt 1.000000 0.516323
vt 1.000000 0.717584
vt 1.000000 0.510394
vt 0.463664 0.217180
vt 1.000000 0.494210
vt 1.000000 0.368902
vt 0.503975 0.000000
vt 1.000000 0.475547
vt 0.479078 1.000000
vt 0.366956 0.000000
vt 0.498607 1.000000
vt 0.486769 0.000000
vt 1.000000 0.628347
vt 1.000000 0.548548
vt 1.000000 0.483334
vt 1.000000 0.340749
vt 1.000000 0.492062
vt 1.000000 0.493718
vt 1.000000 0.477200
vt 0.126797 0.260057
vt 0.465670 1.000000
vt 1.000000 0.512262
vt 0.213380 0.404166
vt 0.497345 0.000000
vt 1.000000 0.518504
vt 1.000000 0.572501
vt 1.000000 0.824585
vt 0.505655 0.000000
vt 1.000000 0.158828
vt 0.000000 0.471931
vt 0.000000 0.468208
vt 0.000000 0.500584
vt 0.000000 0.489129
vt 0.538737 1.000000
vt 0.000000 0.498164
vt 0.270698 0.000000
vt 0.591549 1.000000
vt 0.000000 0.482576
vt 0.000000 0.515504
vt 0.424142 1.000000
vt 0.615946 0.000000
vt 0.467830 1.000000
vt 0.591549 0.000000
vt 0.000000 0.510511
vt 0.284291 0.367511
vt 0.000000 0.308910
vt 0.000000 0.551238
vt 0.547770 0.000000
vt 0.000000 0.482589
vt 0.467954 1.000000
vt 0.000000 0.529479
vt 0.560451 0.000000
vt 0.000000 0.444394
vt 0.786716 0.450110
vt 0.000000 0.552299
vt 0.451668 0.000000
vt 0.000000 0.523053
vt 0.000000 0.441901
vt 0.000000 0.397001
vt 0.422579 0.000000
vt 0.000000 0.496147
vt 0.386224 0.000000
vt 1.000000 0.607249
vt 0.463089 1.000000
vt 0.000000 0.498342
vt 0.588903 0.000000
vt 0.000000 0.593412
vt 0.000000 0.415872
vt 0.645217 1.000000
vt 0.000000 0.505839
vt 0.998659 0.564033
vt 0.462893 1.000000
vt 0.438523 0.000000
vt 0.000000 0.490681
vt 0.000000 0.779232
vt 0.000000 0.526412
vt 1.000000 0.638754
vt 0.000000 0.487732
vt 0.000000 0.608255
vt 0.000000 0.502229
vt 0.420669 1.000000
vt 0.000000 0.484828
vt 0.000000 0.499649
vt 0.000000 0.500357
vt 0.000000 0.538977
vt 0.000000 0.434403
vt 0.000000 0.472776
vt 0.555510 0.000000
vt 0.012395 0.491964
vt 0.000000 0.487630
vt 0.000000 0.495601
vt 0.520082 1.000000
vt 0.000000 0.311897
vt 0.504062 0.629198
vt 0.000000 0.495008
vt 0.000000 0.605464
vt 0.460099 1.000000
vt 0.000000 0.493927
vt 0.963162 0.000000
vt 0.000000 0.457751
vt 0.339455 0.000000
vt 1.000000 0.323929
vt 0.000000 0.495199
vt 0.000000 0.338186
vt 0.000000 0.510371
vt 0.451335 0.000000
vt 0.000000 0.606685
vt 0.000000 0.490300
vt 0.491637 1.000000
vt 0.000000 0.491445
vt 0.434394 1.000000
vt 0.452865 1.000000
vt 0.512568 0.000000
vt 0.000000 0.498230
vt 0.886122 0.000000
vt 0.000000 0.498546
vt 0.000000 0.506353
vt 0.000000 0.498260
vt 0.432499 0.785960
vt 0.000000 0.499998
vt 0.000000 0.478008
vt 0.447264 1.000000
vt 0.000000 0.500347
vt 1.000000 0.595384
vt 0.000000 0.499967
vt 0.492533 1.000000
vt 0.000000 0.495847
vt 0.000000 0.481048
vt 0.000000 0.360607
vt 0.000000 0.619352
vt 0.000000 0.498073
vt 0.656098 0.566977
vt 0.227839 1.000000
vt 0.453882 1.000000
vt 0.000000 0.501889
vt 0.000000 0.497038
vt 0.000000 0.501324
vt 0.000000 0.519414
vt 0.000000 0.494130
vt 0.016725 0.504431
vt 0.000000 0.479626
vt 0.000000 0.587459
vt 0.535379 0.000000
vt 0.000000 0.498664
vt 0.000000 0.349181
vt 0.412326 1.000000
vt 0.000000 0.497859
vt 0.645140 1.000000
vt 0.000000 0.528402
vt 0.000000 0.295667
vt 0.000000 0.524561
vt 0.245328 0.000000
vt 1.000000 0.605894
vt 0.600100 1.000000
vt 0.000000 0.509582
vt 0.409239 0.000000
vt 0.000000 0.487118
vt 0.439551 0.000000
vt 1.000000 0.467963
vt 0.000000 0.438337
vt 0.494201 0.000000
vt 1.000000 0.268127
vt 0.000000 0.501938
vt 0.000000 0.534094
vt 0.000000 0.554318
vt 0.743248 0.480097
vt 0.000000 0.501127
vt 0.000000 0.498892
vt 0.199153 0.600765
vt 0.000000 0.501664
vt 0.000000 0.499590
vt 0.000000 0.504767
vt 0.000000 0.511002
vt 0.000000 0.469822
vt 0.491301 0.000000
vt 0.000000 0.566162
vt 0.457476 1.000000
vt 0.563129 0.000000
vt 0.000000 0.664895
vt 0.507641 0.000000
vt 0.063113 1.000000
vt 0.000000 0.482561
vt 0.000000 0.358189
vt 0.709401 0.000000
vt 0.621031 1.000000
vt 0.535583 1.000000
vt 0.000000 0.528657
vt 0.000000 0.518514
vt 0.000000 0.300975
vt 0.000000 0.491273
vt 0.934377 1.000000
vt 0.000000 0.485798
vt 0.633033 1.000000
vt 0.000000 0.628774
vt 0.446278 0.000000
vt 1.000000 0.403053
vt 0.000000 0.476241
vt 0.999091 0.300587
vt 0.000000 0.524718
vt 0.666600 0.000000
vt 0.000000 0.497819
s 0
f 9/1/1 1/2/1 2/3/1
f 1/1/2 5/4/2 3/5/2
f 3/6/3 6/3/3 1/1/3
f 6/7/4 4/3/4 2/1/4
f 5/8/5 6/9/5 3/1/5
f 6/1/6 5/10/6 7/3/6
f 7/1/7 5/11/7 8/3/7
f 8/12/8 1/13/8 9/14/8
f 8/15/9 5/16/9 1/3/9
f 23/17/10 12/13/10 15/3/10
f 11/18/11 14/3/11 22/1/11
f 15/19/12 13/3/12 11/1/12
f 13/20/13 16/13/13 19/3/13
f 17/21/14 20/3/14 16/1/14
f 17/1/15 10/22/15 20/3/15
f 18/1/16 20/23/16 21/3/16
f 19/1/17 21/24/17 22/3/17
f 10/25/18 23/3/18 20/1/18
f 21/1/19 23/26/19 11/3/19
f 23/1/20 10/27/20 12/3/20
f 26/28/21 29/29/21 27/1/21
f 29/30/22 30/3/22 27/1/22
f 33/31/23 34/32/23 29/1/23
f 28/33/24 32/34/24 33/3/24
f 32/35/25 25/36/25 33/1/25
f 25/37/26 35/3/26 34/1/26
f 24/38/27 27/3/27 31/1/27
f 35/1/28 25/39/28 28/3/28
f 44/40/29 37/13/29 36/3/29
f 38/41/30 39/3/30 37/1/30
f 37/42/31 39/13/31 40/3/31
f 39/1/32 41/43/32 42/3/32
f 40/44/33 42/13/33 44/3/33
f 42/45/34 43/13/34 44/3/34
f 44/1/35 43/46/35 37/3/35
f 47/47/36 50/3/36 46/1/36
f 49/48/37 55/3/37 48/1/37
f 50/49/38 53/3/38 49/1/38
f 53/1/39 50/50/39 51/3/39
f 51/28/40 54/51/40 53/1/40
f 46/52/41 48/3/41 54/1/41
f 61/53/42 60/3/42 58/1/42
f 61/28/43 62/54/43 60/1/43
f 60/55/44 62/13/44 64/3/44
f 63/56/45 66/3/45 62/1/45
f 66/1/46 61/57/46 58/3/46
f 67/58/47 69/3/47 75/1/47
f 69/59/48 71/3/48 68/1/48
f 72/60/49 71/61/49 69/1/49
f 72/1/50 73/62/50 75/3/50
f 74/63/51 75/13/51 68/3/51
f 73/28/52 67/64/52 75/65/52
f 87/66/53 78/67/53 76/3/53
f 76/68/54 78/13/54 79/3/54
f 78/1/55 77/69/55 80/70/55
f 78/28/56 81/71/56 79/1/56
f 81/72/57 86/3/57 79/1/57
f 80/73/58 81/3/58 78/1/58
f 86/1/59 81/74/59 84/3/59
f 83/75/60 84/3/60 81/1/60
f 83/1/61 85/76/61 84/77/61
f 84/1/62 85/78/62 87/3/62
f 82/28/63 77/79/63 85/1/63
f 77/80/64 87/3/64 85/1/64
f 87/1/65 77/81/65 78/3/65
f 88/1/66 91/82/66 90/3/66
f 89/1/67 88/83/67 92/3/67
f 88/1/68 90/84/68 92/3/68
f 90/1/69 91/85/69 93/3/69
f 90/86/70 93/13/70 96/3/70
f 91/87/71 94/88/71 93/3/71
f 93/28/72 97/89/72 96/1/72
f 96/90/73 89/3/73 95/1/73
f 94/91/74 97/3/74 93/1/74
f 99/92/75 98/3/75 97/1/75
f 97/1/76 98/93/76 88/94/76
f 97/95/77 88/13/77 89/3/77
f 103/96/78 104/3/78 109/1/78
f 101/97/79 102/3/79 100/1/79
f 107/98/80 105/3/80 103/1/80
f 107/99/81 108/3/81 105/1/81
f 107/1/82 101/100/82 100/3/82
f 111/28/83 112/101/83 110/1/83
f 112/102/84 114/3/84 110/1/84
f 118/103/85 119/3/85 116/1/85
f 118/1/86 111/104/86 110/3/86
f 122/1/87 123/105/87 125/3/87
f 121/106/88 124/3/88 123/1/88
f 124/107/89 125/3/89 123/108/89
f 124/109/90 127/3/90 125/1/90
f 121/110/91 129/3/91 127/1/91
f 128/111/92 129/13/92 122/3/92
f 129/1/93 121/112/93 123/113/93
f 129/114/94 123/13/94 120/3/94
f 132/28/95 133/115/95 130/1/95
f 133/116/96 135/13/96 134/3/96
f 131/1/97 134/117/97 136/3/97
f 138/1/98 132/118/98 130/3/98
f 140/119/99 133/3/99 139/1/99
f 147/120/100 149/3/100 155/1/100
f 148/121/101 151/3/101 147/1/101
f 147/28/102 152/3/102 149/1/102
f 150/122/103 154/3/103 151/1/103
f 154/123/104 155/3/104 151/124/104
f 156/28/105 160/125/105 158/1/105
f 161/126/106 164/3/106 160/1/106
f 162/127/107 164/13/107 158/3/107
f 163/128/108 157/13/108 156/3/108
f 164/1/109 156/129/109 158/3/109
f 167/1/110 170/130/110 169/3/110
f 173/131/111 171/3/111 168/1/111
f 169/132/112 174/13/112 173/3/112
f 171/1/113 175/133/113 176/3/113
f 91/13/114 88/3/114 98/1/114 99/28/114
f 1/28/115 6/13/115 2/134/115
f 6/28/116 7/13/116 4/135/116
f 7/28/117 9/13/117 4/136/117
f 9/137/118 7/28/118 8/138/118
f 11/139/119 23/28/119 15/13/119
f 11/140/120 13/13/120 14/3/120
f 15/28/121 16/141/121 13/142/121
f 12/28/122 17/13/122 15/143/122
f 14/1/123 13/28/123 19/144/123
f 15/145/124 17/13/124 16/3/124
f 19/1/125 16/28/125 18/146/125
f 16/147/126 20/13/126 18/148/126
f 19/149/127 18/28/127 21/13/127
f 21/150/128 20/28/128 23/13/128
f 22/151/129 21/152/129 11/13/129
f 24/153/130 35/28/130 26/154/130
f 26/155/131 35/156/131 28/13/131
f 27/157/132 24/28/132 26/13/132
f 28/158/133 29/13/133 26/159/133
f 29/160/134 28/13/134 33/161/134
f 29/28/135 34/13/135 30/162/135
f 31/163/136 30/28/136 34/13/136
f 33/164/137 25/13/137 34/3/137
f 31/165/138 34/28/138 24/13/138
f 34/166/139 35/167/139 24/3/139
f 43/1/140 38/28/140 37/168/140
f 36/169/141 37/28/141 40/13/141
f 38/170/142 41/13/142 39/171/142
f 40/172/143 39/28/143 42/13/143
f 42/1/144 41/28/144 43/173/144
f 43/174/145 41/28/145 45/175/145
f 43/1/146 45/28/146 38/176/146
f 46/177/147 50/13/147 49/3/147
f 46/28/148 49/13/148 48/178/148
f 47/28/149 52/13/149 50/179/149
f 55/180/150 49/28/150 53/13/150
f 50/28/151 52/181/151 51/182/151
f 51/183/152 52/28/152 56/13/152
f 53/28/153 54/13/153 55/184/153
f 51/1/154 56/28/154 46/185/154
f 54/186/155 51/28/155 46/13/155
f 57/187/156 55/28/156 54/13/156
f 54/28/157 48/13/157 57/188/157
f 56/28/158 47/13/158 46/189/158
f 61/28/159 63/13/159 62/190/159
f 62/28/160 66/13/160 64/191/160
f 63/192/161 65/13/161 66/3/161
f 64/193/162 66/13/162 59/194/162
f 59/195/163 66/28/163 58/196/163
f 66/197/164 65/28/164 61/198/164
f 59/199/165 58/28/165 60/13/165
f 69/200/166 67/28/166 70/201/166
f 70/28/167 72/13/167 69/202/167
f 70/203/168 73/13/168 72/204/168
f 71/205/169 72/206/169 74/3/169
f 74/207/170 72/28/170 75/13/170
f 68/208/171 75/28/171 69/13/171
f 80/28/172 83/13/172 81/209/172
f 80/210/173 82/13/173 83/211/173
f 83/212/174 82/28/174 85/213/174
f 86/214/175 84/28/175 87/215/175
f 86/1/176 87/28/176 76/216/176
f 168/3/177 176/1/177 175/28/177 167/13/177
f 90/217/178 96/13/178 92/3/178
f 92/28/179 96/13/179 95/218/179
f 94/219/180 99/13/180 97/3/180
f 89/220/181 96/28/181 97/13/181
f 100/28/182 102/13/182 103/221/182
f 103/28/183 105/13/183 104/222/183
f 102/28/184 107/13/184 103/223/184
f 104/28/185 105/13/185 106/224/185
f 106/225/186 105/28/186 108/13/186
f 108/1/187 107/28/187 100/226/187
f 109/227/188 106/28/188 108/228/188
f 109/229/189 108/28/189 103/13/189
f 108/1/190 100/28/190 103/230/190
f 119/231/191 110/28/191 113/13/191
f 110/28/192 114/13/192 113/232/192
f 113/233/193 114/28/193 115/13/193
f 112/28/194 117/13/194 114/234/194
f 116/235/195 113/28/195 115/13/195
f 114/1/196 117/236/196 115/237/196
f 115/1/197 117/28/197 118/238/197
f 115/28/198 118/13/198 116/239/198
f 118/240/199 117/28/199 111/13/199
f 118/28/200 110/13/200 119/241/200
f 122/242/201 120/28/201 123/13/201
f 126/243/202 122/28/202 125/13/202
f 125/28/203 128/244/203 126/245/203
f 127/246/204 124/28/204 121/13/204
f 125/247/205 127/13/205 128/3/205
f 128/248/206 127/28/206 129/13/206
f 122/249/207 129/28/207 120/13/207
f 133/1/208 132/28/208 135/250/208
f 131/251/209 133/28/209 134/13/209
f 134/1/210 135/28/210 137/252/210
f 136/253/211 134/28/211 137/13/211
f 137/254/212 135/28/212 138/13/212
f 136/255/213 137/28/213 140/13/213
f 137/256/214 138/13/214 140/3/214
f 136/1/215 140/257/215 139/258/215
f 138/28/216 130/13/216 140/259/216
f 139/260/217 133/13/217 131/3/217
f 140/28/218 130/13/218 133/261/218
f 145/262/219 143/263/219 141/264/219
f 141/265/220 143/266/220 142/3/220
f 143/28/221 144/13/221 142/267/221
f 142/268/222 144/28/222 145/13/222
f 146/269/223 142/28/223 145/13/223
f 144/28/224 143/270/224 145/271/224
f 146/272/225 145/28/225 141/273/225
f 147/28/226 151/13/226 152/3/226
f 148/28/227 150/13/227 151/274/227
f 151/28/228 155/13/228 152/275/228
f 150/28/229 153/13/229 154/276/229
f 155/277/230 154/28/230 147/13/230
f 147/278/231 154/279/231 153/13/231
f 147/280/232 153/28/232 148/281/232
f 156/282/233 161/13/233 160/3/233
f 158/28/234 160/13/234 159/283/234
f 160/284/235 162/285/235 159/283/235
f 160/28/236 164/13/236 162/286/236
f 164/287/237 161/288/237 163/289/237
f 164/1/238 163/28/238 156/290/238
f 157/28/239 161/13/239 156/291/239
f 167/292/240 175/28/240 166/13/240
f 167/293/241 166/28/241 170/13/241
f 168/294/242 167/28/242 169/13/242
f 166/1/243 165/28/243 170/295/243
f 168/296/244 169/28/244 173/13/244
f 169/1/245 170/28/245 174/297/245
f 174/298/246 170/28/246 172/13/246
f 173/299/247 174/300/247 175/3/247
f 171/301/248 173/28/248 175/13/248
f 172/302/249 165/13/249 174/303/249
f 174/304/250 165/13/250 175/3/250
f 165/28/251 166/13/251 175/305/251
