# Blender 3.6.15
# www.blender.org
o Plane
v 1.499605 33.124180 -1.151460
v 2.257629 33.124180 -0.393437
v 2.909561 35.935577 -2.925110
v 3.845614 35.935577 -1.989057
v 4.031320 37.122074 -6.071002
v 6.971332 37.122074 -3.130988
v 5.809488 35.671604 -9.387339
v 10.318513 35.671604 -4.878308
v 8.976582 32.326309 -9.338937
v 10.239908 32.326309 -8.075609
v 0.419913 33.124180 -1.154025
v 1.491920 33.124180 -1.154025
v 0.162743 35.935577 -3.405174
v 1.486522 35.935577 -3.405173
v -1.268535 37.122074 -6.422859
v 2.889271 37.122074 -6.422857
v -2.356184 35.671604 -10.025217
v 4.020544 35.671604 -10.025213
v -0.082486 32.326309 -12.230465
v 1.704129 32.326309 -12.230465
v -0.345357 33.124180 -0.392380
v 0.412666 33.124180 -1.150404
v -2.119006 35.935577 -1.802336
v -1.182953 35.935577 -2.738389
v -5.264899 37.122074 -2.924095
v -2.324884 37.122074 -5.864107
v -8.581234 35.671604 -4.702263
v -4.072205 35.671604 -9.211287
v -8.532832 32.326309 -7.869356
v -7.269505 32.326309 -9.132683
v -0.347921 33.124180 0.687311
v -0.347921 33.124180 -0.384695
v -2.599070 35.935577 0.944481
v -2.599070 35.935577 -0.379298
v -5.616755 37.122074 2.375760
v -5.616754 37.122074 -1.782046
v -9.219113 35.671604 3.463408
v -9.219110 35.671604 -2.913319
v -11.424361 32.326309 1.189710
v -11.424359 32.326309 -0.596904
v 0.413723 33.124180 1.452582
v -0.344300 33.124180 0.694559
v -0.996233 35.935577 3.226230
v -1.932286 35.935577 2.290178
v -2.117992 37.122074 6.372123
v -5.058003 37.122074 3.432109
v -3.896160 35.671604 9.688458
v -8.405184 35.671604 5.179430
v -7.063252 32.326309 9.640057
v -8.326579 32.326309 8.376729
v 1.493415 33.124180 1.455146
v 0.421408 33.124180 1.455146
v 1.750585 35.935577 3.706294
v 0.426806 35.935577 3.706294
v 3.181863 37.122074 6.723980
v -0.975943 37.122074 6.723979
v 4.269512 35.671604 10.326338
v -2.107215 35.671604 10.326334
v 1.995814 32.326309 12.531586
v 0.209199 32.326309 12.531584
v 2.258685 33.124180 0.693502
v 1.500662 33.124180 1.451525
v 4.032334 35.935577 2.103457
v 3.096281 35.935577 3.039510
v 7.178226 37.122074 3.225216
v 4.238212 37.122074 6.165228
v 10.494562 35.671604 5.003385
v 5.985533 35.671604 9.512408
v 10.446160 32.326309 8.170477
v 9.182833 32.326309 9.433804
v 2.261249 33.124180 -0.386190
v 2.261250 33.124180 0.685817
v 4.512398 35.935577 -0.643360
v 4.512398 35.935577 0.680419
v 7.530084 37.122074 -2.074638
v 7.530082 37.122074 2.083168
v 11.132442 35.671604 -3.162287
v 11.132438 35.671604 3.214440
v 13.337689 32.326309 -0.888589
v 13.337687 32.326309 0.898025
v 1.930136 32.636650 -1.581992
v 2.688160 32.636650 -0.823969
v 3.220027 35.290890 -3.235576
v 4.159126 35.293846 -2.302568
v 3.978884 36.345608 -6.018566
v 6.918973 36.345596 -3.078629
v 5.474328 35.052143 -9.052178
v 9.983326 35.052170 -4.543122
v 8.516090 31.897011 -8.878447
v 9.779417 31.897011 -7.615119
v 0.419913 32.636650 -1.762888
v 1.491920 32.636650 -1.762888
v 0.162743 35.290890 -3.844239
v 1.486522 35.293846 -3.848545
v -1.268535 36.345608 -6.348702
v 2.889271 36.345596 -6.348810
v -2.356184 35.052143 -9.551229
v 4.020543 35.052170 -9.551188
v -0.082486 31.897011 -11.579233
v 1.704128 31.897011 -11.579233
v -0.775888 32.636650 -0.822912
v -0.017865 32.636650 -1.580935
v -2.429472 35.290890 -2.112803
v -1.496464 35.293846 -3.051901
v -5.212462 36.345608 -2.871659
v -2.272526 36.345596 -5.811748
v -8.246074 35.052143 -4.367103
v -3.737018 35.052170 -8.876101
v -8.072342 31.897011 -7.408865
v -6.809014 31.897011 -8.672192
v -0.956784 32.636650 0.687311
v -0.956785 32.636650 -0.384695
v -3.038135 35.290890 0.944481
v -3.042442 35.293846 -0.379298
v -5.542599 36.345608 2.375760
v -5.542707 36.345596 -1.782046
v -8.745126 35.052143 3.463409
v -8.745084 35.052170 -2.913318
v -10.773129 31.897011 1.189711
v -10.773128 31.897011 -0.596903
v -0.016808 32.636650 1.883113
v -0.774832 32.636650 1.125090
v -1.306699 35.290890 3.536697
v -2.245797 35.293846 2.603689
v -2.065555 36.345608 6.319686
v -5.005644 36.345596 3.379750
v -3.560999 35.052143 9.353298
v -8.069997 35.052170 4.844243
v -6.602762 31.897011 9.179566
v -7.866088 31.897011 7.916239
v 1.493415 32.636650 2.064009
v 0.421408 32.636650 2.064009
v 1.750584 35.290890 4.145360
v 0.426806 35.293846 4.149667
v 3.181863 36.345608 6.649824
v -0.975943 36.345596 6.649932
v 4.269512 35.052143 9.852350
v -2.107215 35.052170 9.852308
v 1.995814 31.897011 11.880354
v 0.209200 31.897011 11.880352
v 2.689216 32.636650 1.124033
v 1.931193 32.636650 1.882056
v 4.342800 35.290890 2.413924
v 3.409792 35.293846 3.353022
v 7.125790 36.345608 3.172780
v 4.185853 36.345596 6.112869
v 10.159402 35.052143 4.668224
v 5.650346 35.052170 9.177221
v 9.985670 31.897011 7.709987
v 8.722342 31.897011 8.973312
v 2.870112 32.636650 -0.386190
v 2.870113 32.636650 0.685817
v 4.951463 35.290890 -0.643360
v 4.955770 35.293846 0.680419
v 7.455927 36.345608 -2.074638
v 7.456035 36.345596 2.083168
v 10.658454 35.052143 -3.162287
v 10.658412 35.052170 3.214439
v 12.686458 31.897011 -0.888590
v 12.686456 31.897011 0.898025
v -5.760066 27.861387 -3.560856
v -5.483452 28.088421 -3.301402
v -5.817323 28.919655 -4.606487
v -5.475743 29.200008 -4.286098
v -5.568677 29.237598 -6.319656
v -4.382938 30.210804 -5.207474
v -4.554031 28.656895 -7.737674
v -2.735491 30.149475 -6.031947
v -2.932841 28.125355 -7.158961
v -2.471835 28.503729 -6.726554
v -6.423338 27.590927 -3.156412
v -6.152535 27.653713 -3.500067
v -7.628743 28.079992 -3.880543
v -7.294339 28.157526 -4.304908
v -9.265239 27.650272 -4.365399
v -8.104405 27.919415 -5.838520
v -10.277166 26.177364 -4.794402
v -8.496824 26.590143 -7.053690
v -9.249539 24.937328 -5.601864
v -8.798217 25.041969 -6.174602
v -6.142178 27.935919 -2.464615
v -6.418791 27.708885 -2.724068
v -7.204058 28.839417 -1.942454
v -7.545637 28.559063 -2.262843
v -7.970007 29.428268 -0.471251
v -9.155746 28.455063 -1.583433
v -8.346510 28.890354 1.245255
v -10.165050 27.397774 -0.460472
v -8.651793 27.115208 1.282051
v -9.112799 26.736832 0.849643
v -5.478904 28.206379 -2.869058
v -5.749707 28.143593 -2.525403
v -5.392637 29.679079 -2.668398
v -5.727041 29.601545 -2.244032
v -4.273446 31.015594 -2.425508
v -5.434279 30.746452 -0.952388
v -2.623375 31.369884 -1.698017
v -4.403717 30.957106 0.561272
v -2.335094 30.303232 -0.275046
v -2.786417 30.198591 0.297691
v -5.509223 27.726952 -3.710652
v -5.232609 27.953983 -3.451199
v -5.578093 28.720442 -4.687220
v -5.236014 29.002079 -4.368486
v -5.418576 28.933388 -6.213488
v -4.232802 29.906597 -5.101345
v -4.550097 28.387344 -7.505999
v -2.731573 29.879932 -5.800262
v -3.011905 27.937431 -6.910228
v -2.550899 28.315807 -6.477821
v -6.483410 27.291883 -3.258385
v -6.212607 27.354670 -3.602040
v -7.613722 27.762077 -3.926789
v -7.281016 27.839729 -4.352472
v -9.073284 27.368219 -4.265669
v -7.912480 27.637333 -5.738818
v -10.005724 26.049440 -4.603874
v -8.225377 26.462238 -6.863156
v -8.996055 24.925468 -5.404282
v -8.544732 25.030109 -5.977020
v -6.198948 27.730162 -2.224042
v -6.475562 27.503128 -2.483496
v -7.186656 28.588774 -1.741683
v -7.529911 28.309198 -2.060966
v -7.778497 29.133659 -0.417632
v -8.964265 28.160442 -1.529773
v -8.077907 28.682167 1.141058
v -9.896443 27.189600 -0.564685
v -8.401837 27.003569 1.113251
v -8.862844 26.625195 0.680843
v -5.224761 28.165230 -2.676310
v -5.495564 28.102442 -2.332655
v -5.151027 29.547138 -2.502114
v -5.484908 29.471546 -2.076981
v -4.123789 30.698828 -2.365451
v -5.284588 30.429707 -0.892300
v -2.622280 31.020071 -1.761066
v -4.402639 30.607294 0.498210
v -2.417688 30.015533 -0.392694
v -2.869011 29.910892 0.180043
vn -0.9080 0.4144 -0.0615
vn 0.1107 0.4426 0.8899
vn -0.0011 0.6021 0.7984
vn -0.8110 0.5850 0.0071
vn 0.3296 0.7696 0.5469
vn -0.5490 0.7671 -0.3319
vn 0.8645 0.4588 0.2052
vn -0.2018 0.4608 -0.8643
vn 0.9055 -0.2140 -0.3664
vn 0.3633 -0.2137 -0.9068
vn -0.6856 0.4144 0.5985
vn 0.7075 0.4426 0.5510
vn 0.5638 0.6021 0.5653
vn -0.5684 0.5850 0.5785
vn 0.6198 0.7696 0.1536
vn -0.6229 0.7671 0.1535
vn 0.7564 0.4588 -0.4662
vn -0.7538 0.4608 -0.4685
vn 0.3812 -0.2140 -0.8994
vn -0.3843 -0.2137 -0.8981
vn -0.0615 0.4144 0.9080
vn 0.8899 0.4426 -0.1107
vn 0.7984 0.6021 0.0011
vn 0.0071 0.5850 0.8110
vn 0.5469 0.7696 -0.3296
vn -0.3319 0.7671 0.5490
vn 0.2052 0.4588 -0.8645
vn -0.8643 0.4608 0.2018
vn -0.3664 -0.2140 -0.9055
vn -0.9068 -0.2137 -0.3633
vn 0.5985 0.4144 0.6856
vn 0.5510 0.4426 -0.7075
vn 0.5653 0.6021 -0.5638
vn 0.5785 0.5850 0.5684
vn 0.1536 0.7696 -0.6198
vn 0.1535 0.7671 0.6229
vn -0.4662 0.4588 -0.7564
vn -0.4685 0.4608 0.7538
vn -0.8994 -0.2140 -0.3812
vn -0.8981 -0.2137 0.3843
vn 0.9080 0.4144 0.0615
vn -0.1107 0.4426 -0.8899
vn 0.0011 0.6021 -0.7984
vn 0.8110 0.5850 -0.0071
vn -0.3296 0.7696 -0.5469
vn 0.5490 0.7671 0.3319
vn -0.8645 0.4588 -0.2052
vn 0.2018 0.4608 0.8643
vn -0.9055 -0.2140 0.3664
vn -0.3633 -0.2137 0.9068
vn 0.6856 0.4144 -0.5985
vn -0.7075 0.4426 -0.5510
vn -0.5638 0.6021 -0.5653
vn 0.5684 0.5850 -0.5785
vn -0.6198 0.7696 -0.1536
vn 0.6229 0.7671 -0.1535
vn -0.7564 0.4588 0.4662
vn 0.7538 0.4608 0.4685
vn -0.3812 -0.2140 0.8994
vn 0.3843 -0.2137 0.8981
vn 0.0615 0.4144 -0.9080
vn -0.8899 0.4426 0.1107
vn -0.7984 0.6021 -0.0011
vn -0.0071 0.5850 -0.8110
vn -0.5469 0.7696 0.3296
vn 0.3319 0.7671 -0.5490
vn -0.2052 0.4588 0.8645
vn 0.8643 0.4608 -0.2018
vn 0.3664 -0.2140 0.9055
vn 0.9068 -0.2137 0.3633
vn -0.5985 0.4144 -0.6856
vn -0.5510 0.4426 0.7075
vn -0.5653 0.6021 0.5638
vn -0.5785 0.5850 -0.5684
vn -0.1536 0.7696 0.6198
vn -0.1535 0.7671 -0.6229
vn 0.4662 0.4588 0.7564
vn 0.4685 0.4608 -0.7538
vn 0.8994 -0.2140 0.3812
vn 0.8981 -0.2137 -0.3843
vn -0.1087 -0.4855 -0.8674
vn -0.3424 -0.6498 -0.6786
vn 0.7028 -0.6365 0.3177
vn 0.8935 -0.4369 0.1034
vn -0.7646 -0.5764 -0.2883
vn 0.2872 -0.5775 0.7642
vn -0.7621 -0.5327 -0.3680
vn 0.3675 -0.5321 0.7628
vn -0.3622 -0.9092 -0.2053
vn 0.2034 -0.9106 0.3598
vn -0.6903 -0.4855 -0.5365
vn -0.7220 -0.6498 -0.2377
vn 0.7216 -0.6365 -0.2723
vn 0.7050 -0.4369 -0.5587
vn -0.7445 -0.5764 0.3368
vn 0.7435 -0.5775 0.3373
vn -0.7991 -0.5327 0.2787
vn 0.7992 -0.5321 0.2795
vn -0.4013 -0.9092 0.1110
vn 0.3983 -0.9106 0.1105
vn -0.8674 -0.4855 0.1087
vn -0.6786 -0.6498 0.3424
vn 0.3177 -0.6365 -0.7028
vn 0.1034 -0.4369 -0.8935
vn -0.2883 -0.5764 0.7646
vn 0.7642 -0.5775 -0.2872
vn -0.3680 -0.5327 0.7621
vn 0.7628 -0.5321 -0.3675
vn -0.2053 -0.9092 0.3622
vn 0.3598 -0.9106 -0.2034
vn -0.5365 -0.4855 0.6903
vn -0.2377 -0.6498 0.7220
vn -0.2723 -0.6365 -0.7216
vn -0.5587 -0.4369 -0.7050
vn 0.3368 -0.5764 0.7445
vn 0.3373 -0.5775 -0.7435
vn 0.2787 -0.5327 0.7991
vn 0.2795 -0.5321 -0.7992
vn 0.1110 -0.9092 0.4013
vn 0.1105 -0.9106 -0.3983
vn 0.1087 -0.4855 0.8674
vn 0.3424 -0.6498 0.6786
vn -0.7028 -0.6365 -0.3177
vn -0.8935 -0.4369 -0.1034
vn 0.7646 -0.5764 0.2883
vn -0.2872 -0.5775 -0.7642
vn 0.7621 -0.5327 0.3680
vn -0.3675 -0.5321 -0.7628
vn 0.3622 -0.9092 0.2053
vn -0.2034 -0.9106 -0.3598
vn 0.6903 -0.4855 0.5365
vn 0.7220 -0.6498 0.2377
vn -0.7216 -0.6365 0.2723
vn -0.7050 -0.4369 0.5587
vn 0.7445 -0.5764 -0.3368
vn -0.7435 -0.5775 -0.3373
vn 0.7991 -0.5327 -0.2787
vn -0.7992 -0.5321 -0.2795
vn 0.4013 -0.9092 -0.1110
vn -0.3983 -0.9106 -0.1105
vn 0.8674 -0.4855 -0.1087
vn 0.6786 -0.6498 -0.3424
vn -0.3177 -0.6365 0.7028
vn -0.1034 -0.4369 0.8935
vn 0.2883 -0.5764 -0.7646
vn -0.7642 -0.5775 0.2872
vn 0.3680 -0.5327 -0.7621
vn -0.7628 -0.5321 0.3675
vn 0.2053 -0.9092 -0.3622
vn -0.3598 -0.9106 0.2034
vn 0.5365 -0.4855 -0.6903
vn 0.2377 -0.6498 -0.7220
vn 0.2723 -0.6365 0.7216
vn 0.5587 -0.4369 0.7050
vn -0.3368 -0.5764 -0.7445
vn -0.3373 -0.5775 0.7435
vn -0.2787 -0.5327 -0.7991
vn -0.2795 -0.5321 0.7992
vn -0.1110 -0.9092 -0.4013
vn -0.1105 -0.9106 0.3983
vn -0.9958 -0.0865 -0.0306
vn -0.1084 0.6596 0.7437
vn -0.2769 0.7359 0.6179
vn -0.9902 0.1348 -0.0353
vn -0.0680 0.9520 0.2986
vn -0.8476 0.3088 -0.4315
vn 0.6045 0.7939 -0.0658
vn -0.3278 0.0283 -0.9443
vn 0.9039 0.0019 -0.4278
vn 0.5079 -0.3228 -0.7987
vn -0.2455 0.5607 0.7908
vn 0.5646 0.7580 -0.3266
vn 0.3912 0.8827 -0.2602
vn -0.2891 0.7143 0.6374
vn 0.0954 0.8118 -0.5760
vn -0.6660 0.6329 0.3948
vn -0.0670 0.1659 -0.9839
vn -0.9835 -0.0472 0.1744
vn -0.1983 -0.6967 -0.6894
vn -0.5855 -0.7862 -0.1976
vn 0.5957 0.7878 -0.1565
vn -0.3189 0.0893 -0.9436
vn -0.3186 0.3080 -0.8964
vn 0.4110 0.8807 -0.2356
vn -0.6763 0.3528 -0.6467
vn 0.1063 0.9907 0.0847
vn -0.9857 -0.1257 -0.1125
vn -0.0539 0.6409 0.7657
vn -0.5775 -0.5741 0.5805
vn -0.1816 -0.2492 0.9513
vn -0.1546 0.1406 -0.9779
vn -0.9919 -0.0090 0.1268
vn -0.9868 0.1612 -0.0184
vn -0.2902 0.3012 -0.9083
vn -0.8397 0.4929 0.2279
vn -0.0753 0.6666 -0.7416
vn -0.3142 0.5023 0.8056
vn 0.6018 0.7164 -0.3530
vn 0.5247 0.1245 0.8421
vn 0.9118 0.2142 0.3502
vn 0.1311 -0.6892 -0.7126
vn -0.0190 -0.8954 -0.4448
vn 0.9145 -0.1245 0.3849
vn 0.9944 0.0717 0.0781
vn -0.3892 -0.9203 -0.0390
vn 0.5377 -0.1622 0.8274
vn -0.3764 -0.9087 -0.1807
vn 0.6330 -0.0771 0.7703
vn 0.0792 -0.9816 0.1735
vn 0.5203 -0.6202 0.5871
vn -0.5243 -0.7844 0.3314
vn -0.2657 -0.7588 0.5946
vn 0.6035 -0.5569 -0.5706
vn 0.2932 -0.5565 -0.7774
vn 0.0402 -0.4235 0.9050
vn 0.9452 -0.2158 -0.2449
vn -0.0943 -0.4645 0.8805
vn 0.8973 -0.2320 -0.3755
vn 0.3635 -0.7025 0.6118
vn 0.7953 -0.6028 0.0643
vn 0.3377 -0.1325 0.9319
vn 0.6446 -0.2014 0.7375
vn -0.3027 -0.9480 -0.0988
vn -0.5725 -0.8112 0.1192
vn 0.9512 -0.0647 0.3019
vn 0.0258 -0.8255 -0.5639
vn 0.9039 -0.0160 0.4274
vn -0.1071 -0.8448 -0.5243
vn 0.7974 -0.5551 0.2365
vn 0.3568 -0.9173 -0.1768
vn 0.9930 -0.0372 -0.1121
vn 0.8914 -0.3379 -0.3020
vn 0.0083 -0.5156 0.8568
vn 0.1286 -0.1829 0.9747
vn 0.5218 -0.5616 -0.6422
vn -0.3818 -0.7718 0.5084
vn 0.6218 -0.4601 -0.6338
vn -0.3714 -0.6898 0.6214
vn 0.5131 -0.8343 -0.2018
vn 0.0818 -0.9347 0.3460
vt 0.000000 0.000000
vt 1.000000 0.000000
vt 1.000000 0.805319
vt 0.000000 0.805319
vt 1.000000 0.967144
vt 0.000000 0.967144
vt 1.000000 1.000000
vt 0.000000 1.000000
s 1
f 1/1/1 2/2/2 4/3/3 3/4/4
f 3/4/4 4/3/3 6/5/5 5/6/6
f 5/6/6 6/5/5 8/7/7 7/8/8
f 7/8/8 8/7/7 10/7/9 9/8/10
f 11/1/11 12/2/12 14/3/13 13/4/14
f 13/4/14 14/3/13 16/5/15 15/6/16
f 15/6/16 16/5/15 18/7/17 17/8/18
f 17/8/18 18/7/17 20/7/19 19/8/20
f 21/1/21 22/2/22 24/3/23 23/4/24
f 23/4/24 24/3/23 26/5/25 25/6/26
f 25/6/26 26/5/25 28/7/27 27/8/28
f 27/8/28 28/7/27 30/7/29 29/8/30
f 31/1/31 32/2/32 34/3/33 33/4/34
f 33/4/34 34/3/33 36/5/35 35/6/36
f 35/6/36 36/5/35 38/7/37 37/8/38
f 37/8/38 38/7/37 40/7/39 39/8/40
f 41/1/41 42/2/42 44/3/43 43/4/44
f 43/4/44 44/3/43 46/5/45 45/6/46
f 45/6/46 46/5/45 48/7/47 47/8/48
f 47/8/48 48/7/47 50/7/49 49/8/50
f 51/1/51 52/2/52 54/3/53 53/4/54
f 53/4/54 54/3/53 56/5/55 55/6/56
f 55/6/56 56/5/55 58/7/57 57/8/58
f 57/8/58 58/7/57 60/7/59 59/8/60
f 61/1/61 62/2/62 64/3/63 63/4/64
f 63/4/64 64/3/63 66/5/65 65/6/66
f 65/6/66 66/5/65 68/7/67 67/8/68
f 67/8/68 68/7/67 70/7/69 69/8/70
f 71/1/71 72/2/72 74/3/73 73/4/74
f 73/4/74 74/3/73 76/5/75 75/6/76
f 75/6/76 76/5/75 78/7/77 77/8/78
f 77/8/78 78/7/77 80/7/79 79/8/80
f 81/1/81 83/4/82 84/3/83 82/2/84
f 83/4/82 85/6/85 86/5/86 84/3/83
f 85/6/85 87/8/87 88/7/88 86/5/86
f 87/8/87 89/8/89 90/7/90 88/7/88
f 91/1/91 93/4/92 94/3/93 92/2/94
f 93/4/92 95/6/95 96/5/96 94/3/93
f 95/6/95 97/8/97 98/7/98 96/5/96
f 97/8/97 99/8/99 100/7/100 98/7/98
f 101/1/101 103/4/102 104/3/103 102/2/104
f 103/4/102 105/6/105 106/5/106 104/3/103
f 105/6/105 107/8/107 108/7/108 106/5/106
f 107/8/107 109/8/109 110/7/110 108/7/108
f 111/1/111 113/4/112 114/3/113 112/2/114
f 113/4/112 115/6/115 116/5/116 114/3/113
f 115/6/115 117/8/117 118/7/118 116/5/116
f 117/8/117 119/8/119 120/7/120 118/7/118
f 121/1/121 123/4/122 124/3/123 122/2/124
f 123/4/122 125/6/125 126/5/126 124/3/123
f 125/6/125 127/8/127 128/7/128 126/5/126
f 127/8/127 129/8/129 130/7/130 128/7/128
f 131/1/131 133/4/132 134/3/133 132/2/134
f 133/4/132 135/6/135 136/5/136 134/3/133
f 135/6/135 137/8/137 138/7/138 136/5/136
f 137/8/137 139/8/139 140/7/140 138/7/138
f 141/1/141 143/4/142 144/3/143 142/2/144
f 143/4/142 145/6/145 146/5/146 144/3/143
f 145/6/145 147/8/147 148/7/148 146/5/146
f 147/8/147 149/8/149 150/7/150 148/7/148
f 151/1/151 153/4/152 154/3/153 152/2/154
f 153/4/152 155/6/155 156/5/156 154/3/153
f 155/6/155 157/8/157 158/7/158 156/5/156
f 157/8/157 159/8/159 160/7/160 158/7/158
f 1/1/1 3/4/4 83/4/82 81/1/81
f 4/3/3 2/2/2 82/2/84 84/3/83
f 3/4/4 5/6/6 85/6/85 83/4/82
f 6/5/5 4/3/3 84/3/83 86/5/86
f 5/6/6 7/8/8 87/8/87 85/6/85
f 8/7/7 6/5/5 86/5/86 88/7/88
f 9/8/10 10/7/9 90/7/90 89/8/89
f 7/8/8 9/8/10 89/8/89 87/8/87
f 10/7/9 8/7/7 88/7/88 90/7/90
f 11/1/11 13/4/14 93/4/92 91/1/91
f 14/3/13 12/2/12 92/2/94 94/3/93
f 13/4/14 15/6/16 95/6/95 93/4/92
f 16/5/15 14/3/13 94/3/93 96/5/96
f 15/6/16 17/8/18 97/8/97 95/6/95
f 18/7/17 16/5/15 96/5/96 98/7/98
f 19/8/20 20/7/19 100/7/100 99/8/99
f 17/8/18 19/8/20 99/8/99 97/8/97
f 20/7/19 18/7/17 98/7/98 100/7/100
f 21/1/21 23/4/24 103/4/102 101/1/101
f 24/3/23 22/2/22 102/2/104 104/3/103
f 23/4/24 25/6/26 105/6/105 103/4/102
f 26/5/25 24/3/23 104/3/103 106/5/106
f 25/6/26 27/8/28 107/8/107 105/6/105
f 28/7/27 26/5/25 106/5/106 108/7/108
f 29/8/30 30/7/29 110/7/110 109/8/109
f 27/8/28 29/8/30 109/8/109 107/8/107
f 30/7/29 28/7/27 108/7/108 110/7/110
f 31/1/31 33/4/34 113/4/112 111/1/111
f 34/3/33 32/2/32 112/2/114 114/3/113
f 33/4/34 35/6/36 115/6/115 113/4/112
f 36/5/35 34/3/33 114/3/113 116/5/116
f 35/6/36 37/8/38 117/8/117 115/6/115
f 38/7/37 36/5/35 116/5/116 118/7/118
f 39/8/40 40/7/39 120/7/120 119/8/119
f 37/8/38 39/8/40 119/8/119 117/8/117
f 40/7/39 38/7/37 118/7/118 120/7/120
f 41/1/41 43/4/44 123/4/122 121/1/121
f 44/3/43 42/2/42 122/2/124 124/3/123
f 43/4/44 45/6/46 125/6/125 123/4/122
f 46/5/45 44/3/43 124/3/123 126/5/126
f 45/6/46 47/8/48 127/8/127 125/6/125
f 48/7/47 46/5/45 126/5/126 128/7/128
f 49/8/50 50/7/49 130/7/130 129/8/129
f 47/8/48 49/8/50 129/8/129 127/8/127
f 50/7/49 48/7/47 128/7/128 130/7/130
f 51/1/51 53/4/54 133/4/132 131/1/131
f 54/3/53 52/2/52 132/2/134 134/3/133
f 53/4/54 55/6/56 135/6/135 133/4/132
f 56/5/55 54/3/53 134/3/133 136/5/136
f 55/6/56 57/8/58 137/8/137 135/6/135
f 58/7/57 56/5/55 136/5/136 138/7/138
f 59/8/60 60/7/59 140/7/140 139/8/139
f 57/8/58 59/8/60 139/8/139 137/8/137
f 60/7/59 58/7/57 138/7/138 140/7/140
f 61/1/61 63/4/64 143/4/142 141/1/141
f 64/3/63 62/2/62 142/2/144 144/3/143
f 63/4/64 65/6/66 145/6/145 143/4/142
f 66/5/65 64/3/63 144/3/143 146/5/146
f 65/6/66 67/8/68 147/8/147 145/6/145
f 68/7/67 66/5/65 146/5/146 148/7/148
f 69/8/70 70/7/69 150/7/150 149/8/149
f 67/8/68 69/8/70 149/8/149 147/8/147
f 70/7/69 68/7/67 148/7/148 150/7/150
f 71/1/71 73/4/74 153/4/152 151/1/151
f 74/3/73 72/2/72 152/2/154 154/3/153
f 73/4/74 75/6/76 155/6/155 153/4/152
f 76/5/75 74/3/73 154/3/153 156/5/156
f 75/6/76 77/8/78 157/8/157 155/6/155
f 78/7/77 76/5/75 156/5/156 158/7/158
f 79/8/80 80/7/79 160/7/160 159/8/159
f 77/8/78 79/8/80 159/8/159 157/8/157
f 80/7/79 78/7/77 158/7/158 160/7/160
f 161/1/161 162/2/162 164/3/163 163/4/164
f 163/4/164 164/3/163 166/5/165 165/6/166
f 165/6/166 166/5/165 168/7/167 167/8/168
f 167/8/168 168/7/167 170/7/169 169/8/170
f 171/1/171 172/2/172 174/3/173 173/4/174
f 173/4/174 174/3/173 176/5/175 175/6/176
f 175/6/176 176/5/175 178/7/177 177/8/178
f 177/8/178 178/7/177 180/7/179 179/8/180
f 181/1/181 182/2/182 184/3/183 183/4/184
f 183/4/184 184/3/183 186/5/185 185/6/186
f 185/6/186 186/5/185 188/7/187 187/8/188
f 187/8/188 188/7/187 190/7/189 189/8/190
f 191/1/191 192/2/192 194/3/193 193/4/194
f 193/4/194 194/3/193 196/5/195 195/6/196
f 195/6/196 196/5/195 198/7/197 197/8/198
f 197/8/198 198/7/197 200/7/199 199/8/200
f 201/1/201 203/4/202 204/3/203 202/2/204
f 203/4/202 205/6/205 206/5/206 204/3/203
f 205/6/205 207/8/207 208/7/208 206/5/206
f 207/8/207 209/8/209 210/7/210 208/7/208
f 211/1/211 213/4/212 214/3/213 212/2/214
f 213/4/212 215/6/215 216/5/216 214/3/213
f 215/6/215 217/8/217 218/7/218 216/5/216
f 217/8/217 219/8/219 220/7/220 218/7/218
f 221/1/221 223/4/222 224/3/223 222/2/224
f 223/4/222 225/6/225 226/5/226 224/3/223
f 225/6/225 227/8/227 228/7/228 226/5/226
f 227/8/227 229/8/229 230/7/230 228/7/228
f 231/1/231 233/4/232 234/3/233 232/2/234
f 233/4/232 235/6/235 236/5/236 234/3/233
f 235/6/235 237/8/237 238/7/238 236/5/236
f 237/8/237 239/8/239 240/7/240 238/7/238
f 161/1/161 163/4/164 203/4/202 201/1/201
f 164/3/163 162/2/162 202/2/204 204/3/203
f 163/4/164 165/6/166 205/6/205 203/4/202
f 166/5/165 164/3/163 204/3/203 206/5/206
f 165/6/166 167/8/168 207/8/207 205/6/205
f 168/7/167 166/5/165 206/5/206 208/7/208
f 169/8/170 170/7/169 210/7/210 209/8/209
f 167/8/168 169/8/170 209/8/209 207/8/207
f 170/7/169 168/7/167 208/7/208 210/7/210
f 171/1/171 173/4/174 213/4/212 211/1/211
f 174/3/173 172/2/172 212/2/214 214/3/213
f 173/4/174 175/6/176 215/6/215 213/4/212
f 176/5/175 174/3/173 214/3/213 216/5/216
f 175/6/176 177/8/178 217/8/217 215/6/215
f 178/7/177 176/5/175 216/5/216 218/7/218
f 179/8/180 180/7/179 220/7/220 219/8/219
f 177/8/178 179/8/180 219/8/219 217/8/217
f 180/7/179 178/7/177 218/7/218 220/7/220
f 181/1/181 183/4/184 223/4/222 221/1/221
f 184/3/183 182/2/182 222/2/224 224/3/223
f 183/4/184 185/6/186 225/6/225 223/4/222
f 186/5/185 184/3/183 224/3/223 226/5/226
f 185/6/186 187/8/188 227/8/227 225/6/225
f 188/7/187 186/5/185 226/5/226 228/7/228
f 189/8/190 190/7/189 230/7/230 229/8/229
f 187/8/188 189/8/190 229/8/229 227/8/227
f 190/7/189 188/7/187 228/7/228 230/7/230
f 191/1/191 193/4/194 233/4/232 231/1/231
f 194/3/193 192/2/192 232/2/234 234/3/233
f 193/4/194 195/6/196 235/6/235 233/4/232
f 196/5/195 194/3/193 234/3/233 236/5/236
f 195/6/196 197/8/198 237/8/237 235/6/235
f 198/7/197 196/5/195 236/5/236 238/7/238
f 199/8/200 200/7/199 240/7/240 239/8/239
f 197/8/198 199/8/200 239/8/239 237/8/237
f 200/7/199 198/7/197 238/7/238 240/7/240
