# Blender 3.6.15
# www.blender.org
o Cylinder.001
v 1.648719 -0.371804 -3.009234
v -3.478119 18.252403 -0.867630
v -2.521569 18.232126 -3.284424
v 2.229976 5.510097 -1.033528
v 3.302285 -0.371804 -0.387394
v -1.234667 18.223854 -2.077492
v -1.655428 19.593985 -0.740699
v 2.073128 -0.371804 3.459718
v -3.109367 22.414896 -1.223866
v -1.971326 -0.371804 2.877109
v -2.417987 22.453676 -2.256319
v -1.579771 9.908803 0.998778
v -1.188727 22.521811 -1.525776
v -1.897349 22.333052 -0.374301
v -3.360213 -0.371804 0.523275
v -4.490541 25.691660 -2.174972
v -5.882143 27.766619 -3.424244
v -1.905608 8.718164 -2.088308
v -3.377121 26.297672 -2.580605
v -1.841994 -0.371804 -2.845168
v -5.782915 28.103109 -2.572340
v -6.249812 27.635937 -2.865372
v 1.812963 16.054033 -1.395202
v 1.185800 14.464433 1.715592
v -1.123622 15.666507 -2.177195
v -1.238083 23.483137 1.600985
v -0.884540 19.995140 -0.648841
v 1.764142 27.004541 1.636855
v -0.142516 28.835785 0.523591
v -5.620808 28.195259 -3.162931
v -1.682358 13.340431 -0.813719
v -0.755915 18.119387 -1.281306
v -1.903965 19.751673 0.232507
v 1.084362 23.334951 -0.239355
v 0.537652 28.728456 1.519639
v -0.067745 25.813253 -0.294657
v 2.117638 29.291248 0.274614
v 0.254171 24.040491 2.709229
v 1.264824 33.290348 0.897863
v 1.646434 33.288700 -0.216916
v 0.595636 33.289097 -0.544894
v 1.325022 29.920435 -0.679825
v 0.245190 33.288105 0.440721
v -0.559454 14.425593 1.403602
v -1.036420 19.273088 2.182512
v 1.295109 19.166872 -0.352476
v 1.735885 20.811478 1.292750
v 0.695105 19.728851 2.747943
v 1.532742 9.906462 -2.171242
v 2.638485 12.878080 0.136363
v -2.132845 9.913499 -0.438702
v -0.929357 12.383259 -1.890528
v 0.034632 10.208857 -2.703211
v -3.301158 4.116213 -0.015892
v 1.696313 5.916633 1.677705
v 0.197452 10.500063 1.807013
v -2.342551 4.291830 -2.529135
v 0.144329 33.015770 -1.810590
v 0.616723 34.152477 -0.670130
v 1.768999 33.015770 -1.810590
v 1.296605 34.152477 -0.670130
v 2.917815 33.015770 -0.661775
v 1.777355 34.152477 -0.189381
v 2.917815 33.015770 0.962896
v 1.777355 34.152477 0.490502
v 1.768999 33.015770 2.111712
v 1.296605 34.152477 0.971251
v 0.144329 33.015770 2.111711
v 0.616723 34.152477 0.971251
v -1.004487 33.015770 0.962896
v 0.135973 34.152477 0.490502
v -1.004487 33.015770 -0.661775
v 0.135973 34.152477 -0.189381
v 0.144329 32.310192 -1.810590
v 1.768999 32.310192 -1.810590
v 2.917815 32.310192 -0.661775
v 2.917815 32.310192 0.962896
v 1.768999 32.310192 2.111712
v 0.144329 32.310192 2.111711
v -1.004487 32.310192 0.962896
v -1.004487 32.310192 -0.661775
v -6.395233 27.783768 -3.801970
v -6.308982 28.144587 -3.405801
v -5.850023 28.112263 -3.898551
v -6.080826 28.282053 -3.446217
v -5.452748 28.454845 -3.525323
v -5.914576 28.425415 -3.290031
v -5.436125 28.610836 -2.900919
v -5.907620 28.490692 -3.028734
v -5.809893 28.488857 -2.391106
v -6.064033 28.439648 -2.815391
v -6.355103 28.160364 -2.294527
v -6.292188 28.302181 -2.774975
v -6.752378 27.817780 -2.667755
v -6.458438 28.158819 -2.931161
v -6.769001 27.661789 -3.292159
v -6.465394 28.093542 -3.192458
v -6.091375 27.337141 -3.675850
v -5.546166 27.665636 -3.772431
v -5.148889 28.008219 -3.399203
v -5.132267 28.164209 -2.774798
v -5.506035 28.042231 -2.264985
v -6.051244 27.713737 -2.168405
v -6.448519 27.371153 -2.541634
v -6.465142 27.215162 -3.166038
vn -0.7415 0.1642 0.6505
vn -0.9895 0.0976 0.1064
vn -0.5408 0.1237 0.8320
vn -0.7430 0.1809 -0.6444
vn -0.6614 0.0528 -0.7482
vn 0.9927 0.0272 0.1175
vn 0.3301 -0.0649 0.9417
vn 0.8745 0.1304 0.4671
vn -0.1549 0.0578 0.9862
vn -0.5795 -0.0687 0.8121
vn -0.0268 0.1155 -0.9929
vn -0.7805 -0.0052 -0.6252
vn -0.0299 -0.0767 -0.9966
vn -0.6561 -0.0859 0.7497
vn -0.8892 0.1689 0.4252
vn -0.9550 0.2843 0.0848
vn -0.1847 0.3127 -0.9317
vn 0.5418 -0.0255 -0.8401
vn 0.5855 0.2639 -0.7665
vn 0.2965 -0.0614 0.9530
vn -0.0999 0.1391 0.9852
vn 0.8228 0.1586 -0.5457
vn -0.2677 -0.1659 -0.9491
vn 0.3436 0.9199 0.1887
vn 0.4953 0.3408 -0.7991
vn -0.9418 -0.1492 0.3013
vn 0.2583 0.2148 0.9419
vn 0.9478 0.2897 -0.1335
vn -0.1060 -0.0191 -0.9942
vn 0.1071 0.4943 0.8627
vn -0.7830 -0.2538 0.5678
vn 0.6524 0.6536 -0.3837
vn 0.7796 0.5783 -0.2403
vn -0.0788 -0.2676 -0.9603
vn -0.9489 -0.0937 0.3013
vn -0.7599 -0.5934 0.2654
vn -0.9956 -0.0342 -0.0871
vn 0.9884 0.0246 0.1498
vn 0.7114 0.1046 0.6949
vn 0.9893 0.0349 -0.1419
vn -0.3883 0.1937 0.9009
vn -0.4743 0.0548 -0.8786
vn -0.9850 0.1452 0.0929
vn 0.3235 -0.0128 -0.9461
vn 0.8732 0.1573 -0.4613
vn 0.4005 0.2273 0.8876
vn -0.4519 0.1048 -0.8859
vn -0.9215 0.1633 0.3523
vn 0.6504 0.2034 -0.7319
vn 0.9857 0.0617 -0.1567
vn -0.9781 0.2077 0.0126
vn -0.5376 -0.0217 -0.8429
vn 0.4809 0.0650 -0.8744
vn 0.5262 0.1778 0.8315
vn 0.9840 0.1396 -0.1108
vn 0.6617 0.0620 -0.7472
vn -0.9951 0.0135 0.0980
vn -0.3556 0.3695 -0.8585
vn -0.1672 0.8995 -0.4036
vn 0.1672 0.8995 -0.4036
vn 0.3556 0.3695 -0.8585
vn 0.4036 0.8995 -0.1672
vn 0.8585 0.3695 -0.3556
vn 0.4036 0.8995 0.1672
vn 0.8585 0.3695 0.3556
vn 0.1672 0.8995 0.4036
vn 0.3556 0.3695 0.8585
vn -0.1672 0.8995 0.4036
vn -0.3556 0.3695 0.8585
vn -0.4036 0.8995 0.1672
vn -0.8585 0.3695 0.3556
vn -0.4036 0.8995 -0.1672
vn -0.8585 0.3695 -0.3556
vn 0.2971 -0.6303 0.7173
vn 0.7173 -0.6303 0.2971
vn -0.2971 -0.6303 -0.7173
vn 0.2971 -0.6303 -0.7173
vn 0.7173 -0.6303 -0.2971
vn -0.2971 -0.6303 0.7173
vn -0.7173 -0.6303 0.2971
vn -0.7173 -0.6303 -0.2971
vn -0.5687 0.0539 -0.8208
vn -0.5908 0.7227 -0.3588
vn -0.4557 0.8030 -0.3842
vn -0.0167 0.3913 -0.9201
vn -0.3529 0.8885 -0.2932
vn 0.3828 0.7476 -0.5428
vn -0.3447 0.9292 -0.1336
vn 0.3955 0.9140 0.0909
vn -0.4403 0.8979 -0.0007
vn 0.0132 0.7925 0.6097
vn -0.5818 0.8130 0.0224
vn -0.5398 0.4544 0.7086
vn -0.6818 0.7275 -0.0763
vn -0.9389 0.0982 0.3300
vn -0.6836 0.6914 -0.2336
vn -0.9505 -0.0675 -0.3034
vn 0.6011 -0.1754 0.7797
vn 0.9495 -0.0662 0.3068
vn 0.0784 -0.8531 -0.5158
vn 0.5759 -0.5475 -0.6071
vn 0.9375 -0.2214 -0.2684
vn 0.0980 -0.4850 0.8690
vn -0.2612 -0.8110 0.5235
vn -0.2676 -0.9623 -0.0496
vt 0.158992 0.308262
vt 0.160565 0.138268
vt 0.271935 0.038597
vt 0.079797 0.250290
vt 0.092328 0.132861
vt 0.247677 0.443640
vt 0.180396 0.461368
vt 0.305535 0.254578
vt 0.205057 0.346835
vt 0.132450 0.442989
vt 0.023728 0.284617
vt 0.044365 0.347543
vt 0.003730 0.419081
vt 0.094804 0.571397
vt 0.059674 0.676014
vt 0.034758 0.569153
vt 0.278193 0.629116
vt 0.205998 0.708070
vt 0.230559 0.596897
vt 0.137695 0.592963
vt 0.101429 0.698730
vt 0.295760 0.595820
vt 0.316020 0.568735
vt 0.303016 0.597584
vt 0.296855 0.613784
vt 0.284831 0.594938
vt 0.312646 0.606261
vt 0.297991 0.612776
vt 0.298340 0.612458
vt 0.299151 0.611174
vt 0.299978 0.611362
vt 0.299400 0.611541
vt 0.299898 0.611440
vt 0.299445 0.611646
vt 0.299813 0.611482
vt 0.299208 0.611651
vt 0.299866 0.611414
vt 0.000082 0.514601
vt 0.071949 0.388841
vt 0.176578 0.629245
vt 0.117728 0.787933
vt 0.133603 0.862970
vt 0.071811 0.827856
vt 0.225361 0.784850
vt 0.221197 0.875285
vt 0.034547 0.828763
vt 0.159449 0.890582
vt 0.114144 0.981950
vt 0.076143 0.974007
vt 0.148713 0.991281
vt 0.178324 0.999918
vt 0.259833 0.528969
vt 0.377620 0.290176
vt 0.115738 0.293941
vt 0.093040 0.006561
vt 0.000082 0.000082
vt 0.375851 0.083496
vt 0.464121 0.148450
vt 0.524980 0.202973
vt 0.366082 0.441314
vt 0.339550 0.409940
vt 0.008315 0.567944
vt 0.000986 0.584080
vt 0.040471 0.971543
vt 0.195900 0.018952
vt 0.525143 0.000081
vt 0.539307 0.000081
vt 0.539307 0.003622
vt 0.525143 0.003622
vt 0.539307 0.007163
vt 0.525143 0.007163
vt 0.539307 0.010704
vt 0.525143 0.010704
vt 0.539307 0.014245
vt 0.525143 0.014245
vt 0.539307 0.017786
vt 0.525143 0.017786
vt 0.539307 0.021327
vt 0.525143 0.021327
vt 0.537705 0.060742
vt 0.537705 0.065946
vt 0.534025 0.069625
vt 0.528822 0.069625
vt 0.525143 0.065946
vt 0.525143 0.060742
vt 0.528822 0.057063
vt 0.534025 0.057063
vt 0.539307 0.024868
vt 0.525143 0.024868
vt 0.539307 0.028409
vt 0.525143 0.028409
vt 0.537705 0.091396
vt 0.537705 0.086193
vt 0.534026 0.082514
vt 0.528822 0.082514
vt 0.525143 0.086193
vt 0.525143 0.091396
vt 0.528822 0.095076
vt 0.534026 0.095076
vt 0.525143 0.028572
vt 0.539307 0.028572
vt 0.539307 0.032113
vt 0.525143 0.032113
vt 0.539307 0.035654
vt 0.525143 0.035654
vt 0.539307 0.039195
vt 0.525143 0.039195
vt 0.539307 0.042736
vt 0.525143 0.042736
vt 0.539307 0.046277
vt 0.525143 0.046277
vt 0.539307 0.049818
vt 0.525143 0.049818
vt 0.537705 0.073468
vt 0.537705 0.078671
vt 0.534025 0.082351
vt 0.528822 0.082351
vt 0.525143 0.078671
vt 0.525143 0.073468
vt 0.528822 0.069788
vt 0.534025 0.069788
vt 0.539307 0.053359
vt 0.525143 0.053359
vt 0.539307 0.056900
vt 0.525143 0.056900
vt 0.537705 0.104122
vt 0.537705 0.098918
vt 0.534025 0.095239
vt 0.528822 0.095239
vt 0.525143 0.098918
vt 0.525143 0.104122
vt 0.528822 0.107801
vt 0.534025 0.107801
s 1
f 12/1/1 54/2/2 10/3/3
f 54/2/2 18/4/4 57/5/5
f 50/6/6 24/7/7 55/8/8
f 56/9/9 44/10/10 12/1/1
f 55/8/8 24/7/7 56/9/9
f 53/11/11 52/12/12 25/13/13
f 45/14/14 26/15/15 33/16/16
f 27/17/17 34/18/18 46/19/19
f 45/14/14 48/20/20 38/21/21
f 6/22/22 25/23/13 3/24/23
f 7/25/24 27/17/17 32/26/25
f 2/27/26 7/25/24 14/28/27
f 13/29/28 7/25/24 6/22/22
f 11/30/29 13/29/28 3/24/23
f 21/31/30 16/32/31 14/28/27
f 30/33/32 21/31/30 19/34/33
f 17/35/34 9/36/35 16/32/31
f 19/34/33 11/30/29 17/35/34
f 19/34/33 14/28/27 13/29/28
f 17/35/34 16/32/31 22/37/36
f 2/38/26 25/13/13 31/39/37
f 3/24/23 2/27/26 9/36/35
f 47/40/38 28/41/39 48/20/20
f 47/40/38 37/42/40 28/41/39
f 38/21/21 35/43/41 26/15/15
f 34/18/18 37/42/40 47/40/38
f 27/17/17 36/44/42 34/18/18
f 27/17/17 29/45/43 36/44/42
f 33/16/16 26/15/15 29/46/43
f 42/47/44 40/48/45 37/42/40
f 28/41/39 39/49/46 35/43/41
f 42/47/44 41/50/47 40/48/45
f 29/45/43 43/51/48 41/50/47
f 37/42/40 39/49/46 28/41/39
f 23/52/49 46/19/19 47/40/38
f 32/26/25 27/17/17 23/52/49
f 24/7/7 44/10/10 56/9/9
f 50/6/6 47/40/38 48/20/20
f 45/14/14 33/16/16 31/39/37
f 18/4/4 52/12/12 53/11/11
f 4/53/50 50/6/6 55/8/8
f 57/5/5 18/4/4 53/11/11
f 12/1/1 51/54/51 54/2/2
f 18/4/4 51/54/51 52/12/12
f 20/55/52 53/11/11 1/56/53
f 56/9/9 10/3/3 8/57/54
f 55/8/8 56/9/9 8/57/54
f 5/58/55 55/8/8 8/57/54
f 1/59/53 4/53/50 5/58/55
f 1/59/53 53/60/11 49/61/56
f 56/9/9 12/1/1 10/3/3
f 54/2/2 51/54/51 18/4/4
f 52/12/12 51/54/51 31/39/37
f 49/61/56 23/52/49 50/6/6
f 49/61/56 53/60/11 23/52/49
f 12/1/1 44/10/10 51/54/51
f 32/26/25 53/60/11 25/23/13
f 47/40/38 46/19/19 34/18/18
f 45/14/14 38/21/21 26/15/15
f 37/42/40 34/18/18 42/47/44
f 26/15/15 35/43/41 29/46/43
f 25/13/13 52/12/12 31/39/37
f 2/27/26 3/24/23 25/23/13
f 11/30/29 3/24/23 9/36/35
f 9/36/35 2/27/26 14/28/27
f 13/29/28 14/28/27 7/25/24
f 14/28/27 16/32/31 9/36/35
f 19/34/33 13/29/28 11/30/29
f 21/31/30 22/37/36 16/32/31
f 30/33/32 19/34/33 17/35/34
f 17/35/34 11/30/29 9/36/35
f 19/34/33 21/31/30 14/28/27
f 33/16/16 7/62/24 2/38/26
f 2/38/26 31/39/37 33/16/16
f 3/24/23 13/29/28 6/22/22
f 7/25/24 32/26/25 6/22/22
f 6/22/22 32/26/25 25/23/13
f 33/16/16 27/63/17 7/62/24
f 34/18/18 36/44/42 42/47/44
f 38/21/21 28/41/39 35/43/41
f 27/63/17 33/16/16 29/46/43
f 48/20/20 28/41/39 38/21/21
f 29/46/43 35/43/41 43/64/48
f 35/43/41 39/49/46 43/64/48
f 42/47/44 36/44/42 41/50/47
f 36/44/42 29/45/43 41/50/47
f 37/42/40 40/48/45 39/49/46
f 50/6/6 23/52/49 47/40/38
f 23/52/49 53/60/11 32/26/25
f 44/10/10 48/20/20 45/14/14
f 44/10/10 24/7/7 48/20/20
f 23/52/49 27/17/17 46/19/19
f 24/7/7 50/6/6 48/20/20
f 51/54/51 44/10/10 31/39/37
f 44/10/10 45/14/14 31/39/37
f 4/53/50 49/61/56 50/6/6
f 20/55/52 57/5/5 53/11/11
f 15/65/57 57/5/5 20/55/52
f 54/2/2 57/5/5 15/65/57
f 10/3/3 54/2/2 15/65/57
f 5/58/55 4/53/50 55/8/8
f 1/59/53 49/61/56 4/53/50
f 58/66/58 59/67/59 61/68/60 60/69/61
f 60/69/61 61/68/60 63/70/62 62/71/63
f 62/71/63 63/70/62 65/72/64 64/73/65
f 64/73/65 65/72/64 67/74/66 66/75/67
f 66/75/67 67/74/66 69/76/68 68/77/69
f 68/77/69 69/76/68 71/78/70 70/79/71
f 61/80/60 59/81/59 73/82/72 71/83/70 69/84/68 67/85/66 65/86/64 63/87/62
f 70/79/71 71/78/70 73/88/72 72/89/73
f 72/89/73 73/88/72 59/90/59 58/91/58
f 64/73/65 66/75/67 78/75/74 77/73/75
f 74/92/76 75/93/77 76/94/78 77/95/75 78/96/74 79/97/79 80/98/80 81/99/81
f 70/79/71 72/89/73 81/89/81 80/79/80
f 60/69/61 62/71/63 76/71/78 75/69/77
f 66/75/67 68/77/69 79/77/79 78/75/74
f 72/89/73 58/91/58 74/91/76 81/89/81
f 58/66/58 60/69/61 75/69/77 74/66/76
f 62/71/63 64/73/65 77/73/75 76/71/78
f 68/77/69 70/79/71 80/79/80 79/77/79
f 82/100/82 83/101/83 85/102/84 84/103/85
f 84/103/85 85/102/84 87/104/86 86/105/87
f 86/105/87 87/104/86 89/106/88 88/107/89
f 88/107/89 89/106/88 91/108/90 90/109/91
f 90/109/91 91/108/90 93/110/92 92/111/93
f 92/111/93 93/110/92 95/112/94 94/113/95
f 85/114/84 83/115/83 97/116/96 95/117/94 93/118/92 91/119/90 89/120/88 87/121/86
f 94/113/95 95/112/94 97/122/96 96/123/97
f 96/123/97 97/122/96 83/124/83 82/125/82
f 88/107/89 90/109/91 102/109/98 101/107/99
f 98/126/100 99/127/101 100/128/102 101/129/99 102/130/98 103/131/103 104/132/104 105/133/105
f 94/113/95 96/123/97 105/123/105 104/113/104
f 84/103/85 86/105/87 100/105/102 99/103/101
f 90/109/91 92/111/93 103/111/103 102/109/98
f 96/123/97 82/125/82 98/125/100 105/123/105
f 82/100/82 84/103/85 99/103/101 98/100/100
f 86/105/87 88/107/89 101/107/99 100/105/102
f 92/111/93 94/113/95 104/113/104 103/111/103
