# Blender 3.6.15
# www.blender.org
o Cube
v -3.031288 5.793499 3.031288
v -3.031288 6.524024 3.031288
v -3.031288 5.793499 -3.031288
v 3.031288 5.793499 3.031288
v 3.031288 6.524024 3.031288
v 3.031288 5.793499 -3.031288
v -3.031288 6.524024 -1.842021
v 3.031288 6.524024 -1.842021
v -3.031288 12.489762 -1.842021
v -3.031288 12.489762 -3.031288
v 3.031288 12.489762 -3.031288
v 3.031288 12.489762 -1.842021
v 2.582720 4.414801 2.526265
v 2.582720 5.284176 1.948636
v 2.177844 4.414801 2.526265
v 2.177844 5.284176 1.948636
v 2.582719 1.441636 -1.948577
v 2.582719 2.311011 -2.526205
v 2.177843 1.441636 -1.948577
v 2.177843 2.311011 -2.526205
v 2.177844 2.737305 0.001504
v 2.177844 3.361838 -0.944629
v 2.582719 2.737305 0.001504
v 2.582720 3.361838 -0.944629
v 2.177844 4.414802 -2.526810
v 2.177844 5.284176 -1.949182
v 2.582720 4.414802 -2.526810
v 2.582720 5.284176 -1.949182
v 2.177844 1.441637 1.948032
v 2.177845 2.311011 2.525660
v 2.582720 1.441637 1.948032
v 2.582721 2.311011 2.525660
v 2.582720 3.988294 0.001221
v 2.582720 3.361839 0.944084
v 2.177845 3.361839 0.944084
v 2.177844 3.988294 0.001221
v -2.582661 4.414801 2.526265
v -2.582661 5.284176 1.948637
v -2.177785 4.414801 2.526264
v -2.177785 5.284176 1.948637
v -2.582660 1.441636 -1.948577
v -2.582660 2.311011 -2.526205
v -2.177784 1.441636 -1.948577
v -2.177784 2.311011 -2.526205
v -2.177784 2.737305 0.001504
v -2.177784 3.361838 -0.944629
v -2.582660 2.737305 0.001505
v -2.582660 3.361838 -0.944629
v -2.177784 4.414802 -2.526810
v -2.177785 5.284176 -1.949181
v -2.582661 4.414802 -2.526810
v -2.582661 5.284176 -1.949181
v -2.177785 1.441637 1.948032
v -2.177786 2.311011 2.525660
v -2.582661 1.441637 1.948032
v -2.582662 2.311011 2.525660
v -2.582661 3.988294 0.001221
v -2.582661 3.361839 0.944084
v -2.177786 3.361839 0.944084
v -2.177785 3.988294 0.001221
v -2.673898 -0.383609 2.776445
v -2.673898 5.952953 2.776445
v -2.673898 -0.383609 2.009227
v -2.673898 5.952953 2.009227
v -1.906680 -0.383609 2.776445
v -1.906680 5.952953 2.776445
v -1.906680 -0.383609 2.009227
v -1.906680 5.952953 2.009227
v -2.673898 -0.383609 -2.776445
v -2.673898 5.952953 -2.776445
v -2.673898 -0.383609 -2.009227
v -2.673898 5.952953 -2.009227
v -1.906680 -0.383609 -2.776445
v -1.906680 5.952953 -2.776445
v -1.906680 -0.383609 -2.009227
v -1.906680 5.952953 -2.009227
v 2.673898 -0.383609 2.776445
v 2.673898 5.952953 2.776445
v 2.673898 -0.383609 2.009227
v 2.673898 5.952953 2.009227
v 1.906680 -0.383609 2.776445
v 1.906680 5.952953 2.776445
v 1.906680 -0.383609 2.009227
v 1.906680 5.952953 2.009227
v 2.673898 -0.383609 -2.776445
v 2.673898 5.952953 -2.776445
v 2.673898 -0.383609 -2.009227
v 2.673898 5.952953 -2.009227
v 1.906680 -0.383609 -2.776445
v 1.906680 5.952953 -2.776445
v 1.906680 -0.383609 -2.009227
v 1.906680 5.952953 -2.009227
vn -0.0000 -0.0000 -1.0000
vn 1.0000 -0.0000 -0.0000
vn -0.0000 -0.0000 1.0000
vn -0.0000 1.0000 -0.0000
vn -1.0000 -0.0000 -0.0000
vn -0.0000 -1.0000 -0.0000
vn -0.0000 -0.8329 0.5534
vn -0.0000 0.8325 -0.5540
vn -0.0000 0.8329 -0.5534
vn -0.0000 -0.8325 0.5540
vn -0.0000 -0.8324 -0.5541
vn -0.0000 0.8329 0.5534
vn -0.0000 -0.8325 -0.5540
vt 0.726635 0.663175
vt 0.726635 0.997266
vt 0.424160 0.997266
vt 0.424160 0.663175
vt 0.401081 0.699622
vt 0.364634 0.640287
vt 0.364634 0.397147
vt 0.401081 0.397147
vt 0.364634 0.360700
vt 0.062159 0.397147
vt 0.062159 0.360700
vt 0.062159 0.640287
vt 0.025711 0.397147
vt 0.025711 0.699622
vt 0.364634 0.997266
vt 0.062159 0.997266
vt 0.062159 0.937931
vt 0.364634 0.937931
vt 0.002824 0.937931
vt 0.002824 0.603840
vt 0.423969 0.603840
vt 0.423969 0.937931
vt 0.424160 0.360700
vt 0.726635 0.360700
vt 0.838401 0.284236
vt 0.745461 0.288085
vt 0.827371 0.461736
vt 0.904774 0.425225
vt 0.798493 0.200287
vt 0.993950 0.277568
vt 0.990285 0.192064
vt 0.798815 0.199764
vt 0.706185 0.203612
vt 0.639772 0.062796
vt 0.717177 0.026289
vt 0.745778 0.287560
vt 0.554164 0.295900
vt 0.550503 0.210396
vt 0.797395 0.166598
vt 0.989188 0.158386
vt 0.990608 0.191553
vt 0.747222 0.320726
vt 0.555607 0.329065
vt 0.995689 0.310223
vt 0.840139 0.316883
vt 0.838719 0.283716
vt 0.994269 0.277057
vt 0.549058 0.177231
vt 0.704740 0.170446
vt 0.550181 0.210932
vt 0.553847 0.296435
vt 0.705863 0.204139
vt 0.747214 0.012153
vt 0.828852 0.185629
vt 0.827679 0.461215
vt 0.797654 0.475376
vt 0.715753 0.301721
vt 0.676160 0.217773
vt 0.609747 0.076957
vt 0.905085 0.424708
vt 0.868755 0.269578
vt 0.935120 0.410570
vt 0.716845 0.026816
vt 0.639442 0.063326
vt 0.705834 0.203641
vt 0.639461 0.062653
vt 0.716864 0.026142
vt 0.798775 0.199793
vt 0.745743 0.287591
vt 0.553951 0.295813
vt 0.550285 0.210310
vt 0.798719 0.200485
vt 0.990262 0.192121
vt 0.993924 0.277625
vt 0.838374 0.284286
vt 0.904741 0.425277
vt 0.827336 0.461785
vt 0.745643 0.288257
vt 0.828744 0.186324
vt 0.716830 0.026860
vt 0.746855 0.012699
vt 0.715608 0.302397
vt 0.797301 0.475925
vt 0.609400 0.077528
vt 0.639425 0.063367
vt 0.705840 0.204183
vt 0.675815 0.218344
vt 0.934777 0.411139
vt 0.868410 0.270148
vt 0.994054 0.276946
vt 0.838373 0.283739
vt 0.990389 0.191443
vt 0.797271 0.167320
vt 0.988814 0.158956
vt 0.747063 0.321424
vt 0.555239 0.329638
vt 0.553819 0.296472
vt 0.995344 0.310791
vt 0.839795 0.317453
vt 0.550157 0.210968
vt 0.548712 0.177803
vt 0.704394 0.171017
vt 0.827391 0.461062
vt 0.904794 0.424551
vt 0.935995 0.541966
vt 0.935995 0.988177
vt 0.881969 0.988177
vt 0.881969 0.541966
vt 0.935926 0.541966
vt 0.935926 0.988177
vt 0.881900 0.988177
vt 0.881900 0.541966
vt 0.935938 0.541966
vt 0.935938 0.988177
vt 0.881912 0.988177
vt 0.881912 0.541966
vt 0.935990 0.541966
vt 0.935990 0.988177
vt 0.881964 0.988177
vt 0.881964 0.541966
vt 0.881900 0.541966
vt 0.881900 0.988177
vt 0.935995 0.541966
vt 0.935995 0.988177
vt 0.881955 0.541966
vt 0.935981 0.541966
vt 0.935981 0.988177
vt 0.881955 0.988177
vt 0.881950 0.541966
vt 0.935977 0.541966
vt 0.935977 0.988177
vt 0.881950 0.988177
vt 0.881898 0.541966
vt 0.935925 0.541966
vt 0.935925 0.988177
vt 0.881898 0.988177
vt 0.881886 0.541966
vt 0.935913 0.541966
vt 0.935913 0.988177
vt 0.881886 0.988177
s 0
f 3/1/1 10/2/1 11/3/1 6/4/1
f 6/5/2 8/6/2 5/7/2 4/8/2
f 4/9/3 5/7/3 2/10/3 1/11/3
f 8/6/4 7/12/4 2/10/4 5/7/4
f 1/13/5 2/10/5 7/12/5 3/14/5
f 11/15/4 10/16/4 9/17/4 12/18/4
f 7/12/3 8/6/3 12/18/3 9/17/3
f 9/17/5 10/19/5 3/20/5 7/12/5
f 12/18/2 8/6/2 6/21/2 11/22/2
f 3/1/6 6/4/6 4/23/6 1/24/6
f 22/25/5 36/26/5 26/27/5 25/28/5
f 21/29/5 22/25/5 20/30/5 19/31/5
f 23/32/2 34/33/2 32/34/2 31/35/2
f 34/33/2 33/36/2 14/37/2 13/38/2
f 21/39/7 19/40/7 17/41/7 23/32/7
f 36/42/8 16/43/8 14/37/8 33/36/8
f 20/44/9 22/45/9 24/46/9 18/47/9
f 15/48/10 35/49/10 34/33/10 13/38/10
f 17/41/2 18/47/2 24/46/2 23/32/2
f 23/32/2 24/46/2 33/36/2 34/33/2
f 15/50/5 16/51/5 36/26/5 35/52/5
f 35/52/5 36/26/5 22/25/5 21/29/5
f 23/32/11 31/35/11 29/53/11 21/54/11
f 33/36/12 28/55/12 26/56/12 36/57/12
f 32/34/12 34/33/12 35/58/12 30/59/12
f 27/60/13 24/46/13 22/61/13 25/62/13
f 29/63/5 30/64/5 35/52/5 21/29/5
f 27/60/2 28/55/2 33/36/2 24/46/2
f 46/65/2 49/66/2 50/67/2 60/68/2
f 45/69/2 43/70/2 44/71/2 46/65/2
f 47/72/5 55/73/5 56/74/5 58/75/5
f 58/75/5 37/76/5 38/77/5 57/78/5
f 45/79/7 47/72/7 41/80/7 43/81/7
f 60/82/8 57/78/8 38/77/8 40/83/8
f 44/84/9 42/85/9 48/86/9 46/87/9
f 39/88/10 37/76/10 58/75/10 59/89/10
f 41/80/5 47/72/5 48/86/5 42/85/5
f 47/72/5 58/75/5 57/78/5 48/86/5
f 39/90/2 59/91/2 60/68/2 40/92/2
f 59/91/2 45/69/2 46/65/2 60/68/2
f 47/72/11 45/93/11 53/94/11 55/73/11
f 57/78/12 60/95/12 50/96/12 52/97/12
f 56/74/12 54/98/12 59/99/12 58/75/12
f 51/100/13 49/101/13 46/102/13 48/86/13
f 53/103/2 45/69/2 59/91/2 54/104/2
f 51/100/5 48/86/5 57/78/5 52/97/5
f 61/105/5 62/106/5 64/107/5 63/108/5
f 63/109/1 64/110/1 68/111/1 67/112/1
f 67/113/2 68/114/2 66/115/2 65/116/2
f 65/117/3 66/118/3 62/119/3 61/120/3
f 69/116/5 71/113/5 72/114/5 70/115/5
f 71/121/3 75/109/3 76/110/3 72/122/3
f 75/108/2 73/123/2 74/124/2 76/107/2
f 73/120/1 69/117/1 70/118/1 74/119/1
f 77/125/2 79/126/2 80/127/2 78/128/2
f 79/129/1 83/130/1 84/131/1 80/132/1
f 83/133/5 81/134/5 82/135/5 84/136/5
f 81/137/3 77/138/3 78/139/3 82/140/3
f 85/105/2 86/106/2 88/107/2 87/108/2
f 87/109/3 88/110/3 92/111/3 91/112/3
f 91/113/5 92/114/5 90/115/5 89/116/5
f 89/117/1 90/118/1 86/119/1 85/120/1
