# Blender 3.6.15
# www.blender.org
o furnace
v 0.000000 6.359044 -2.569877
v 0.000000 6.799390 -1.823310
v 2.225579 6.359044 -1.284940
v 1.579033 6.799390 -0.911657
v 2.225579 6.359044 1.284939
v 1.579033 6.799390 0.911653
v 0.000000 6.799390 1.823310
v -2.225579 6.359044 1.284939
v -1.579033 6.799390 0.911653
v -2.225579 6.359044 -1.284940
v -1.579033 6.799390 -0.911657
v 0.000000 6.359044 2.569875
v 0.000000 6.799390 -2.569877
v 2.225579 6.799390 -1.284940
v 2.225579 6.799390 1.284939
v 0.000000 6.799390 2.569875
v -2.225579 6.799390 1.284939
v -2.225579 6.799390 -1.284940
v 0.000000 4.610775 -1.823310
v 1.579033 4.610775 -0.911655
v 1.579033 4.610775 0.911655
v 0.000000 4.610775 1.823310
v -1.579033 4.610775 0.911655
v -1.579033 4.610775 -0.911655
v -1.128054 1.263857 4.019990
v -1.128054 3.567367 4.019989
v -1.128054 1.263857 3.763883
v -1.128054 3.567367 3.763883
v -0.871946 1.263857 4.019990
v -0.871946 3.567367 4.019989
v -0.871946 1.263857 3.763883
v -0.871946 3.567367 3.763883
v -0.118054 1.263857 4.019990
v -0.118054 3.567367 4.019989
v -0.118054 1.263857 3.763883
v -0.118054 3.567367 3.763883
v 0.138054 1.263857 4.019990
v 0.138054 3.567367 4.019989
v 0.138054 1.263857 3.763883
v 0.138054 3.567367 3.763883
v 0.891946 1.263857 4.019990
v 0.891946 3.567367 4.019989
v 0.891946 1.263857 3.763883
v 0.891946 3.567367 3.763883
v 1.148054 1.263857 4.019990
v 1.148054 3.567367 4.019989
v 1.148054 1.263857 3.763883
v 1.148054 3.567367 3.763883
v -1.669284 6.408957 3.826764
v 1.703304 6.408957 3.792747
v 3.477066 6.408956 2.283266
v 4.161638 6.408956 -0.000000
v -3.488754 6.408956 2.281862
v -4.156385 6.408956 -0.000000
v -1.669284 6.408956 -3.826766
v 1.703304 6.408956 -3.792748
v 3.477066 6.408956 -2.283267
v -3.488754 6.408956 -2.281863
v -3.488754 -0.456053 2.236417
v 1.703304 -0.456053 3.778964
v -1.669284 -0.456053 3.781318
v 3.477066 -0.459969 2.278746
v 4.161638 -0.459969 0.000000
v -4.156385 -0.459969 0.000000
v -1.669284 -0.459969 -3.781318
v 1.703304 -0.459969 -3.778964
v 3.477066 -0.459969 -2.278746
v -3.488754 -0.459969 -2.236417
v -0.840021 6.408956 1.931381
v 0.862136 6.408956 1.914212
v 1.757360 6.408956 1.152372
v 2.102866 6.408956 -0.000000
v -1.758314 6.408956 1.151664
v -2.095270 6.408956 -0.000000
v -0.840021 6.408956 -1.931381
v 0.862136 6.408956 -1.914213
v 1.757360 6.408956 -1.152372
v -1.758314 6.408956 -1.151664
v -1.388019 1.416013 4.153023
v -1.388019 3.411984 4.153021
v -1.811474 1.095570 3.577731
v -1.811474 3.732427 3.577731
v 1.417399 1.416013 4.153023
v 1.417399 3.411984 4.153021
v 1.840855 1.095570 3.577731
v 1.840855 3.732427 3.577731
v -1.811474 1.095570 4.153023
v -1.811474 3.732427 4.153021
v 1.840855 3.732427 4.153021
v 1.840855 1.095570 4.153023
v -1.710758 1.165852 3.829414
v -1.710758 3.662145 3.829414
v 1.740139 1.165852 3.829414
v 1.740139 3.662145 3.829414
vn -0.0000 -0.0000 -1.0000
vn -0.0000 0.6100 -0.7924
vn 0.6862 0.6100 -0.3962
vn 0.8660 -0.0000 -0.5000
vn 0.6862 0.6100 0.3962
vn 0.8660 -0.0000 0.5000
vn -0.0000 0.8386 0.5447
vn 0.4717 0.8386 0.2724
vn -0.0000 0.6100 0.7924
vn -0.8660 -0.0000 0.5000
vn -0.6862 0.6100 0.3962
vn -0.6862 0.6100 -0.3962
vn -0.8660 -0.0000 -0.5000
vn -0.0000 -0.0000 1.0000
vn -0.0000 1.0000 -0.0000
vn 0.4717 0.8386 -0.2724
vn -0.0000 0.8386 -0.5447
vn -0.4717 0.8386 -0.2724
vn -0.4717 0.8386 0.2724
vn -0.7071 -0.0000 0.7071
vn -1.0000 -0.0000 -0.0000
vn 1.0000 -0.0000 -0.0000
vn 0.7071 -0.0000 0.7071
vn 0.2675 0.6370 0.7230
vn 0.3474 -0.0028 0.9377
vn 0.8369 -0.0006 0.5473
vn 0.6370 0.6484 0.4169
vn 1.0000 -0.0001 -0.0000
vn 0.7618 0.6478 -0.0000
vn -0.6389 0.6466 0.4168
vn -0.8387 -0.0031 0.5446
vn -0.3427 -0.0050 0.9394
vn -0.2643 0.6341 0.7266
vn -0.7609 0.6489 -0.0000
vn -1.0000 -0.0010 -0.0002
vn 0.2675 0.6370 -0.7230
vn 0.3472 -0.0028 -0.9378
vn -0.3427 -0.0050 -0.9394
vn -0.2643 0.6342 -0.7266
vn 0.6370 0.6484 -0.4169
vn 0.8368 -0.0006 -0.5474
vn -0.8386 -0.0031 -0.5447
vn -0.6389 0.6466 -0.4168
vn -0.0000 -1.0000 -0.0000
vt 0.363774 0.693269
vt 0.363774 0.708308
vt 0.283941 0.708308
vt 0.283941 0.693269
vt 0.206696 0.708308
vt 0.206696 0.693269
vt 0.613824 0.685676
vt 0.545781 0.685676
vt 0.545781 0.604001
vt 0.613824 0.604001
vt 0.429504 0.693269
vt 0.429504 0.708308
vt 0.363774 0.725950
vt 0.283941 0.725950
vt 0.206696 0.725950
vt 0.429504 0.725950
vt 0.477739 0.685676
vt 0.409697 0.685676
vt 0.409697 0.604001
vt 0.477739 0.604001
vt 0.341654 0.685676
vt 0.273612 0.685676
vt 0.273612 0.604001
vt 0.341654 0.604001
vt 0.205569 0.685676
vt 0.205569 0.604001
vt 0.405700 0.592883
vt 0.346774 0.558862
vt 0.346774 0.490820
vt 0.405700 0.456798
vt 0.464627 0.490820
vt 0.464627 0.558862
vt 0.016329 0.502159
vt 0.016329 0.588122
vt 0.006771 0.588122
vt 0.006771 0.502159
vt 0.035443 0.502159
vt 0.035443 0.588122
vt 0.025886 0.588122
vt 0.025886 0.502159
vt 0.016329 0.502148
vt 0.016329 0.588111
vt 0.006771 0.588111
vt 0.006771 0.502148
vt 0.035443 0.502148
vt 0.035443 0.588111
vt 0.025886 0.588111
vt 0.025886 0.502148
vt 0.016326 0.502151
vt 0.016326 0.588113
vt 0.006768 0.588113
vt 0.006768 0.502151
vt 0.035440 0.502151
vt 0.035440 0.588113
vt 0.025883 0.588113
vt 0.025883 0.502151
vt 0.617361 0.992733
vt 0.616471 0.736786
vt 0.703082 0.736227
vt 0.704196 0.992318
vt 0.791790 0.735785
vt 0.793066 0.991876
vt 0.402625 0.993102
vt 0.401741 0.737150
vt 0.490731 0.737224
vt 0.491615 0.993176
vt 0.313984 0.992845
vt 0.314726 0.736752
vt 0.010613 0.990977
vt 0.012986 0.734894
vt 0.138721 0.736059
vt 0.136354 0.992147
vt 0.881935 0.991433
vt 0.880498 0.735343
vt 0.967110 0.734894
vt 0.968771 0.990983
vt 0.227709 0.736500
vt 0.225343 0.992589
vt 0.906414 0.447900
vt 0.972036 0.504896
vt 0.907437 0.546450
vt 0.874318 0.517684
vt 0.710380 0.672628
vt 0.686326 0.587226
vt 0.763238 0.588002
vt 0.775379 0.631104
vt 0.712098 0.502327
vt 0.780575 0.445362
vt 0.810806 0.516402
vt 0.776246 0.545153
vt 0.903559 0.730962
vt 0.777694 0.730962
vt 0.809353 0.660546
vt 0.872877 0.660546
vt 0.996722 0.590357
vt 0.970317 0.675302
vt 0.906570 0.632454
vt 0.919897 0.589582
vt 0.030393 0.615907
vt 0.030393 0.707396
vt 0.010432 0.707396
vt 0.010432 0.615907
vt 0.177076 0.615907
vt 0.177076 0.707396
vt 0.157115 0.707396
vt 0.157115 0.615907
vt 0.030393 0.595946
vt 0.157115 0.595946
vt 0.157115 0.727357
vt 0.030393 0.727357
vt 0.045085 0.627025
vt 0.045085 0.696278
vt 0.142423 0.696278
vt 0.142423 0.627025
vt 0.065052 0.224913
vt 0.904039 0.224913
vt 0.904039 0.831817
vt 0.065052 0.831817
s 1
f 1/1/1 13/2/2 14/3/3 3/4/4
f 3/4/4 14/3/3 15/5/5 5/6/6
f 2/7/7 11/8/8 24/9/5 19/10/9
f 8/4/10 17/3/11 18/5/12 10/6/13
f 10/11/13 18/12/12 13/2/2 1/1/1
f 8/4/10 12/1/14 16/2/9 17/3/11
f 15/12/5 16/2/9 12/1/14 5/11/6
s 0
f 2/13/15 4/14/15 14/3/15 13/2/15
f 4/14/15 6/15/15 15/5/15 14/3/15
f 6/16/15 7/13/15 16/2/15 15/12/15
f 7/13/15 9/14/15 17/3/15 16/2/15
f 9/14/15 11/15/15 18/5/15 17/3/15
f 11/16/15 2/13/15 13/2/15 18/12/15
s 1
f 9/17/16 7/18/17 22/19/2 23/20/3
f 6/21/18 4/22/19 20/23/11 21/24/12
f 11/8/8 9/17/16 23/20/3 24/9/5
f 7/18/17 6/21/18 21/24/12 22/19/2
f 4/22/19 2/25/7 19/26/9 20/23/11
f 19/27/9 24/28/5 23/29/3 22/30/2 21/31/12 20/32/11
f 25/33/20 26/34/20 28/35/21 27/36/21
f 31/37/22 32/38/22 30/39/23 29/40/23
f 29/40/23 30/39/23 26/34/20 25/33/20
f 33/41/20 34/42/20 36/43/21 35/44/21
f 39/45/22 40/46/22 38/47/23 37/48/23
f 37/48/23 38/47/23 34/42/20 33/41/20
f 41/49/20 42/50/20 44/51/21 43/52/21
f 47/53/22 48/54/22 46/55/23 45/56/23
f 45/56/23 46/55/23 42/50/20 41/49/20
f 50/57/24 60/58/25 62/59/26 51/60/27
f 51/60/27 62/59/26 63/61/28 52/62/29
f 53/63/30 59/64/31 61/65/32 49/66/33
f 54/67/34 64/68/35 59/64/31 53/63/30
f 56/69/36 66/70/37 65/71/38 55/72/39
f 57/73/40 67/74/41 66/75/37 56/76/36
f 52/62/29 63/61/28 67/74/41 57/73/40
f 55/72/39 65/71/38 68/77/42 58/78/43
f 58/78/43 68/77/42 64/68/35 54/67/34
s 0
f 50/79/15 51/80/15 71/81/15 70/82/15
f 58/83/15 54/84/15 74/85/15 78/86/15
f 53/87/15 49/88/15 69/89/15 73/90/15
f 56/91/15 55/92/15 75/93/15 76/94/15
f 52/95/15 57/96/15 77/97/15 72/98/15
f 49/88/15 50/79/15 70/82/15 69/89/15
f 55/92/15 58/83/15 78/86/15 75/93/15
f 57/96/15 56/91/15 76/94/15 77/97/15
f 51/80/15 52/95/15 72/98/15 71/81/15
f 54/84/15 53/87/15 73/90/15 74/85/15
s 1
f 49/66/33 61/65/32 60/58/25 50/57/24
s 0
f 87/99/21 88/100/21 82/101/21 81/102/21
f 85/103/22 86/104/22 89/105/22 90/106/22
f 81/107/44 85/108/44 90/106/44 87/99/44
f 86/109/15 82/110/15 88/100/15 89/105/15
f 79/111/14 80/112/14 88/100/14 87/99/14
f 84/113/14 83/114/14 90/106/14 89/105/14
f 83/114/14 79/111/14 87/99/14 90/106/14
f 80/112/14 84/113/14 89/105/14 88/100/14
f 91/115/14 93/116/14 94/117/14 92/118/14
