# Blender 3.6.15
# www.blender.org
o furnace_lid
v 1.180499 0.017742 6.168267
v 3.902202 0.017742 6.140817
v 5.333641 0.017742 4.922653
v 5.886096 0.017742 3.080041
v -0.287827 0.017742 4.921521
v -0.826610 0.017742 3.080041
v 1.180499 0.017742 -0.008187
v 3.902202 0.017742 0.019265
v 5.333641 0.017742 1.237428
v -0.287827 0.017742 1.238561
v 1.415448 1.369462 5.631263
v 3.663880 1.369462 5.608584
v 4.846410 1.369462 4.602244
v 5.302799 1.369462 3.080040
v 0.202446 1.369462 4.601309
v -0.242649 1.369462 3.080040
v 1.415448 1.369461 0.528818
v 3.663880 1.369461 0.551497
v 4.846410 1.369461 1.557836
v 0.202446 1.369461 1.558770
v 2.041735 2.306662 4.199805
v 3.028602 2.306662 4.189852
v 3.547630 2.306662 3.748156
v 3.747945 2.306662 3.080040
v 1.509332 2.306662 3.747745
v 1.313974 2.306662 3.080040
v 2.041735 2.306662 1.960275
v 3.028602 2.306662 1.970228
v 3.547630 2.306662 2.411924
v 1.509332 2.306662 2.412334
v 1.951523 2.306662 3.080040
v 3.129920 2.306663 3.080040
v 0.931701 0.017742 3.080041
v 4.181629 0.017742 3.080041
vn -0.7318 -0.4885 0.4752
vn -0.3029 -0.4777 0.8247
vn -0.2638 0.6265 0.7334
vn -0.6498 0.6324 0.4217
vn 0.3110 -0.4799 0.8203
vn 0.2719 0.6258 0.7310
vn 0.8723 -0.4890 -0.0000
vn 0.7299 -0.4898 -0.4768
vn 0.6492 0.6315 -0.4239
vn 0.7756 0.6312 -0.0000
vn -0.8717 -0.4900 -0.0000
vn -0.7749 0.6321 -0.0000
vn 0.7299 -0.4898 0.4768
vn 0.6492 0.6315 0.4239
vn -0.3029 -0.4777 -0.8247
vn -0.7318 -0.4885 -0.4752
vn -0.6498 0.6324 -0.4217
vn -0.2638 0.6265 -0.7334
vn 0.3110 -0.4799 -0.8203
vn 0.2719 0.6258 -0.7310
vn -0.1042 0.9467 0.3047
vn -0.2616 0.9502 0.1696
vn 0.1077 0.9468 0.3033
vn 0.2615 0.9500 -0.1705
vn 0.3127 0.9499 -0.0000
vn -0.3114 0.9503 -0.0000
vn 0.2615 0.9500 0.1705
vn -0.2616 0.9502 -0.1696
vn -0.1042 0.9467 -0.3047
vn 0.1077 0.9468 -0.3033
vn -0.0000 1.0000 -0.0000
vn -0.0000 -1.0000 -0.0000
vt 0.078929 0.372736
vt 0.140330 0.323593
vt 0.160320 0.371198
vt 0.123815 0.404144
vt 0.246974 0.321246
vt 0.228795 0.372793
vt 0.336644 0.449074
vt 0.314514 0.528905
vt 0.266398 0.496517
vt 0.282539 0.449836
vt 0.053568 0.451919
vt 0.111713 0.451545
vt 0.312197 0.370110
vt 0.265154 0.403619
vt 0.142433 0.579933
vt 0.079747 0.531158
vt 0.124425 0.498931
vt 0.161721 0.531601
vt 0.250242 0.579933
vt 0.230725 0.528461
vt 0.181875 0.419659
vt 0.167081 0.432545
vt 0.209364 0.420144
vt 0.224235 0.468934
vt 0.229861 0.450550
vt 0.162208 0.451103
vt 0.223932 0.432090
vt 0.167517 0.469793
vt 0.182453 0.482773
vt 0.210103 0.481485
vt 0.026936 0.299745
vt 0.024341 0.336592
vt 0.003379 0.336804
vt 0.009581 0.314785
vt 0.027679 0.373380
vt 0.010024 0.358693
vt 0.059388 0.299745
vt 0.063087 0.336201
vt 0.060124 0.372726
vt 0.076600 0.314095
vt 0.083407 0.335997
vt 0.077043 0.358031
vt 0.496612 0.425347
vt 0.435885 0.442451
vt 0.436468 0.384638
vt 0.538091 0.377482
vt 0.375516 0.424126
vt 0.335010 0.375434
vt 0.437546 0.277781
vt 0.538091 0.287984
vt 0.336816 0.285954
vt 0.438111 0.221739
vt 0.498513 0.240514
vt 0.377343 0.239292
s 1
f 5/1/1 1/2/2 11/3/3 15/4/4
f 1/2/2 2/5/5 12/6/6 11/3/3
f 4/7/7 9/8/8 19/9/9 14/10/10
f 6/11/11 5/1/1 15/4/4 16/12/12
f 2/5/5 3/13/13 13/14/14 12/6/6
f 7/15/15 10/16/16 20/17/17 17/18/18
f 8/19/19 7/15/15 17/18/18 18/20/20
f 3/13/13 4/7/7 14/10/10 13/14/14
f 10/16/16 6/11/11 16/12/12 20/17/17
f 9/8/8 8/19/19 18/20/20 19/9/9
f 15/4/4 11/3/3 21/21/21 25/22/22
f 11/3/3 12/6/6 22/23/23 21/21/21
f 14/10/10 19/9/9 29/24/24 24/25/25
f 16/12/12 15/4/4 25/22/22 26/26/26
f 12/6/6 13/14/14 23/27/27 22/23/23
f 17/18/18 20/17/17 30/28/28 27/29/29
f 18/20/20 17/18/18 27/29/29 28/30/30
f 13/14/14 14/10/10 24/25/25 23/27/27
f 20/17/17 16/12/12 26/26/26 30/28/28
f 19/9/9 18/20/20 28/30/30 29/24/24
f 21/31/21 31/32/31 26/33/26 25/34/22
f 31/32/31 27/35/29 30/36/28 26/33/26
f 22/37/23 32/38/31 31/32/31 21/31/21
f 32/38/31 28/39/30 27/35/29 31/32/31
f 23/40/27 24/41/25 32/38/31 22/37/23
f 24/41/25 29/42/24 28/39/30 32/38/31
s 0
f 5/43/32 6/44/32 33/45/32 1/46/32
f 6/44/32 10/47/32 7/48/32 33/45/32
f 1/46/32 33/45/32 34/49/32 2/50/32
f 33/45/32 7/48/32 8/51/32 34/49/32
f 2/50/32 34/49/32 4/52/32 3/53/32
f 34/49/32 8/51/32 9/54/32 4/52/32
