# Blender 3.6.15
# www.blender.org
o Cylinder
v -2.501241 472.571472 -4.331470
v -5.001241 472.571472 -0.001343
v -5.001237 472.571472 8.658913
v -2.501235 472.571472 12.989038
v -5.001235 472.571472 17.319166
v -2.501233 472.571472 21.649292
v -5.001231 472.571472 25.979420
v -2.501231 472.571472 30.309546
v -5.001229 472.571472 34.639675
v -2.501227 472.571472 38.969799
v -5.001223 472.571472 43.299927
v -2.501224 472.571472 47.630051
v -5.001223 472.571472 51.960182
v -2.501231 472.571472 56.290298
v -5.001231 472.571472 60.620426
v -2.501230 472.571472 64.950546
v 2.498757 472.571472 -4.331470
v 4.998756 472.571472 -0.001350
v 9.998756 472.571472 -0.001350
v 12.498756 472.571472 -4.331478
v 17.498756 472.571472 -4.331478
v 19.998758 472.571472 -0.001350
v 24.998758 472.571472 -0.001350
v 27.498756 472.571472 -4.331479
v 32.498756 472.571472 -4.331482
v 34.998760 472.571472 -0.001354
v 39.998760 472.571472 -0.001358
v 42.498756 472.571472 -4.331487
v 47.498756 472.571472 -4.331487
v 49.998760 472.571472 -0.001363
v 54.998756 472.571472 -0.001367
v 57.498772 472.571472 4.328773
v 2.498770 472.571472 64.950546
v 4.998770 472.571472 69.280670
v 9.998770 472.571472 69.280670
v 12.498770 472.571472 64.950546
v 17.498768 472.571472 64.950546
v 19.998768 472.571472 69.280678
v 24.998768 472.571472 69.280678
v 27.498768 472.571472 64.950546
v 32.498775 472.571472 64.950546
v 34.998775 472.571472 69.280685
v 39.998775 472.571472 69.280678
v 42.498775 472.571472 64.950546
v 47.498772 472.571472 64.950546
v 49.998772 472.571472 69.280670
v 54.998775 472.571472 69.280670
v 57.498775 472.571472 64.950546
v 54.998775 472.571472 60.620422
v 57.498775 472.571472 56.290298
v 54.998775 472.571472 51.960167
v 57.498775 472.571472 47.630043
v 54.998772 472.571472 43.299911
v 57.498772 472.571472 38.969788
v 54.998772 472.571472 34.639660
v 57.498772 472.571472 30.309534
v 54.998772 472.571472 25.979408
v 57.498772 472.571472 21.649281
v 54.998772 472.571472 17.319153
v 57.498772 472.571472 12.989026
v 54.998772 472.571472 8.658898
v -2.497468 472.571472 4.332825
v -2.501296 -180.465637 -4.331470
v -5.001296 -180.465637 -0.001343
v -5.001291 -180.465637 8.658913
v -2.501289 -180.465637 12.989038
v -5.001289 -180.465622 17.319166
v -2.501287 -180.465622 21.649292
v -5.001287 -180.465637 25.979420
v -2.501285 -180.465637 30.309546
v -5.001284 -180.465637 34.639675
v -2.501282 -180.465637 38.969799
v -5.001278 -180.465637 43.299927
v -2.501278 -180.465622 47.630051
v -5.001278 -180.465622 51.960182
v -2.501285 -180.465637 56.290298
v -5.001286 -180.465637 60.620426
v -2.501285 -180.465637 64.950546
v 2.498703 -180.465637 -4.331470
v 4.998700 -180.465637 -0.001350
v 9.998703 -180.465637 -0.001350
v 12.498703 -180.465637 -4.331478
v 17.498703 -180.465637 -4.331478
v 19.998705 -180.465637 -0.001350
v 24.998705 -180.465637 -0.001350
v 27.498703 -180.465637 -4.331479
v 32.498699 -180.465637 -4.331482
v 34.998703 -180.465637 -0.001354
v 39.998703 -180.465637 -0.001358
v 42.498699 -180.465637 -4.331487
v 47.498699 -180.465637 -4.331487
v 49.998703 -180.465637 -0.001363
v 54.998699 -180.465637 -0.001367
v 57.498714 -180.465637 4.328773
v 2.498715 -180.465637 64.950546
v 4.998714 -180.465637 69.280670
v 9.998715 -180.465637 69.280670
v 12.498715 -180.465637 64.950546
v 17.498714 -180.465637 64.950546
v 19.998714 -180.465637 69.280678
v 24.998714 -180.465637 69.280678
v 27.498714 -180.465637 64.950546
v 32.498718 -180.465637 64.950546
v 34.998718 -180.465637 69.280685
v 39.998718 -180.465637 69.280678
v 42.498718 -180.465637 64.950546
v 47.498714 -180.465637 64.950546
v 49.998714 -180.465637 69.280670
v 54.998718 -180.465637 69.280670
v 57.498718 -180.465637 64.950546
v 54.998718 -180.465637 60.620422
v 57.498718 -180.465637 56.290298
v 54.998718 -180.465637 51.960167
v 57.498718 -180.465637 47.630043
v 54.998718 -180.465637 43.299911
v 57.498718 -180.465637 38.969788
v 54.998718 -180.465637 34.639660
v 57.498718 -180.465637 30.309534
v 54.998718 -180.465637 25.979408
v 57.498714 -180.465637 21.649281
v 54.998714 -180.465637 17.319153
v 57.498714 -180.465637 12.989026
v 54.998714 -180.465637 8.658898
v -2.497523 -180.465637 4.332825
vn 0.8660 -0.0000 0.5000
vn 0.8660 -0.0000 -0.5000
vn -0.0000 -0.0000 1.0000
vn -0.8660 -0.0000 0.5000
vn -0.0000 1.0000 -0.0000
vn 0.8659 -0.0000 -0.5002
vn 0.0002 1.0000 0.0004
vn -0.0005 1.0000 -0.0000
vn -0.0004 1.0000 0.0002
vn 0.8655 -0.0000 0.5009
vn -0.0000 -1.0000 -0.0000
vn 0.0002 -1.0000 0.0004
vn -0.0005 -1.0000 -0.0000
vn -0.0004 -1.0000 0.0002
vt 0.455557 0.250120
vt 0.311249 0.222348
vt 0.455557 0.305664
vt 0.311249 0.333436
vt 0.166941 0.305664
vt 0.166941 0.250120
s 0
f 123/1/1 94/2/1 32/2/1
f 123/1/1 32/2/1 61/1/1
f 122/3/2 61/1/2 60/3/2
f 121/1/1 60/2/1 59/1/1
f 120/3/2 59/1/2 58/3/2
f 119/1/1 58/2/1 57/1/1
f 118/3/2 57/1/2 56/3/2
f 117/1/1 56/2/1 55/1/1
f 116/3/2 55/1/2 54/3/2
f 115/1/1 54/2/1 53/1/1
f 114/3/2 53/1/2 52/3/2
f 113/3/1 52/1/1 51/3/1
f 112/4/2 51/3/2 50/4/2
f 111/3/1 50/1/1 49/3/1
f 110/4/2 49/3/2 48/4/2
f 109/3/1 48/1/1 47/3/1
f 108/4/3 47/5/3 46/4/3
f 107/3/4 46/4/4 45/3/4
f 106/1/3 45/2/3 44/1/3
f 105/3/1 44/1/1 43/3/1
f 104/4/3 43/5/3 42/4/3
f 103/3/4 42/4/4 41/3/4
f 102/1/3 41/2/3 40/1/3
f 101/3/1 40/1/1 39/3/1
f 100/5/3 39/6/3 38/5/3
f 99/1/4 38/2/4 37/1/4
f 98/3/3 37/1/3 36/3/3
f 97/4/1 36/3/1 35/4/1
f 96/5/3 35/6/3 34/5/3
f 95/1/4 34/2/4 33/1/4
f 78/3/3 33/1/3 16/3/3
f 93/2/4 32/1/4 31/2/4
f 92/1/3 31/3/3 30/1/3
f 91/2/4 30/1/4 29/2/4
f 90/1/3 29/3/3 28/1/3
f 89/3/1 28/4/1 27/3/1
f 88/1/3 27/3/3 26/1/3
f 87/2/4 26/1/4 25/2/4
f 86/1/3 25/3/3 24/1/3
f 85/3/1 24/4/1 23/3/1
f 84/1/3 23/3/3 22/1/3
f 83/4/4 22/3/4 21/4/4
f 82/2/3 21/1/3 20/2/3
f 81/1/1 20/3/1 19/1/1
f 80/2/3 19/1/3 18/2/3
f 79/4/4 18/3/4 17/4/4
f 32/1/5 31/2/5 61/1/5
f 2/4/6 124/3/6 64/4/6
f 44/1/5 41/2/5 42/4/5 43/5/5
f 40/1/5 37/1/5 38/2/5 39/6/5
f 36/3/5 33/1/5 34/2/5 35/6/5
f 61/1/5 30/1/5 27/3/5
f 59/1/5 57/1/5 58/2/5
f 59/1/5 60/2/5 61/1/5
f 57/1/5 55/1/5 56/2/5
f 55/1/5 53/1/5 54/2/5
f 53/1/5 51/3/5 52/1/5
f 51/3/5 49/3/5 50/1/5
f 49/3/5 45/2/5 46/4/5
f 33/1/5 14/2/5 16/2/5
f 14/2/5 12/1/5 13/2/5
f 12/1/5 10/1/5 11/2/5
f 10/1/5 8/1/5 9/2/5
f 8/1/5 6/1/5 7/2/5
f 6/1/5 4/3/5 5/1/5
f 4/3/5 62/3/5 3/1/5
f 62/3/7 18/2/5 2/1/5
f 19/1/5 22/1/5 21/4/5 20/2/5
f 23/3/5 26/1/5 25/2/5 24/1/5
f 27/3/5 30/1/5 29/2/5 28/1/5
f 16/2/5 14/2/5 15/4/5
f 61/1/5 31/2/5 30/1/5
f 46/4/5 47/5/5 49/3/5
f 47/5/5 48/1/5 49/3/5
f 2/1/5 18/2/5 1/2/5
f 1/2/5 18/2/5 17/4/5
f 27/3/5 26/1/5 61/1/5
f 26/1/5 23/3/5 59/1/5
f 59/1/5 23/3/5 57/1/5
f 57/1/5 22/1/5 55/1/5
f 55/1/5 19/1/5 53/1/5
f 53/1/5 18/2/5 51/3/5
f 51/3/5 62/3/8 49/3/5
f 49/3/5 4/3/5 45/2/5
f 45/2/5 6/1/5 44/1/5
f 44/1/5 6/1/5 8/1/5
f 8/1/5 10/1/5 41/2/5
f 41/2/5 10/1/5 40/1/5
f 40/1/5 10/1/5 12/1/5
f 12/1/5 14/2/5 37/1/5
f 37/1/5 14/2/5 36/3/5
f 36/3/5 14/2/5 33/1/5
f 37/1/5 40/1/5 12/1/5
f 41/2/5 44/1/5 8/1/5
f 6/1/5 45/2/5 4/3/5
f 4/3/5 49/3/5 62/3/5
f 62/3/9 51/3/5 18/2/5
f 18/2/5 53/1/5 19/1/5
f 19/1/5 55/1/5 22/1/5
f 22/1/5 57/1/5 23/3/5
f 59/1/5 61/1/5 26/1/5
f 62/3/10 65/1/10 124/3/10
f 3/4/2 66/3/2 65/4/2
f 4/3/1 67/1/1 66/3/1
f 5/3/2 68/1/2 67/3/2
f 6/1/1 69/2/1 68/1/1
f 7/3/2 70/1/2 69/3/2
f 8/1/1 71/2/1 70/1/1
f 9/3/2 72/1/2 71/3/2
f 10/1/1 73/2/1 72/1/1
f 11/3/2 74/1/2 73/3/2
f 12/1/1 75/2/1 74/1/1
f 13/1/2 76/2/2 75/1/2
f 14/3/1 77/4/1 76/3/1
f 15/1/2 78/2/2 77/1/2
f 63/2/3 17/1/3 1/2/3
f 122/3/2 123/1/2 61/1/2
f 121/1/1 122/2/1 60/2/1
f 120/3/2 121/1/2 59/1/2
f 119/1/1 120/2/1 58/2/1
f 118/3/2 119/1/2 57/1/2
f 117/1/1 118/2/1 56/2/1
f 116/3/2 117/1/2 55/1/2
f 115/1/1 116/2/1 54/2/1
f 114/3/2 115/1/2 53/1/2
f 113/3/1 114/1/1 52/1/1
f 112/4/2 113/3/2 51/3/2
f 111/3/1 112/1/1 50/1/1
f 110/4/2 111/3/2 49/3/2
f 109/3/1 110/1/1 48/1/1
f 108/4/3 109/5/3 47/5/3
f 107/3/4 108/4/4 46/4/4
f 106/1/3 107/2/3 45/2/3
f 105/3/1 106/1/1 44/1/1
f 104/4/3 105/5/3 43/5/3
f 103/3/4 104/4/4 42/4/4
f 102/1/3 103/2/3 41/2/3
f 101/3/1 102/1/1 40/1/1
f 100/5/3 101/6/3 39/6/3
f 99/1/4 100/2/4 38/2/4
f 98/3/3 99/1/3 37/1/3
f 97/4/1 98/3/1 36/3/1
f 96/5/3 97/6/3 35/6/3
f 95/1/4 96/2/4 34/2/4
f 78/3/3 95/1/3 33/1/3
f 93/2/4 94/1/4 32/1/4
f 92/1/3 93/3/3 31/3/3
f 91/2/4 92/1/4 30/1/4
f 90/1/3 91/3/3 29/3/3
f 89/3/1 90/4/1 28/4/1
f 88/1/3 89/3/3 27/3/3
f 87/2/4 88/1/4 26/1/4
f 86/1/3 87/3/3 25/3/3
f 85/3/1 86/4/1 24/4/1
f 84/1/3 85/3/3 23/3/3
f 83/4/4 84/3/4 22/3/4
f 82/2/3 83/1/3 21/1/3
f 81/1/1 82/3/1 20/3/1
f 80/2/3 81/1/3 19/1/3
f 79/4/4 80/3/4 18/3/4
f 2/4/6 62/3/6 124/3/6
f 62/3/10 3/1/10 65/1/10
f 94/1/11 123/1/11 93/2/11
f 106/1/11 105/5/11 104/4/11 103/2/11
f 102/1/11 101/6/11 100/2/11 99/1/11
f 98/3/11 97/6/11 96/2/11 95/1/11
f 123/1/11 89/3/11 92/1/11
f 121/1/11 120/2/11 119/1/11
f 121/1/11 123/1/11 122/2/11
f 119/1/11 118/2/11 117/1/11
f 117/1/11 116/2/11 115/1/11
f 115/1/11 114/1/11 113/3/11
f 113/3/11 112/1/11 111/3/11
f 111/3/11 108/4/11 107/2/11
f 95/1/11 78/2/11 76/2/11
f 76/2/11 75/2/11 74/1/11
f 74/1/11 73/2/11 72/1/11
f 72/1/11 71/2/11 70/1/11
f 70/1/11 69/2/11 68/1/11
f 68/1/11 67/1/11 66/3/11
f 66/3/11 65/1/11 124/3/11
f 124/3/12 64/1/11 80/2/11
f 81/1/11 82/2/11 83/4/11 84/1/11
f 85/3/11 86/1/11 87/2/11 88/1/11
f 89/3/11 90/1/11 91/2/11 92/1/11
f 78/2/11 77/4/11 76/2/11
f 123/1/11 92/1/11 93/2/11
f 108/4/11 111/3/11 109/5/11
f 109/5/11 111/3/11 110/1/11
f 64/1/11 63/2/11 80/2/11
f 63/2/11 79/4/11 80/2/11
f 89/3/11 123/1/11 88/1/11
f 88/1/11 121/1/11 85/3/11
f 121/1/11 119/1/11 85/3/11
f 119/1/11 117/1/11 84/1/11
f 117/1/11 115/1/11 81/1/11
f 115/1/11 113/3/11 80/2/11
f 113/3/11 111/3/11 124/3/13
f 111/3/11 107/2/11 66/3/11
f 107/2/11 106/1/11 68/1/11
f 106/1/11 70/1/11 68/1/11
f 70/1/11 103/2/11 72/1/11
f 103/2/11 102/1/11 72/1/11
f 102/1/11 74/1/11 72/1/11
f 74/1/11 99/1/11 76/2/11
f 99/1/11 98/3/11 76/2/11
f 98/3/11 95/1/11 76/2/11
f 99/1/11 74/1/11 102/1/11
f 103/2/11 70/1/11 106/1/11
f 68/1/11 66/3/11 107/2/11
f 66/3/11 124/3/11 111/3/11
f 124/3/14 80/2/11 113/3/11
f 80/2/11 81/1/11 115/1/11
f 81/1/11 84/1/11 117/1/11
f 84/1/11 85/3/11 119/1/11
f 121/1/11 88/1/11 123/1/11
f 1/3/1 2/1/1 64/1/1
f 63/2/3 79/1/3 17/1/3
f 15/1/2 16/2/2 78/2/2
f 14/3/1 15/4/1 77/4/1
f 13/1/2 14/2/2 76/2/2
f 12/1/1 13/2/1 75/2/1
f 11/3/2 12/1/2 74/1/2
f 10/1/1 11/2/1 73/2/1
f 9/3/2 10/1/2 72/1/2
f 8/1/1 9/2/1 71/2/1
f 7/3/2 8/1/2 70/1/2
f 6/1/1 7/2/1 69/2/1
f 5/3/2 6/1/2 68/1/2
f 4/3/1 5/1/1 67/1/1
f 3/4/2 4/3/2 66/3/2
f 1/3/1 64/1/1 63/3/1
