# Blender 3.6.15
# www.blender.org
o Cylinder
v -3.223236 -0.000000 0.000000
v -3.223236 0.625000 0.000000
v -1.611618 -0.000000 -2.791404
v -1.611618 0.625000 -2.791404
v 1.611618 0.000000 -2.791404
v 1.611618 0.625000 -2.791404
v 3.223236 0.000000 -0.000000
v 3.223236 0.625000 -0.000000
v 1.611618 0.000000 2.791404
v 1.611618 0.625000 2.791404
v -1.611618 -0.000000 2.791404
v -1.611618 0.625000 2.791404
v 2.500000 0.625000 4.330127
v -2.500000 0.625000 4.330127
v -5.000000 -0.000000 0.000000
v -2.500000 -0.000000 -4.330127
v 2.500000 0.000000 -4.330127
v -2.500000 0.625000 -4.330127
v 2.500000 0.625000 -4.330127
v 5.000000 0.000000 -0.000000
v 5.000000 0.625000 -0.000000
v 2.500000 0.000000 4.330127
v -2.500000 -0.000000 4.330127
v -5.000000 0.625000 0.000000
vn -0.8660 -0.0000 -0.5000
vn -0.0000 -0.0000 -1.0000
vn 0.8660 -0.0000 -0.5000
vn 0.8660 -0.0000 0.5000
vn -0.0000 -0.0000 1.0000
vn -0.8660 -0.0000 0.5000
vn -0.0000 1.0000 -0.0000
vn -0.0000 -1.0000 -0.0000
vt 0.166735 0.833265
vt 0.000103 0.833265
vt 0.000103 0.666632
vt 0.166735 0.666632
vt 0.000103 0.500000
vt 0.166735 0.500000
vt 0.000103 0.333368
vt 0.166735 0.333368
vt 0.000103 0.166735
vt 0.166735 0.166735
vt 0.000103 0.000103
vt 0.166735 0.000103
vt 0.166735 0.999897
vt 0.000103 0.999897
vt 0.436375 0.238976
vt 0.436375 0.094494
vt 0.455557 0.083419
vt 0.455557 0.250051
vt 0.186123 0.572447
vt 0.311249 0.644688
vt 0.311249 0.666838
vt 0.166941 0.583522
vt 0.186123 0.427964
vt 0.166941 0.416889
vt 0.186123 0.094494
vt 0.186123 0.238976
vt 0.166941 0.250051
vt 0.166941 0.083419
vt 0.311249 0.355723
vt 0.311249 0.333573
vt 0.311249 0.311218
vt 0.311249 0.333368
vt 0.436375 0.427964
vt 0.455557 0.416889
vt 0.436375 0.572447
vt 0.455557 0.583522
vt 0.311249 0.022253
vt 0.311249 0.000103
s 0
f 15/1/1 24/2/1 18/3/1 16/4/1
f 16/4/2 18/3/2 19/5/2 17/6/2
f 17/6/3 19/5/3 21/7/3 20/8/3
f 20/8/4 21/7/4 13/9/4 22/10/4
f 22/10/5 13/9/5 14/11/5 23/12/5
f 23/13/6 14/14/6 24/2/6 15/1/6
f 10/15/7 12/16/7 14/17/7 13/18/7
f 3/19/8 1/20/8 15/21/8 16/22/8
f 5/23/8 3/19/8 16/22/8 17/24/8
f 4/25/7 6/26/7 19/27/7 18/28/7
f 7/29/8 5/23/8 17/24/8 20/30/8
f 6/26/7 8/31/7 21/32/7 19/27/7
f 9/33/8 7/29/8 20/30/8 22/34/8
f 8/31/7 10/15/7 13/18/7 21/32/7
f 11/35/8 9/33/8 22/34/8 23/36/8
f 12/16/7 2/37/7 24/38/7 14/17/7
f 2/37/7 4/25/7 18/28/7 24/38/7
f 1/20/8 11/35/8 23/36/8 15/21/8
f 7/29/6 8/31/6 6/26/6 5/23/6
f 9/33/1 10/15/1 8/31/1 7/29/1
f 12/16/2 10/15/2 9/33/2 11/35/2
f 12/16/3 11/35/3 1/20/3 2/37/3
f 3/19/4 4/25/4 2/37/4 1/20/4
f 5/23/5 6/26/5 4/25/5 3/19/5
