# Blender 3.6.15
# www.blender.org
o khan_home
v 10.421010 36.717430 -15.440400
v 10.421010 65.146629 -15.440400
v 22.935429 36.717430 -7.157610
v 22.935429 65.146629 -7.157610
v 22.935429 36.717430 7.157610
v 22.935429 65.146629 7.157610
v 10.421009 36.717430 15.440400
v 10.421009 65.146629 15.440400
v -2.495697 36.717430 15.440400
v -2.495697 65.146629 15.440400
v -2.495697 36.717430 -15.440401
v -2.495697 65.146629 -15.440401
v 10.268354 -2.805443 -17.850374
v 9.796062 39.627941 -15.900877
v 24.789995 -2.805443 -8.277472
v 24.789995 -2.805443 8.277472
v 10.268354 -2.805443 17.850374
v 9.796062 39.627941 15.900877
v -10.268354 -2.805443 17.850374
v -9.796062 39.627941 15.900877
v -24.789995 -2.805443 8.277472
v -22.999317 39.627941 7.197075
v -24.789995 -2.805443 -8.277472
v -22.999317 39.627941 -7.197075
v -10.268354 -2.805443 -17.850374
v -9.796062 39.627941 -15.900877
v 24.789995 41.654205 -8.277472
v 10.268354 41.654205 -17.850374
v 24.789995 41.654205 8.277472
v 10.268354 41.654205 17.850374
v -10.268354 41.654205 17.850374
v -24.789995 41.654205 8.277472
v -24.789995 41.654205 -8.277472
v -10.268354 41.654205 -17.850374
v 22.999317 41.654205 -7.197075
v 9.796062 41.654205 -15.900877
v 22.999317 41.654205 7.197075
v 9.796062 41.654205 15.900877
v -9.796062 41.654205 15.900877
v -22.999317 41.654205 7.197075
v -22.999317 41.654205 -7.197075
v -9.796062 41.654205 -15.900877
v -0.000000 29.786581 15.167171
v -0.000000 29.786581 19.787500
v 2.524882 28.893337 15.167171
v 2.524882 28.893337 19.787500
v 4.665373 27.162807 15.167171
v 4.665373 27.162807 19.787500
v 6.095604 24.419235 15.167171
v 6.095604 24.419235 19.787500
v 6.597834 20.616690 15.167171
v 6.597834 20.616690 19.787500
v -6.597834 20.616690 15.167171
v -6.597834 20.616690 19.787500
v -6.095604 24.419235 15.167171
v -6.095604 24.419235 19.787500
v -4.665373 27.162807 15.167171
v -4.665373 27.162807 19.787500
v -2.524882 28.893337 15.167171
v -2.524882 28.893337 19.787500
v 6.597834 0.163767 15.167171
v 6.597834 0.163766 19.787500
v -6.597834 0.163767 15.167171
v -6.597834 0.163766 19.787500
v -0.000000 28.445255 19.787500
v 2.155568 27.682671 19.787500
v 3.982970 26.205261 19.787500
v 5.204001 23.862991 19.787500
v 5.632769 20.616644 19.787500
v -5.632769 20.616644 19.787500
v -5.204001 23.862991 19.787500
v -3.982969 26.205261 19.787500
v -2.155568 27.682671 19.787500
v 5.632769 0.163766 19.787500
v -5.632769 0.163766 19.787500
v -0.000000 28.445255 18.714897
v 2.155568 27.682671 18.714897
v 3.982970 26.205261 18.714897
v 5.204001 23.862991 18.714897
v 5.632769 20.616644 18.714897
v -5.632769 20.616644 18.714897
v -5.204001 23.862991 18.714897
v -3.982969 26.205261 18.714897
v -2.155568 27.682671 18.714897
v 5.632769 0.163767 18.714897
v -5.632769 0.163767 18.714897
v 8.637352 -2.679223 19.719786
v 8.637352 1.000000 19.719786
v 7.979873 -2.679223 23.188725
v 7.979873 1.000000 23.188725
v 6.107530 -2.679223 23.413307
v 6.107530 1.000000 23.413307
v 3.305372 -2.679223 23.730633
v 3.305372 1.000000 23.730633
v -0.000000 -2.679223 24.061100
v -0.000000 1.000000 24.061100
v -3.305372 -2.679223 23.730633
v -3.305372 1.000000 23.730633
v -6.107530 -2.679223 23.413307
v -6.107530 1.000000 23.413307
v -7.979873 -2.679223 23.188725
v -7.979873 1.000000 23.188725
v -8.637352 -2.679223 19.719786
v -8.637352 1.000000 19.719786
v -8.637352 1.000000 16.803747
v -8.637352 -2.679223 16.803747
v 8.637352 1.000000 16.803747
v 8.637352 -2.679223 16.803747
v -5.758235 1.000000 16.803747
v -2.879117 1.000000 16.803747
v 0.000000 1.000000 16.803747
v 2.879117 1.000000 16.803747
v 5.758235 1.000000 16.803747
v 6.126466 1.000000 19.828978
v 3.183924 1.000000 19.981075
v 0.000000 1.000000 20.138725
v -3.183924 1.000000 19.981073
v -6.126465 1.000000 19.828974
v -23.172787 16.847893 10.799047
v -23.172787 28.540512 10.799047
v -23.498148 15.479347 8.871501
v -23.498148 29.909056 8.871501
v -13.398544 16.847893 17.216326
v -13.398544 28.540512 17.216326
v -11.435886 15.479347 16.790981
v -11.435886 29.909056 16.790981
v -24.316795 15.479347 10.047946
v -24.316795 29.909056 10.047946
v -12.254534 29.909056 17.967426
v -12.254534 15.479347 17.967426
v -22.636909 16.847893 10.053291
v -22.636909 28.540512 10.053291
v -12.862666 28.540512 16.470572
v -12.862666 16.847893 16.470572
v 23.172787 16.847893 -10.799047
v 23.172787 28.540512 -10.799047
v 23.498148 15.479347 -8.871501
v 23.498148 29.909056 -8.871501
v 13.398544 16.847893 -17.216326
v 13.398544 28.540512 -17.216326
v 11.435886 15.479347 -16.790981
v 11.435886 29.909056 -16.790981
v 24.316795 15.479347 -10.047946
v 24.316795 29.909056 -10.047946
v 12.254534 29.909056 -17.967426
v 12.254534 15.479347 -17.967426
v 22.636909 16.847893 -10.053291
v 22.636909 28.540512 -10.053291
v 12.862666 28.540512 -16.470572
v 12.862666 16.847893 -16.470572
v 9.549622 -0.824451 24.625353
v 9.549622 4.228989 24.625353
v 9.549622 -0.824451 22.625353
v 9.549622 4.228989 22.625353
v 11.549622 -0.824451 24.625353
v 11.549622 4.228989 24.625353
v 11.549622 -0.824451 22.625353
v 11.549622 4.228989 22.625353
v 10.118543 4.107784 24.056433
v 10.118543 32.146793 24.056433
v 10.118543 4.107784 23.194273
v 10.118543 32.146793 23.194273
v 10.980700 4.107784 24.056433
v 10.980700 32.146793 24.056433
v 10.980700 4.107784 23.194273
v 10.980700 32.146793 23.194273
v -9.549622 -0.824451 24.625353
v -9.549622 4.228989 24.625353
v -9.549622 -0.824451 22.625353
v -9.549622 4.228989 22.625353
v -11.549622 -0.824451 24.625353
v -11.549622 4.228989 24.625353
v -11.549622 -0.824451 22.625353
v -11.549622 4.228989 22.625353
v -10.118543 4.107784 24.056433
v -10.118543 32.146793 24.056433
v -10.118543 4.107784 23.194273
v -10.118543 32.146793 23.194273
v -10.980700 4.107784 24.056433
v -10.980700 32.146793 24.056433
v -10.980700 4.107784 23.194273
v -10.980700 32.146793 23.194273
v -13.243728 32.627342 24.899561
v 13.243728 32.627342 24.899561
v -13.243728 34.507175 14.559237
v 13.243728 34.507175 14.559237
v -13.243728 27.521229 31.394882
v 13.243728 27.521229 31.394882
v -12.633852 61.110279 -13.243729
v -12.633854 61.110279 13.243726
v -2.293528 62.990116 -13.243729
v -2.293530 62.990116 13.243726
v -19.129173 56.004169 -13.243728
v -19.129177 56.004169 13.243726
v -13.243728 31.152332 24.235500
v 13.243728 31.152332 24.235500
v -13.243728 32.962494 14.278419
v 13.243728 32.962494 14.278419
v -13.243728 26.286953 30.424591
v 13.243728 26.286953 30.424591
v -11.969791 59.635269 -13.243729
v -11.969793 59.635269 13.243726
v -2.012709 61.445435 -13.243729
v -2.012711 61.445435 13.243726
v -18.158884 54.769894 -13.243728
v -18.158888 54.769894 13.243726
v -22.989473 20.383018 10.590284
v -22.989473 28.540512 10.590284
v -13.215229 28.540512 17.007565
v -13.215229 20.383018 17.007565
v 22.989473 20.383018 -10.590284
v 22.989473 28.540512 -10.590284
v 13.215229 28.540512 -17.007565
v 13.215229 20.383018 -17.007565
v -11.450178 3.281846 17.510227
v -11.798790 4.552865 18.916382
v -9.502530 3.281846 19.386057
v -10.894606 4.552865 19.787228
v -10.153226 3.281846 22.010685
v -11.196688 4.552865 21.005701
v -12.751568 3.281846 22.759480
v -12.402955 4.552865 21.353325
v -14.699215 3.281846 20.883650
v -13.307142 4.552865 20.482479
v -14.048520 3.281846 18.259022
v -13.005059 4.552865 19.264006
v -11.450178 1.267708 17.510227
v -9.502530 1.267708 19.386057
v -10.153226 1.267708 22.010685
v -12.751568 1.267708 22.759480
v -14.699215 1.267708 20.883650
v -14.048520 1.267708 18.259022
v -11.817032 -0.174854 18.989952
v -10.967440 -0.174854 19.808216
v -11.251282 -0.174854 20.953119
v -12.384717 -0.174854 21.279755
v -13.234309 -0.174854 20.461489
v -12.950466 -0.174854 19.316587
v -11.550615 5.138051 17.915340
v -9.903588 5.138051 19.501633
v -10.453849 5.138051 21.721151
v -12.651134 5.138051 22.354366
v -14.298161 5.138051 20.768072
v -13.747900 5.138051 18.548555
v 13.276274 48.126637 14.848009
v 13.276274 57.986732 14.848009
v 11.676329 46.972576 14.451096
v 11.676329 59.140789 14.451096
v 21.526899 48.126637 9.449062
v 21.526899 57.986732 9.449062
v 21.858313 46.972576 7.788328
v 21.858313 59.140789 7.788328
v 12.310595 46.972576 15.479917
v 12.310595 59.140789 15.479917
v 22.492582 59.140789 8.817150
v 22.492582 46.972576 8.817150
v 12.949172 48.126637 14.298994
v 12.949172 57.986732 14.298994
v 21.199797 57.986732 8.900047
v 21.199797 48.126637 8.900047
v 13.288682 51.107719 14.928610
v 13.288682 57.986732 14.928610
v 21.539305 57.986732 9.529661
v 21.539305 51.107719 9.529661
v -3.396158 44.426517 3.004242
v -5.247982 46.247902 3.942688
v -3.607435 44.426517 6.873459
v -5.346067 46.247902 5.738953
v -7.063919 44.426517 8.625092
v -6.950727 46.247902 6.552143
v -10.309118 44.426517 6.507507
v -8.457294 46.247902 5.569061
v -10.097839 44.426517 2.638294
v -8.359211 46.247902 3.772797
v -6.641357 44.426517 0.886658
v -6.754550 46.247902 2.959610
v -3.396158 41.540234 3.004242
v -3.607435 41.540234 6.873459
v -7.063919 41.540234 8.625092
v -10.309118 41.540234 6.507507
v -10.097839 41.540234 2.638294
v -6.641357 41.540234 0.886658
v -5.344871 39.473026 3.991783
v -5.437034 39.473026 5.679596
v -6.944803 39.473026 6.443684
v -8.360409 39.473026 5.519962
v -8.268244 39.473026 3.832153
v -6.760475 39.473026 3.068066
v -3.929670 47.086479 3.274605
v -4.108335 47.086479 6.546608
v -7.031311 47.086479 8.027878
v -9.775610 47.086479 6.237141
v -9.596943 47.086479 2.965141
v -6.673967 47.086479 1.483871
v -13.885767 39.284523 2.353053
v -13.885767 51.102951 2.353053
v -16.494717 39.284523 -9.173819
v -16.494717 51.102951 -9.173819
v -2.358895 39.284523 -0.255897
v -2.358895 51.102951 -0.255897
v -4.967844 39.284523 -11.782768
v -4.967844 51.102951 -11.782768
v 16.027285 -0.335601 -23.549488
v 16.027285 5.930896 -23.549488
v 14.002812 -0.335601 -17.619013
v 14.002812 5.930896 -17.619013
v 10.096806 -0.335601 -25.573961
v 10.096806 5.930896 -25.573961
v 8.072333 -0.335601 -19.643486
v 8.072333 5.930896 -19.643486
v -12.222870 38.888866 12.752180
v -12.222870 43.942307 12.752180
v -12.222870 38.888866 10.752180
v -12.222870 43.942307 10.752180
v -10.222868 38.888866 12.752180
v -10.222868 43.942307 12.752180
v -10.222868 38.888866 10.752180
v -10.222868 43.942307 10.752180
v -11.653950 43.821102 12.183260
v -11.653950 58.643978 12.183260
v -11.653950 43.821102 11.321100
v -11.653950 58.643978 11.321100
v -10.791790 43.821102 12.183260
v -10.791790 58.643978 12.183260
v -10.791790 43.821102 11.321100
v -10.791790 58.643978 11.321100
v -12.222870 38.888866 -12.752180
v -12.222870 43.942307 -12.752180
v -12.222870 38.888866 -10.752180
v -12.222870 43.942307 -10.752180
v -10.222868 38.888866 -12.752180
v -10.222868 43.942307 -12.752180
v -10.222868 38.888866 -10.752180
v -10.222868 43.942307 -10.752180
v -11.653950 43.821102 -12.183260
v -11.653950 58.643978 -12.183260
v -11.653950 43.821102 -11.321100
v -11.653950 58.643978 -11.321100
v -10.791790 43.821102 -12.183260
v -10.791790 58.643978 -12.183260
v -10.791790 43.821102 -11.321100
v -10.791790 58.643978 -11.321100
v -3.663883 48.614273 2.006022
v -3.663883 58.474369 2.006022
v -2.455675 47.460213 0.884596
v -2.455675 59.628426 0.884596
v -3.664095 48.614273 11.866118
v -3.664095 58.474369 11.866118
v -2.455938 47.460213 13.052805
v -2.455938 59.628426 13.052805
v -3.663855 47.460213 0.851968
v -3.663855 59.628426 0.851968
v -3.664120 59.628426 13.020180
v -3.664120 47.460213 13.020180
v -2.890173 48.614273 2.038646
v -2.890173 58.474369 2.038646
v -2.890385 58.474369 11.898739
v -2.890385 48.614273 11.898739
v -3.496082 51.595356 1.972271
v -3.496082 58.474369 1.972271
v -3.496292 58.474369 11.832363
v -3.496292 51.595356 11.832363
v -3.901546 -0.563320 -24.871147
v -3.901546 13.585996 -24.871147
v -1.779869 -0.563320 -23.992321
v -1.779869 13.585996 -23.992321
v -0.901042 -0.563320 -21.870642
v -0.901042 13.585996 -21.870642
v -1.779869 -0.563320 -19.748962
v -1.779869 13.585996 -19.748962
v -3.901546 -0.563320 -18.870138
v -3.901546 13.585996 -18.870138
v -6.023222 -0.563320 -19.748962
v -6.023222 13.585996 -19.748962
v -6.902050 -0.563320 -21.870642
v -6.902050 13.585996 -21.870642
v -6.023222 -0.563320 -23.992321
v -6.023222 13.585996 -23.992321
v -2.315814 14.775558 -23.456375
v -3.901546 14.775558 -24.113207
v -1.658982 14.775558 -21.870642
v -2.315814 14.775558 -20.284908
v -3.901546 14.775558 -19.628078
v -5.487278 14.775558 -20.284908
v -6.144110 14.775558 -21.870642
v -5.487278 14.775558 -23.456375
v -3.383400 15.360982 -22.388788
v -3.901546 15.360982 -22.603413
v -3.168776 15.360982 -21.870642
v -3.383400 15.360982 -21.352495
v -3.901546 15.360982 -21.137873
v -4.419693 15.360982 -21.352495
v -4.634315 15.360982 -21.870642
v -4.419693 15.360982 -22.388788
v -3.901547 15.360982 -21.870642
v -1.775090 3.785682 -20.696161
v -1.775090 5.785682 -20.696161
v -1.775090 3.785682 -22.696161
v -1.775090 5.785682 -22.696161
v 3.172453 3.771452 -20.696161
v 2.761063 5.728684 -20.696161
v 3.172453 3.771452 -22.696161
v 2.761063 5.728684 -22.696161
v 4.442926 6.326483 -21.865103
v 5.124634 4.446250 -21.865103
v 3.795110 3.964210 -20.450888
v 3.113401 5.844443 -20.450888
v 5.340588 7.136330 -20.088228
v 6.406531 5.444063 -20.088228
v 4.714264 4.378119 -20.088226
v 3.648321 6.070386 -20.088226
v 5.340590 7.136331 -17.393637
v 6.406533 5.444065 -17.393637
v 4.714266 4.378120 -17.393635
v 3.648323 6.070387 -17.393635
v -7.243011 43.897476 -17.711351
v -6.249455 43.897476 -18.047472
v -6.582707 44.034309 -19.032551
v -7.576263 44.034309 -18.696430
v -9.110401 -0.388426 -23.231274
v -8.116844 -0.388426 -23.567390
v -8.450098 -0.251585 -24.552471
v -9.443654 -0.251585 -24.216351
v -7.515778 37.428699 -18.517639
v -6.522222 37.428699 -18.853760
v -6.855474 37.565533 -19.838839
v -7.849030 37.565533 -19.502718
v -7.221815 20.837557 -20.921722
v -8.215372 20.837557 -20.585606
v -8.548626 20.974394 -21.570686
v -7.555068 20.974394 -21.906809
v -7.455616 15.292894 -21.612829
v -8.449172 15.292894 -21.276707
v -8.782426 15.429729 -22.261787
v -7.788869 15.429729 -22.597910
v -8.837634 6.080357 -22.424984
v -7.844078 6.080357 -22.761105
v -8.177331 6.217193 -23.746185
v -9.170887 6.217193 -23.410065
v -7.593561 35.584045 -18.747561
v -6.600005 35.584053 -19.083681
v -6.933257 35.720886 -20.068760
v -7.926813 35.720875 -19.732641
v -7.826458 30.060814 -19.435993
v -6.832901 30.060814 -19.772114
v -7.166154 30.197647 -20.757198
v -8.159711 30.197647 -20.421076
v -7.904165 28.217951 -19.665693
v -6.910608 28.217951 -20.001812
v -7.243861 28.354784 -20.986893
v -8.237418 28.354784 -20.650776
v -8.137515 22.683994 -20.355461
v -7.143958 22.683994 -20.691582
v -7.477211 22.820831 -21.676662
v -8.470768 22.820831 -21.340542
v -7.533399 13.448243 -21.842751
v -8.526956 13.448243 -21.506630
v -8.860208 13.585077 -22.491711
v -7.866652 13.585077 -22.827833
v -7.766295 7.925006 -22.531183
v -8.759851 7.925006 -22.195061
v -9.093104 8.061839 -23.180141
v -8.099547 8.061839 -23.516264
v -13.312832 43.897476 -15.657932
v -14.306388 43.897476 -15.321813
v -14.639639 44.034309 -16.306890
v -13.646085 44.034309 -16.643011
v -15.180222 -0.388426 -21.177851
v -16.173779 -0.388426 -20.841734
v -16.507030 -0.251585 -21.826811
v -15.513474 -0.251585 -22.162933
v -13.585598 37.428699 -16.464220
v -14.579154 37.428699 -16.128099
v -14.912407 37.565533 -17.113180
v -13.918851 37.565533 -17.449299
v -15.278748 20.837557 -18.196066
v -14.285191 20.837557 -18.532185
v -14.618446 20.974394 -19.517269
v -15.612000 20.974394 -19.181149
v -15.512547 15.292894 -18.887169
v -14.518991 15.292894 -19.223289
v -14.852244 15.429729 -20.208370
v -15.845800 15.429729 -19.872250
v -14.907454 6.080357 -20.371565
v -15.901010 6.080357 -20.035448
v -16.234262 6.217193 -21.020525
v -15.240706 6.217193 -21.356647
v -13.663383 35.584053 -16.694143
v -14.656936 35.584053 -16.358023
v -14.990190 35.720886 -17.343102
v -13.996635 35.720886 -17.679220
v -13.896277 30.060814 -17.382574
v -14.889833 30.060814 -17.046455
v -15.223087 30.197647 -18.031536
v -14.229530 30.197647 -18.367655
v -13.973985 28.217951 -17.612272
v -14.967541 28.217945 -17.276154
v -15.300794 28.354778 -18.261234
v -14.307238 28.354784 -18.597355
v -14.207336 22.683994 -18.302044
v -15.200890 22.683994 -17.965923
v -15.534142 22.820831 -18.951004
v -14.540586 22.820831 -19.287123
v -15.590330 13.448243 -19.117092
v -14.596776 13.448243 -19.453211
v -14.930027 13.585077 -20.438293
v -15.923583 13.585077 -20.102173
v -15.823225 7.925006 -19.805523
v -14.829671 7.925006 -20.141642
v -15.162925 8.061839 -21.126724
v -16.156479 8.061839 -20.790604
v 10.921037 64.883659 -18.530481
v 25.939960 64.883659 -8.590059
v 25.939960 64.883659 8.590060
v 10.921036 64.883659 18.530481
v -4.566368 64.883659 18.530481
v -4.580688 64.883659 -18.530483
v -4.566368 75.185570 0.000000
v 10.921037 63.226135 -18.530481
v 25.939960 63.226135 -8.590059
v 25.939960 63.226135 8.590060
v 10.921036 63.226135 18.530481
v -4.566368 63.226135 18.530481
v -4.580688 63.226135 -18.530483
v 10.868643 63.226135 -12.406850
v 20.924374 63.226135 -5.751366
v 20.924374 63.226135 5.751366
v 10.868642 63.226135 12.406850
v 0.499247 63.226135 12.406850
v 0.489659 63.226135 -12.406851
vn 0.2882 -0.0000 -0.9576
vn 0.5519 -0.0000 -0.8339
vn 1.0000 -0.0000 -0.0000
vn 0.5519 -0.0000 0.8339
vn 0.2882 -0.0000 0.9576
vn -0.0000 -0.0000 1.0000
vn -1.0000 -0.0000 -0.0000
vn -0.0000 -0.0000 -1.0000
vn -0.2873 -0.0000 0.9578
vn -0.5504 -0.0000 0.8349
vn 0.2873 -0.0000 0.9578
vn -0.5504 -0.0000 -0.8349
vn -0.2873 -0.0000 -0.9578
vn 0.2873 -0.0000 -0.9578
vn 0.5504 -0.0000 0.8349
vn -0.0000 1.0000 -0.0000
vn 0.5504 -0.0000 -0.8349
vn 0.4881 0.8728 -0.0000
vn 0.7740 0.6332 -0.0000
vn 0.9536 0.3012 -0.0000
vn 0.9978 0.0656 -0.0000
vn -0.9978 0.0656 -0.0000
vn -0.9536 0.3012 -0.0000
vn -0.7740 0.6332 -0.0000
vn -0.4881 0.8728 -0.0000
vn 0.4881 -0.8728 -0.0000
vn 0.7740 -0.6332 -0.0000
vn -0.7740 -0.6332 -0.0000
vn -0.4881 -0.8728 -0.0000
vn -0.9978 -0.0656 -0.0000
vn -0.9536 -0.3012 -0.0000
vn -0.0000 -1.0000 -0.0000
vn 0.9536 -0.3012 -0.0000
vn 0.9978 -0.0656 -0.0000
vn 0.9956 -0.0000 0.0935
vn 0.9825 -0.0000 0.1862
vn 0.1191 -0.0000 0.9929
vn 0.1158 -0.0000 0.9933
vn 0.1060 -0.0000 0.9944
vn -0.1060 -0.0000 0.9944
vn -0.1158 -0.0000 0.9933
vn -0.1191 -0.0000 0.9929
vn -0.9825 -0.0000 0.1862
vn -0.9956 -0.0000 0.0935
vn -0.8208 -0.0000 -0.5712
vn 0.8208 -0.0000 0.5712
vn -0.5488 -0.0000 0.8359
vn 0.8121 -0.0000 0.5835
vn -0.8121 -0.0000 -0.5835
vn 0.5488 -0.0000 -0.8359
vn -0.0000 0.9119 0.4105
vn -0.0000 0.9839 0.1789
vn -0.0000 0.7862 0.6180
vn -0.4105 0.9119 -0.0000
vn -0.1789 0.9839 -0.0000
vn -0.6180 0.7862 -0.0000
vn -0.0000 -0.9119 -0.4105
vn -0.0000 -0.9839 -0.1789
vn -0.0000 -0.7862 -0.6180
vn 0.4105 -0.9119 -0.0000
vn 0.1789 -0.9839 -0.0000
vn 0.6180 -0.7862 -0.0000
vn -0.0000 -0.6180 0.7862
vn -0.7862 -0.6180 -0.0000
vn 0.2236 0.3700 -0.9017
vn 0.1587 0.7517 -0.6401
vn 0.6337 0.7517 -0.1826
vn 0.8927 0.3700 -0.2573
vn 0.4750 0.7517 0.4575
vn 0.6691 0.3700 0.6445
vn -0.1587 0.7517 0.6401
vn -0.2236 0.3700 0.9017
vn -0.6337 0.7517 0.1826
vn -0.8927 0.3700 0.2573
vn -0.1188 -0.8697 0.4790
vn 0.3554 -0.8697 0.3423
vn -0.4750 0.7517 -0.4575
vn -0.6691 0.3700 -0.6445
vn -0.8980 -0.3558 0.2588
vn -0.2249 -0.3558 0.9071
vn -0.6604 -0.7264 0.1903
vn -0.1654 -0.7264 0.6671
vn 0.6731 -0.3558 0.6483
vn 0.8980 -0.3558 -0.2588
vn -0.6731 -0.3558 -0.6483
vn 0.2249 -0.3558 -0.9071
vn 0.4950 -0.7264 0.4768
vn 0.6604 -0.7264 -0.1903
vn -0.4950 -0.7264 -0.4768
vn 0.1654 -0.7264 -0.6671
vn 0.1188 -0.8697 -0.4790
vn -0.3554 -0.8697 -0.3423
vn -0.4742 -0.8697 0.1367
vn 0.4742 -0.8697 -0.1367
vn -0.8512 -0.0000 0.5248
vn 0.8512 -0.0000 -0.5248
vn 0.5476 -0.0000 0.8368
vn 0.8591 -0.0000 -0.5118
vn -0.8591 -0.0000 0.5118
vn 0.8287 0.3700 -0.4200
vn 0.5883 0.7517 -0.2981
vn 0.5523 0.7517 0.3604
vn 0.7780 0.3700 0.5077
vn -0.0360 0.7517 0.6585
vn -0.0507 0.3700 0.9276
vn -0.5883 0.7517 0.2981
vn -0.8287 0.3700 0.4200
vn -0.5523 0.7517 -0.3604
vn -0.7780 0.3700 -0.5077
vn -0.4402 -0.8697 0.2231
vn -0.0269 -0.8697 0.4928
vn 0.0360 0.7517 -0.6585
vn 0.0507 0.3700 -0.9276
vn -0.7827 -0.3558 -0.5107
vn -0.8336 -0.3558 0.4225
vn -0.5756 -0.7264 -0.3756
vn -0.6131 -0.7264 0.3107
vn -0.0510 -0.3558 0.9332
vn 0.7827 -0.3558 0.5107
vn 0.0510 -0.3558 -0.9332
vn 0.8336 -0.3558 -0.4225
vn -0.0375 -0.7264 0.6863
vn 0.5756 -0.7264 0.3756
vn 0.0375 -0.7264 -0.6863
vn 0.6131 -0.7264 -0.3107
vn 0.4402 -0.8697 -0.2231
vn 0.0269 -0.8697 -0.4928
vn -0.4133 -0.8697 -0.2697
vn 0.4133 -0.8697 0.2697
vn -0.9753 -0.0000 0.2208
vn -0.2208 -0.0000 -0.9753
vn 0.9753 -0.0000 -0.2208
vn 0.2208 -0.0000 0.9753
vn 0.9464 -0.0000 0.3231
vn -0.3231 -0.0000 0.9464
vn -0.9464 -0.0000 -0.3231
vn 0.3231 -0.0000 -0.9464
vn 0.0270 -0.0000 -0.9996
vn -0.0270 -0.0000 0.9996
vn -0.0421 -0.0000 0.9991
vn 0.0421 -0.0000 -0.9991
vn -0.0000 0.2631 -0.9648
vn 0.6822 0.2631 -0.6822
vn 0.7071 -0.0000 -0.7071
vn 0.9648 0.2631 -0.0000
vn 0.6822 0.2631 0.6822
vn 0.7071 -0.0000 0.7071
vn -0.0000 0.2631 0.9648
vn -0.6822 0.2631 0.6822
vn -0.7071 -0.0000 0.7071
vn -0.9648 0.2631 -0.0000
vn 0.6758 0.7370 -0.0000
vn 0.4779 0.7370 0.4779
vn -0.6822 0.2631 -0.6822
vn -0.7071 -0.0000 -0.7071
vn -0.4779 0.7370 -0.4779
vn -0.6758 0.7370 -0.0000
vn -0.2275 0.9738 -0.0000
vn -0.1608 0.9738 -0.1608
vn -0.4779 0.7370 0.4779
vn -0.0000 0.7370 0.6758
vn 0.4779 0.7370 -0.4779
vn -0.0000 0.7370 -0.6758
vn 0.2275 0.9738 -0.0000
vn 0.1608 0.9738 -0.1608
vn 0.1608 0.9738 0.1608
vn -0.0000 0.9738 0.2275
vn -0.1608 0.9738 0.1608
vn -0.0000 0.9738 -0.2275
vn -0.4164 0.9079 -0.0475
vn -0.4017 0.9150 -0.0384
vn -0.5059 0.8607 -0.0579
vn -0.5164 0.8556 -0.0359
vn 0.1894 0.0540 -0.9804
vn 0.2014 0.0574 -0.9778
vn -0.1343 0.9909 0.0015
vn -0.1900 0.9818 0.0021
vn -0.2226 -0.0634 0.9729
vn -0.2055 -0.0585 0.9769
vn -0.0029 -1.0000 -0.0000
vn 0.1391 -0.9903 -0.0035
vn 0.1789 -0.9839 -0.0045
vn 0.0126 0.9999 -0.0000
vn 0.5749 0.2434 -0.7812
vn 0.5530 0.2275 -0.8015
vn -0.3952 -0.1504 0.9062
vn -0.3949 -0.1509 0.9063
vn 0.4149 -0.9090 0.0406
vn 0.3823 -0.9237 0.0232
vn -0.8461 -0.5330 -0.0000
vn 0.8257 0.4689 -0.3137
vn 0.8219 0.4638 -0.3307
vn -0.3733 -0.1826 0.9095
vn 0.5163 -0.8560 0.0272
vn 0.5018 -0.8635 0.0499
vn 0.5330 -0.8461 -0.0000
vn -0.5330 0.8461 -0.0000
vn 0.8461 0.5330 -0.0000
vn -0.3177 0.1305 -0.9392
vn 0.0418 0.9915 0.1236
vn 0.3177 -0.1305 0.9392
vn 0.9473 -0.0000 -0.3205
vn -0.9473 -0.0000 0.3205
vn -0.0418 -0.9915 -0.1236
vn 0.2824 0.9496 -0.1360
vn 0.1406 0.9106 -0.3887
vn 0.1549 0.9879 -0.0001
vn 0.1406 0.9106 0.3887
vn 0.2824 0.9496 0.1360
vn -0.0000 0.8740 -0.4859
vn -0.0000 0.8740 0.4859
vn -1.0000 0.0002 0.0004
vn -1.0000 0.0007 0.0004
vn -1.0000 -0.0000 0.0004
vt 0.627306 0.290893
vt 0.627306 0.489100
vt 0.522677 0.489100
vt 0.522677 0.290893
vt 0.422872 0.489100
vt 0.422872 0.290893
vt 0.318244 0.489100
vt 0.318244 0.290893
vt 0.228189 0.489100
vt 0.228189 0.290893
vt 0.012890 0.489100
vt 0.012890 0.290893
vt 0.717361 0.290893
vt 0.717361 0.489100
vt 0.341320 0.005731
vt 0.341320 0.261785
vt 0.230379 0.261785
vt 0.230379 0.005731
vt 0.468860 0.005731
vt 0.468860 0.261785
vt 0.122354 0.005731
vt 0.122354 0.261785
vt 0.011920 0.261785
vt 0.011920 0.005731
vt 0.867915 0.005731
vt 0.867915 0.261785
vt 0.766714 0.261785
vt 0.766714 0.005731
vt 0.580501 0.005731
vt 0.580501 0.261785
vt 0.924892 0.324595
vt 0.924892 0.447355
vt 0.725630 0.447355
vt 0.725630 0.324595
vt 0.678697 0.005731
vt 0.678697 0.261785
vt 0.230379 0.281126
vt 0.122354 0.281126
vt 0.122354 0.271341
vt 0.230379 0.271341
vt 0.341320 0.281126
vt 0.341320 0.271341
vt 0.468860 0.281126
vt 0.468860 0.271341
vt 0.766714 0.271341
vt 0.678697 0.271341
vt 0.580501 0.271341
vt 0.011920 0.271341
vt 0.867915 0.271341
vt 0.011920 0.281126
vt 0.867915 0.281126
vt 0.766714 0.281126
vt 0.870356 0.530083
vt 0.780166 0.530083
vt 0.912009 0.191995
vt 0.884970 0.191995
vt 0.884970 0.177471
vt 0.912009 0.177471
vt 0.884970 0.162305
vt 0.912009 0.162305
vt 0.884970 0.145144
vt 0.912009 0.145144
vt 0.884970 0.123378
vt 0.912009 0.124383
vt 0.912184 0.124062
vt 0.884928 0.123293
vt 0.884928 0.145144
vt 0.912184 0.145144
vt 0.884928 0.162305
vt 0.912184 0.162305
vt 0.884928 0.177471
vt 0.912184 0.177471
vt 0.884928 0.191995
vt 0.912184 0.191995
vt 0.878923 0.162305
vt 0.878923 0.177471
vt 0.884970 0.006055
vt 0.912009 0.005922
vt 0.912184 0.005450
vt 0.884928 0.005410
vt 0.878859 0.145144
vt 0.878859 0.123681
vt 0.878859 0.191995
vt 0.878859 0.177471
vt 0.878923 0.145144
vt 0.878859 0.162305
vt 0.878923 0.123573
vt 0.878923 0.005399
vt 0.878859 0.006062
vt 0.878923 0.191995
vt 0.872905 0.162305
vt 0.872905 0.177471
vt 0.872693 0.177471
vt 0.872693 0.162305
vt 0.872693 0.145144
vt 0.872693 0.123533
vt 0.872905 0.191995
vt 0.872693 0.191995
vt 0.872905 0.123417
vt 0.872905 0.145144
vt 0.872905 0.005384
vt 0.872693 0.006064
vt 0.981982 0.187015
vt 0.969230 0.197324
vt 0.954190 0.202645
vt 0.939149 0.197324
vt 0.926398 0.187015
vt 0.917878 0.170671
vt 0.914886 0.148020
vt 0.914886 0.005307
vt 0.993493 0.005307
vt 0.993493 0.148020
vt 0.990501 0.170671
vt 0.956455 0.743967
vt 0.956327 0.714794
vt 0.984323 0.714671
vt 0.984450 0.743845
vt 0.929244 0.635578
vt 0.927056 0.664468
vt 0.912290 0.663199
vt 0.914437 0.634457
vt 0.890504 0.661439
vt 0.892253 0.632897
vt 0.865505 0.659798
vt 0.866023 0.631634
vt 0.840509 0.661253
vt 0.839197 0.632133
vt 0.818497 0.662825
vt 0.816533 0.633457
vt 0.803538 0.664051
vt 0.801400 0.634524
vt 0.745958 0.743832
vt 0.746092 0.714578
vt 0.774165 0.714707
vt 0.774031 0.743961
vt 0.933333 0.744068
vt 0.797216 0.744068
vt 0.797351 0.714814
vt 0.820174 0.715033
vt 0.842825 0.715196
vt 0.865379 0.715301
vt 0.887900 0.715229
vt 0.910476 0.715097
vt 0.933205 0.714895
vt 0.913089 0.691270
vt 0.932886 0.691787
vt 0.890090 0.690435
vt 0.865413 0.689438
vt 0.840706 0.690334
vt 0.817590 0.691099
vt 0.797668 0.691602
vt 0.533843 0.512089
vt 0.533843 0.611348
vt 0.525099 0.611348
vt 0.525099 0.512089
vt 0.640286 0.512089
vt 0.640286 0.611348
vt 0.631031 0.611348
vt 0.631031 0.512089
vt 0.541838 0.520361
vt 0.622671 0.520361
vt 0.616264 0.527385
vt 0.548182 0.527385
vt 0.533843 0.503331
vt 0.631031 0.503331
vt 0.631031 0.621962
vt 0.533843 0.621962
vt 0.541838 0.603124
vt 0.622671 0.603124
vt 0.548182 0.595773
vt 0.616264 0.595773
vt 0.345224 0.579000
vt 0.413305 0.579000
vt 0.413305 0.647490
vt 0.345224 0.647490
vt 0.601171 0.683995
vt 0.642583 0.683995
vt 0.642583 0.700384
vt 0.601172 0.700384
vt 0.601171 0.634826
vt 0.642583 0.634826
vt 0.642583 0.651216
vt 0.601172 0.651216
vt 0.642583 0.667605
vt 0.601172 0.667605
vt 0.655627 0.656402
vt 0.655627 0.910258
vt 0.647817 0.910258
vt 0.647817 0.656402
vt 0.658973 0.634826
vt 0.658973 0.651216
vt 0.679056 0.656402
vt 0.679056 0.910258
vt 0.671246 0.910258
vt 0.671246 0.656402
vt 0.663437 0.910258
vt 0.663437 0.656402
vt 0.601172 0.683995
vt 0.601172 0.700384
vt 0.642583 0.700384
vt 0.601172 0.634826
vt 0.355478 0.756287
vt 0.578364 0.756287
vt 0.578364 0.841066
vt 0.355478 0.841066
vt 0.355478 0.689536
vt 0.578364 0.689536
vt 0.578668 0.755930
vt 0.578668 0.841299
vt 0.355235 0.841299
vt 0.355235 0.755930
vt 0.355235 0.689521
vt 0.578668 0.689521
vt 0.341415 0.841066
vt 0.341415 0.756287
vt 0.591759 0.756287
vt 0.591759 0.841066
vt 0.355478 0.673548
vt 0.578364 0.673548
vt 0.591759 0.689536
vt 0.341415 0.689536
vt 0.943603 0.209766
vt 0.943603 0.254685
vt 0.879218 0.254685
vt 0.879218 0.209766
vt 0.690596 0.524140
vt 0.685756 0.537339
vt 0.676561 0.532804
vt 0.675201 0.518452
vt 0.757738 0.527813
vt 0.754318 0.543830
vt 0.742036 0.549020
vt 0.740490 0.530009
vt 0.726843 0.548601
vt 0.726352 0.531306
vt 0.711288 0.550000
vt 0.713440 0.530723
vt 0.746477 0.558007
vt 0.730452 0.561056
vt 0.697408 0.544704
vt 0.701344 0.528109
vt 0.713718 0.521812
vt 0.725004 0.521808
vt 0.715102 0.509670
vt 0.723674 0.508497
vt 0.737621 0.519501
vt 0.754408 0.512475
vt 0.703344 0.519741
vt 0.682229 0.506587
vt 0.693766 0.515567
vt 0.732451 0.505292
vt 0.741255 0.500790
vt 0.707079 0.509079
vt 0.695298 0.500790
vt 0.699976 0.506695
vt 0.797442 0.547976
vt 0.797442 0.563459
vt 0.784033 0.571201
vt 0.784033 0.540235
vt 0.690438 0.553346
vt 0.678957 0.543014
vt 0.709016 0.562184
vt 0.760929 0.548049
vt 0.671680 0.535033
vt 0.770625 0.563459
vt 0.770625 0.547976
vt 0.524758 0.611348
vt 0.525100 0.512089
vt 0.640258 0.512089
vt 0.640326 0.611348
vt 0.345224 0.579039
vt 0.413305 0.579039
vt 0.413305 0.647450
vt 0.345224 0.647450
vt 0.943718 0.209686
vt 0.943718 0.254766
vt 0.879103 0.254766
vt 0.879103 0.209686
vt 0.753137 0.602781
vt 0.757402 0.630385
vt 0.733583 0.635406
vt 0.732082 0.604793
vt 0.710460 0.631635
vt 0.712477 0.603472
vt 0.689254 0.624259
vt 0.695703 0.599077
vt 0.674610 0.610003
vt 0.680999 0.592376
vt 0.702732 0.647468
vt 0.681261 0.636481
vt 0.661818 0.598954
vt 0.662617 0.583806
vt 0.781264 0.598151
vt 0.775586 0.623020
vt 0.685937 0.581024
vt 0.699083 0.587346
vt 0.695365 0.567761
vt 0.703835 0.573254
vt 0.713378 0.590591
vt 0.730114 0.590739
vt 0.671276 0.569035
vt 0.748550 0.587107
vt 0.773495 0.575009
vt 0.714932 0.573410
vt 0.727559 0.570716
vt 0.687713 0.560829
vt 0.740800 0.568924
vt 0.752509 0.560829
vt 0.827178 0.588197
vt 0.827178 0.611184
vt 0.807271 0.622677
vt 0.807272 0.576704
vt 0.789018 0.630909
vt 0.764056 0.647618
vt 0.663186 0.620147
vt 0.733513 0.654387
vt 0.650907 0.601510
vt 0.787365 0.611184
vt 0.787365 0.588197
vt 0.112179 0.716206
vt 0.215370 0.716206
vt 0.215370 0.819398
vt 0.112179 0.819398
vt 0.215370 0.922589
vt 0.112179 0.922589
vt 0.112179 0.509823
vt 0.215370 0.509823
vt 0.215370 0.613015
vt 0.112179 0.613015
vt 0.215353 0.922499
vt 0.215353 0.819307
vt 0.318545 0.819307
vt 0.318545 0.922499
vt 0.221840 0.653132
vt 0.276556 0.653132
vt 0.276556 0.707847
vt 0.221840 0.707847
vt 0.276556 0.762563
vt 0.221840 0.762563
vt 0.221840 0.543701
vt 0.276556 0.543701
vt 0.276556 0.598417
vt 0.221840 0.598417
vt 0.330392 0.707908
vt 0.330392 0.762562
vt 0.276530 0.762562
vt 0.276530 0.707908
vt 0.601160 0.667605
vt 0.642588 0.667605
vt 0.642588 0.684001
vt 0.601160 0.684001
vt 0.642588 0.700397
vt 0.601160 0.700397
vt 0.601160 0.634813
vt 0.642588 0.634813
vt 0.642588 0.651209
vt 0.601160 0.651209
vt 0.655638 0.910258
vt 0.655638 0.656402
vt 0.658984 0.634813
vt 0.658984 0.651209
vt 0.647839 0.910258
vt 0.647839 0.656402
vt 0.679035 0.656402
vt 0.679035 0.910258
vt 0.671236 0.910258
vt 0.671236 0.656402
vt 0.601160 0.684001
vt 0.642588 0.684001
vt 0.642588 0.700397
vt 0.671230 0.656402
vt 0.671230 0.910258
vt 0.658984 0.651209
vt 0.658984 0.634813
vt 0.679024 0.656402
vt 0.679024 0.910258
vt 0.647849 0.656402
vt 0.655643 0.656402
vt 0.655643 0.910258
vt 0.647849 0.910258
vt 0.524874 0.611348
vt 0.525285 0.512089
vt 0.640322 0.512089
vt 0.640181 0.611348
vt 0.345224 0.579024
vt 0.413305 0.579024
vt 0.413305 0.647465
vt 0.345224 0.647465
vt 0.879103 0.254766
vt 0.879103 0.209686
vt 0.469771 0.497397
vt 0.469771 0.589678
vt 0.457242 0.589678
vt 0.457242 0.497397
vt 0.444921 0.589678
vt 0.444921 0.497397
vt 0.431487 0.589678
vt 0.431487 0.497397
vt 0.419301 0.589678
vt 0.419301 0.497397
vt 0.516539 0.497397
vt 0.516539 0.589678
vt 0.505575 0.589678
vt 0.505575 0.497397
vt 0.494143 0.589678
vt 0.494143 0.497397
vt 0.444921 0.603013
vt 0.431487 0.603013
vt 0.482460 0.589678
vt 0.482460 0.497397
vt 0.482460 0.603013
vt 0.494143 0.603013
vt 0.494143 0.613542
vt 0.482460 0.613542
vt 0.505575 0.603013
vt 0.419301 0.603013
vt 0.457242 0.603013
vt 0.516539 0.603013
vt 0.469771 0.603013
vt 0.444921 0.613542
vt 0.457242 0.613542
vt 0.464963 0.617332
vt 0.449485 0.620347
vt 0.516539 0.613542
vt 0.505575 0.613542
vt 0.431487 0.613542
vt 0.469771 0.613542
vt 0.419301 0.613542
vt 0.479110 0.620515
vt 0.464091 0.623324
vt 0.369209 0.544563
vt 0.369209 0.559932
vt 0.359758 0.559932
vt 0.359758 0.544563
vt 0.414039 0.529996
vt 0.414039 0.544563
vt 0.376977 0.544563
vt 0.376977 0.529996
vt 0.376977 0.559932
vt 0.376977 0.514481
vt 0.376977 0.497088
vt 0.414039 0.497088
vt 0.414039 0.514481
vt 0.414039 0.559932
vt 0.369209 0.529996
vt 0.369209 0.514481
vt 0.369209 0.497088
vt 0.359758 0.497088
vt 0.359758 0.514481
vt 0.338098 0.514481
vt 0.338098 0.497088
vt 0.359758 0.529996
vt 0.338098 0.529996
vt 0.338098 0.559932
vt 0.338098 0.544563
vt 0.996573 0.300456
vt 0.989899 0.300456
vt 0.989899 0.288627
vt 0.996573 0.288627
vt 0.996573 0.193165
vt 0.996573 0.199840
vt 0.989899 0.199840
vt 0.989899 0.193165
vt 0.996573 0.347827
vt 0.989899 0.347827
vt 0.989899 0.335976
vt 0.996573 0.335976
vt 0.989899 0.336000
vt 0.996573 0.336000
vt 0.996573 0.347852
vt 0.989899 0.347852
vt 0.996573 0.395256
vt 0.989899 0.395256
vt 0.989899 0.383416
vt 0.996573 0.383416
vt 0.996573 0.442548
vt 0.989899 0.442548
vt 0.989899 0.430708
vt 0.996573 0.430708
vt 0.989899 0.383441
vt 0.996573 0.383441
vt 0.996573 0.395281
vt 0.989899 0.395281
vt 0.989899 0.430732
vt 0.996573 0.430732
vt 0.996573 0.442572
vt 0.989899 0.442572
vt 0.996573 0.253176
vt 0.989899 0.253176
vt 0.989899 0.241336
vt 0.996573 0.241336
vt 0.989899 0.241360
vt 0.996573 0.241360
vt 0.996573 0.253201
vt 0.989899 0.253200
vt 0.989899 0.288652
vt 0.996573 0.288652
vt 0.996573 0.300480
vt 0.989899 0.300480
vt 0.996573 0.484080
vt 0.989899 0.484080
vt 0.989899 0.442559
vt 0.996573 0.442559
vt 0.996573 0.484092
vt 0.989899 0.484092
vt 0.996573 0.484068
vt 0.989899 0.484068
vt 0.989899 0.442548
vt 0.996573 0.442548
vt 0.989899 0.199815
vt 0.996573 0.199815
vt 0.989899 0.199827
vt 0.996573 0.199827
vt 0.996573 0.241347
vt 0.989899 0.241347
vt 0.989899 0.199815
vt 0.996573 0.199815
vt 0.996573 0.288639
vt 0.989899 0.288639
vt 0.989899 0.253187
vt 0.996573 0.253187
vt 0.996573 0.335988
vt 0.989899 0.335988
vt 0.989899 0.300467
vt 0.996573 0.300467
vt 0.996573 0.383428
vt 0.989899 0.383428
vt 0.989899 0.347839
vt 0.996573 0.347839
vt 0.996573 0.347827
vt 0.996573 0.430719
vt 0.989899 0.430719
vt 0.989899 0.395268
vt 0.996573 0.395268
vt 0.989899 0.300456
vt 0.989899 0.288627
vt 0.996573 0.288627
vt 0.996573 0.300456
vt 0.989899 0.193139
vt 0.996573 0.193139
vt 0.996573 0.199814
vt 0.989899 0.199814
vt 0.996573 0.335974
vt 0.996573 0.347826
vt 0.989899 0.347826
vt 0.989899 0.335974
vt 0.989899 0.395256
vt 0.996573 0.395256
vt 0.989899 0.430707
vt 0.996573 0.430707
vt 0.996573 0.383415
vt 0.996573 0.395255
vt 0.989899 0.395255
vt 0.989899 0.383415
vt 0.996573 0.430706
vt 0.996573 0.442546
vt 0.989899 0.442546
vt 0.989899 0.430706
vt 0.989899 0.253176
vt 0.989899 0.241336
vt 0.996573 0.241336
vt 0.996573 0.253176
vt 0.996573 0.241334
vt 0.996573 0.253174
vt 0.989899 0.253174
vt 0.989899 0.241334
vt 0.996573 0.288626
vt 0.996573 0.300454
vt 0.989899 0.300454
vt 0.989899 0.288626
vt 0.989899 0.484067
vt 0.996573 0.484067
vt 0.989899 0.484068
vt 0.996573 0.199815
vt 0.996573 0.241336
vt 0.989899 0.241336
vt 0.989899 0.199815
vt 0.989899 0.241347
vt 0.989899 0.199827
vt 0.989899 0.288639
vt 0.989899 0.253188
vt 0.996573 0.288639
vt 0.989899 0.253176
vt 0.996573 0.253176
vt 0.989899 0.335976
vt 0.989899 0.347839
vt 0.989899 0.383416
vt 0.989899 0.347827
vt 0.996573 0.383416
vt 0.989899 0.430719
vt 0.989899 0.395268
vt 0.996573 0.395268
vt 0.989899 0.430708
vt 0.996573 0.430708
vt 0.949237 0.300527
vt 0.949237 0.288687
vt 0.990014 0.288687
vt 0.990014 0.300527
vt 0.949237 0.282012
vt 0.990014 0.282012
vt 0.949237 0.270172
vt 0.990014 0.270172
vt 0.949237 0.307202
vt 0.990014 0.307202
vt 0.949063 0.347846
vt 0.949063 0.335995
vt 0.989840 0.335995
vt 0.989840 0.347846
vt 0.949063 0.329320
vt 0.989840 0.329320
vt 0.949063 0.317468
vt 0.989840 0.317468
vt 0.949063 0.354521
vt 0.989840 0.354521
vt 0.949081 0.395266
vt 0.949081 0.383438
vt 0.989858 0.383438
vt 0.989858 0.395266
vt 0.949081 0.376763
vt 0.989858 0.376763
vt 0.949081 0.364934
vt 0.989858 0.364934
vt 0.949081 0.401941
vt 0.989858 0.401941
vt 0.949039 0.253142
vt 0.949039 0.241303
vt 0.989816 0.241303
vt 0.989816 0.253143
vt 0.949039 0.234628
vt 0.989816 0.234628
vt 0.949039 0.222788
vt 0.989816 0.222788
vt 0.949039 0.259817
vt 0.989816 0.259817
vt 0.949137 0.442557
vt 0.949137 0.430717
vt 0.989914 0.430717
vt 0.989914 0.442557
vt 0.949137 0.424042
vt 0.989914 0.424042
vt 0.949137 0.412202
vt 0.989914 0.412202
vt 0.949137 0.449232
vt 0.989914 0.449232
vt 0.750458 0.764257
vt 0.868091 0.764659
vt 0.885061 0.935304
vt 0.766170 0.764522
vt 0.871082 0.763381
vt 0.752170 0.916829
vt 0.806213 0.763783
vt 0.905609 0.763586
vt 0.905787 0.899529
vt 0.727682 0.763040
vt 0.820137 0.763946
vt 0.726441 0.889607
vt 0.773447 0.763342
vt 0.871128 0.763834
vt 0.821366 0.946660
vt 0.940780 0.463108
vt 0.940780 0.626890
vt 0.895254 0.544999
vt 0.947368 0.626753
vt 0.947368 0.463633
vt 0.967851 0.463633
vt 0.967851 0.626753
vt 0.947580 0.610784
vt 0.947580 0.484047
vt 0.968026 0.484047
vt 0.968026 0.610784
vt 0.977286 0.463633
vt 0.977286 0.626753
vt 0.977610 0.484047
vt 0.977610 0.610784
s 1
f 1/1/1 2/2/1 4/3/2 3/4/2
f 3/4/3 4/3/3 6/5/3 5/6/3
f 5/6/4 6/5/4 8/7/5 7/8/5
f 7/8/5 8/7/5 10/9/6 9/10/6
f 10/9/7 12/11/7 11/12/7 9/10/7
f 11/13/8 12/14/8 2/2/1 1/1/1
f 19/15/9 31/16/9 32/17/10 21/18/10
f 17/19/11 30/20/11 31/16/9 19/15/9
f 23/21/12 33/22/12 34/23/13 25/24/13
f 21/18/7 32/17/7 33/22/7 23/21/7
f 25/25/13 34/26/13 28/27/14 13/28/14
f 16/29/15 29/30/15 30/20/11 17/19/11
f 14/31/16 26/32/16 20/33/16 18/34/16
f 15/35/3 27/36/3 29/30/3 16/29/3
f 22/37/3 24/38/3 41/39/3 40/40/3
f 20/41/14 22/37/17 40/40/17 39/42/14
f 18/43/8 20/41/14 39/42/14 38/44/8
f 36/45/16 35/46/16 27/36/16 28/27/16
f 35/46/16 37/47/16 29/30/16 27/36/16
f 37/47/16 38/44/16 30/20/16 29/30/16
f 38/44/16 39/42/16 31/16/16 30/20/16
f 39/42/16 40/40/16 32/17/16 31/16/16
f 40/40/16 41/39/16 33/22/16 32/17/16
f 41/39/16 42/48/16 34/23/16 33/22/16
f 42/49/16 36/45/16 28/27/16 34/26/16
f 24/38/15 26/50/11 42/48/11 41/39/15
f 26/51/11 14/52/6 36/45/6 42/49/11
f 13/28/14 28/27/14 27/36/17 15/35/17
f 26/32/16 24/53/16 22/54/16 20/33/16
f 43/55/16 44/56/16 46/57/18 45/58/18
f 45/58/18 46/57/18 48/59/19 47/60/19
f 47/60/19 48/59/19 50/61/20 49/62/20
f 49/62/20 50/61/20 52/63/21 51/64/21
f 53/65/22 54/66/22 56/67/23 55/68/23
f 55/68/23 56/67/23 58/69/24 57/70/24
f 57/70/24 58/69/24 60/71/25 59/72/25
f 59/72/25 60/71/25 44/73/16 43/74/16
f 60/71/6 58/69/6 72/75/6 73/76/6
f 51/64/21 52/63/21 62/77/3 61/78/3
f 54/66/22 53/65/22 63/79/7 64/80/7
f 52/63/6 50/61/6 68/81/6 69/82/6
f 46/57/6 44/56/6 65/83/6 66/84/6
f 58/69/6 56/67/6 71/85/6 72/75/6
f 50/61/6 48/59/6 67/86/6 68/81/6
f 56/67/6 54/66/6 70/87/6 71/85/6
f 48/59/6 46/57/6 66/84/6 67/86/6
f 54/66/6 64/80/6 75/88/6 70/87/6
f 62/77/6 52/63/6 69/82/6 74/89/6
f 44/73/6 60/71/6 73/76/6 65/90/6
f 73/76/26 72/75/27 83/91/27 84/92/26
f 67/86/28 66/84/29 77/93/29 78/94/28
f 69/82/30 68/81/31 79/95/31 80/96/30
f 65/90/32 73/76/26 84/92/26 76/97/32
f 66/84/29 65/83/32 76/98/32 77/93/29
f 71/85/33 70/87/34 81/99/34 82/100/33
f 70/87/34 75/88/3 86/101/3 81/99/34
f 72/75/27 71/85/33 82/100/33 83/91/27
f 68/81/31 67/86/28 78/94/28 79/95/31
f 74/89/7 69/82/30 80/96/30 85/102/7
f 78/103/6 77/104/6 76/105/6 84/106/6 83/107/6 82/108/6 81/109/6 86/110/6 85/111/6 80/112/6 79/113/6
f 87/114/35 88/115/35 90/116/36 89/117/36
f 89/118/37 90/119/37 92/120/38 91/121/38
f 91/121/38 92/120/38 94/122/39 93/123/39
f 93/123/39 94/122/39 96/124/6 95/125/6
f 95/125/6 96/124/6 98/126/40 97/127/40
f 97/127/40 98/126/40 100/128/41 99/129/41
f 99/129/41 100/128/41 102/130/42 101/131/42
f 101/132/43 102/133/43 104/134/44 103/135/44
f 108/136/8 106/137/8 105/138/8 109/139/8 110/140/8 111/141/8 112/142/8 113/143/8 107/144/8
f 88/115/35 87/114/35 108/136/3 107/144/3
f 103/135/44 104/134/44 105/138/7 106/137/7
f 107/144/16 113/143/16 114/145/16 88/146/16
f 113/143/16 112/142/16 115/147/16 114/145/16
f 112/142/16 111/141/16 116/148/16 115/147/16
f 111/141/16 110/140/16 117/149/16 116/148/16
f 110/140/16 109/139/16 118/150/16 117/149/16
f 109/139/16 105/138/16 104/151/16 118/150/16
f 88/146/16 114/145/16 92/120/16 90/119/16
f 114/145/16 115/147/16 94/122/16 92/120/16
f 115/147/16 116/148/16 96/124/16 94/122/16
f 116/148/16 117/149/16 98/126/16 96/124/16
f 117/149/16 118/150/16 100/128/16 98/126/16
f 118/150/16 104/151/16 102/130/16 100/128/16
f 127/152/45 128/153/45 122/154/45 121/155/45
f 125/156/46 126/157/46 129/158/46 130/159/46
f 119/160/16 123/161/16 134/162/16 131/163/16
f 121/164/32 125/165/32 130/159/32 127/152/32
f 126/166/16 122/167/16 128/153/16 129/158/16
f 119/160/47 120/168/47 128/153/47 127/152/47
f 124/169/47 123/161/47 130/159/47 129/158/47
f 123/161/47 119/160/47 127/152/47 130/159/47
f 120/168/47 124/169/47 129/158/47 128/153/47
f 120/168/48 119/160/48 131/163/48 132/170/48
f 124/169/32 120/168/32 132/170/32 133/171/32
f 123/161/49 124/169/49 133/171/49 134/162/49
f 131/172/47 134/173/47 133/174/47 132/175/47
f 143/152/46 144/153/46 138/154/46 137/155/46
f 141/156/45 142/157/45 145/158/45 146/159/45
f 135/160/16 139/161/16 150/162/16 147/163/16
f 137/164/32 141/165/32 146/159/32 143/152/32
f 142/166/16 138/167/16 144/153/16 145/158/16
f 135/160/50 136/168/50 144/153/50 143/152/50
f 140/169/50 139/161/50 146/159/50 145/158/50
f 139/161/50 135/160/50 143/152/50 146/159/50
f 136/168/50 140/169/50 145/158/50 144/153/50
f 136/168/49 135/160/49 147/163/49 148/170/49
f 140/169/32 136/168/32 148/170/32 149/171/32
f 139/161/48 140/169/48 149/171/48 150/162/48
f 147/172/50 150/173/50 149/174/50 148/175/50
f 151/176/7 152/177/7 154/178/7 153/179/7
f 153/180/8 154/181/8 158/182/8 157/183/8
f 157/183/3 158/182/3 156/184/3 155/185/3
f 155/185/6 156/184/6 152/177/6 151/176/6
f 159/186/7 160/187/7 162/188/7 161/189/7
f 158/182/16 154/181/16 152/190/16 156/191/16
f 161/192/8 162/193/8 166/194/8 165/195/8
f 165/195/3 166/194/3 164/196/3 163/197/3
f 163/197/6 164/196/6 160/187/6 159/186/6
f 167/198/3 169/199/3 170/200/3 168/177/3
f 169/201/8 173/183/8 174/182/8 170/181/8
f 173/183/7 171/185/7 172/184/7 174/182/7
f 171/185/6 167/198/6 168/177/6 172/184/6
f 175/195/3 177/192/3 178/193/3 176/194/3
f 174/182/16 172/191/16 168/190/16 170/181/16
f 177/189/8 181/186/8 182/187/8 178/188/8
f 181/186/7 179/197/7 180/196/7 182/187/7
f 179/197/6 175/195/6 176/194/6 180/196/6
f 183/202/51 184/203/51 186/204/52 185/205/52
f 184/203/51 183/202/51 187/206/53 188/207/53
f 189/202/54 190/203/54 192/204/55 191/205/55
f 190/203/54 189/202/54 193/206/56 194/207/56
f 195/208/57 197/209/58 198/210/58 196/211/57
f 196/211/57 200/212/59 199/213/59 195/208/57
f 201/208/60 203/209/61 204/210/61 202/211/60
f 202/211/60 206/212/62 205/213/62 201/208/60
f 183/202/7 185/205/7 197/214/7 195/215/7
f 186/204/3 184/203/3 196/216/3 198/217/3
f 188/207/63 187/206/63 199/218/63 200/219/63
f 184/203/3 188/207/3 200/220/3 196/216/3
f 187/206/7 183/202/7 195/215/7 199/221/7
f 189/202/8 191/205/8 203/214/8 201/215/8
f 192/204/6 190/203/6 202/216/6 204/217/6
f 194/207/64 193/206/64 205/218/64 206/219/64
f 190/203/6 194/207/6 206/220/6 202/216/6
f 193/206/8 189/202/8 201/215/8 205/221/8
f 210/222/47 209/223/47 208/224/47 207/225/47
f 214/222/50 213/223/50 212/224/50 211/225/50
f 215/226/65 216/227/66 218/228/67 217/229/68
f 217/230/68 218/231/67 220/232/69 219/233/70
f 219/233/70 220/232/69 222/234/71 221/235/72
f 221/235/72 222/234/71 224/236/73 223/237/74
f 222/234/75 220/232/76 241/238/76 242/239/75
f 223/237/74 224/236/73 226/240/77 225/241/78
f 225/241/78 226/240/77 216/227/66 215/226/65
f 221/235/72 223/237/74 231/242/79 230/243/80
f 230/243/80 231/242/79 237/244/81 236/245/82
f 217/230/68 219/233/70 229/246/83 228/247/84
f 223/237/74 225/241/78 232/248/85 231/242/79
f 215/226/65 217/229/68 228/249/84 227/250/86
f 219/233/70 221/235/72 230/243/80 229/246/83
f 225/241/78 215/226/65 227/250/86 232/248/85
f 228/247/84 229/246/83 235/251/87 234/252/88
f 231/242/79 232/248/85 238/253/89 237/244/81
f 229/246/83 230/243/80 236/245/82 235/251/87
f 227/250/86 228/249/84 234/254/88 233/255/90
f 232/248/85 227/250/86 233/255/90 238/253/89
f 244/256/16 243/257/16 242/258/16 239/259/16
f 216/227/91 226/240/92 244/260/92 239/261/91
f 224/236/93 222/234/75 242/239/75 243/262/93
f 220/232/76 218/231/94 240/263/94 241/238/76
f 226/240/92 224/236/93 243/262/93 244/260/92
f 218/228/94 216/227/91 239/261/91 240/264/94
f 239/259/16 242/258/16 241/265/16 240/266/16
f 253/152/95 254/153/95 248/267/95 247/268/95
f 251/269/96 252/270/96 255/158/96 256/159/96
f 245/160/16 249/161/16 260/162/16 257/163/16
f 247/164/32 251/165/32 256/159/32 253/152/32
f 252/166/16 248/167/16 254/153/16 255/158/16
f 245/160/97 246/168/97 254/153/97 253/152/97
f 250/169/97 249/161/97 256/159/97 255/158/97
f 249/161/97 245/160/97 253/152/97 256/159/97
f 246/168/97 250/169/97 255/158/97 254/153/97
f 246/168/98 245/160/98 257/163/98 258/170/98
f 250/169/32 246/168/32 258/170/32 259/171/32
f 249/161/99 250/169/99 259/171/99 260/162/99
f 257/271/97 260/272/97 259/273/97 258/274/97
f 264/275/97 263/276/97 262/277/97 261/278/97
f 265/279/100 266/280/101 268/281/102 267/282/103
f 267/282/103 268/281/102 270/283/104 269/284/105
f 269/284/105 270/283/104 272/285/106 271/286/107
f 271/286/107 272/285/106 274/287/108 273/288/109
f 272/285/110 270/283/111 291/289/111 292/290/110
f 273/288/109 274/287/108 276/291/112 275/292/113
f 275/293/113 276/294/112 266/280/101 265/279/100
f 271/286/107 273/288/109 281/295/114 280/296/115
f 280/296/115 281/295/114 287/297/116 286/298/117
f 267/282/103 269/284/105 279/299/118 278/300/119
f 273/288/109 275/292/113 282/301/120 281/295/114
f 265/279/100 267/282/103 278/300/119 277/302/121
f 269/284/105 271/286/107 280/296/115 279/299/118
f 275/293/113 265/279/100 277/302/121 282/303/120
f 278/300/119 279/299/118 285/304/122 284/305/123
f 281/295/114 282/301/120 288/306/124 287/297/116
f 279/299/118 280/296/115 286/298/117 285/304/122
f 277/302/121 278/300/119 284/305/123 283/307/125
f 282/303/120 277/302/121 283/307/125 288/308/124
f 294/309/16 293/310/16 292/311/16 289/312/16
f 266/280/126 276/294/127 294/313/127 289/314/126
f 274/287/128 272/285/110 292/290/110 293/315/128
f 270/283/111 268/281/129 290/316/129 291/289/111
f 276/291/127 274/287/128 293/315/128 294/317/127
f 268/281/129 266/280/126 289/314/126 290/316/129
f 289/312/16 292/311/16 291/318/16 290/319/16
f 295/320/130 296/321/130 298/322/130 297/323/130
f 297/323/131 298/322/131 302/324/131 301/325/131
f 301/326/132 302/327/132 300/328/132 299/329/132
f 299/329/133 300/328/133 296/321/133 295/320/133
f 302/330/16 298/331/16 296/332/16 300/333/16
f 303/334/134 304/335/134 306/336/134 305/337/134
f 305/337/135 306/336/135 310/338/135 309/339/135
f 309/340/136 310/341/136 308/342/136 307/343/136
f 307/343/137 308/342/137 304/335/137 303/334/137
f 310/344/16 306/345/16 304/346/16 308/347/16
f 311/348/7 312/349/7 314/350/7 313/351/7
f 313/351/8 314/350/8 318/352/8 317/353/8
f 317/354/3 318/355/3 316/356/3 315/357/3
f 315/357/6 316/356/6 312/349/6 311/348/6
f 319/197/7 320/196/7 322/358/7 321/359/7
f 318/355/16 314/360/16 312/361/16 316/356/16
f 321/359/8 322/358/8 326/362/8 325/363/8
f 325/364/3 326/365/3 324/366/3 323/367/3
f 323/367/6 324/366/6 320/196/6 319/197/6
f 327/348/7 329/368/7 330/369/7 328/349/7
f 329/368/6 333/353/6 334/370/6 330/369/6
f 333/354/3 331/357/3 332/356/3 334/355/3
f 331/357/8 327/348/8 328/349/8 332/356/8
f 335/197/7 337/371/7 338/372/7 336/196/7
f 334/355/16 332/356/16 328/373/16 330/374/16
f 337/371/6 341/375/6 342/376/6 338/372/6
f 341/377/3 339/378/3 340/379/3 342/380/3
f 339/378/8 335/197/8 336/196/8 340/379/8
f 351/152/138 352/153/138 346/381/138 345/382/138
f 349/383/139 350/384/139 353/158/139 354/159/139
f 343/160/16 347/161/16 358/162/16 355/163/16
f 345/164/32 349/165/32 354/159/32 351/152/32
f 350/166/16 346/167/16 352/153/16 353/158/16
f 343/160/7 344/168/7 352/153/7 351/152/7
f 348/169/7 347/161/7 354/159/7 353/158/7
f 347/161/7 343/160/7 351/152/7 354/159/7
f 344/168/7 348/169/7 353/158/7 352/153/7
f 344/168/140 343/160/140 355/163/140 356/170/140
f 348/169/32 344/168/32 356/170/32 357/171/32
f 347/161/141 348/169/141 357/171/141 358/162/141
f 355/385/7 358/386/7 357/387/7 356/388/7
f 362/275/7 361/276/7 360/389/7 359/390/7
f 363/391/8 364/392/142 366/393/143 365/394/144
f 365/394/144 366/393/143 368/395/145 367/396/3
f 367/396/3 368/395/145 370/397/146 369/398/147
f 369/398/147 370/397/146 372/399/148 371/400/6
f 371/401/6 372/402/148 374/403/149 373/404/150
f 373/404/150 374/403/149 376/405/151 375/406/7
f 370/397/146 368/395/145 381/407/152 382/408/153
f 375/406/7 376/405/151 378/409/154 377/410/155
f 377/410/155 378/409/154 364/392/142 363/391/8
f 386/411/156 385/412/157 393/413/158 394/414/159
f 376/405/151 374/403/149 384/415/160 385/412/157
f 372/399/148 370/397/146 382/408/153 383/416/161
f 378/409/154 376/405/151 385/412/157 386/411/156
f 368/395/145 366/393/143 379/417/162 381/407/152
f 374/403/149 372/402/148 383/418/161 384/415/160
f 364/392/142 378/409/154 386/411/156 380/419/163
f 366/393/143 364/392/142 380/419/163 379/417/162
f 389/420/164 387/421/165 395/422/16 390/423/166
f 384/415/160 383/418/161 391/424/167 392/425/168
f 382/408/153 381/407/152 389/420/164 390/426/166
f 379/417/162 380/419/163 388/427/169 387/421/165
f 380/419/163 386/411/156 394/414/159 388/427/169
f 385/412/157 384/415/160 392/425/168 393/413/158
f 383/416/161 382/408/153 390/426/166 391/428/167
f 381/407/152 379/417/162 387/421/165 389/420/164
f 387/421/165 388/427/169 394/414/159 395/422/16
f 390/423/166 395/422/16 392/429/168 391/430/167
f 395/422/16 394/414/159 393/413/158 392/429/168
f 404/431/170 407/432/171 411/433/172 408/434/173
f 398/435/8 399/436/8 403/437/174 402/438/175
f 403/437/176 401/439/177 407/432/171 404/431/170
f 400/440/178 401/441/179 397/442/6 396/443/6
f 398/435/180 402/438/181 400/440/182 396/443/180
f 403/437/176 399/436/183 397/444/183 401/439/177
f 402/438/175 403/437/174 404/431/184 405/445/185
f 401/441/179 400/440/178 406/446/186 407/447/187
f 400/440/182 402/438/181 405/445/188 406/446/189
f 411/448/190 410/449/190 414/450/190 415/451/190
f 405/445/185 404/431/184 408/434/191 409/452/192
f 407/447/187 406/446/186 410/449/193 411/448/193
f 406/446/189 405/445/188 409/452/194 410/449/195
f 410/449/195 409/452/194 413/453/196 414/450/196
f 408/434/173 411/433/172 415/454/197 412/455/197
f 409/452/192 408/434/191 412/455/198 413/453/198
f 450/456/199 451/457/199 447/458/199 446/459/199
f 416/460/200 417/461/200 418/462/200 419/463/200
f 429/464/201 428/465/201 453/466/201 452/467/201
f 454/468/202 453/469/202 428/470/202 431/471/202
f 457/472/201 456/473/201 432/474/201 433/475/201
f 436/476/201 437/477/201 460/478/201 461/479/201
f 435/480/202 432/481/202 456/482/202 459/483/202
f 463/484/202 460/485/202 437/486/202 438/487/202
f 440/488/201 441/489/201 425/490/201 424/491/201
f 426/492/202 425/493/202 441/494/202 442/495/202
f 448/456/201 449/457/201 445/458/201 444/459/201
f 446/496/202 445/497/202 449/498/202 450/499/202
f 423/500/203 420/501/203 436/502/203 439/503/203
f 421/504/202 422/505/202 438/487/202 437/486/202
f 420/506/201 421/507/201 437/477/201 436/476/201
f 422/506/199 423/507/199 439/508/199 438/509/199
f 419/510/199 418/511/199 426/491/199 427/490/199
f 416/512/203 419/513/203 427/514/203 424/515/203
f 417/516/201 416/517/201 424/491/201 425/490/201
f 418/462/202 417/461/202 425/493/202 426/492/202
f 447/518/203 444/519/203 440/520/203 443/521/203
f 446/459/199 447/458/199 443/489/199 442/488/199
f 445/497/202 446/496/202 442/495/202 441/494/202
f 444/459/201 445/458/201 441/489/201 440/488/201
f 455/522/203 452/523/203 448/524/203 451/525/203
f 454/467/199 455/466/199 451/457/199 450/456/199
f 453/469/202 454/468/202 450/499/202 449/498/202
f 452/467/201 453/466/201 449/457/201 448/456/201
f 434/526/203 433/527/203 429/528/203 430/529/203
f 435/475/199 434/474/199 430/465/199 431/530/199
f 432/481/202 435/480/202 431/471/202 428/470/202
f 433/475/201 432/474/201 428/465/201 429/464/201
f 462/531/203 461/532/203 457/533/203 458/534/203
f 463/479/199 462/478/199 458/473/199 459/472/199
f 460/485/202 463/484/202 459/483/202 456/482/202
f 461/479/201 460/478/201 456/473/201 457/472/201
f 442/488/199 443/489/199 427/490/199 426/491/199
f 459/472/199 458/473/199 434/474/199 435/475/199
f 438/509/199 439/508/199 462/478/199 463/479/199
f 431/530/199 430/465/199 455/466/199 454/467/199
f 498/535/199 494/536/199 495/537/199 499/538/199
f 464/539/200 467/540/200 466/541/200 465/542/200
f 477/465/201 500/466/201 501/467/201 476/464/201
f 502/543/203 479/544/203 476/545/203 501/546/203
f 505/547/201 481/474/201 480/475/201 504/548/201
f 484/477/201 509/549/201 508/550/201 485/476/201
f 483/551/203 507/552/203 504/553/203 480/554/203
f 511/555/203 486/556/203 485/557/203 508/558/203
f 488/559/201 472/560/201 473/561/201 489/562/201
f 474/563/203 490/564/203 489/565/203 473/566/203
f 496/457/201 492/458/201 493/459/201 497/456/201
f 494/567/203 498/568/203 497/569/203 493/570/203
f 471/501/202 487/502/202 484/503/202 468/500/202
f 469/571/203 485/557/203 486/556/203 470/572/203
f 468/573/201 484/477/201 485/476/201 469/506/201
f 470/507/199 486/508/199 487/509/199 471/506/199
f 467/574/199 475/575/199 474/576/199 466/577/199
f 464/513/202 472/514/202 475/578/202 467/579/202
f 465/517/201 473/561/201 472/560/201 464/516/201
f 466/541/203 474/563/203 473/566/203 465/542/203
f 495/580/202 491/581/202 488/521/202 492/582/202
f 494/536/199 490/583/199 491/584/199 495/537/199
f 493/570/203 489/565/203 490/564/203 494/567/203
f 492/458/201 488/559/201 489/562/201 493/459/201
f 503/523/202 499/524/202 496/525/202 500/522/202
f 502/585/199 498/535/199 499/538/199 503/467/199
f 501/546/203 497/569/203 498/568/203 502/543/203
f 500/466/201 496/457/201 497/456/201 501/467/201
f 482/527/202 478/586/202 477/529/202 481/526/202
f 483/587/199 479/588/199 478/530/199 482/589/199
f 480/554/203 476/545/203 479/544/203 483/551/203
f 481/474/201 477/465/201 476/464/201 480/475/201
f 510/590/202 506/591/202 505/592/202 509/531/202
f 511/593/199 507/473/199 506/472/199 510/594/199
f 508/558/203 504/553/203 507/552/203 511/555/203
f 509/549/201 505/547/201 504/548/201 508/550/201
f 490/583/199 474/576/199 475/575/199 491/584/199
f 507/473/199 483/587/199 482/589/199 506/472/199
f 486/508/199 511/593/199 510/594/199 487/509/199
f 479/588/199 502/585/199 503/467/199 478/530/199
f 506/595/199 482/596/199 434/597/199 458/598/199
f 482/596/200 481/599/200 433/600/200 434/597/200
f 481/599/201 505/601/201 457/602/201 433/600/201
f 505/603/204 506/595/204 458/598/204 457/604/204
f 478/605/199 503/606/199 455/607/199 430/608/199
f 503/606/200 500/609/200 452/610/200 455/607/200
f 500/609/201 477/611/201 429/612/201 452/610/201
f 477/613/204 478/605/204 430/608/204 429/614/204
f 499/615/199 495/616/199 447/617/199 451/618/199
f 495/616/200 492/619/200 444/620/200 447/617/200
f 492/619/201 496/621/201 448/622/201 444/620/201
f 496/623/204 499/615/204 451/618/204 448/624/204
f 491/625/199 475/626/199 427/627/199 443/628/199
f 475/626/200 472/629/200 424/630/200 427/627/200
f 472/629/201 488/631/201 440/632/201 424/630/201
f 488/633/204 491/625/204 443/628/204 440/634/204
f 487/635/199 510/636/199 462/637/199 439/638/199
f 510/636/200 509/639/200 461/640/200 462/637/200
f 509/639/201 484/641/201 436/642/201 461/640/201
f 484/643/204 487/635/204 439/638/204 436/644/204
f 513/645/205 512/646/206 518/647/207
f 515/648/208 514/649/209 518/650/207
f 512/651/206 517/652/210 518/653/207
f 516/654/211 515/655/208 518/656/207
f 514/657/209 513/658/205 518/659/207
f 517/660/212 516/661/212 518/662/213
f 516/663/212 517/664/212 524/665/214 523/666/214
f 514/667/4 515/668/5 522/669/5 521/670/4
f 512/667/1 513/668/2 520/669/2 519/670/1
f 517/667/8 512/668/1 519/669/1 524/670/8
f 515/667/5 516/668/6 523/669/6 522/670/5
f 513/667/3 514/668/3 521/669/3 520/670/3
f 523/666/32 524/665/32 530/671/32 529/672/32
f 521/670/32 522/669/32 528/673/32 527/674/32
f 519/670/32 520/669/32 526/673/32 525/674/32
f 524/670/32 519/669/32 525/673/32 530/674/32
f 522/670/32 523/669/32 529/673/32 528/674/32
f 520/670/32 521/669/32 527/673/32 526/674/32
