# Blender 3.6.15
# www.blender.org
o big_pot.001
v -18.459778 4.900922 -28.186935
v -18.459778 11.205366 -28.186935
v -13.066197 4.900922 -25.952839
v -13.066197 11.205366 -25.952839
v -10.832101 4.900922 -20.559256
v -10.832101 11.205366 -20.559256
v -13.066197 4.900922 -15.165674
v -13.066197 11.205366 -15.165674
v -18.459778 4.900922 -12.931578
v -18.459778 11.205366 -12.931578
v -23.853361 4.900922 -15.165674
v -23.853361 11.205366 -15.165674
v -26.087456 4.900922 -20.559256
v -26.087456 11.205366 -20.559256
v -23.853361 4.900922 -25.952839
v -23.853361 11.205366 -25.952839
v -18.459778 2.675095 -23.351364
v -16.485460 2.675095 -22.533573
v -15.667669 2.675095 -20.559256
v -16.485460 2.675095 -18.584938
v -18.459778 2.675095 -17.767147
v -20.434097 2.675095 -18.584938
v -21.251886 2.675095 -20.559256
v -20.434097 2.675095 -22.533573
v -18.459778 13.871021 -26.274517
v -14.418478 13.871021 -24.600555
v -12.744517 13.871021 -20.559258
v -14.418478 13.871021 -16.517956
v -18.459778 13.871021 -14.843994
v -22.501078 13.871021 -16.517956
v -24.175039 13.871021 -20.559258
v -22.501078 13.871021 -24.600555
v -18.459778 13.933030 -25.845150
v -14.722086 13.933030 -24.296947
v -13.173882 13.933030 -20.559258
v -14.722086 13.933030 -16.821564
v -18.459778 13.933030 -15.273361
v -22.197470 13.933030 -16.821564
v -23.745672 13.933030 -20.559258
v -22.197470 13.933030 -24.296947
v -12.827064 14.598265 -26.191971
v -18.459778 14.598265 -28.525120
v -10.493917 14.598265 -20.559258
v -12.827064 14.598265 -14.926541
v -18.459778 14.598265 -12.593393
v -24.092491 14.598265 -14.926541
v -26.425640 14.598265 -20.559258
v -24.092491 14.598265 -26.191971
v -18.459778 5.975174 -20.559256
v -19.038908 0.900303 -12.270684
v -19.865444 5.480318 -15.618954
v -19.038908 0.087801 -13.096161
v -19.865444 3.508219 -17.622555
v -17.880648 0.900303 -12.270684
v -17.054110 5.480318 -15.618954
v -17.880648 0.087801 -13.096161
v -17.054110 3.508219 -17.622555
v -10.992101 0.900303 -24.202000
v -13.478518 5.480318 -21.812063
v -11.706985 0.087801 -23.789261
v -15.213686 3.508219 -20.810261
v -11.571231 0.900303 -25.205082
v -14.884184 5.480318 -24.246752
v -12.286113 0.087801 -24.792343
v -16.619356 3.508219 -23.244949
v -25.348328 0.900303 -25.205082
v -22.035370 5.480318 -24.246750
v -24.633444 0.087801 -24.792343
v -20.300201 3.508219 -23.244949
v -25.927456 0.900303 -24.202000
v -23.441038 5.480318 -21.812061
v -25.212572 0.087801 -23.789261
v -21.705870 3.508219 -20.810261
v -23.007650 16.794239 27.808426
v -23.007650 28.486858 27.808426
v -22.265287 15.425694 29.616798
v -22.265287 29.855402 29.616798
v -33.956291 16.794239 23.704224
v -33.956291 28.486858 23.704224
v -35.776863 15.425694 24.551849
v -35.776863 29.855402 24.551849
v -21.726187 15.425694 28.288803
v -21.726187 29.855402 28.288803
v -35.237762 29.855402 23.223850
v -35.237762 15.425694 23.223850
v -23.210943 16.794239 28.288246
v -23.210943 28.486858 28.288246
v -34.159592 28.486858 24.184044
v -34.159592 16.794239 24.184044
v 16.495317 -0.053650 -31.532471
v 16.495317 -0.053650 31.615704
v 41.700035 -0.053650 22.071014
v 41.700035 -0.053650 -21.987782
v 16.495317 46.081993 -31.532471
v 16.495317 46.081993 31.615704
v 41.700035 46.081993 22.071014
v 41.700035 46.081993 -21.987782
v -16.461138 -0.053650 -31.532471
v -16.461138 -0.053650 31.615704
v -41.665848 -0.053650 22.071014
v -41.665848 -0.053650 -21.987782
v -16.461138 46.081993 -31.532471
v -16.461138 46.081993 31.615704
v -41.665848 46.081993 22.071014
v -41.665848 46.081993 -21.987782
v 32.864067 -1.029274 21.859459
v 32.864067 12.218552 21.859459
v 41.900192 -1.029274 21.859467
v 41.900192 12.218552 21.859467
v 32.864067 -1.029274 -7.484814
v 32.864067 12.218552 -7.484814
v 41.900192 12.218552 -7.484814
v 34.895988 -1.029274 21.859459
v 34.895988 10.186630 21.859459
v 39.868271 10.186630 21.859467
v 39.868271 -1.029274 21.859467
v 41.900192 -1.029274 19.827538
v 41.900192 10.186630 19.827538
v 41.900192 10.186630 -5.452885
v 41.900192 -1.029274 -5.452885
v 39.868271 -1.029274 -7.484814
v 39.868271 10.186630 -7.484814
v 34.895996 10.186630 -7.484814
v 34.895996 -1.029274 -7.484814
v 32.864067 -1.029274 -5.452885
v 32.864067 10.186630 -5.452885
v 32.864067 10.186630 19.827538
v 32.864067 -1.029274 19.827538
v 34.921158 -1.029274 19.828117
v 39.867950 -1.029274 -5.442806
v 39.867943 -1.029274 19.817459
v 34.896317 -1.029274 -5.442806
v 39.843094 10.186630 19.828117
v 39.867950 10.186630 -5.442806
v 34.896317 10.186630 -5.442806
v 34.896309 10.186630 19.817451
v -28.982359 -1.373370 8.048806
v -28.982359 11.874455 8.048806
v -41.171616 -1.373370 6.851586
v -41.171616 11.874455 6.851586
v -26.602764 -1.373370 -16.178574
v -26.602764 11.874455 -16.178574
v -38.792023 11.874455 -17.375793
v -31.004553 -1.373370 7.850190
v -31.004553 9.842534 7.850190
v -39.149422 9.842534 7.050206
v -39.149422 -1.373370 7.050206
v -40.973000 -1.373370 4.829391
v -40.973000 9.842534 4.829391
v -38.990639 9.842534 -15.353595
v -38.990639 -1.373370 -15.353597
v -36.769829 -1.373370 -17.177174
v -36.769829 9.842534 -17.177174
v -28.624958 9.842534 -16.377192
v -28.624958 -1.373370 -16.377192
v -26.801382 -1.373370 -14.156375
v -26.801382 9.842534 -14.156377
v -28.783739 9.842534 6.026611
v -28.783739 -1.373370 6.026611
v -30.831038 -1.373370 5.826115
v -36.969109 -1.373370 -15.144914
v -38.949493 -1.373370 5.018009
v -28.824881 -1.373370 -14.344994
v -38.925812 9.842534 5.031052
v -36.969109 9.842534 -15.144914
v -28.824881 9.842534 -14.344994
v -30.805269 9.842534 5.817928
v -38.792023 -1.368137 -17.375793
v -8.147905 -1.029274 -16.611052
v -8.147905 12.218552 -16.611052
v -8.147905 -1.029274 -31.382839
v -8.147905 12.218552 -31.382839
v 16.196051 -1.029274 -16.611052
v 16.196051 12.218552 -16.611052
v 16.196051 12.218552 -31.382839
v -8.147905 -1.029274 -18.642977
v -8.147905 10.186630 -18.642977
v -8.147905 10.186630 -29.350914
v -8.147905 -1.029274 -29.350914
v -6.115980 -1.029274 -31.382839
v -6.115980 10.186630 -31.382839
v 14.164125 10.186630 -31.382839
v 14.164125 -1.029274 -31.382839
v 16.196051 -1.029274 -29.350914
v 16.196051 10.186630 -29.350914
v 16.196051 10.186630 -18.642977
v 16.196051 -1.029274 -18.642977
v 14.164125 -1.029274 -16.611052
v 14.164125 10.186630 -16.611052
v -6.115980 10.186630 -16.611052
v -6.115980 -1.029274 -16.611052
v -6.116564 -1.029274 -18.668144
v 14.154043 -1.029274 -29.350594
v -6.105900 -1.029274 -29.350594
v 14.154043 -1.029274 -18.643297
v -6.116564 10.186630 -29.325745
v 14.154043 10.186630 -29.350594
v 14.154043 10.186630 -18.643297
v -6.105900 10.186630 -18.643297
v -10.800281 31.814993 -28.139038
v -10.800281 33.814995 -28.139038
v -10.800281 31.814993 -31.039104
v -10.800281 33.814995 -31.039104
v -6.065521 31.814993 -28.139038
v -6.065521 33.814995 -28.139038
v -6.065521 31.814993 -31.039104
v -6.065521 33.814995 -31.039104
v -12.002551 30.889544 -27.539280
v -12.002551 32.035294 -27.539280
v -12.002551 30.889544 -31.838303
v -12.002551 32.035294 -31.838303
v 5.841311 30.889544 -27.539280
v 5.841311 32.035294 -27.539280
v 5.841311 30.889544 -31.838303
v 5.841311 32.035294 -31.838303
v 32.841393 12.313784 16.228119
v 42.007217 12.313784 16.228119
v 32.841393 12.313784 -0.905495
v 42.007217 12.313784 -0.905495
v 32.841393 5.106126 16.228119
v 32.841393 5.106126 -0.905495
v 32.841393 3.589602 16.228119
v 32.841393 3.589602 -0.905495
v 9.850447 7.724493 -30.785927
v 11.577768 7.724493 -30.785927
v 11.577768 9.451817 -30.785927
v 9.850447 9.451817 -30.785927
v 9.850447 7.724493 -31.335587
v 11.577768 7.724493 -31.335587
v 11.577768 9.451817 -31.335587
v 9.850447 9.451817 -31.335587
v 11.577768 7.010171 -29.125401
v 9.850447 7.010171 -29.125401
v 9.850447 8.077338 -27.882793
v 11.577768 8.077338 -27.882793
v 11.577768 5.250456 -28.548653
v 9.850447 5.250456 -28.548653
v 9.850447 5.209844 -26.821808
v 11.577768 5.209844 -26.821808
v 11.549017 3.336106 -29.089268
v 9.879568 3.764172 -28.973740
v 9.879198 3.312757 -27.306442
v 11.548647 2.884692 -27.421970
v 10.054186 0.908340 -29.744881
v 9.025339 2.250400 -29.392742
v 9.062952 1.839149 -27.715511
v 10.091795 0.497091 -28.067650
v 7.354471 0.201445 -29.768440
v 7.168406 1.872581 -29.373062
v 7.247454 1.483644 -27.691952
v 7.433519 -0.187493 -28.087334
v -10.179025 0.195963 -29.071583
v -10.163529 1.878765 -28.682251
v -10.096612 1.489125 -27.000778
v -10.112107 -0.193678 -27.390110
v 38.952774 12.485592 11.577893
v 40.406960 19.212654 11.577893
v 38.952774 12.485592 3.744732
v 40.406960 19.212654 3.744732
v 40.179611 12.226156 11.577893
v 41.633789 18.835651 11.577893
v 40.179611 12.226156 3.744732
v 41.633789 18.835651 3.744732
v 12.493185 12.067987 -30.608242
v 12.493185 19.420227 -30.608242
v 15.307398 12.067987 -30.001301
v 15.307398 19.420227 -30.001301
v 15.599798 12.067987 -27.137272
v 15.599798 19.420227 -27.137272
v 12.966303 12.067987 -25.974148
v 12.966303 19.420227 -25.974148
v 11.046312 12.067987 -28.119324
v 11.046312 19.420227 -28.119324
v 8.079130 12.093695 -30.025681
v 8.079130 15.679497 -30.025681
v 9.744993 12.093695 -31.203922
v 9.744993 15.679497 -31.203922
v 11.380346 12.093695 -29.983685
v 11.380346 15.679497 -29.983685
v 10.725183 12.093695 -28.051304
v 10.725183 15.679497 -28.051304
v 8.684923 12.093695 -28.077259
v 8.684923 15.679497 -28.077259
v 16.173395 -3.299044 -31.512436
v 16.173395 45.953270 -31.512436
v 16.173395 -3.299044 -7.420084
v 16.173395 45.953270 -7.420084
v 41.703941 45.953270 -7.420084
v 41.703941 -3.299044 -7.420084
v -4.997097 24.833469 -31.560238
v -5.910538 27.234840 -31.560238
v -5.851894 24.833469 -29.596085
v -6.308615 27.234840 -30.276997
v -7.561489 24.833469 -29.596085
v -7.104769 27.234840 -30.276997
v -8.416285 24.833469 -31.560238
v -7.502844 27.234840 -31.560238
v -7.354715 30.689583 -31.560238
v -7.030703 30.689583 -30.597805
v -6.382679 30.689583 -30.597805
v -6.058666 30.689583 -31.560238
v -5.206255 22.482645 -31.560238
v -5.956472 22.482645 -29.994610
v -7.456909 22.482645 -29.994610
v -8.207129 22.482645 -31.560238
v -0.056959 24.833469 -31.560238
v -0.970400 27.234840 -31.560238
v -0.911757 24.833469 -29.596085
v -1.368477 27.234840 -30.276997
v -2.621351 24.833469 -29.596085
v -2.164629 27.234840 -30.276997
v -3.476147 24.833469 -31.560238
v -2.562706 27.234840 -31.560238
v -2.414577 30.689583 -31.560238
v -2.090565 30.689583 -30.597805
v -1.442541 30.689583 -30.597805
v -1.118528 30.689583 -31.560238
v -0.266115 22.482645 -31.560238
v -1.016335 22.482645 -29.994610
v -2.516771 22.482645 -29.994610
v -3.266989 22.482645 -31.560238
v 4.815039 24.833469 -31.560238
v 3.901598 27.234840 -31.560238
v 3.960241 24.833469 -29.596085
v 3.503521 27.234840 -30.276997
v 2.250647 24.833469 -29.596085
v 2.707369 27.234840 -30.276997
v 1.395851 24.833469 -31.560238
v 2.309292 27.234840 -31.560238
v 2.457420 30.689583 -31.560238
v 2.781433 30.689583 -30.597805
v 3.429457 30.689583 -30.597805
v 3.753469 30.689583 -31.560238
v 4.605883 22.482645 -31.560238
v 3.855663 22.482645 -29.994610
v 2.355227 22.482645 -29.994610
v 1.605009 22.482645 -31.560238
v -18.468616 0.385314 -22.767193
v -18.468616 1.232248 -22.767193
v -16.499708 0.385314 -21.630444
v -16.499708 1.232248 -21.630444
v -16.499708 0.385314 -19.356945
v -16.499708 1.232248 -19.356945
v -18.468616 0.385314 -18.220196
v -18.468616 1.232248 -18.220196
v -20.437523 0.385314 -19.356945
v -20.437523 1.232248 -19.356945
v -20.437523 0.385314 -21.630444
v -20.437523 1.232248 -21.630444
v -18.468616 2.121693 -21.292839
v -17.776535 2.121693 -20.893269
v -17.776535 2.121693 -20.094120
v -18.468616 2.121693 -19.694548
v -19.160698 2.121693 -20.094120
v -19.160698 2.121693 -20.893269
v -18.497448 1.149473 -22.474022
v -16.739187 1.149473 -21.458889
v -16.739187 1.149473 -19.528500
v -18.497446 1.149473 -18.513367
v -20.169214 1.149473 -19.478561
v -20.169214 1.149473 -21.508827
v -18.556068 1.870613 -21.141369
v -17.863987 1.870613 -20.741796
v -17.863987 1.870613 -20.245592
v -18.556068 1.870613 -19.846020
v -18.985794 1.870613 -20.094120
v -18.985794 1.870613 -20.893269
v 25.050837 29.732929 -10.190662
v 25.050837 29.732931 -5.570337
v 27.575716 28.839687 -10.190663
v 27.575716 28.839687 -5.570338
v 29.716204 27.109158 -10.190664
v 29.716204 27.109158 -5.570339
v 31.146433 24.365585 -10.190665
v 31.146433 24.365585 -5.570340
v 31.648676 20.563042 -10.190665
v 31.648676 20.563042 -5.570338
v 18.452997 20.563042 -10.190661
v 18.452997 20.563042 -5.570334
v 18.955225 24.365585 -10.190661
v 18.955225 24.365585 -5.570334
v 20.385462 27.109158 -10.190661
v 20.385462 27.109158 -5.570334
v 22.525949 28.839687 -10.190662
v 22.525949 28.839687 -5.570337
v 31.648676 0.110117 -10.190667
v 31.648676 0.110117 -5.570338
v 18.452997 0.110117 -10.190662
v 18.452997 0.110117 -5.570332
v 25.050837 28.391605 -5.570337
v 27.206400 27.629021 -5.570338
v 29.033808 26.151611 -5.570339
v 30.254831 23.809341 -5.570339
v 30.683603 20.562996 -5.570338
v 19.418062 20.562996 -5.570334
v 19.846834 23.809341 -5.570334
v 21.067865 26.151611 -5.570334
v 22.895266 27.629021 -5.570335
v 30.683603 0.110117 -5.570337
v 19.418062 0.110117 -5.570333
v 25.050837 28.391605 -6.642941
v 27.206400 27.629021 -6.642941
v 29.033808 26.151611 -6.642942
v 30.254831 23.809341 -6.642941
v 30.683603 20.562996 -6.642941
v 19.418062 20.562996 -6.642938
v 19.846834 23.809341 -6.642938
v 21.067865 26.151611 -6.642938
v 22.895266 27.629021 -6.642939
v 30.683603 0.110117 -6.642941
v 19.418062 0.110117 -6.642936
v -0.971563 29.732929 34.474323
v -0.971563 29.732931 29.854000
v -3.496443 28.839687 34.474323
v -3.496443 28.839687 29.854000
v -5.636930 27.109158 34.474323
v -5.636930 27.109158 29.854000
v -7.067160 24.365585 34.474327
v -7.067160 24.365585 29.854000
v -7.569403 20.563042 34.474327
v -7.569403 20.563042 29.853996
v 5.626276 20.563042 34.474327
v 5.626276 20.563042 29.853996
v 5.124048 24.365585 34.474327
v 5.124048 24.365585 29.853996
v 3.693811 27.109158 34.474323
v 3.693811 27.109158 29.853996
v 1.553324 28.839687 34.474323
v 1.553324 28.839687 29.854000
v -7.569403 0.110118 34.474327
v -7.569403 0.110118 29.853996
v 5.626276 0.110118 34.474327
v 5.626276 0.110118 29.853996
v -0.971563 28.391605 29.854000
v -3.127127 27.629021 29.854000
v -4.954535 26.151611 29.854000
v -6.175558 23.809341 29.854000
v -6.604330 20.562996 29.853996
v 4.661211 20.562996 29.853996
v 4.232439 23.809341 29.853996
v 3.011408 26.151611 29.853996
v 1.184008 27.629021 29.853996
v -6.604330 0.110118 29.853996
v 4.661211 0.110118 29.853996
v -0.971563 28.391605 30.926605
v -3.127127 27.629021 30.926605
v -4.954535 26.151611 30.926605
v -6.175558 23.809341 30.926601
v -6.604330 20.562996 30.926601
v 4.661211 20.562996 30.926601
v 4.232439 23.809341 30.926601
v 3.011408 26.151611 30.926601
v 1.184008 27.629021 30.926601
v -6.604330 0.110118 30.926601
v 4.661211 0.110118 30.926598
v -41.850731 -0.346109 22.217613
v -41.850731 30.208641 22.217613
v -41.850731 -0.346109 7.394719
v -41.850731 30.208641 7.394719
v -35.038719 -0.346109 22.217613
v -35.038719 30.208641 22.217613
v -35.038719 -0.346109 7.394719
v -35.038719 30.208641 7.394719
v 6.358662 15.718969 31.728432
v 6.358662 24.354477 31.728432
v 6.358662 15.718969 30.971581
v 6.358662 24.354477 30.971581
v 9.243525 15.718969 31.728432
v 9.243525 24.354477 31.728432
v 9.243525 15.718969 30.971581
v 9.243525 24.354477 30.971581
v 7.801096 26.255621 31.728432
v 7.801096 26.255621 30.971581
v 35.202438 12.183413 -3.123253
v 35.202438 16.530159 -3.123253
v 36.153496 12.183413 -2.432270
v 36.153496 16.530159 -2.432270
v 35.790230 12.183413 -1.314236
v 35.790230 16.530159 -1.314236
v 34.614655 12.183413 -1.314236
v 34.614655 16.530159 -1.314236
v 34.251389 12.183413 -2.432270
v 34.251389 16.530159 -2.432270
v 37.620651 12.183413 0.521965
v 37.620651 15.268071 0.521965
v 37.404976 12.183413 1.677582
v 37.404976 15.268071 1.677582
v 36.239273 12.183413 1.829571
v 36.239273 15.268071 1.829571
v 35.734497 12.183413 0.767887
v 35.734497 15.268071 0.767887
v 36.588242 12.183413 -0.040257
v 36.588242 15.268071 -0.040257
v 35.677887 12.183413 16.999676
v 35.677887 16.530159 16.999676
v 35.562057 12.183413 18.169525
v 35.562057 16.530159 18.169525
v 34.413673 12.183413 18.420868
v 34.413673 16.530159 18.420868
v 33.819756 12.183413 17.406353
v 33.819756 16.530159 17.406353
v 34.601089 12.183413 16.528008
v 34.601089 16.530159 16.528008
v 37.470840 12.183413 14.003633
v 37.470840 15.268071 14.003633
v 37.549225 12.183413 15.176587
v 37.549225 15.268071 15.176587
v 36.457901 12.183413 15.613595
v 36.457901 15.268071 15.613595
v 35.705040 12.183413 14.710732
v 35.705040 15.268071 14.710732
v 36.331078 12.183413 13.715718
v 36.331078 15.268071 13.715718
v -6.707823 11.931614 -27.905075
v -6.707823 18.012093 -27.905075
v -7.184008 11.931614 -29.847557
v -7.184008 18.012093 -29.847557
v -2.552143 11.931614 -28.923805
v -2.552143 18.012093 -28.923805
v -3.028328 11.931614 -30.866291
v -3.028328 18.012093 -30.866291
v 0.928951 31.915073 -29.917065
v 0.928951 37.021736 -29.917065
v 1.698847 31.915073 -31.409920
v 1.698847 37.021736 -31.409920
v 4.122713 31.915073 -28.269974
v 4.122713 37.021736 -28.269974
v 4.892611 31.915073 -29.762833
v 4.892611 37.021736 -29.762833
v -1.176620 31.865221 -28.234501
v -1.176620 35.073013 -28.234501
v -1.579306 31.865221 -29.209743
v -1.579306 35.073013 -29.209743
v 0.909784 31.865221 -29.095993
v 0.909784 35.073013 -29.095993
v 0.507095 31.865221 -30.071239
v 0.507095 35.073013 -30.071239
v 5.411362 -0.164812 -18.345047
v 5.411362 7.664670 -18.345047
v 6.227728 -0.164812 -26.131855
v 6.227728 7.664670 -26.131855
v 13.198168 -0.164812 -17.528679
v 13.198168 7.664670 -17.528679
v 14.014536 -0.164812 -25.315487
v 14.014536 7.664670 -25.315487
v 11.772078 13.216516 -18.639383
v 12.651598 12.137457 -23.574980
v 11.080759 12.137457 -18.870205
v 13.342916 13.216516 -23.344160
v 13.590017 12.137457 -18.032406
v 13.148149 12.691094 -18.179937
v 15.160860 12.137457 -22.737183
v 14.718992 12.691094 -22.884714
v 12.221369 12.393873 -23.718626
v 12.221369 12.853435 -23.718626
v 10.650526 12.393873 -19.013851
v 10.650526 12.853435 -19.013851
v 9.528978 13.216516 -19.388315
v 11.791140 12.137457 -23.862272
v 10.220297 12.137457 -19.157495
v 11.099817 13.216516 -24.093092
v 7.711035 12.137457 -19.995295
v 8.152903 12.691094 -19.847763
v 9.281878 12.137457 -24.700071
v 9.723742 12.691094 -24.552538
v -13.161439 -0.965424 -25.199526
v -13.161439 2.041717 -25.199526
v -14.209608 2.041717 -29.257061
v -9.103901 -0.965424 -26.247696
v -9.103901 2.041717 -26.247696
v -10.152072 -0.965424 -30.305233
v -10.152072 2.041717 -30.305233
v -24.748615 -1.028154 -10.132227
v -24.748615 0.971846 -10.132227
v -28.950050 -1.028154 -26.755909
v -28.950050 0.971846 -26.755909
v -8.124933 -1.028154 -14.333662
v -8.124933 0.971846 -14.333662
v -12.326369 -1.028154 -30.957344
v -12.326369 0.971846 -30.957344
vn -0.0000 -0.4869 -0.8735
vn -0.0000 0.2864 -0.9581
vn 0.6775 0.2864 -0.6775
vn 0.6176 -0.4869 -0.6176
vn 0.9581 0.2864 -0.0000
vn 0.8735 -0.4869 -0.0000
vn 0.6775 0.2864 0.6775
vn 0.6176 -0.4869 0.6176
vn -0.0000 0.2864 0.9581
vn -0.0000 -0.4869 0.8735
vn -0.6775 0.2864 0.6775
vn -0.6176 -0.4869 0.6176
vn -0.9581 0.2864 -0.0000
vn -0.8735 -0.4869 -0.0000
vn 0.5745 0.5829 -0.5745
vn 0.8125 0.5829 -0.0000
vn -0.6775 0.2864 -0.6775
vn -0.6176 -0.4869 -0.6176
vn 0.2957 -0.9084 0.2957
vn 0.4181 -0.9084 -0.0000
vn -0.4181 -0.9084 -0.0000
vn -0.2957 -0.9084 0.2957
vn -0.0000 -0.9084 0.4181
vn -0.2957 -0.9084 -0.2957
vn 0.2957 -0.9084 -0.2957
vn -0.0000 -0.9084 -0.4181
vn 0.2174 -0.9516 -0.2174
vn -0.0000 -0.9516 -0.3075
vn -0.0000 0.5829 0.8125
vn -0.5745 0.5829 0.5745
vn -0.5745 0.5829 -0.5745
vn -0.0000 0.5829 -0.8125
vn 0.5745 0.5829 0.5745
vn -0.8125 0.5829 -0.0000
vn -0.0000 0.8604 0.5096
vn 0.3603 0.8604 0.3603
vn -0.0000 1.0000 -0.0000
vn -0.2174 -0.9516 -0.2174
vn -0.3075 -0.9516 -0.0000
vn -0.2174 -0.9516 0.2174
vn -0.0000 -0.9516 0.3075
vn 0.2174 -0.9516 0.2174
vn 0.3075 -0.9516 -0.0000
vn -0.3603 0.8604 0.3603
vn -0.1704 0.9705 0.1704
vn -0.0000 0.9705 0.2409
vn -0.5096 0.8604 -0.0000
vn -0.2409 0.9705 -0.0000
vn -0.3603 0.8604 -0.3603
vn -0.1704 0.9705 -0.1704
vn -0.0000 0.8604 -0.5096
vn -0.0000 0.9705 -0.2409
vn 0.3603 0.8604 -0.3603
vn 0.1704 0.9705 -0.1704
vn 0.5096 0.8604 -0.0000
vn 0.2409 0.9705 -0.0000
vn 0.1704 0.9705 0.1704
vn -0.6923 0.3403 0.6364
vn -0.6923 -0.6309 -0.3503
vn 0.6923 -0.6309 -0.3503
vn 0.6923 0.3403 0.6364
vn 0.8972 0.3403 0.2813
vn 0.0427 -0.6309 0.7747
vn -0.6495 -0.6309 -0.4243
vn 0.2050 0.3403 -0.9177
vn -0.2050 0.3403 -0.9177
vn 0.6495 -0.6309 -0.4243
vn -0.0427 -0.6309 0.7747
vn -0.8972 0.3403 0.2813
vn 0.9266 -0.0000 0.3761
vn -0.9266 -0.0000 -0.3761
vn -0.0000 -1.0000 -0.0000
vn 0.3510 -0.0000 -0.9364
vn -0.9208 -0.0000 -0.3901
vn 0.9208 -0.0000 0.3901
vn -0.1800 -0.0000 0.9837
vn 0.1800 -0.0000 0.9837
vn -0.8228 -0.0000 0.5683
vn -1.0000 -0.0000 -0.0000
vn 0.1800 -0.0000 -0.9837
vn -0.1800 -0.0000 -0.9837
vn -0.3541 -0.0000 -0.9352
vn 1.0000 -0.0000 -0.0000
vn 0.3541 -0.0000 0.9352
vn 0.3541 -0.0000 -0.9352
vn -0.0000 -0.3162 0.9487
vn -0.0000 -0.3140 0.9494
vn -0.0023 -0.0005 -1.0000
vn -0.0000 -0.0000 1.0000
vn 1.0000 -0.0000 -0.0002
vn 0.0050 -0.0000 1.0000
vn -1.0000 -0.0011 0.0063
vn -0.0050 -0.0000 1.0000
vn -1.0000 -0.0000 -0.0002
vn 0.0023 0.0005 -1.0000
vn 1.0000 0.0011 0.0063
vn 0.1001 -0.0005 -0.9950
vn -0.0977 -0.0000 0.9952
vn 0.9952 -0.0000 0.0977
vn 0.9952 -0.0000 0.0978
vn -0.9952 -0.0000 -0.0979
vn -0.1027 -0.0000 0.9947
vn 0.9946 -0.0011 0.1040
vn -0.0928 -0.0000 0.9957
vn 0.9952 -0.0000 0.0976
vn 0.0954 0.0005 -0.9954
vn -0.9958 0.0011 -0.0915
vn 0.0977 -0.0000 -0.9952
vn 1.0000 -0.0005 0.0023
vn 0.0002 -0.0000 -1.0000
vn -1.0000 -0.0000 -0.0050
vn -0.0063 -0.0011 1.0000
vn -1.0000 -0.0000 0.0050
vn 0.0002 -0.0000 1.0000
vn 1.0000 0.0005 -0.0023
vn -0.0063 0.0011 -1.0000
vn 0.7071 0.7071 -0.0000
vn 0.6609 0.7322 0.1646
vn -0.7071 0.7071 -0.0000
vn -0.6609 0.7322 0.1646
vn -0.6312 0.5239 0.5720
vn 0.6312 0.5239 0.5720
vn -1.0000 -0.0080 -0.0012
vn -0.6479 0.0347 0.7610
vn 0.6478 0.0356 0.7610
vn 1.0000 -0.0064 -0.0009
vn -0.6189 -0.0506 0.7838
vn -0.9712 0.2291 0.0651
vn 0.7279 -0.3655 0.5802
vn 0.9625 -0.2616 -0.0716
vn -0.3272 0.2617 0.9080
vn -0.5913 0.7812 0.2001
vn 0.4827 -0.7543 0.4451
vn 0.5993 -0.7752 -0.1997
vn -0.0278 0.4961 0.8678
vn -0.0898 0.9689 0.2306
vn 0.1189 -0.8608 0.4949
vn 0.1197 -0.9656 -0.2309
vn 0.0340 0.5295 0.8476
vn 0.0093 0.9743 0.2252
vn 0.0213 -0.8484 0.5289
vn -0.0086 -0.9743 -0.2252
vn -0.9774 0.2113 -0.0000
vn -0.0000 -0.0000 -1.0000
vn -0.2069 -0.9784 -0.0000
vn 0.2937 0.9559 -0.0000
vn -0.4040 -0.0000 -0.9148
vn 0.7451 -0.0000 -0.6669
vn 0.8645 -0.0000 0.5026
vn -0.2108 -0.0000 0.9775
vn -0.9948 -0.0000 0.1016
vn -0.9470 -0.0000 -0.3211
vn 0.0127 -0.0000 -0.9999
vn 0.9549 -0.0000 -0.2969
vn 0.5774 -0.0000 0.8164
vn -0.5980 -0.0000 0.8015
vn 0.9169 0.0983 0.3868
vn 0.8893 0.3024 0.3431
vn 0.5326 0.3423 0.7741
vn 0.5426 0.0873 0.8354
vn -0.5326 0.3423 0.7741
vn -0.5426 0.0873 0.8354
vn -0.8893 0.3024 0.3431
vn -0.9169 0.0983 0.3868
vn 0.5761 0.0854 0.8129
vn 0.9510 0.0448 0.3058
vn 0.5986 0.0843 0.7966
vn -0.5761 0.0854 0.8129
vn -0.5986 0.0843 0.7966
vn -0.9510 0.0448 0.3058
vn -0.7117 -0.6235 0.3236
vn -0.4177 -0.6633 0.6209
vn 0.4177 -0.6633 0.6209
vn 0.7117 -0.6235 0.3236
vn -0.0867 0.5385 -0.8382
vn 0.7692 0.5385 -0.3440
vn 0.8660 -0.0000 -0.5000
vn 0.7692 0.5385 0.3440
vn 0.8660 -0.0000 0.5000
vn -0.0867 0.5385 0.8382
vn -0.6825 0.5385 0.4942
vn -0.8660 -0.0000 0.5000
vn -0.6825 0.5385 -0.4942
vn 0.2272 0.8698 0.4380
vn 0.2272 0.8698 -0.4380
vn -0.8660 -0.0000 -0.5000
vn 0.2657 0.8698 -0.4158
vn -0.4929 0.8698 0.0222
vn -0.4929 0.8698 -0.0222
vn 0.2657 0.8698 0.4158
vn 0.2211 0.7788 0.5870
vn 0.2211 0.7788 -0.5870
vn -0.6189 0.7788 -0.1020
vn 0.3978 0.7788 0.4850
vn 0.3978 0.7788 -0.4850
vn -0.6189 0.7788 0.1020
vn -0.8181 0.4494 0.3587
vn 0.0984 0.4494 0.8879
vn 0.0984 0.4494 -0.8879
vn -0.8181 0.4494 -0.3587
vn 0.7197 0.4494 0.5292
vn 0.7197 0.4494 -0.5292
vn 0.4881 0.8728 -0.0000
vn 0.7740 0.6332 -0.0000
vn 0.9536 0.3012 -0.0000
vn 0.9978 0.0656 -0.0000
vn -0.9978 0.0656 -0.0000
vn -0.9536 0.3012 -0.0000
vn -0.7740 0.6332 -0.0000
vn -0.4881 0.8728 -0.0000
vn 0.4881 -0.8728 -0.0000
vn 0.7740 -0.6332 -0.0000
vn -0.7740 -0.6332 -0.0000
vn -0.4881 -0.8728 -0.0000
vn -0.9978 -0.0656 -0.0000
vn -0.9536 -0.3012 -0.0000
vn 0.9536 -0.3012 -0.0000
vn 0.9978 -0.0656 -0.0000
vn -0.9478 0.3189 -0.0000
vn 0.9478 0.3189 -0.0000
vn 0.7967 0.6044 -0.0000
vn -0.7967 0.6044 -0.0000
vn 0.9511 -0.0000 -0.3090
vn 0.5878 -0.0000 0.8090
vn -0.5878 -0.0000 0.8090
vn -0.9511 -0.0000 -0.3090
vn 0.9031 -0.0000 -0.4294
vn 0.6874 -0.0000 0.7262
vn -0.4783 -0.0000 0.8782
vn -0.9830 -0.0000 -0.1835
vn -0.1293 -0.0000 -0.9916
vn 0.8630 -0.0000 -0.5052
vn 0.7472 -0.0000 0.6646
vn -0.4012 -0.0000 0.9160
vn -0.9951 -0.0000 -0.0985
vn -0.2138 -0.0000 -0.9769
vn 0.7680 -0.0000 -0.6404
vn 0.8464 -0.0000 0.5325
vn -0.2449 -0.0000 0.9695
vn -0.9978 -0.0000 0.0667
vn -0.3717 -0.0000 -0.9283
vn -0.9712 -0.0000 0.2381
vn -0.2381 -0.0000 -0.9712
vn 0.9712 -0.0000 -0.2381
vn 0.2381 -0.0000 0.9712
vn -0.8888 -0.0000 -0.4584
vn 0.8888 -0.0000 0.4584
vn -0.4584 -0.0000 0.8888
vn -0.9243 -0.0000 0.3817
vn -0.3817 -0.0000 -0.9243
vn 0.9243 -0.0000 -0.3817
vn 0.3817 -0.0000 0.9243
vn -0.9945 -0.0000 -0.1043
vn 0.9945 -0.0000 0.1043
vn -0.1043 -0.0000 0.9945
vn 0.3167 -0.0000 -0.9485
vn 0.7258 0.6438 0.2423
vn 0.5429 0.8200 0.1813
vn 0.0235 0.9997 0.0078
vn -0.2784 0.9559 -0.0930
vn -0.3167 -0.0000 0.9485
vn -0.7258 0.6438 -0.2423
vn -0.5429 0.8200 -0.1813
vn -0.0235 0.9997 -0.0078
vn 0.2784 0.9559 0.0930
vn 0.9682 -0.0000 -0.2501
vn 0.2501 -0.0000 0.9682
vn -0.9695 -0.0000 0.2450
vn -0.2450 -0.0000 -0.9695
vn 0.9695 -0.0000 -0.2450
vn 0.2450 -0.0000 0.9695
vt 0.289028 0.888026
vt 0.267853 0.862529
vt 0.296378 0.845537
vt 0.307942 0.872147
vt 0.325141 0.837003
vt 0.328466 0.863769
vt 0.352535 0.835585
vt 0.349104 0.861982
vt 0.378758 0.842158
vt 0.369129 0.865832
vt 0.403814 0.853448
vt 0.387986 0.875263
vt 0.426438 0.872337
vt 0.404564 0.890979
vt 0.286795 0.824754
vt 0.321523 0.816776
vt 0.449341 0.896790
vt 0.419324 0.918863
vt 0.272175 0.916417
vt 0.239781 0.888160
vt 0.347748 0.888200
vt 0.335148 0.891384
vt 0.381729 0.905344
vt 0.372103 0.896984
vt 0.359880 0.892549
vt 0.384914 0.918058
vt 0.322428 0.894968
vt 0.313764 0.905186
vt 0.309413 0.918863
vt 0.251223 0.840633
vt 0.239978 0.827055
vt 0.281141 0.807305
vt 0.385277 0.824829
vt 0.415937 0.835637
vt 0.228307 0.869296
vt 0.354485 0.817506
vt 0.441708 0.857064
vt 0.461641 0.879434
vt 0.119204 0.964317
vt 0.114711 0.985460
vt 0.068786 0.973577
vt 0.210847 0.863989
vt 0.422679 0.823801
vt 0.452856 0.846021
vt 0.356161 0.804376
vt 0.389605 0.810255
vt 0.321769 0.801428
vt 0.474019 0.875863
vt 0.110579 0.942539
vt 0.123027 0.934982
vt 0.133269 0.963467
vt 0.092589 0.926680
vt 0.100372 0.914053
vt 0.069072 0.920571
vt 0.070283 0.905604
vt 0.045174 0.925832
vt 0.039297 0.911861
vt 0.026433 0.941522
vt 0.014472 0.932064
vt 0.017896 0.963830
vt 0.002746 0.962458
vt 0.021064 0.985986
vt 0.009103 0.993509
vt 0.126146 0.993509
vt 0.184215 0.760365
vt 0.214765 0.769460
vt 0.208193 0.783641
vt 0.181507 0.766208
vt 0.181507 0.741778
vt 0.208193 0.724345
vt 0.214765 0.738526
vt 0.184215 0.747621
vt 0.217019 0.753993
vt 0.185143 0.753993
vt 0.185167 0.753905
vt 0.217042 0.754027
vt 0.214730 0.769485
vt 0.184214 0.760274
vt 0.208103 0.783641
vt 0.181484 0.766106
vt 0.181577 0.741676
vt 0.208329 0.724345
vt 0.214848 0.738551
vt 0.184263 0.747529
vt 0.185143 0.753993
vt 0.217019 0.753993
vt 0.214765 0.769460
vt 0.184215 0.760365
vt 0.208193 0.783641
vt 0.181507 0.766208
vt 0.181507 0.741778
vt 0.208193 0.724345
vt 0.214765 0.738526
vt 0.184215 0.747621
vt 0.130037 0.613968
vt 0.210782 0.613968
vt 0.210782 0.621703
vt 0.130037 0.621703
vt 0.130037 0.519440
vt 0.210782 0.519440
vt 0.210782 0.527767
vt 0.130037 0.527767
vt 0.137558 0.607103
vt 0.137558 0.535237
vt 0.141035 0.537968
vt 0.141035 0.602450
vt 0.121576 0.613968
vt 0.121576 0.527767
vt 0.219565 0.527767
vt 0.219565 0.613968
vt 0.203778 0.607103
vt 0.203778 0.535237
vt 0.141867 0.604179
vt 0.202287 0.604179
vt 0.199968 0.605905
vt 0.199968 0.539428
vt 0.197645 0.538692
vt 0.140206 0.538692
vt 0.219593 0.689580
vt 0.154585 0.689580
vt 0.154585 0.624573
vt 0.219593 0.624573
vt 0.855532 0.401690
vt 0.504447 0.401690
vt 0.557512 0.261559
vt 0.802467 0.261559
vt 0.340441 0.257985
vt 0.157212 0.257985
vt 0.157212 0.001484
vt 0.340441 0.001484
vt 0.006591 0.260638
vt 0.251545 0.260638
vt 0.251545 0.517139
vt 0.006591 0.517139
vt 0.490283 0.001484
vt 0.490283 0.257985
vt 0.825933 0.001286
vt 0.825933 0.257536
vt 0.643120 0.257536
vt 0.643120 0.001286
vt 0.493120 0.001286
vt 0.493120 0.257536
vt 0.855532 0.584918
vt 0.802467 0.725049
vt 0.557512 0.725049
vt 0.504447 0.584918
vt 0.498639 0.260621
vt 0.498639 0.517122
vt 0.253684 0.517122
vt 0.253684 0.260621
vt 0.007370 0.257985
vt 0.007370 0.001484
vt 0.975933 0.001286
vt 0.975933 0.257536
vt 0.287508 0.957110
vt 0.298860 0.957111
vt 0.298801 0.984614
vt 0.287507 0.984754
vt 0.555413 0.920886
vt 0.544114 0.920861
vt 0.544114 0.858503
vt 0.555551 0.858529
vt 0.298804 0.996051
vt 0.439300 0.984752
vt 0.439356 0.996051
vt 0.450653 0.984754
vt 0.439300 0.957111
vt 0.450653 0.957110
vt 0.456716 0.996423
vt 0.456716 0.946185
vt 0.619862 0.946185
vt 0.619862 0.996423
vt 0.566848 0.858554
vt 0.578145 0.858579
vt 0.578007 0.920936
vt 0.566685 0.932208
vt 0.631159 0.957482
vt 0.631159 0.985126
vt 0.566648 0.931897
vt 0.555351 0.920600
vt 0.555350 0.858243
vt 0.566647 0.858243
vt 0.566943 0.858262
vt 0.578240 0.858262
vt 0.578240 0.920619
vt 0.566943 0.931916
vt 0.468013 0.934888
vt 0.608565 0.934888
vt 0.589650 0.920625
vt 0.578297 0.920625
vt 0.578297 0.858268
vt 0.589650 0.858268
vt 0.589493 0.921076
vt 0.578195 0.921076
vt 0.578195 0.858719
vt 0.589493 0.858719
vt 0.544056 0.920600
vt 0.543997 0.858243
vt 0.589538 0.858262
vt 0.589538 0.920619
vt 0.578168 0.858719
vt 0.589520 0.858719
vt 0.589520 0.921076
vt 0.578168 0.921076
vt 0.544005 0.858304
vt 0.555304 0.858304
vt 0.555442 0.920661
vt 0.544005 0.920661
vt 0.439356 0.945813
vt 0.298804 0.945813
vt 0.589439 0.858604
vt 0.589360 0.920961
vt 0.071402 0.734754
vt 0.025901 0.734754
vt 0.026040 0.723461
vt 0.071400 0.723401
vt 0.064782 0.582906
vt 0.064724 0.520549
vt 0.076161 0.520538
vt 0.076081 0.582895
vt 0.014604 0.723457
vt 0.014604 0.610706
vt 0.025902 0.610762
vt 0.025901 0.599409
vt 0.071402 0.599409
vt 0.071400 0.610762
vt 0.083299 0.751081
vt 0.083299 0.886427
vt 0.015204 0.886427
vt 0.015204 0.751081
vt 0.053427 0.520559
vt 0.053496 0.594214
vt 0.042188 0.582927
vt 0.042130 0.520570
vt 0.072002 0.897724
vt 0.026501 0.897724
vt 0.053787 0.594305
vt 0.053787 0.520651
vt 0.065084 0.520651
vt 0.065084 0.583008
vt 0.053535 0.520591
vt 0.053535 0.594245
vt 0.042238 0.582948
vt 0.042238 0.520591
vt 0.003908 0.875130
vt 0.003908 0.762378
vt 0.064832 0.582948
vt 0.064832 0.520591
vt 0.076185 0.520591
vt 0.076185 0.582948
vt 0.030906 0.582781
vt 0.030906 0.520423
vt 0.042205 0.520423
vt 0.042205 0.582781
vt 0.076437 0.520651
vt 0.076379 0.583008
vt 0.030939 0.582948
vt 0.030939 0.520591
vt 0.042173 0.520495
vt 0.042173 0.582852
vt 0.030820 0.582852
vt 0.030820 0.520495
vt 0.076359 0.520606
vt 0.076359 0.582963
vt 0.064922 0.582963
vt 0.065060 0.520606
vt 0.082699 0.610706
vt 0.082699 0.723457
vt 0.030835 0.582938
vt 0.030835 0.520581
vt 0.026501 0.739784
vt 0.072002 0.739784
vt 0.053470 0.520524
vt 0.053470 0.594149
vt 0.931985 0.698615
vt 0.872452 0.698615
vt 0.872592 0.687322
vt 0.931983 0.687262
vt 0.980948 0.586211
vt 0.980890 0.523854
vt 0.992327 0.523844
vt 0.992247 0.586201
vt 0.861155 0.687319
vt 0.861155 0.574567
vt 0.872453 0.574623
vt 0.872452 0.563270
vt 0.931985 0.563270
vt 0.931983 0.574623
vt 0.958515 0.795745
vt 0.823170 0.795745
vt 0.823170 0.713618
vt 0.958515 0.713618
vt 0.969593 0.523865
vt 0.969662 0.597519
vt 0.958354 0.586233
vt 0.958296 0.523875
vt 0.811873 0.784448
vt 0.811873 0.724915
vt 0.969926 0.597363
vt 0.969926 0.523709
vt 0.981223 0.523709
vt 0.981223 0.586066
vt 0.969866 0.524062
vt 0.969866 0.597716
vt 0.958569 0.586419
vt 0.958569 0.524062
vt 0.834467 0.702321
vt 0.947218 0.702321
vt 0.946923 0.586266
vt 0.946923 0.523908
vt 0.958276 0.523908
vt 0.958276 0.586266
vt 0.981082 0.586106
vt 0.981082 0.523749
vt 0.992381 0.523749
vt 0.992381 0.586107
vt 0.992576 0.523709
vt 0.992517 0.586066
vt 0.947270 0.586419
vt 0.947270 0.524062
vt 0.958424 0.523749
vt 0.958424 0.586107
vt 0.947071 0.586107
vt 0.947071 0.523749
vt 0.992396 0.523824
vt 0.992396 0.586182
vt 0.980959 0.586182
vt 0.981097 0.523824
vt 0.943282 0.574567
vt 0.943282 0.687319
vt 0.947001 0.586243
vt 0.947001 0.523886
vt 0.860323 0.870827
vt 0.860323 0.881946
vt 0.844199 0.881946
vt 0.844199 0.870827
vt 0.902770 0.870827
vt 0.902770 0.881946
vt 0.886647 0.881946
vt 0.886647 0.870827
vt 0.886647 0.898070
vt 0.860323 0.898070
vt 0.792711 0.828766
vt 0.792711 0.835136
vt 0.768809 0.835136
vt 0.768809 0.828766
vt 0.915819 0.828766
vt 0.915819 0.835136
vt 0.891917 0.835136
vt 0.891917 0.828766
vt 0.792711 0.804865
vt 0.891917 0.804865
vt 0.891917 0.859037
vt 0.792711 0.859037
vt 0.731078 0.946283
vt 0.731078 0.997242
vt 0.635820 0.997242
vt 0.635820 0.946283
vt 0.635820 0.906210
vt 0.731078 0.906210
vt 0.635820 0.897779
vt 0.731078 0.897779
vt 0.294382 0.928476
vt 0.294396 0.937872
vt 0.291517 0.937379
vt 0.291392 0.928480
vt 0.290983 0.946984
vt 0.288316 0.945419
vt 0.284326 0.954473
vt 0.281884 0.952203
vt 0.272115 0.947599
vt 0.275278 0.939522
vt 0.278195 0.933264
vt 0.281283 0.925201
vt 0.262309 0.943331
vt 0.264141 0.935361
vt 0.266850 0.928849
vt 0.271207 0.921465
vt 0.254825 0.932330
vt 0.253663 0.942263
vt 0.258058 0.923877
vt 0.261516 0.915471
vt 0.243873 0.930341
vt 0.243366 0.941435
vt 0.244748 0.919929
vt 0.245796 0.911019
vt 0.231782 0.931242
vt 0.232412 0.941325
vt 0.230454 0.921512
vt 0.229644 0.911376
vt 0.131361 0.944540
vt 0.132670 0.954473
vt 0.130069 0.934858
vt 0.128736 0.924925
vt 0.531681 0.884641
vt 0.531681 0.922905
vt 0.488131 0.922905
vt 0.488131 0.884641
vt 0.481021 0.922298
vt 0.481159 0.884672
vt 0.538652 0.884672
vt 0.538790 0.922298
vt 0.488131 0.877669
vt 0.531681 0.877669
vt 0.488131 0.930041
vt 0.531681 0.930041
vt 0.552756 0.848680
vt 0.511880 0.848680
vt 0.511880 0.832674
vt 0.552756 0.832674
vt 0.511880 0.816668
vt 0.552756 0.816668
vt 0.511880 0.800662
vt 0.552756 0.800662
vt 0.513450 0.855228
vt 0.507220 0.869971
vt 0.491272 0.868601
vt 0.487647 0.853011
vt 0.501354 0.844746
vt 0.511880 0.784657
vt 0.552756 0.784657
vt 0.511880 0.768651
vt 0.552756 0.768651
vt 0.465585 0.847920
vt 0.485521 0.847920
vt 0.485521 0.859264
vt 0.465585 0.859264
vt 0.465585 0.802543
vt 0.485521 0.802543
vt 0.485521 0.813887
vt 0.465585 0.813887
vt 0.485521 0.825231
vt 0.465585 0.825231
vt 0.454316 0.820877
vt 0.443527 0.824382
vt 0.436859 0.815204
vt 0.443527 0.806027
vt 0.454316 0.809532
vt 0.485521 0.836575
vt 0.465585 0.836576
vt 0.356920 0.524876
vt 0.498862 0.524876
vt 0.498862 0.798705
vt 0.356920 0.798705
vt 0.980429 0.633834
vt 0.976028 0.648080
vt 0.968064 0.646825
vt 0.969413 0.633000
vt 0.963215 0.646727
vt 0.961643 0.633252
vt 0.955269 0.648020
vt 0.950662 0.634104
vt 0.973316 0.668408
vt 0.967336 0.667694
vt 0.963614 0.667665
vt 0.957654 0.668284
vt 0.951368 0.620714
vt 0.961231 0.620857
vt 0.969893 0.620983
vt 0.979561 0.620714
vt 0.957017 0.618658
vt 0.961188 0.609954
vt 0.969530 0.609954
vt 0.973701 0.618658
vt 0.995490 0.703880
vt 0.991417 0.717825
vt 0.983472 0.716799
vt 0.984618 0.703210
vt 0.978614 0.717107
vt 0.976839 0.703420
vt 0.970663 0.718629
vt 0.965721 0.704432
vt 0.989709 0.738184
vt 0.983724 0.737764
vt 0.980001 0.737912
vt 0.974056 0.738827
vt 0.966413 0.690905
vt 0.976376 0.691033
vt 0.985040 0.691192
vt 0.994602 0.690905
vt 0.973317 0.688363
vt 0.977488 0.679659
vt 0.985830 0.679659
vt 0.990001 0.688363
vt 0.995458 0.774173
vt 0.991385 0.788118
vt 0.983441 0.787092
vt 0.984586 0.773503
vt 0.978582 0.787400
vt 0.976807 0.773713
vt 0.970631 0.788923
vt 0.965689 0.774726
vt 0.989677 0.808477
vt 0.983692 0.808057
vt 0.979969 0.808205
vt 0.974025 0.809120
vt 0.966381 0.761198
vt 0.976344 0.761326
vt 0.985009 0.761485
vt 0.994571 0.761198
vt 0.972360 0.757787
vt 0.976531 0.749083
vt 0.984873 0.749083
vt 0.989044 0.757787
vt 0.196070 0.704732
vt 0.189726 0.708672
vt 0.177549 0.702107
vt 0.177408 0.694395
vt 0.164552 0.709277
vt 0.157925 0.705071
vt 0.164678 0.723169
vt 0.157925 0.727057
vt 0.177393 0.729188
vt 0.177528 0.736971
vt 0.189934 0.721564
vt 0.182739 0.724735
vt 0.183343 0.724490
vt 0.196423 0.725555
vt 0.165510 0.716734
vt 0.165584 0.717311
vt 0.186792 0.707971
vt 0.185934 0.707331
vt 0.177233 0.704044
vt 0.166244 0.710294
vt 0.166108 0.722212
vt 0.177313 0.727318
vt 0.188387 0.720840
vt 0.188339 0.709080
vt 0.187049 0.708494
vt 0.186053 0.707754
vt 0.165880 0.716735
vt 0.165756 0.717302
vt 0.182635 0.724583
vt 0.183136 0.724167
vt 0.943951 0.448591
vt 0.971106 0.443385
vt 0.967242 0.428692
vt 0.941180 0.432447
vt 0.964950 0.414070
vt 0.939442 0.415938
vt 0.964189 0.397449
vt 0.938839 0.397823
vt 0.965162 0.376634
vt 0.939372 0.375759
vt 0.939617 0.377035
vt 0.965276 0.377904
vt 0.964604 0.398777
vt 0.939124 0.398929
vt 0.965376 0.415007
vt 0.939803 0.417150
vt 0.967034 0.429417
vt 0.941790 0.433318
vt 0.970381 0.444149
vt 0.944282 0.448447
vt 0.971402 0.412681
vt 0.973723 0.426562
vt 0.972701 0.265532
vt 0.946953 0.263694
vt 0.946591 0.263838
vt 0.972163 0.265413
vt 0.969755 0.395919
vt 0.970304 0.377268
vt 0.977762 0.438694
vt 0.973915 0.425608
vt 0.970088 0.397256
vt 0.971032 0.411602
vt 0.970474 0.378501
vt 0.977373 0.265731
vt 0.977847 0.265886
vt 0.977178 0.439740
vt 0.977336 0.411908
vt 0.979894 0.425142
vt 0.980029 0.424212
vt 0.977366 0.410671
vt 0.975813 0.395634
vt 0.976099 0.377507
vt 0.983281 0.438151
vt 0.983566 0.437027
vt 0.976469 0.378735
vt 0.976183 0.397110
vt 0.983281 0.266088
vt 0.983566 0.266274
vt 0.864276 0.379411
vt 0.864276 0.265699
vt 0.926910 0.265699
vt 0.926910 0.379411
vt 0.924526 0.397460
vt 0.917737 0.410483
vt 0.907577 0.418696
vt 0.895593 0.422936
vt 0.883609 0.418696
vt 0.873449 0.410482
vt 0.866660 0.397460
vt 0.943774 0.448477
vt 0.970651 0.443601
vt 0.966916 0.428712
vt 0.941171 0.432476
vt 0.965035 0.413963
vt 0.939346 0.416146
vt 0.964215 0.397482
vt 0.938766 0.397895
vt 0.965160 0.376713
vt 0.939342 0.375812
vt 0.939668 0.376947
vt 0.965337 0.377764
vt 0.964667 0.398678
vt 0.939226 0.398847
vt 0.965401 0.414948
vt 0.939946 0.417023
vt 0.967169 0.429323
vt 0.941898 0.433079
vt 0.970741 0.443731
vt 0.944554 0.448651
vt 0.971392 0.412629
vt 0.973822 0.426425
vt 0.972781 0.265677
vt 0.947046 0.263808
vt 0.946453 0.263634
vt 0.972050 0.265166
vt 0.969754 0.395955
vt 0.970296 0.377348
vt 0.977454 0.439030
vt 0.973721 0.425680
vt 0.970173 0.397148
vt 0.971113 0.411544
vt 0.970544 0.378352
vt 0.977266 0.265475
vt 0.977924 0.266035
vt 0.977281 0.439303
vt 0.977483 0.411929
vt 0.979764 0.425130
vt 0.980019 0.424147
vt 0.977286 0.410590
vt 0.975773 0.395675
vt 0.976081 0.377592
vt 0.983179 0.437701
vt 0.983639 0.437331
vt 0.976551 0.378573
vt 0.976304 0.396995
vt 0.983179 0.265823
vt 0.983639 0.266427
vt 0.088334 0.738604
vt 0.088334 0.624892
vt 0.150967 0.624892
vt 0.150967 0.738604
vt 0.148583 0.756653
vt 0.141794 0.769675
vt 0.131635 0.777889
vt 0.119650 0.782129
vt 0.107666 0.777889
vt 0.097506 0.769675
vt 0.090718 0.756653
vt 0.763297 0.889756
vt 0.593421 0.889756
vt 0.593421 0.851883
vt 0.763297 0.851884
vt 0.593421 0.769472
vt 0.763297 0.769472
vt 0.593421 0.731600
vt 0.763297 0.731600
vt 0.555549 0.851883
vt 0.555549 0.769472
vt 0.003468 0.583137
vt 0.003468 0.535126
vt 0.007676 0.535126
vt 0.007676 0.583137
vt 0.027293 0.521242
vt 0.027293 0.569253
vt 0.011253 0.569253
vt 0.011253 0.521242
vt 0.007676 0.599175
vt 0.007676 0.647186
vt 0.003468 0.647186
vt 0.003468 0.599175
vt 0.019273 0.579823
vt 0.007676 0.660454
vt 0.003468 0.660454
vt 0.003468 0.521858
vt 0.007676 0.521858
vt 0.450220 0.903733
vt 0.450220 0.927900
vt 0.443684 0.927900
vt 0.443684 0.903733
vt 0.476364 0.903733
vt 0.476364 0.927900
vt 0.469828 0.927900
vt 0.469828 0.903733
vt 0.463292 0.927900
vt 0.463292 0.903733
vt 0.460024 0.937957
vt 0.454736 0.934116
vt 0.456756 0.927900
vt 0.465311 0.934116
vt 0.456756 0.903733
vt 0.450224 0.910753
vt 0.450224 0.927903
vt 0.443688 0.927903
vt 0.443688 0.910753
vt 0.476367 0.910753
vt 0.476367 0.927903
vt 0.469831 0.927903
vt 0.469831 0.910753
vt 0.463295 0.927903
vt 0.463295 0.910753
vt 0.460027 0.937960
vt 0.454740 0.934119
vt 0.456760 0.927903
vt 0.465315 0.934119
vt 0.456760 0.910753
vt 0.450210 0.903740
vt 0.450210 0.927906
vt 0.443675 0.927906
vt 0.443675 0.903740
vt 0.476354 0.903740
vt 0.476354 0.927906
vt 0.469818 0.927906
vt 0.469818 0.903740
vt 0.463282 0.927906
vt 0.463282 0.903740
vt 0.460014 0.937964
vt 0.454727 0.934122
vt 0.456746 0.927906
vt 0.465302 0.934122
vt 0.456746 0.903740
vt 0.450224 0.927903
vt 0.443688 0.927903
vt 0.443688 0.910753
vt 0.476367 0.910753
vt 0.476367 0.927903
vt 0.469831 0.927903
vt 0.469831 0.910753
vt 0.463295 0.927903
vt 0.460028 0.937960
vt 0.456760 0.927903
vt 0.465315 0.934119
vt 0.456760 0.910753
vt 0.947648 0.881386
vt 0.947648 0.847580
vt 0.958767 0.847580
vt 0.958767 0.881386
vt 0.947648 0.802655
vt 0.947648 0.836461
vt 0.923859 0.836461
vt 0.923859 0.802655
vt 0.912740 0.881386
vt 0.912740 0.847580
vt 0.923859 0.847580
vt 0.923859 0.881386
vt 0.967809 0.889938
vt 0.967809 0.918330
vt 0.958471 0.918330
vt 0.958471 0.889938
vt 0.997127 0.889938
vt 0.997127 0.918330
vt 0.987788 0.918330
vt 0.987788 0.889938
vt 0.987788 0.927668
vt 0.967809 0.927668
vt 0.969060 0.820673
vt 0.969060 0.838508
vt 0.963194 0.838508
vt 0.963194 0.820673
vt 0.969060 0.862208
vt 0.969060 0.844374
vt 0.981610 0.844374
vt 0.981610 0.862208
vt 0.987476 0.820673
vt 0.987476 0.838508
vt 0.981610 0.838508
vt 0.981610 0.820673
vt 0.894965 0.514410
vt 0.938495 0.514410
vt 0.938495 0.557939
vt 0.894965 0.557939
vt 0.894965 0.427350
vt 0.938495 0.427350
vt 0.938495 0.470880
vt 0.894965 0.470880
vt 0.982025 0.470880
vt 0.982025 0.514410
vt 0.250513 0.958922
vt 0.250513 0.961477
vt 0.243940 0.963496
vt 0.247992 0.957497
vt 0.235874 0.960575
vt 0.233284 0.957497
vt 0.274902 0.995258
vt 0.270879 0.995258
vt 0.270879 0.967682
vt 0.274902 0.967682
vt 0.262301 0.995258
vt 0.262301 0.967682
vt 0.255424 0.995258
vt 0.255424 0.967682
vt 0.253006 0.957472
vt 0.257058 0.963471
vt 0.250485 0.961452
vt 0.250485 0.958897
vt 0.267714 0.957472
vt 0.265124 0.960550
vt 0.253035 0.957497
vt 0.257087 0.963496
vt 0.267743 0.957497
vt 0.265153 0.960575
vt 0.235400 0.995253
vt 0.235400 0.967676
vt 0.239423 0.967676
vt 0.239423 0.995253
vt 0.248002 0.967676
vt 0.248002 0.995253
vt 0.254878 0.967676
vt 0.254878 0.995253
vt 0.247963 0.957472
vt 0.243911 0.963471
vt 0.233255 0.957472
vt 0.235845 0.960550
vt 0.374615 0.940994
vt 0.357896 0.940994
vt 0.357896 0.917695
vt 0.374615 0.917695
vt 0.357896 0.900976
vt 0.334596 0.917695
vt 0.334596 0.900976
vt 0.334596 0.940994
vt 0.089516 0.799773
vt 0.100635 0.799773
vt 0.100635 0.895102
vt 0.089516 0.895102
vt 0.100635 0.906221
vt 0.195964 0.895102
vt 0.195964 0.906221
vt 0.207083 0.895102
vt 0.195964 0.799773
vt 0.207083 0.799773
vt 0.195964 0.788653
vt 0.100635 0.788653
vt 0.222973 0.524876
vt 0.222973 0.798705
s 1
f 1/1/1 2/2/2 4/3/3 3/4/4
f 3/4/4 4/3/3 6/5/5 5/6/6
f 5/6/6 6/5/5 8/7/7 7/8/8
f 7/8/8 8/7/7 10/9/9 9/10/10
f 9/10/10 10/9/9 12/11/11 11/12/12
f 11/12/12 12/11/11 14/13/13 13/14/14
f 6/5/5 4/3/3 26/15/15 27/16/16
f 13/14/14 14/13/13 16/17/17 15/18/18
f 15/19/18 16/20/17 2/2/2 1/1/1
f 5/6/6 7/8/8 20/21/19 19/22/20
f 11/12/12 13/14/14 23/23/21 22/24/22
f 7/8/8 9/10/10 21/25/23 20/21/19
f 13/14/14 15/18/18 24/26/24 23/23/21
f 3/4/4 5/6/6 19/22/20 18/27/25
f 9/10/10 11/12/12 22/24/22 21/25/23
f 15/19/18 1/1/1 17/28/26 24/29/24
f 1/1/1 3/4/4 18/27/25 17/28/26
f 26/15/27 25/30/28 42/31/28 41/32/27
f 12/11/11 10/9/9 29/33/29 30/34/30
f 2/2/2 16/20/17 32/35/31 25/30/32
f 4/3/3 2/2/2 25/30/32 26/15/15
f 8/7/7 6/5/5 27/16/16 28/36/33
f 14/13/13 12/11/11 30/34/30 31/37/34
f 10/9/9 8/7/7 28/36/33 29/33/29
f 16/17/17 14/13/13 31/37/34 32/38/31
f 33/39/35 40/40/36 49/41/37
f 25/30/28 32/35/38 48/42/38 42/31/28
f 31/37/39 30/34/40 46/43/40 47/44/39
f 29/33/41 28/36/42 44/45/42 45/46/41
f 27/16/43 26/15/27 41/32/27 43/47/43
f 32/38/38 31/37/39 47/44/39 48/48/38
f 30/34/40 29/33/41 45/46/41 46/43/40
f 28/36/42 27/16/43 43/47/43 44/45/42
f 33/39/35 34/49/44 41/50/45 42/51/46
f 34/49/44 35/52/47 43/53/48 41/50/45
f 35/52/47 36/54/49 44/55/50 43/53/48
f 36/54/49 37/56/51 45/57/52 44/55/50
f 37/56/51 38/58/53 46/59/54 45/57/52
f 38/58/53 39/60/55 47/61/56 46/59/54
f 39/60/55 40/62/36 48/63/57 47/61/56
f 40/40/36 33/39/35 42/51/46 48/64/57
f 39/60/55 38/58/53 49/41/37
f 37/56/51 36/54/49 49/41/37
f 35/52/47 34/49/44 49/41/37
f 40/62/36 39/60/55 49/41/37
f 38/58/53 37/56/51 49/41/37
f 36/54/49 35/52/47 49/41/37
f 34/49/44 33/39/35 49/41/37
f 50/65/58 51/66/58 53/67/59 52/68/59
f 52/69/59 53/70/59 57/71/60 56/72/60
f 56/72/60 57/71/60 55/73/61 54/74/61
f 54/74/61 55/73/61 51/66/58 50/65/58
f 58/75/62 59/76/62 61/77/63 60/78/63
f 60/78/63 61/77/63 65/79/64 64/80/64
f 64/81/64 65/82/64 63/83/65 62/84/65
f 62/84/65 63/83/65 59/76/62 58/75/62
f 66/85/66 67/86/66 69/87/67 68/88/67
f 68/88/67 69/87/67 73/89/68 72/90/68
f 72/91/68 73/92/68 71/93/69 70/94/69
f 70/94/69 71/93/69 67/86/66 66/85/66
f 82/95/70 83/96/70 77/97/70 76/98/70
f 80/99/71 81/100/71 84/101/71 85/102/71
f 74/103/37 78/104/37 89/105/37 86/106/37
f 76/107/72 80/108/72 85/102/72 82/95/72
f 81/109/37 77/110/37 83/96/37 84/101/37
f 74/103/73 75/111/73 83/96/73 82/95/73
f 79/112/73 78/104/73 85/102/73 84/101/73
f 78/104/73 74/103/73 82/95/73 85/102/73
f 75/111/73 79/112/73 84/101/73 83/96/73
f 75/111/74 74/103/74 86/113/74 87/114/74
f 79/112/72 75/111/72 87/115/72 88/116/72
f 78/104/75 79/112/75 88/117/75 89/118/75
f 88/119/73 87/120/73 86/121/73 89/122/73
f 90/123/37 91/124/37 92/125/37 93/126/37
f 94/127/76 102/128/77 98/129/77 90/130/76
f 93/131/78 92/132/79 96/133/79 97/134/78
f 90/130/76 93/135/78 97/136/78 94/127/76
f 99/137/80 103/138/80 95/139/81 91/140/81
f 92/141/82 91/140/81 95/139/81 96/142/82
f 98/143/37 101/144/37 100/145/37 99/146/37
f 101/147/83 105/148/83 104/149/83 100/150/83
f 98/129/77 102/128/77 105/151/84 101/152/84
f 100/153/85 104/154/85 103/138/80 99/137/80
f 98/143/37 99/146/37 91/124/37 90/123/37
f 114/155/86 136/156/72 133/157/72 115/158/87
f 127/159/88 136/160/88 129/161/88 128/162/88
f 118/163/72 133/157/72 134/164/72 119/165/72
f 122/166/72 134/164/72 135/167/72 123/168/72
f 112/169/37 111/170/37 107/171/37 109/172/37
f 106/173/89 113/174/89 114/175/86 107/176/89
f 107/171/89 114/177/86 115/178/87 109/172/89
f 109/179/89 115/180/87 116/181/89 108/182/89
f 110/183/79 125/184/79 126/185/79 111/186/79
f 111/170/79 126/187/79 127/188/79 107/171/79
f 107/176/79 127/159/79 128/162/79 106/173/79
f 123/189/90 135/190/90 132/191/90 124/192/90
f 119/193/91 134/194/91 130/195/91 120/196/91
f 115/180/92 133/197/92 131/198/92 116/181/92
f 125/184/93 132/199/93 135/200/93 126/185/93
f 121/201/94 130/202/94 134/203/94 122/204/94
f 117/205/95 131/206/95 133/207/95 118/208/95
f 126/209/72 135/167/72 136/156/72 127/210/72
f 113/174/96 129/211/96 136/212/96 114/175/96
f 135/167/72 134/164/72 133/157/72 136/156/72
f 145/213/72 146/214/72 164/215/72 167/216/72
f 158/217/97 159/218/97 160/219/97 167/220/97
f 149/221/72 150/222/72 165/223/72 164/215/72
f 153/224/72 154/225/72 166/226/72 165/223/72
f 143/227/37 140/228/37 138/229/37 142/230/37
f 137/231/98 138/232/98 145/233/98 144/234/98
f 138/229/98 140/228/98 146/235/98 145/236/98
f 140/237/98 139/238/98 147/239/98 146/240/98
f 141/241/99 142/242/99 157/243/99 156/244/99
f 142/230/99 138/229/99 158/245/99 157/246/99
f 138/232/99 137/231/100 159/218/100 158/217/99
f 154/247/101 155/248/101 163/249/101 166/250/101
f 150/251/102 151/252/102 161/253/102 165/254/102
f 146/240/103 147/239/103 162/255/103 164/256/103
f 156/244/104 157/243/104 166/257/104 163/258/104
f 152/259/105 153/260/105 165/261/105 161/262/105
f 148/263/106 149/264/106 164/265/106 162/266/106
f 157/267/72 158/268/72 167/216/72 166/226/72
f 144/234/107 145/233/107 167/269/107 160/270/107
f 166/226/72 167/216/72 164/215/72 165/223/72
f 142/230/108 154/271/108 153/272/108 143/227/108
f 141/241/108 155/248/108 154/247/108 142/242/108
f 152/259/108 168/273/108 143/274/108 153/260/108
f 177/275/72 178/276/72 196/277/72 199/278/72
f 190/279/109 191/280/109 192/281/109 199/282/109
f 181/283/72 182/284/72 197/285/72 196/277/72
f 185/286/72 186/287/72 198/288/72 197/285/72
f 175/289/37 172/290/37 170/291/37 174/292/37
f 169/293/79 170/294/79 177/295/79 176/296/79
f 170/291/79 172/290/79 178/297/79 177/298/79
f 172/299/79 171/300/79 179/301/79 178/302/79
f 173/303/89 174/304/89 189/305/89 188/306/89
f 174/292/89 170/291/89 190/307/89 189/308/89
f 170/294/89 169/293/89 191/280/89 190/279/89
f 186/309/110 187/310/110 195/311/110 198/312/110
f 182/313/111 183/314/111 193/315/111 197/316/111
f 178/302/112 179/301/112 194/317/112 196/318/112
f 188/306/113 189/305/113 198/319/113 195/320/113
f 184/321/114 185/322/114 197/323/114 193/324/114
f 180/325/115 181/326/115 196/327/115 194/328/115
f 189/329/72 190/330/72 199/278/72 198/288/72
f 176/296/116 177/295/116 199/331/116 192/332/116
f 198/288/72 199/278/72 196/277/72 197/285/72
f 200/333/79 201/334/79 203/335/79 202/336/79
f 206/337/83 207/338/83 205/339/83 204/340/83
f 204/340/89 205/339/89 201/334/89 200/333/89
f 207/341/37 203/342/37 201/334/37 205/339/37
f 208/343/79 209/344/79 211/345/79 210/346/79
f 214/347/83 215/348/83 213/349/83 212/350/83
f 212/350/89 213/349/89 209/344/89 208/343/89
f 210/351/72 214/352/72 212/350/72 208/343/72
f 215/353/37 211/354/37 209/344/37 213/349/37
f 216/355/37 217/356/37 219/357/37 218/358/37
f 216/355/79 218/358/79 221/359/79 220/360/79
f 220/360/79 221/359/79 223/361/79 222/362/79
f 229/363/83 230/364/117 226/365/118 225/366/83
f 230/364/117 231/367/119 227/368/120 226/365/118
f 231/367/119 228/369/79 224/370/79 227/368/120
f 227/368/120 224/370/79 233/371/79 234/372/121
f 226/365/118 227/368/120 234/372/121 235/373/122
f 225/366/83 226/365/118 235/373/122 232/374/83
f 237/375/123 238/376/124 234/372/121 233/371/79
f 238/376/124 239/377/125 235/373/122 234/372/121
f 239/377/125 236/378/126 232/374/83 235/373/122
f 242/379/127 238/376/124 237/375/123 241/380/128
f 243/381/129 239/377/125 238/376/124 242/379/127
f 240/382/130 236/378/126 239/377/125 243/381/129
f 246/383/131 242/379/127 241/380/128 245/384/132
f 247/385/133 243/381/129 242/379/127 246/383/131
f 244/386/134 240/382/130 243/381/129 247/385/133
f 250/387/135 246/383/131 245/384/132 249/388/136
f 251/389/137 247/385/133 246/383/131 250/387/135
f 248/390/138 244/386/134 247/385/133 251/389/137
f 254/391/139 250/387/135 249/388/136 253/392/140
f 255/393/141 251/389/137 250/387/135 254/391/139
f 252/394/142 248/390/138 251/389/137 255/393/141
f 256/395/143 257/396/143 259/397/143 258/398/143
f 258/398/144 259/397/144 263/399/144 262/400/144
f 260/401/89 261/402/89 257/396/89 256/395/89
f 258/398/145 262/403/145 260/404/145 256/395/145
f 263/405/146 259/397/146 257/396/146 261/406/146
f 264/407/147 265/408/147 267/409/148 266/410/148
f 266/410/148 267/409/148 269/411/149 268/412/149
f 268/412/149 269/411/149 271/413/150 270/414/150
f 267/415/37 265/416/37 273/417/37 271/418/37 269/419/37
f 270/414/150 271/413/150 273/420/151 272/421/151
f 272/421/151 273/420/151 265/422/147 264/423/147
f 274/424/152 275/425/152 277/426/153 276/427/153
f 276/428/153 277/429/153 279/430/154 278/431/154
f 278/431/154 279/430/154 281/432/155 280/433/155
f 277/434/37 275/435/37 283/436/37 281/437/37 279/438/37
f 280/433/155 281/432/155 283/439/156 282/440/156
f 282/440/156 283/439/156 275/425/152 274/424/152
f 286/441/89 289/442/89 288/443/89 287/444/89
f 290/445/157 291/446/158 293/447/159 292/448/160
f 292/448/160 293/447/159 295/449/161 294/450/162
f 294/450/162 295/449/161 297/451/163 296/452/164
f 293/447/165 291/446/166 301/453/166 300/454/167
f 295/449/168 293/447/165 300/454/167 299/455/169
f 297/451/170 295/449/168 299/455/169 298/456/170
f 294/450/162 296/452/164 305/457/171 304/458/172
f 292/448/160 294/450/162 304/458/172 303/459/173
f 290/445/157 292/448/160 303/459/173 302/460/174
f 302/461/174 303/462/173 304/463/172 305/464/171
f 306/465/157 307/466/158 309/467/159 308/468/160
f 308/468/160 309/467/159 311/469/161 310/470/162
f 310/470/162 311/469/161 313/471/163 312/472/164
f 309/467/165 307/466/166 317/473/166 316/474/167
f 311/469/168 309/467/165 316/474/167 315/475/169
f 313/471/170 311/469/168 315/475/169 314/476/170
f 310/470/162 312/472/164 321/477/171 320/478/172
f 308/468/160 310/470/162 320/478/172 319/479/173
f 306/465/157 308/468/160 319/479/173 318/480/174
f 318/481/174 319/482/173 320/483/172 321/484/171
f 322/485/157 323/486/158 325/487/159 324/488/160
f 324/488/160 325/487/159 327/489/161 326/490/162
f 326/490/162 327/489/161 329/491/163 328/492/164
f 325/487/165 323/486/166 333/493/166 332/494/167
f 327/489/168 325/487/165 332/494/167 331/495/169
f 329/491/170 327/489/168 331/495/169 330/496/170
f 326/490/162 328/492/164 337/497/171 336/498/172
f 324/488/160 326/490/162 336/498/172 335/499/173
f 322/485/157 324/488/160 335/499/173 334/500/174
f 334/501/174 335/502/173 336/503/172 337/504/171
f 338/505/144 339/506/175 341/507/176 340/508/177
f 340/508/177 341/507/176 343/509/178 342/510/179
f 342/510/179 343/509/178 345/511/180 344/512/89
f 344/512/89 345/511/180 347/513/181 346/514/182
f 349/515/183 347/513/181 354/516/184 355/517/185
f 346/514/182 347/513/181 349/515/183 348/518/186
f 348/518/186 349/515/183 339/506/175 338/505/144
f 345/511/180 343/509/178 352/519/187 353/520/188
f 341/507/176 339/506/175 350/521/189 351/522/190
f 343/509/178 341/507/176 357/523/191 358/524/192
f 347/513/181 345/511/180 359/525/193 360/526/194
f 339/506/175 349/515/183 361/527/195 356/528/196
f 351/522/190 350/521/189 362/529/197 363/530/198
f 353/520/188 352/519/187 364/531/199 365/532/200
f 355/517/185 354/516/184 366/533/201 367/534/202
f 349/515/183 355/517/185 367/534/202 361/527/195
f 354/516/184 347/513/181 360/526/194 366/533/201
f 345/511/180 353/520/188 365/532/200 359/525/193
f 352/519/187 343/509/178 358/524/192 364/531/199
f 341/507/176 351/522/190 363/530/198 357/523/191
f 350/521/189 339/506/175 356/528/196 362/529/197
f 358/524/72 359/525/72 361/527/72 356/528/72
f 359/525/72 360/526/72 361/527/72
f 358/524/72 356/528/72 357/523/72
f 368/535/37 369/536/37 371/537/203 370/538/203
f 370/538/203 371/537/203 373/539/204 372/540/204
f 372/540/204 373/539/204 375/541/205 374/542/205
f 374/542/205 375/541/205 377/543/206 376/544/206
f 378/545/207 379/546/207 381/547/208 380/548/208
f 380/548/208 381/547/208 383/549/209 382/550/209
f 382/550/209 383/549/209 385/551/210 384/552/210
f 384/552/210 385/551/210 369/553/37 368/554/37
f 385/551/89 383/549/89 397/555/89 398/556/89
f 376/544/206 377/543/206 387/557/83 386/558/83
f 379/546/207 378/545/207 388/559/79 389/560/79
f 377/543/89 375/541/89 393/561/89 394/562/89
f 371/537/89 369/536/89 390/563/89 391/564/89
f 383/549/89 381/547/89 396/565/89 397/555/89
f 375/541/89 373/539/89 392/566/89 393/561/89
f 381/547/89 379/546/89 395/567/89 396/565/89
f 373/539/89 371/537/89 391/564/89 392/566/89
f 379/546/89 389/560/89 400/568/89 395/567/89
f 387/557/89 377/543/89 394/562/89 399/569/89
f 369/553/89 385/551/89 398/556/89 390/570/89
f 398/556/211 397/555/212 408/571/212 409/572/211
f 392/566/213 391/564/214 402/573/214 403/574/213
f 394/562/215 393/561/216 404/575/216 405/576/215
f 390/570/72 398/556/211 409/572/211 401/577/72
f 391/564/214 390/563/72 401/578/72 402/573/214
f 396/565/217 395/567/218 406/579/218 407/580/217
f 395/567/218 400/568/83 411/581/83 406/579/218
f 397/555/212 396/565/217 407/580/217 408/571/212
f 393/561/216 392/566/213 403/574/213 404/575/216
f 399/569/79 394/562/215 405/576/215 410/582/79
f 406/583/89 411/584/89 410/585/89 405/586/89 404/587/89 403/588/89 402/589/89 401/590/89 409/591/89 408/592/89 407/593/89
f 412/594/37 413/595/37 415/596/210 414/597/210
f 414/597/210 415/596/210 417/598/209 416/599/209
f 416/599/209 417/598/209 419/600/208 418/601/208
f 418/601/208 419/600/208 421/602/207 420/603/207
f 422/604/206 423/605/206 425/606/205 424/607/205
f 424/607/205 425/606/205 427/608/204 426/609/204
f 426/609/204 427/608/204 429/610/203 428/611/203
f 428/611/203 429/610/203 413/612/37 412/613/37
f 429/610/144 427/608/144 441/614/144 442/615/144
f 420/603/207 421/602/207 431/616/79 430/617/79
f 423/605/206 422/604/206 432/618/83 433/619/83
f 421/602/144 419/600/144 437/620/144 438/621/144
f 415/596/144 413/595/144 434/622/144 435/623/144
f 427/608/144 425/606/144 440/624/144 441/614/144
f 419/600/144 417/598/144 436/625/144 437/620/144
f 425/606/144 423/605/144 439/626/144 440/624/144
f 417/598/144 415/596/144 435/623/144 436/625/144
f 423/605/144 433/619/144 444/627/144 439/626/144
f 431/616/144 421/602/144 438/621/144 443/628/144
f 413/612/144 429/610/144 442/615/144 434/629/144
f 442/615/214 441/614/213 452/630/213 453/631/214
f 436/625/212 435/623/211 446/632/211 447/633/212
f 438/621/218 437/620/217 448/634/217 449/635/218
f 434/629/72 442/615/214 453/631/214 445/636/72
f 435/623/211 434/622/72 445/637/72 446/632/211
f 440/624/216 439/626/215 450/638/215 451/639/216
f 439/626/215 444/627/79 455/640/79 450/638/215
f 441/614/213 440/624/216 451/639/216 452/630/213
f 437/620/217 436/625/212 447/633/212 448/634/217
f 443/628/83 438/621/218 449/635/218 454/641/83
f 450/642/144 455/643/144 454/644/144 449/645/144 448/646/144 447/647/144 446/648/144 445/649/144 453/650/144 452/651/144 451/652/144
f 458/653/144 459/654/144 463/655/144 462/656/144
f 462/656/83 463/655/83 461/657/83 460/658/83
f 460/658/89 461/657/89 457/659/89 456/660/89
f 463/655/37 459/661/37 457/662/37 461/657/37
f 464/663/79 465/664/219 467/665/219 466/666/79
f 466/667/144 467/668/144 471/669/144 470/670/144
f 470/671/83 471/672/220 469/673/220 468/674/83
f 466/666/72 470/671/72 468/674/72 464/663/72
f 471/669/144 467/668/144 473/675/144
f 469/673/220 471/672/220 473/676/221 472/677/221
f 467/665/219 465/664/219 472/678/222 473/679/222
f 474/680/144 475/681/144 477/682/223 476/683/223
f 476/684/223 477/685/223 479/686/224 478/687/224
f 478/687/224 479/686/224 481/688/225 480/689/225
f 477/690/37 475/691/37 483/692/37 481/688/37 479/693/37
f 480/689/225 481/688/225 483/692/226 482/694/226
f 482/694/226 483/692/226 475/681/144 474/680/144
f 484/695/227 485/696/227 487/697/228 486/698/228
f 486/699/228 487/700/228 489/701/229 488/702/229
f 488/702/229 489/701/229 491/703/230 490/704/230
f 487/705/37 485/706/37 493/707/37 491/703/37 489/708/37
f 490/704/230 491/703/230 493/707/231 492/709/231
f 492/709/231 493/707/231 485/696/227 484/695/227
f 494/710/232 495/711/232 497/712/233 496/713/233
f 496/714/233 497/715/233 499/716/234 498/717/234
f 498/717/234 499/716/234 501/718/235 500/719/235
f 497/720/37 495/721/37 503/722/37 501/718/37 499/723/37
f 500/719/235 501/718/235 503/722/236 502/724/236
f 502/724/236 503/722/236 495/711/232 494/710/232
f 504/695/237 505/725/237 507/726/238 506/727/238
f 506/728/238 507/729/238 509/730/239 508/731/239
f 508/731/239 509/730/239 511/732/240 510/704/240
f 507/733/37 505/706/37 513/734/37 511/732/37 509/735/37
f 510/704/240 511/732/240 513/734/241 512/736/241
f 512/736/241 513/734/241 505/725/237 504/695/237
f 514/737/242 515/738/242 517/739/242 516/740/242
f 516/741/243 517/742/243 521/743/243 520/744/243
f 520/745/244 521/746/244 519/747/244 518/748/244
f 518/748/245 519/747/245 515/738/245 514/737/245
f 521/743/37 517/742/37 515/738/37 519/747/37
f 522/749/246 523/750/246 525/751/246 524/752/246
f 528/753/247 529/754/247 527/755/247 526/756/247
f 526/756/248 527/755/248 523/750/248 522/749/248
f 529/757/37 525/758/37 523/750/37 527/755/37
f 530/759/249 531/760/249 533/761/249 532/762/249
f 532/763/250 533/764/250 537/765/250 536/766/250
f 536/767/251 537/768/251 535/769/251 534/770/251
f 534/770/252 535/769/252 531/760/252 530/759/252
f 537/765/37 533/764/37 531/760/37 535/769/37
f 538/771/253 539/772/253 541/773/253 540/774/253
f 544/775/254 545/776/254 543/777/254 542/778/254
f 542/778/255 543/777/255 539/772/255 538/771/255
f 545/779/37 541/780/37 539/772/37 543/777/37
f 554/781/256 555/782/256 549/783/256 547/784/256
f 547/784/256 549/783/256 553/785/256 552/786/256
f 552/787/257 553/788/258 551/789/258 550/790/257
f 553/788/258 549/791/259 546/792/259 551/789/258
f 549/791/259 555/793/260 557/794/260 546/792/259
f 548/795/261 546/796/261 557/797/261 556/798/261
f 550/799/261 551/800/261 546/796/261 548/795/261
f 554/781/256 559/801/256 561/802/256 555/782/256
f 559/801/256 564/803/256 565/804/256 561/802/256
f 564/805/262 562/806/262 563/807/263 565/808/263
f 565/808/263 563/807/263 558/809/264 561/810/264
f 561/810/264 558/809/264 557/811/265 555/812/265
f 560/813/261 556/798/261 557/797/261 558/814/261
f 562/815/261 560/813/261 558/814/261 563/816/261
f 571/817/266 572/818/266 570/819/266 569/820/266
f 569/821/267 570/819/267 567/822/267 566/823/267
f 572/818/37 568/824/37 567/822/37 570/819/37
f 573/825/268 574/826/268 576/827/268 575/828/268
f 575/829/269 576/827/269 580/830/269 579/831/269
f 579/832/270 580/830/270 578/833/270 577/834/270
f 577/835/271 578/833/271 574/826/271 573/836/271
f 580/830/37 576/827/37 574/826/37 578/833/37
f 284/837/79 286/441/79 287/444/79 285/838/79
